%TF.GenerationSoftware,Altium Limited,Altium Designer,20.1.8 (145)*%
G04 Layer_Color=8421504*
%FSLAX44Y44*%
%MOMM*%
%TF.SameCoordinates,743C107F-9E53-4DF5-BF78-65164CE4EDE1*%
%TF.FilePolarity,Positive*%
%TF.FileFunction,Paste,Top*%
%TF.Part,Single*%
G01*
G75*
%TA.AperFunction,SMDPad,CuDef*%
G04:AMPARAMS|DCode=13|XSize=0.85mm|YSize=0.7mm|CornerRadius=0.0035mm|HoleSize=0mm|Usage=FLASHONLY|Rotation=0.000|XOffset=0mm|YOffset=0mm|HoleType=Round|Shape=RoundedRectangle|*
%AMROUNDEDRECTD13*
21,1,0.8500,0.6930,0,0,0.0*
21,1,0.8430,0.7000,0,0,0.0*
1,1,0.0070,0.4215,-0.3465*
1,1,0.0070,-0.4215,-0.3465*
1,1,0.0070,-0.4215,0.3465*
1,1,0.0070,0.4215,0.3465*
%
%ADD13ROUNDEDRECTD13*%
G04:AMPARAMS|DCode=14|XSize=0.85mm|YSize=0.7mm|CornerRadius=0.0035mm|HoleSize=0mm|Usage=FLASHONLY|Rotation=354.000|XOffset=0mm|YOffset=0mm|HoleType=Round|Shape=RoundedRectangle|*
%AMROUNDEDRECTD14*
21,1,0.8500,0.6930,0,0,354.0*
21,1,0.8430,0.7000,0,0,354.0*
1,1,0.0070,0.3830,-0.3887*
1,1,0.0070,-0.4554,-0.3005*
1,1,0.0070,-0.3830,0.3887*
1,1,0.0070,0.4554,0.3005*
%
%ADD14ROUNDEDRECTD14*%
G04:AMPARAMS|DCode=15|XSize=0.85mm|YSize=0.7mm|CornerRadius=0.0035mm|HoleSize=0mm|Usage=FLASHONLY|Rotation=348.000|XOffset=0mm|YOffset=0mm|HoleType=Round|Shape=RoundedRectangle|*
%AMROUNDEDRECTD15*
21,1,0.8500,0.6930,0,0,348.0*
21,1,0.8430,0.7000,0,0,348.0*
1,1,0.0070,0.3403,-0.4266*
1,1,0.0070,-0.4843,-0.2513*
1,1,0.0070,-0.3403,0.4266*
1,1,0.0070,0.4843,0.2513*
%
%ADD15ROUNDEDRECTD15*%
G04:AMPARAMS|DCode=16|XSize=0.85mm|YSize=0.7mm|CornerRadius=0.0035mm|HoleSize=0mm|Usage=FLASHONLY|Rotation=342.000|XOffset=0mm|YOffset=0mm|HoleType=Round|Shape=RoundedRectangle|*
%AMROUNDEDRECTD16*
21,1,0.8500,0.6930,0,0,342.0*
21,1,0.8430,0.7000,0,0,342.0*
1,1,0.0070,0.2938,-0.4598*
1,1,0.0070,-0.5080,-0.1993*
1,1,0.0070,-0.2938,0.4598*
1,1,0.0070,0.5080,0.1993*
%
%ADD16ROUNDEDRECTD16*%
G04:AMPARAMS|DCode=17|XSize=0.85mm|YSize=0.7mm|CornerRadius=0.0035mm|HoleSize=0mm|Usage=FLASHONLY|Rotation=336.000|XOffset=0mm|YOffset=0mm|HoleType=Round|Shape=RoundedRectangle|*
%AMROUNDEDRECTD17*
21,1,0.8500,0.6930,0,0,336.0*
21,1,0.8430,0.7000,0,0,336.0*
1,1,0.0070,0.2441,-0.4880*
1,1,0.0070,-0.5260,-0.1451*
1,1,0.0070,-0.2441,0.4880*
1,1,0.0070,0.5260,0.1451*
%
%ADD17ROUNDEDRECTD17*%
G04:AMPARAMS|DCode=18|XSize=0.85mm|YSize=0.7mm|CornerRadius=0.0035mm|HoleSize=0mm|Usage=FLASHONLY|Rotation=330.000|XOffset=0mm|YOffset=0mm|HoleType=Round|Shape=RoundedRectangle|*
%AMROUNDEDRECTD18*
21,1,0.8500,0.6930,0,0,330.0*
21,1,0.8430,0.7000,0,0,330.0*
1,1,0.0070,0.1918,-0.5108*
1,1,0.0070,-0.5383,-0.0893*
1,1,0.0070,-0.1918,0.5108*
1,1,0.0070,0.5383,0.0893*
%
%ADD18ROUNDEDRECTD18*%
G04:AMPARAMS|DCode=19|XSize=0.85mm|YSize=0.7mm|CornerRadius=0.0035mm|HoleSize=0mm|Usage=FLASHONLY|Rotation=329.996|XOffset=0mm|YOffset=0mm|HoleType=Round|Shape=RoundedRectangle|*
%AMROUNDEDRECTD19*
21,1,0.8500,0.6930,0,0,330.0*
21,1,0.8430,0.7000,0,0,330.0*
1,1,0.0070,0.1918,-0.5108*
1,1,0.0070,-0.5383,-0.0893*
1,1,0.0070,-0.1918,0.5108*
1,1,0.0070,0.5383,0.0893*
%
%ADD19ROUNDEDRECTD19*%
G04:AMPARAMS|DCode=20|XSize=0.85mm|YSize=0.7mm|CornerRadius=0.0035mm|HoleSize=0mm|Usage=FLASHONLY|Rotation=324.000|XOffset=0mm|YOffset=0mm|HoleType=Round|Shape=RoundedRectangle|*
%AMROUNDEDRECTD20*
21,1,0.8500,0.6930,0,0,324.0*
21,1,0.8430,0.7000,0,0,324.0*
1,1,0.0070,0.1373,-0.5281*
1,1,0.0070,-0.5447,-0.0326*
1,1,0.0070,-0.1373,0.5281*
1,1,0.0070,0.5447,0.0326*
%
%ADD20ROUNDEDRECTD20*%
G04:AMPARAMS|DCode=21|XSize=0.85mm|YSize=0.7mm|CornerRadius=0.0035mm|HoleSize=0mm|Usage=FLASHONLY|Rotation=318.000|XOffset=0mm|YOffset=0mm|HoleType=Round|Shape=RoundedRectangle|*
%AMROUNDEDRECTD21*
21,1,0.8500,0.6930,0,0,318.0*
21,1,0.8430,0.7000,0,0,318.0*
1,1,0.0070,0.0814,-0.5395*
1,1,0.0070,-0.5451,0.0245*
1,1,0.0070,-0.0814,0.5395*
1,1,0.0070,0.5451,-0.0245*
%
%ADD21ROUNDEDRECTD21*%
G04:AMPARAMS|DCode=22|XSize=0.85mm|YSize=0.7mm|CornerRadius=0.0035mm|HoleSize=0mm|Usage=FLASHONLY|Rotation=312.000|XOffset=0mm|YOffset=0mm|HoleType=Round|Shape=RoundedRectangle|*
%AMROUNDEDRECTD22*
21,1,0.8500,0.6930,0,0,312.0*
21,1,0.8430,0.7000,0,0,312.0*
1,1,0.0070,0.0245,-0.5451*
1,1,0.0070,-0.5395,0.0814*
1,1,0.0070,-0.0245,0.5451*
1,1,0.0070,0.5395,-0.0814*
%
%ADD22ROUNDEDRECTD22*%
G04:AMPARAMS|DCode=23|XSize=0.85mm|YSize=0.7mm|CornerRadius=0.0035mm|HoleSize=0mm|Usage=FLASHONLY|Rotation=306.000|XOffset=0mm|YOffset=0mm|HoleType=Round|Shape=RoundedRectangle|*
%AMROUNDEDRECTD23*
21,1,0.8500,0.6930,0,0,306.0*
21,1,0.8430,0.7000,0,0,306.0*
1,1,0.0070,-0.0326,-0.5447*
1,1,0.0070,-0.5281,0.1373*
1,1,0.0070,0.0326,0.5447*
1,1,0.0070,0.5281,-0.1373*
%
%ADD23ROUNDEDRECTD23*%
G04:AMPARAMS|DCode=24|XSize=0.85mm|YSize=0.7mm|CornerRadius=0.0035mm|HoleSize=0mm|Usage=FLASHONLY|Rotation=300.000|XOffset=0mm|YOffset=0mm|HoleType=Round|Shape=RoundedRectangle|*
%AMROUNDEDRECTD24*
21,1,0.8500,0.6930,0,0,300.0*
21,1,0.8430,0.7000,0,0,300.0*
1,1,0.0070,-0.0893,-0.5383*
1,1,0.0070,-0.5108,0.1918*
1,1,0.0070,0.0893,0.5383*
1,1,0.0070,0.5108,-0.1918*
%
%ADD24ROUNDEDRECTD24*%
G04:AMPARAMS|DCode=25|XSize=0.85mm|YSize=0.7mm|CornerRadius=0.0035mm|HoleSize=0mm|Usage=FLASHONLY|Rotation=294.000|XOffset=0mm|YOffset=0mm|HoleType=Round|Shape=RoundedRectangle|*
%AMROUNDEDRECTD25*
21,1,0.8500,0.6930,0,0,294.0*
21,1,0.8430,0.7000,0,0,294.0*
1,1,0.0070,-0.1451,-0.5260*
1,1,0.0070,-0.4880,0.2441*
1,1,0.0070,0.1451,0.5260*
1,1,0.0070,0.4880,-0.2441*
%
%ADD25ROUNDEDRECTD25*%
G04:AMPARAMS|DCode=26|XSize=0.85mm|YSize=0.7mm|CornerRadius=0.0035mm|HoleSize=0mm|Usage=FLASHONLY|Rotation=288.000|XOffset=0mm|YOffset=0mm|HoleType=Round|Shape=RoundedRectangle|*
%AMROUNDEDRECTD26*
21,1,0.8500,0.6930,0,0,288.0*
21,1,0.8430,0.7000,0,0,288.0*
1,1,0.0070,-0.1993,-0.5080*
1,1,0.0070,-0.4598,0.2938*
1,1,0.0070,0.1993,0.5080*
1,1,0.0070,0.4598,-0.2938*
%
%ADD26ROUNDEDRECTD26*%
G04:AMPARAMS|DCode=27|XSize=0.85mm|YSize=0.7mm|CornerRadius=0.0035mm|HoleSize=0mm|Usage=FLASHONLY|Rotation=282.000|XOffset=0mm|YOffset=0mm|HoleType=Round|Shape=RoundedRectangle|*
%AMROUNDEDRECTD27*
21,1,0.8500,0.6930,0,0,282.0*
21,1,0.8430,0.7000,0,0,282.0*
1,1,0.0070,-0.2513,-0.4843*
1,1,0.0070,-0.4266,0.3403*
1,1,0.0070,0.2513,0.4843*
1,1,0.0070,0.4266,-0.3403*
%
%ADD27ROUNDEDRECTD27*%
G04:AMPARAMS|DCode=28|XSize=0.85mm|YSize=0.7mm|CornerRadius=0.0035mm|HoleSize=0mm|Usage=FLASHONLY|Rotation=276.000|XOffset=0mm|YOffset=0mm|HoleType=Round|Shape=RoundedRectangle|*
%AMROUNDEDRECTD28*
21,1,0.8500,0.6930,0,0,276.0*
21,1,0.8430,0.7000,0,0,276.0*
1,1,0.0070,-0.3005,-0.4554*
1,1,0.0070,-0.3887,0.3830*
1,1,0.0070,0.3005,0.4554*
1,1,0.0070,0.3887,-0.3830*
%
%ADD28ROUNDEDRECTD28*%
G04:AMPARAMS|DCode=29|XSize=0.85mm|YSize=0.7mm|CornerRadius=0.0035mm|HoleSize=0mm|Usage=FLASHONLY|Rotation=270.000|XOffset=0mm|YOffset=0mm|HoleType=Round|Shape=RoundedRectangle|*
%AMROUNDEDRECTD29*
21,1,0.8500,0.6930,0,0,270.0*
21,1,0.8430,0.7000,0,0,270.0*
1,1,0.0070,-0.3465,-0.4215*
1,1,0.0070,-0.3465,0.4215*
1,1,0.0070,0.3465,0.4215*
1,1,0.0070,0.3465,-0.4215*
%
%ADD29ROUNDEDRECTD29*%
G04:AMPARAMS|DCode=30|XSize=0.85mm|YSize=0.7mm|CornerRadius=0.0035mm|HoleSize=0mm|Usage=FLASHONLY|Rotation=264.000|XOffset=0mm|YOffset=0mm|HoleType=Round|Shape=RoundedRectangle|*
%AMROUNDEDRECTD30*
21,1,0.8500,0.6930,0,0,264.0*
21,1,0.8430,0.7000,0,0,264.0*
1,1,0.0070,-0.3887,-0.3830*
1,1,0.0070,-0.3005,0.4554*
1,1,0.0070,0.3887,0.3830*
1,1,0.0070,0.3005,-0.4554*
%
%ADD30ROUNDEDRECTD30*%
G04:AMPARAMS|DCode=31|XSize=0.85mm|YSize=0.7mm|CornerRadius=0.0035mm|HoleSize=0mm|Usage=FLASHONLY|Rotation=258.000|XOffset=0mm|YOffset=0mm|HoleType=Round|Shape=RoundedRectangle|*
%AMROUNDEDRECTD31*
21,1,0.8500,0.6930,0,0,258.0*
21,1,0.8430,0.7000,0,0,258.0*
1,1,0.0070,-0.4266,-0.3403*
1,1,0.0070,-0.2513,0.4843*
1,1,0.0070,0.4266,0.3403*
1,1,0.0070,0.2513,-0.4843*
%
%ADD31ROUNDEDRECTD31*%
G04:AMPARAMS|DCode=32|XSize=0.85mm|YSize=0.7mm|CornerRadius=0.0035mm|HoleSize=0mm|Usage=FLASHONLY|Rotation=252.000|XOffset=0mm|YOffset=0mm|HoleType=Round|Shape=RoundedRectangle|*
%AMROUNDEDRECTD32*
21,1,0.8500,0.6930,0,0,252.0*
21,1,0.8430,0.7000,0,0,252.0*
1,1,0.0070,-0.4598,-0.2938*
1,1,0.0070,-0.1993,0.5080*
1,1,0.0070,0.4598,0.2938*
1,1,0.0070,0.1993,-0.5080*
%
%ADD32ROUNDEDRECTD32*%
G04:AMPARAMS|DCode=33|XSize=0.85mm|YSize=0.7mm|CornerRadius=0.0035mm|HoleSize=0mm|Usage=FLASHONLY|Rotation=245.984|XOffset=0mm|YOffset=0mm|HoleType=Round|Shape=RoundedRectangle|*
%AMROUNDEDRECTD33*
21,1,0.8500,0.6930,0,0,246.0*
21,1,0.8430,0.7000,0,0,246.0*
1,1,0.0070,-0.4880,-0.2440*
1,1,0.0070,-0.1450,0.5260*
1,1,0.0070,0.4880,0.2440*
1,1,0.0070,0.1450,-0.5260*
%
%ADD33ROUNDEDRECTD33*%
G04:AMPARAMS|DCode=34|XSize=0.85mm|YSize=0.7mm|CornerRadius=0.0035mm|HoleSize=0mm|Usage=FLASHONLY|Rotation=240.000|XOffset=0mm|YOffset=0mm|HoleType=Round|Shape=RoundedRectangle|*
%AMROUNDEDRECTD34*
21,1,0.8500,0.6930,0,0,240.0*
21,1,0.8430,0.7000,0,0,240.0*
1,1,0.0070,-0.5108,-0.1918*
1,1,0.0070,-0.0893,0.5383*
1,1,0.0070,0.5108,0.1918*
1,1,0.0070,0.0893,-0.5383*
%
%ADD34ROUNDEDRECTD34*%
G04:AMPARAMS|DCode=35|XSize=0.85mm|YSize=0.7mm|CornerRadius=0.0035mm|HoleSize=0mm|Usage=FLASHONLY|Rotation=240.000|XOffset=0mm|YOffset=0mm|HoleType=Round|Shape=RoundedRectangle|*
%AMROUNDEDRECTD35*
21,1,0.8500,0.6930,0,0,240.0*
21,1,0.8430,0.7000,0,0,240.0*
1,1,0.0070,-0.5108,-0.1918*
1,1,0.0070,-0.0893,0.5383*
1,1,0.0070,0.5108,0.1918*
1,1,0.0070,0.0893,-0.5383*
%
%ADD35ROUNDEDRECTD35*%
G04:AMPARAMS|DCode=36|XSize=0.85mm|YSize=0.7mm|CornerRadius=0.0035mm|HoleSize=0mm|Usage=FLASHONLY|Rotation=234.000|XOffset=0mm|YOffset=0mm|HoleType=Round|Shape=RoundedRectangle|*
%AMROUNDEDRECTD36*
21,1,0.8500,0.6930,0,0,234.0*
21,1,0.8430,0.7000,0,0,234.0*
1,1,0.0070,-0.5281,-0.1373*
1,1,0.0070,-0.0326,0.5447*
1,1,0.0070,0.5281,0.1373*
1,1,0.0070,0.0326,-0.5447*
%
%ADD36ROUNDEDRECTD36*%
G04:AMPARAMS|DCode=37|XSize=0.85mm|YSize=0.7mm|CornerRadius=0.0035mm|HoleSize=0mm|Usage=FLASHONLY|Rotation=228.000|XOffset=0mm|YOffset=0mm|HoleType=Round|Shape=RoundedRectangle|*
%AMROUNDEDRECTD37*
21,1,0.8500,0.6930,0,0,228.0*
21,1,0.8430,0.7000,0,0,228.0*
1,1,0.0070,-0.5395,-0.0814*
1,1,0.0070,0.0245,0.5451*
1,1,0.0070,0.5395,0.0814*
1,1,0.0070,-0.0245,-0.5451*
%
%ADD37ROUNDEDRECTD37*%
G04:AMPARAMS|DCode=38|XSize=0.85mm|YSize=0.7mm|CornerRadius=0.0035mm|HoleSize=0mm|Usage=FLASHONLY|Rotation=222.000|XOffset=0mm|YOffset=0mm|HoleType=Round|Shape=RoundedRectangle|*
%AMROUNDEDRECTD38*
21,1,0.8500,0.6930,0,0,222.0*
21,1,0.8430,0.7000,0,0,222.0*
1,1,0.0070,-0.5451,-0.0245*
1,1,0.0070,0.0814,0.5395*
1,1,0.0070,0.5451,0.0245*
1,1,0.0070,-0.0814,-0.5395*
%
%ADD38ROUNDEDRECTD38*%
G04:AMPARAMS|DCode=39|XSize=0.85mm|YSize=0.7mm|CornerRadius=0.0035mm|HoleSize=0mm|Usage=FLASHONLY|Rotation=216.000|XOffset=0mm|YOffset=0mm|HoleType=Round|Shape=RoundedRectangle|*
%AMROUNDEDRECTD39*
21,1,0.8500,0.6930,0,0,216.0*
21,1,0.8430,0.7000,0,0,216.0*
1,1,0.0070,-0.5447,0.0326*
1,1,0.0070,0.1373,0.5281*
1,1,0.0070,0.5447,-0.0326*
1,1,0.0070,-0.1373,-0.5281*
%
%ADD39ROUNDEDRECTD39*%
G04:AMPARAMS|DCode=40|XSize=0.85mm|YSize=0.7mm|CornerRadius=0.0035mm|HoleSize=0mm|Usage=FLASHONLY|Rotation=210.000|XOffset=0mm|YOffset=0mm|HoleType=Round|Shape=RoundedRectangle|*
%AMROUNDEDRECTD40*
21,1,0.8500,0.6930,0,0,210.0*
21,1,0.8430,0.7000,0,0,210.0*
1,1,0.0070,-0.5383,0.0893*
1,1,0.0070,0.1918,0.5108*
1,1,0.0070,0.5383,-0.0893*
1,1,0.0070,-0.1918,-0.5108*
%
%ADD40ROUNDEDRECTD40*%
G04:AMPARAMS|DCode=41|XSize=0.85mm|YSize=0.7mm|CornerRadius=0.0035mm|HoleSize=0mm|Usage=FLASHONLY|Rotation=204.000|XOffset=0mm|YOffset=0mm|HoleType=Round|Shape=RoundedRectangle|*
%AMROUNDEDRECTD41*
21,1,0.8500,0.6930,0,0,204.0*
21,1,0.8430,0.7000,0,0,204.0*
1,1,0.0070,-0.5260,0.1451*
1,1,0.0070,0.2441,0.4880*
1,1,0.0070,0.5260,-0.1451*
1,1,0.0070,-0.2441,-0.4880*
%
%ADD41ROUNDEDRECTD41*%
G04:AMPARAMS|DCode=42|XSize=0.85mm|YSize=0.7mm|CornerRadius=0.0035mm|HoleSize=0mm|Usage=FLASHONLY|Rotation=198.000|XOffset=0mm|YOffset=0mm|HoleType=Round|Shape=RoundedRectangle|*
%AMROUNDEDRECTD42*
21,1,0.8500,0.6930,0,0,198.0*
21,1,0.8430,0.7000,0,0,198.0*
1,1,0.0070,-0.5080,0.1993*
1,1,0.0070,0.2938,0.4598*
1,1,0.0070,0.5080,-0.1993*
1,1,0.0070,-0.2938,-0.4598*
%
%ADD42ROUNDEDRECTD42*%
G04:AMPARAMS|DCode=43|XSize=0.85mm|YSize=0.7mm|CornerRadius=0.0035mm|HoleSize=0mm|Usage=FLASHONLY|Rotation=191.972|XOffset=0mm|YOffset=0mm|HoleType=Round|Shape=RoundedRectangle|*
%AMROUNDEDRECTD43*
21,1,0.8500,0.6930,0,0,192.0*
21,1,0.8430,0.7000,0,0,192.0*
1,1,0.0070,-0.4842,0.2515*
1,1,0.0070,0.3404,0.4264*
1,1,0.0070,0.4842,-0.2515*
1,1,0.0070,-0.3404,-0.4264*
%
%ADD43ROUNDEDRECTD43*%
G04:AMPARAMS|DCode=44|XSize=0.85mm|YSize=0.7mm|CornerRadius=0.0035mm|HoleSize=0mm|Usage=FLASHONLY|Rotation=186.000|XOffset=0mm|YOffset=0mm|HoleType=Round|Shape=RoundedRectangle|*
%AMROUNDEDRECTD44*
21,1,0.8500,0.6930,0,0,186.0*
21,1,0.8430,0.7000,0,0,186.0*
1,1,0.0070,-0.4554,0.3005*
1,1,0.0070,0.3830,0.3887*
1,1,0.0070,0.4554,-0.3005*
1,1,0.0070,-0.3830,-0.3887*
%
%ADD44ROUNDEDRECTD44*%
G04:AMPARAMS|DCode=45|XSize=0.8mm|YSize=0.8mm|CornerRadius=0.004mm|HoleSize=0mm|Usage=FLASHONLY|Rotation=270.000|XOffset=0mm|YOffset=0mm|HoleType=Round|Shape=RoundedRectangle|*
%AMROUNDEDRECTD45*
21,1,0.8000,0.7920,0,0,270.0*
21,1,0.7920,0.8000,0,0,270.0*
1,1,0.0080,-0.3960,-0.3960*
1,1,0.0080,-0.3960,0.3960*
1,1,0.0080,0.3960,0.3960*
1,1,0.0080,0.3960,-0.3960*
%
%ADD45ROUNDEDRECTD45*%
D13*
X0Y270000D02*
D03*
Y256000D02*
D03*
Y231000D02*
D03*
Y245000D02*
D03*
Y-245000D02*
D03*
Y-231000D02*
D03*
Y-256000D02*
D03*
Y-270000D02*
D03*
X-1524Y52720D02*
D03*
Y38720D02*
D03*
X1524Y66040D02*
D03*
Y80040D02*
D03*
D14*
X28223Y268521D02*
D03*
X26759Y254597D02*
D03*
X-28223Y-268521D02*
D03*
X-26759Y-254598D02*
D03*
D15*
X53225Y250406D02*
D03*
X56136Y264100D02*
D03*
X-53225Y-250406D02*
D03*
X-56136Y-264100D02*
D03*
D16*
X83435Y256785D02*
D03*
X79108Y243470D02*
D03*
X-83435Y-256785D02*
D03*
X-79108Y-243470D02*
D03*
D17*
X104125Y233868D02*
D03*
X109819Y246657D02*
D03*
X-104125Y-233868D02*
D03*
X-109819Y-246657D02*
D03*
D18*
X135000Y233827D02*
D03*
X128000Y221702D02*
D03*
X-122500Y-212176D02*
D03*
X-115500Y-200052D02*
D03*
X-128000Y-221702D02*
D03*
X-135000Y-233827D02*
D03*
D19*
X115513Y200045D02*
D03*
X122513Y212169D02*
D03*
D20*
X158702Y218435D02*
D03*
X150473Y207108D02*
D03*
X-158702Y-218435D02*
D03*
X-150473Y-207108D02*
D03*
D21*
X171297Y190245D02*
D03*
X180665Y200649D02*
D03*
X-171297Y-190245D02*
D03*
X-180665Y-200649D02*
D03*
D22*
X200649Y180665D02*
D03*
X190245Y171297D02*
D03*
X-200649Y-180665D02*
D03*
X-190245Y-171297D02*
D03*
D23*
X207108Y150473D02*
D03*
X218435Y158702D02*
D03*
X-207108Y-150473D02*
D03*
X-218435Y-158702D02*
D03*
D24*
X233827Y135000D02*
D03*
X221702Y128000D02*
D03*
X200052Y115500D02*
D03*
X212176Y122500D02*
D03*
X-212176Y-122500D02*
D03*
X-200052Y-115500D02*
D03*
X-221702Y-128000D02*
D03*
X-233827Y-135000D02*
D03*
D25*
X246657Y109819D02*
D03*
X233868Y104125D02*
D03*
X-246657Y-109819D02*
D03*
X-233868Y-104125D02*
D03*
D26*
X243470Y79108D02*
D03*
X256785Y83435D02*
D03*
X-243470Y-79108D02*
D03*
X-256785Y-83435D02*
D03*
D27*
X264100Y56136D02*
D03*
X250406Y53225D02*
D03*
X-264100Y-56136D02*
D03*
X-250406Y-53225D02*
D03*
D28*
X254598Y26759D02*
D03*
X268521Y28223D02*
D03*
X-254598Y-26759D02*
D03*
X-268521Y-28223D02*
D03*
D29*
X245000Y0D02*
D03*
X231000D02*
D03*
X256000D02*
D03*
X270000D02*
D03*
X-245000D02*
D03*
X-231000D02*
D03*
X-256000D02*
D03*
X-270000D02*
D03*
D30*
X268521Y-28223D02*
D03*
X254598Y-26759D02*
D03*
X-268521Y28223D02*
D03*
X-254598Y26759D02*
D03*
D31*
X250406Y-53225D02*
D03*
X264100Y-56136D02*
D03*
X-250406Y53225D02*
D03*
X-264100Y56136D02*
D03*
D32*
X256785Y-83435D02*
D03*
X243470Y-79108D02*
D03*
X-256787Y83429D02*
D03*
X-243470Y79108D02*
D03*
D33*
X233868Y-104124D02*
D03*
X246656Y-109822D02*
D03*
X-233868Y104125D02*
D03*
X-246657Y109819D02*
D03*
D34*
X212176Y-122500D02*
D03*
X200052Y-115500D02*
D03*
X-212176Y122500D02*
D03*
X-200052Y115500D02*
D03*
X-221702Y128000D02*
D03*
X-233827Y135000D02*
D03*
D35*
X221702Y-128000D02*
D03*
X233827Y-135000D02*
D03*
D36*
X218435Y-158702D02*
D03*
X207108Y-150473D02*
D03*
X-218435Y158702D02*
D03*
X-207108Y150473D02*
D03*
D37*
X190245Y-171297D02*
D03*
X200649Y-180665D02*
D03*
X-190245Y171297D02*
D03*
X-200649Y180665D02*
D03*
D38*
X180665Y-200649D02*
D03*
X171297Y-190245D02*
D03*
X-180665Y200649D02*
D03*
X-171297Y190245D02*
D03*
D39*
X150473Y-207108D02*
D03*
X158702Y-218435D02*
D03*
X-150473Y207108D02*
D03*
X-158702Y218435D02*
D03*
D40*
X122500Y-212176D02*
D03*
X115500Y-200052D02*
D03*
X128000Y-221702D02*
D03*
X135000Y-233827D02*
D03*
X-135000Y233827D02*
D03*
X-128000Y221702D02*
D03*
X-115500Y200052D02*
D03*
X-122500Y212176D02*
D03*
D41*
X109819Y-246657D02*
D03*
X104125Y-233868D02*
D03*
X-109819Y246657D02*
D03*
X-104125Y233868D02*
D03*
D42*
X79108Y-243470D02*
D03*
X83435Y-256785D02*
D03*
X-79108Y243470D02*
D03*
X-83435Y256785D02*
D03*
D43*
X56130Y-264101D02*
D03*
X53225Y-250406D02*
D03*
X-56136Y264100D02*
D03*
X-53225Y250406D02*
D03*
D44*
X26759Y-254598D02*
D03*
X28223Y-268521D02*
D03*
X-26759Y254598D02*
D03*
X-28223Y268521D02*
D03*
D45*
X-270052Y162530D02*
D03*
Y177530D02*
D03*
%TF.MD5,0519eab596fcf65fc32855d25da5059a*%
M02*
