%TF.GenerationSoftware,Altium Limited,Altium Designer,20.1.8 (145)*%
G04 Layer_Color=128*
%FSLAX44Y44*%
%MOMM*%
%TF.SameCoordinates,743C107F-9E53-4DF5-BF78-65164CE4EDE1*%
%TF.FilePolarity,Positive*%
%TF.FileFunction,Paste,Bot*%
%TF.Part,Single*%
G01*
G75*
%TA.AperFunction,SMDPad,CuDef*%
G04:AMPARAMS|DCode=63|XSize=1.65mm|YSize=0.95mm|CornerRadius=0.0048mm|HoleSize=0mm|Usage=FLASHONLY|Rotation=270.000|XOffset=0mm|YOffset=0mm|HoleType=Round|Shape=RoundedRectangle|*
%AMROUNDEDRECTD63*
21,1,1.6500,0.9405,0,0,270.0*
21,1,1.6405,0.9500,0,0,270.0*
1,1,0.0095,-0.4703,-0.8203*
1,1,0.0095,-0.4703,0.8203*
1,1,0.0095,0.4703,0.8203*
1,1,0.0095,0.4703,-0.8203*
%
%ADD63ROUNDEDRECTD63*%
G04:AMPARAMS|DCode=66|XSize=1mm|YSize=1.25mm|CornerRadius=0.005mm|HoleSize=0mm|Usage=FLASHONLY|Rotation=180.000|XOffset=0mm|YOffset=0mm|HoleType=Round|Shape=RoundedRectangle|*
%AMROUNDEDRECTD66*
21,1,1.0000,1.2400,0,0,180.0*
21,1,0.9900,1.2500,0,0,180.0*
1,1,0.0100,-0.4950,0.6200*
1,1,0.0100,0.4950,0.6200*
1,1,0.0100,0.4950,-0.6200*
1,1,0.0100,-0.4950,-0.6200*
%
%ADD66ROUNDEDRECTD66*%
G04:AMPARAMS|DCode=68|XSize=0.85mm|YSize=0.5mm|CornerRadius=0.0025mm|HoleSize=0mm|Usage=FLASHONLY|Rotation=270.000|XOffset=0mm|YOffset=0mm|HoleType=Round|Shape=RoundedRectangle|*
%AMROUNDEDRECTD68*
21,1,0.8500,0.4950,0,0,270.0*
21,1,0.8450,0.5000,0,0,270.0*
1,1,0.0050,-0.2475,-0.4225*
1,1,0.0050,-0.2475,0.4225*
1,1,0.0050,0.2475,0.4225*
1,1,0.0050,0.2475,-0.4225*
%
%ADD68ROUNDEDRECTD68*%
G04:AMPARAMS|DCode=69|XSize=0.85mm|YSize=0.5mm|CornerRadius=0.0025mm|HoleSize=0mm|Usage=FLASHONLY|Rotation=0.000|XOffset=0mm|YOffset=0mm|HoleType=Round|Shape=RoundedRectangle|*
%AMROUNDEDRECTD69*
21,1,0.8500,0.4950,0,0,0.0*
21,1,0.8450,0.5000,0,0,0.0*
1,1,0.0050,0.4225,-0.2475*
1,1,0.0050,-0.4225,-0.2475*
1,1,0.0050,-0.4225,0.2475*
1,1,0.0050,0.4225,0.2475*
%
%ADD69ROUNDEDRECTD69*%
G04:AMPARAMS|DCode=70|XSize=1.1mm|YSize=2.3mm|CornerRadius=0.0055mm|HoleSize=0mm|Usage=FLASHONLY|Rotation=270.000|XOffset=0mm|YOffset=0mm|HoleType=Round|Shape=RoundedRectangle|*
%AMROUNDEDRECTD70*
21,1,1.1000,2.2890,0,0,270.0*
21,1,1.0890,2.3000,0,0,270.0*
1,1,0.0110,-1.1445,-0.5445*
1,1,0.0110,-1.1445,0.5445*
1,1,0.0110,1.1445,0.5445*
1,1,0.0110,1.1445,-0.5445*
%
%ADD70ROUNDEDRECTD70*%
G04:AMPARAMS|DCode=71|XSize=1.1mm|YSize=2.3mm|CornerRadius=0.0055mm|HoleSize=0mm|Usage=FLASHONLY|Rotation=180.000|XOffset=0mm|YOffset=0mm|HoleType=Round|Shape=RoundedRectangle|*
%AMROUNDEDRECTD71*
21,1,1.1000,2.2890,0,0,180.0*
21,1,1.0890,2.3000,0,0,180.0*
1,1,0.0110,-0.5445,1.1445*
1,1,0.0110,0.5445,1.1445*
1,1,0.0110,0.5445,-1.1445*
1,1,0.0110,-0.5445,-1.1445*
%
%ADD71ROUNDEDRECTD71*%
G04:AMPARAMS|DCode=72|XSize=0.55mm|YSize=0.7mm|CornerRadius=0.0028mm|HoleSize=0mm|Usage=FLASHONLY|Rotation=0.000|XOffset=0mm|YOffset=0mm|HoleType=Round|Shape=RoundedRectangle|*
%AMROUNDEDRECTD72*
21,1,0.5500,0.6945,0,0,0.0*
21,1,0.5445,0.7000,0,0,0.0*
1,1,0.0055,0.2723,-0.3473*
1,1,0.0055,-0.2723,-0.3473*
1,1,0.0055,-0.2723,0.3473*
1,1,0.0055,0.2723,0.3473*
%
%ADD72ROUNDEDRECTD72*%
G04:AMPARAMS|DCode=73|XSize=2.1mm|YSize=1mm|CornerRadius=0.05mm|HoleSize=0mm|Usage=FLASHONLY|Rotation=90.000|XOffset=0mm|YOffset=0mm|HoleType=Round|Shape=RoundedRectangle|*
%AMROUNDEDRECTD73*
21,1,2.1000,0.9000,0,0,90.0*
21,1,2.0000,1.0000,0,0,90.0*
1,1,0.1000,0.4500,1.0000*
1,1,0.1000,0.4500,-1.0000*
1,1,0.1000,-0.4500,-1.0000*
1,1,0.1000,-0.4500,1.0000*
%
%ADD73ROUNDEDRECTD73*%
G04:AMPARAMS|DCode=74|XSize=2.1mm|YSize=1mm|CornerRadius=0.05mm|HoleSize=0mm|Usage=FLASHONLY|Rotation=180.000|XOffset=0mm|YOffset=0mm|HoleType=Round|Shape=RoundedRectangle|*
%AMROUNDEDRECTD74*
21,1,2.1000,0.9000,0,0,180.0*
21,1,2.0000,1.0000,0,0,180.0*
1,1,0.1000,-1.0000,0.4500*
1,1,0.1000,1.0000,0.4500*
1,1,0.1000,1.0000,-0.4500*
1,1,0.1000,-1.0000,-0.4500*
%
%ADD74ROUNDEDRECTD74*%
G04:AMPARAMS|DCode=75|XSize=0.85mm|YSize=0.6mm|CornerRadius=0.003mm|HoleSize=0mm|Usage=FLASHONLY|Rotation=0.000|XOffset=0mm|YOffset=0mm|HoleType=Round|Shape=RoundedRectangle|*
%AMROUNDEDRECTD75*
21,1,0.8500,0.5940,0,0,0.0*
21,1,0.8440,0.6000,0,0,0.0*
1,1,0.0060,0.4220,-0.2970*
1,1,0.0060,-0.4220,-0.2970*
1,1,0.0060,-0.4220,0.2970*
1,1,0.0060,0.4220,0.2970*
%
%ADD75ROUNDEDRECTD75*%
G04:AMPARAMS|DCode=76|XSize=0.85mm|YSize=0.6mm|CornerRadius=0.003mm|HoleSize=0mm|Usage=FLASHONLY|Rotation=270.000|XOffset=0mm|YOffset=0mm|HoleType=Round|Shape=RoundedRectangle|*
%AMROUNDEDRECTD76*
21,1,0.8500,0.5940,0,0,270.0*
21,1,0.8440,0.6000,0,0,270.0*
1,1,0.0060,-0.2970,-0.4220*
1,1,0.0060,-0.2970,0.4220*
1,1,0.0060,0.2970,0.4220*
1,1,0.0060,0.2970,-0.4220*
%
%ADD76ROUNDEDRECTD76*%
%ADD77O,1.2000X0.4000*%
G04:AMPARAMS|DCode=78|XSize=3.355mm|YSize=4.12mm|CornerRadius=0.2852mm|HoleSize=0mm|Usage=FLASHONLY|Rotation=0.000|XOffset=0mm|YOffset=0mm|HoleType=Round|Shape=RoundedRectangle|*
%AMROUNDEDRECTD78*
21,1,3.3550,3.5497,0,0,0.0*
21,1,2.7847,4.1200,0,0,0.0*
1,1,0.5704,1.3923,-1.7748*
1,1,0.5704,-1.3923,-1.7748*
1,1,0.5704,-1.3923,1.7748*
1,1,0.5704,1.3923,1.7748*
%
%ADD78ROUNDEDRECTD78*%
%ADD79O,1.1500X0.4000*%
G04:AMPARAMS|DCode=80|XSize=1mm|YSize=2.15mm|CornerRadius=0.005mm|HoleSize=0mm|Usage=FLASHONLY|Rotation=0.000|XOffset=0mm|YOffset=0mm|HoleType=Round|Shape=RoundedRectangle|*
%AMROUNDEDRECTD80*
21,1,1.0000,2.1400,0,0,0.0*
21,1,0.9900,2.1500,0,0,0.0*
1,1,0.0100,0.4950,-1.0700*
1,1,0.0100,-0.4950,-1.0700*
1,1,0.0100,-0.4950,1.0700*
1,1,0.0100,0.4950,1.0700*
%
%ADD80ROUNDEDRECTD80*%
G04:AMPARAMS|DCode=81|XSize=3.25mm|YSize=2.15mm|CornerRadius=0.0108mm|HoleSize=0mm|Usage=FLASHONLY|Rotation=0.000|XOffset=0mm|YOffset=0mm|HoleType=Round|Shape=RoundedRectangle|*
%AMROUNDEDRECTD81*
21,1,3.2500,2.1285,0,0,0.0*
21,1,3.2285,2.1500,0,0,0.0*
1,1,0.0215,1.6143,-1.0642*
1,1,0.0215,-1.6143,-1.0642*
1,1,0.0215,-1.6143,1.0642*
1,1,0.0215,1.6143,1.0642*
%
%ADD81ROUNDEDRECTD81*%
G04:AMPARAMS|DCode=82|XSize=0.55mm|YSize=0.7mm|CornerRadius=0.0028mm|HoleSize=0mm|Usage=FLASHONLY|Rotation=270.000|XOffset=0mm|YOffset=0mm|HoleType=Round|Shape=RoundedRectangle|*
%AMROUNDEDRECTD82*
21,1,0.5500,0.6945,0,0,270.0*
21,1,0.5445,0.7000,0,0,270.0*
1,1,0.0055,-0.3473,-0.2723*
1,1,0.0055,-0.3473,0.2723*
1,1,0.0055,0.3473,0.2723*
1,1,0.0055,0.3473,-0.2723*
%
%ADD82ROUNDEDRECTD82*%
G04:AMPARAMS|DCode=83|XSize=0.45mm|YSize=1.5mm|CornerRadius=0.1125mm|HoleSize=0mm|Usage=FLASHONLY|Rotation=180.000|XOffset=0mm|YOffset=0mm|HoleType=Round|Shape=RoundedRectangle|*
%AMROUNDEDRECTD83*
21,1,0.4500,1.2750,0,0,180.0*
21,1,0.2250,1.5000,0,0,180.0*
1,1,0.2250,-0.1125,0.6375*
1,1,0.2250,0.1125,0.6375*
1,1,0.2250,0.1125,-0.6375*
1,1,0.2250,-0.1125,-0.6375*
%
%ADD83ROUNDEDRECTD83*%
D63*
X81620Y-222030D02*
D03*
X109620D02*
D03*
X-15000Y-305000D02*
D03*
X13000D02*
D03*
D66*
X142000Y-1320D02*
D03*
X127000D02*
D03*
X112000D02*
D03*
X97000D02*
D03*
X157000D02*
D03*
X142000Y121320D02*
D03*
X112000D02*
D03*
X127000D02*
D03*
X97000D02*
D03*
X157000D02*
D03*
X-18500D02*
D03*
X-78500D02*
D03*
X-48500D02*
D03*
X-63500D02*
D03*
X-33500D02*
D03*
X-18500Y-1320D02*
D03*
X-78500D02*
D03*
X-63500D02*
D03*
X-48500D02*
D03*
X-33500D02*
D03*
X63500D02*
D03*
X48500D02*
D03*
X33500D02*
D03*
X18500D02*
D03*
X78500D02*
D03*
X63500Y121320D02*
D03*
X33500D02*
D03*
X48500D02*
D03*
X18500D02*
D03*
X78500D02*
D03*
X142000Y-140320D02*
D03*
X127000D02*
D03*
X112000D02*
D03*
X97000D02*
D03*
X157000D02*
D03*
X142000Y-17680D02*
D03*
X112000D02*
D03*
X127000D02*
D03*
X97000D02*
D03*
X157000D02*
D03*
X54250Y-140320D02*
D03*
X39250D02*
D03*
X24250D02*
D03*
X9250D02*
D03*
X69250D02*
D03*
X54250Y-17680D02*
D03*
X24250D02*
D03*
X39250D02*
D03*
X9250D02*
D03*
X69250D02*
D03*
X-9250D02*
D03*
X-69250D02*
D03*
X-39250D02*
D03*
X-54250D02*
D03*
X-24250D02*
D03*
X-9250Y-140320D02*
D03*
X-69250D02*
D03*
X-54250D02*
D03*
X-39250D02*
D03*
X-24250D02*
D03*
X-112000Y-1320D02*
D03*
X-127000D02*
D03*
X-142000D02*
D03*
X-157000D02*
D03*
X-97000D02*
D03*
X-112000Y121320D02*
D03*
X-142000D02*
D03*
X-127000D02*
D03*
X-157000D02*
D03*
X-97000D02*
D03*
D68*
X-91410Y-178218D02*
D03*
X-105410D02*
D03*
X-105380Y-92202D02*
D03*
X-91380D02*
D03*
X-198137Y62992D02*
D03*
X-184137D02*
D03*
X-109474Y178173D02*
D03*
X-123474D02*
D03*
X102900Y-348230D02*
D03*
X88900D02*
D03*
X102900Y-320281D02*
D03*
X88900D02*
D03*
X-113717Y-137216D02*
D03*
X-127717D02*
D03*
X-200322Y21896D02*
D03*
X-186322D02*
D03*
X-100377Y-308809D02*
D03*
X-114377D02*
D03*
X102900Y-334730D02*
D03*
X88900D02*
D03*
X102900Y-361730D02*
D03*
X88900D02*
D03*
X205624Y-19464D02*
D03*
X191624D02*
D03*
X-33358Y180927D02*
D03*
X-47358D02*
D03*
X-226750Y-264303D02*
D03*
X-240750D02*
D03*
D69*
X-14224Y163837D02*
D03*
Y149837D02*
D03*
X117287Y167386D02*
D03*
Y153386D02*
D03*
X193374Y-58849D02*
D03*
Y-72849D02*
D03*
X187706Y-9682D02*
D03*
Y4318D02*
D03*
X276860Y-194000D02*
D03*
Y-180000D02*
D03*
X76854Y179007D02*
D03*
Y165007D02*
D03*
X-67462Y173673D02*
D03*
Y187673D02*
D03*
X215883Y19182D02*
D03*
Y33182D02*
D03*
X-122741Y-67889D02*
D03*
Y-81889D02*
D03*
D70*
X129794Y-361730D02*
D03*
Y-242096D02*
D03*
X284004Y-221776D02*
D03*
X129794Y-341918D02*
D03*
Y-321852D02*
D03*
Y-302040D02*
D03*
Y-281720D02*
D03*
Y-261908D02*
D03*
Y-222030D02*
D03*
X284004Y-241842D02*
D03*
Y-261654D02*
D03*
X283750Y-281720D02*
D03*
Y-301786D02*
D03*
Y-321598D02*
D03*
Y-341918D02*
D03*
Y-361730D02*
D03*
D71*
X156734Y-202202D02*
D03*
X176546D02*
D03*
X196358D02*
D03*
X216678D02*
D03*
X236490D02*
D03*
X256810D02*
D03*
D72*
X-188636Y31554D02*
D03*
X-207637D02*
D03*
X-198137Y52554D02*
D03*
X204592Y-50153D02*
D03*
X214092Y-29153D02*
D03*
X195092D02*
D03*
X-115736Y-168211D02*
D03*
X-106236Y-147211D02*
D03*
X-125236D02*
D03*
X-35461Y149837D02*
D03*
X-25961Y170837D02*
D03*
X-44961D02*
D03*
D73*
X262148Y97990D02*
D03*
Y181990D02*
D03*
X217148Y97990D02*
D03*
Y181990D02*
D03*
D74*
X97994Y217058D02*
D03*
X181994D02*
D03*
X97994Y262058D02*
D03*
X181994D02*
D03*
D75*
X-288838Y163030D02*
D03*
Y177530D02*
D03*
X-289324Y-167746D02*
D03*
Y-182246D02*
D03*
X-285750Y-408731D02*
D03*
Y-394231D02*
D03*
X-286243Y-358095D02*
D03*
Y-372595D02*
D03*
D76*
X-59971Y-419914D02*
D03*
X-74471D02*
D03*
X-111381Y-325492D02*
D03*
X-125881D02*
D03*
X-91471Y-419914D02*
D03*
X-105971D02*
D03*
X-274570Y-332578D02*
D03*
X-289070D02*
D03*
X-274062Y-267762D02*
D03*
X-288562D02*
D03*
X-241250Y-251752D02*
D03*
X-226750D02*
D03*
D77*
X-232324Y-196130D02*
D03*
Y-202630D02*
D03*
Y-209130D02*
D03*
Y-215630D02*
D03*
Y-222130D02*
D03*
Y-228630D02*
D03*
Y-235130D02*
D03*
Y-241630D02*
D03*
X-289324Y-196130D02*
D03*
Y-202630D02*
D03*
Y-209130D02*
D03*
Y-215630D02*
D03*
Y-222130D02*
D03*
Y-228630D02*
D03*
Y-235130D02*
D03*
Y-241630D02*
D03*
X-182881Y-315309D02*
D03*
Y-308809D02*
D03*
Y-302309D02*
D03*
Y-295809D02*
D03*
Y-289309D02*
D03*
Y-282809D02*
D03*
Y-276309D02*
D03*
Y-269809D02*
D03*
Y-263309D02*
D03*
Y-256809D02*
D03*
Y-250309D02*
D03*
Y-243809D02*
D03*
X-125881Y-315309D02*
D03*
Y-308809D02*
D03*
Y-302309D02*
D03*
Y-295809D02*
D03*
Y-289309D02*
D03*
Y-282809D02*
D03*
Y-276309D02*
D03*
Y-269809D02*
D03*
Y-263309D02*
D03*
Y-256809D02*
D03*
Y-250309D02*
D03*
Y-243809D02*
D03*
X-288562Y-318769D02*
D03*
Y-312269D02*
D03*
Y-305769D02*
D03*
Y-299269D02*
D03*
Y-292769D02*
D03*
Y-286269D02*
D03*
Y-279769D02*
D03*
X-231562Y-318769D02*
D03*
Y-312269D02*
D03*
Y-305769D02*
D03*
Y-299269D02*
D03*
Y-292769D02*
D03*
Y-286269D02*
D03*
Y-279769D02*
D03*
D78*
X-154381Y-279559D02*
D03*
D79*
X-215274Y-355231D02*
D03*
Y-361731D02*
D03*
Y-368231D02*
D03*
Y-374731D02*
D03*
Y-381231D02*
D03*
Y-387731D02*
D03*
Y-394231D02*
D03*
Y-400731D02*
D03*
Y-407231D02*
D03*
Y-413731D02*
D03*
X-271274Y-355231D02*
D03*
Y-361731D02*
D03*
Y-368231D02*
D03*
Y-374731D02*
D03*
Y-381231D02*
D03*
Y-387731D02*
D03*
Y-394231D02*
D03*
Y-400731D02*
D03*
Y-407231D02*
D03*
Y-413731D02*
D03*
D80*
X-59971Y-400937D02*
D03*
X-82971D02*
D03*
X-105971D02*
D03*
D81*
X-82971Y-342437D02*
D03*
D82*
X107972Y177201D02*
D03*
X86972Y186701D02*
D03*
Y167701D02*
D03*
X-99760Y178173D02*
D03*
X-78760Y168673D02*
D03*
Y187673D02*
D03*
X182609Y23682D02*
D03*
X203609Y14182D02*
D03*
Y33182D02*
D03*
X-91380Y-69630D02*
D03*
X-112380Y-60130D02*
D03*
Y-79130D02*
D03*
D83*
X0Y-331750D02*
D03*
X-13000D02*
D03*
X-6500D02*
D03*
X13000D02*
D03*
X6500D02*
D03*
%TF.MD5,e90c793390220cf980fdc52dd6b8a013*%
M02*
