%TF.GenerationSoftware,Altium Limited,Altium Designer,20.1.8 (145)*%
G04 Layer_Physical_Order=2*
G04 Layer_Color=10838552*
%FSLAX44Y44*%
%MOMM*%
%TF.SameCoordinates,3BEBD2D3-E5B3-4009-AA71-14EFD01F195C*%
%TF.FilePolarity,Positive*%
%TF.FileFunction,Copper,L2,Inr,Signal*%
%TF.Part,Single*%
G01*
G75*
%TA.AperFunction,Conductor*%
%ADD10C,0.1270*%
%TA.AperFunction,ComponentPad*%
%ADD47C,0.5600*%
G04:AMPARAMS|DCode=48|XSize=1.5mm|YSize=1.5mm|CornerRadius=0.1875mm|HoleSize=0mm|Usage=FLASHONLY|Rotation=0.000|XOffset=0mm|YOffset=0mm|HoleType=Round|Shape=RoundedRectangle|*
%AMROUNDEDRECTD48*
21,1,1.5000,1.1250,0,0,0.0*
21,1,1.1250,1.5000,0,0,0.0*
1,1,0.3750,0.5625,-0.5625*
1,1,0.3750,-0.5625,-0.5625*
1,1,0.3750,-0.5625,0.5625*
1,1,0.3750,0.5625,0.5625*
%
%ADD48ROUNDEDRECTD48*%
%ADD49C,1.5000*%
%ADD50O,1.9000X1.1000*%
%ADD51O,2.2000X1.1000*%
%ADD52C,0.7000*%
G04:AMPARAMS|DCode=53|XSize=1.5mm|YSize=1.5mm|CornerRadius=0.15mm|HoleSize=0mm|Usage=FLASHONLY|Rotation=180.000|XOffset=0mm|YOffset=0mm|HoleType=Round|Shape=RoundedRectangle|*
%AMROUNDEDRECTD53*
21,1,1.5000,1.2000,0,0,180.0*
21,1,1.2000,1.5000,0,0,180.0*
1,1,0.3000,-0.6000,0.6000*
1,1,0.3000,0.6000,0.6000*
1,1,0.3000,0.6000,-0.6000*
1,1,0.3000,-0.6000,-0.6000*
%
%ADD53ROUNDEDRECTD53*%
%TA.AperFunction,ViaPad*%
%ADD54C,0.4600*%
%ADD55C,0.7600*%
%ADD56C,1.8000*%
%ADD57C,4.0000*%
%ADD58C,1.2600*%
%TA.AperFunction,Conductor*%
%ADD59C,0.1524*%
%ADD60C,0.2032*%
G36*
X263399Y297226D02*
X268839Y295768D01*
X274042Y293613D01*
X278919Y290797D01*
X283387Y287369D01*
X287369Y283387D01*
X290797Y278919D01*
X293613Y274042D01*
X295768Y268839D01*
X297226Y263399D01*
X297961Y257816D01*
Y255000D01*
Y-447961D01*
X290008D01*
X289924Y-447835D01*
Y-390169D01*
X289602Y-389391D01*
X288824Y-389069D01*
X125746D01*
X124969Y-389391D01*
X124647Y-390169D01*
Y-447835D01*
X124563Y-447961D01*
X-297961D01*
Y-136170D01*
X-296437Y-136020D01*
X-296419Y-136112D01*
X-295645Y-137269D01*
X-294487Y-138043D01*
X-294316Y-139631D01*
X-294404Y-140076D01*
X-294133Y-141442D01*
X-293359Y-142600D01*
X-292201Y-143373D01*
X-292030Y-144961D01*
X-292118Y-145407D01*
X-291847Y-146772D01*
X-291073Y-147930D01*
X-290567Y-148268D01*
X-289434Y-149316D01*
X-289705Y-150681D01*
X-289434Y-152047D01*
X-288660Y-153204D01*
X-287502Y-153978D01*
X-286137Y-154250D01*
X-284771Y-153978D01*
X-283613Y-153204D01*
X-282840Y-152047D01*
X-282568Y-150681D01*
X-282840Y-149316D01*
X-283613Y-148158D01*
X-284119Y-147820D01*
X-285253Y-146772D01*
X-284981Y-145407D01*
X-285253Y-144041D01*
X-286026Y-142884D01*
X-287184Y-142110D01*
X-287356Y-140522D01*
X-287267Y-140076D01*
X-287539Y-138711D01*
X-288312Y-137553D01*
X-289470Y-136779D01*
X-289642Y-135191D01*
X-289553Y-134746D01*
X-289825Y-133380D01*
X-290598Y-132223D01*
X-291756Y-131449D01*
X-293122Y-131177D01*
X-294487Y-131449D01*
X-295645Y-132223D01*
X-296419Y-133380D01*
X-296437Y-133472D01*
X-297961Y-133322D01*
Y255000D01*
Y257816D01*
X-297226Y263399D01*
X-295768Y268839D01*
X-293613Y274042D01*
X-290797Y278919D01*
X-287369Y283387D01*
X-283387Y287369D01*
X-278919Y290797D01*
X-274042Y293613D01*
X-268839Y295768D01*
X-263399Y297226D01*
X-257816Y297961D01*
X257816D01*
X263399Y297226D01*
D02*
G37*
%LPC*%
G36*
X-10121Y293392D02*
X-11487Y293120D01*
X-12644Y292347D01*
X-13418Y291189D01*
X-13689Y289823D01*
X-13418Y288458D01*
X-12644Y287300D01*
X-11487Y286526D01*
X-10121Y286255D01*
X-8755Y286526D01*
X-7598Y287300D01*
X-6824Y288458D01*
X-6552Y289823D01*
X-6824Y291189D01*
X-7598Y292347D01*
X-8755Y293120D01*
X-10121Y293392D01*
D02*
G37*
G36*
X175950Y294119D02*
X173609Y293653D01*
X171624Y292327D01*
X170298Y290343D01*
X169833Y288001D01*
X170298Y285660D01*
X171624Y283676D01*
X173609Y282349D01*
X175950Y281884D01*
X178291Y282349D01*
X180276Y283676D01*
X181602Y285660D01*
X182068Y288001D01*
X181602Y290343D01*
X180276Y292327D01*
X178291Y293653D01*
X175950Y294119D01*
D02*
G37*
G36*
X-19881Y287874D02*
X-21246Y287603D01*
X-22404Y286829D01*
X-23177Y285671D01*
X-23449Y284306D01*
X-23177Y282940D01*
X-22404Y281782D01*
X-21246Y281009D01*
X-19881Y280737D01*
X-18515Y281009D01*
X-17357Y281782D01*
X-16584Y282940D01*
X-16312Y284306D01*
X-16584Y285671D01*
X-17357Y286829D01*
X-18515Y287603D01*
X-19881Y287874D01*
D02*
G37*
G36*
X19532Y282886D02*
X18166Y282615D01*
X17008Y281841D01*
X16235Y280683D01*
X15963Y279318D01*
X16235Y277952D01*
X17008Y276794D01*
X18166Y276021D01*
X19532Y275749D01*
X20897Y276021D01*
X22055Y276794D01*
X22829Y277952D01*
X23100Y279318D01*
X22829Y280683D01*
X22055Y281841D01*
X20897Y282615D01*
X19532Y282886D01*
D02*
G37*
G36*
X47753Y274391D02*
X46388Y274119D01*
X45230Y273345D01*
X44456Y272188D01*
X44185Y270822D01*
X44456Y269456D01*
X45230Y268299D01*
X46388Y267525D01*
X47753Y267253D01*
X49119Y267525D01*
X50277Y268299D01*
X51050Y269456D01*
X51322Y270822D01*
X51050Y272188D01*
X50277Y273345D01*
X49119Y274119D01*
X47753Y274391D01*
D02*
G37*
G36*
X175950Y276119D02*
X173609Y275653D01*
X171624Y274327D01*
X170298Y272342D01*
X169833Y270001D01*
X170298Y267660D01*
X171624Y265676D01*
X173609Y264349D01*
X175950Y263884D01*
X178291Y264349D01*
X180276Y265676D01*
X181602Y267660D01*
X182068Y270001D01*
X181602Y272342D01*
X180276Y274327D01*
X178291Y275653D01*
X175950Y276119D01*
D02*
G37*
G36*
X74422Y263109D02*
X73056Y262838D01*
X71899Y262064D01*
X71125Y260906D01*
X70854Y259541D01*
X71125Y258175D01*
X71899Y257017D01*
X73056Y256244D01*
X74422Y255972D01*
X75788Y256244D01*
X76945Y257017D01*
X77719Y258175D01*
X77991Y259541D01*
X77719Y260906D01*
X76945Y262064D01*
X75788Y262838D01*
X74422Y263109D01*
D02*
G37*
G36*
X-35489Y256087D02*
X-36855Y255815D01*
X-38012Y255042D01*
X-38786Y253884D01*
X-39058Y252518D01*
X-38786Y251153D01*
X-38012Y249995D01*
X-36855Y249221D01*
X-35489Y248950D01*
X-34123Y249221D01*
X-32966Y249995D01*
X-32192Y251153D01*
X-31921Y252518D01*
X-32192Y253884D01*
X-32966Y255042D01*
X-34123Y255815D01*
X-35489Y256087D01*
D02*
G37*
G36*
X-62900Y255845D02*
X-64265Y255574D01*
X-65423Y254800D01*
X-66197Y253642D01*
X-66468Y252277D01*
X-66197Y250911D01*
X-65423Y249753D01*
X-64265Y248980D01*
X-62900Y248708D01*
X-61534Y248980D01*
X-60376Y249753D01*
X-59603Y250911D01*
X-59331Y252277D01*
X-59603Y253642D01*
X-60376Y254800D01*
X-61534Y255574D01*
X-62900Y255845D01*
D02*
G37*
G36*
X-101144Y253908D02*
X-102509Y253636D01*
X-103667Y252863D01*
X-104441Y251705D01*
X-104712Y250340D01*
X-104441Y248974D01*
X-103667Y247816D01*
X-102509Y247043D01*
X-101144Y246771D01*
X-99778Y247043D01*
X-98620Y247816D01*
X-97847Y248974D01*
X-97575Y250340D01*
X-97847Y251705D01*
X-98620Y252863D01*
X-99778Y253636D01*
X-101144Y253908D01*
D02*
G37*
G36*
X-90635Y252587D02*
X-92001Y252315D01*
X-93159Y251542D01*
X-93932Y250384D01*
X-94204Y249018D01*
X-93932Y247653D01*
X-93159Y246495D01*
X-92001Y245721D01*
X-90635Y245450D01*
X-89270Y245721D01*
X-88112Y246495D01*
X-87338Y247653D01*
X-87067Y249018D01*
X-87338Y250384D01*
X-88112Y251542D01*
X-89270Y252315D01*
X-90635Y252587D01*
D02*
G37*
G36*
X99271Y249272D02*
X97905Y249000D01*
X96747Y248227D01*
X95974Y247069D01*
X95702Y245704D01*
X95974Y244338D01*
X96747Y243180D01*
X97905Y242407D01*
X99271Y242135D01*
X100636Y242407D01*
X101794Y243180D01*
X102568Y244338D01*
X102839Y245704D01*
X102568Y247069D01*
X101794Y248227D01*
X100636Y249000D01*
X99271Y249272D01*
D02*
G37*
G36*
X-148377Y241022D02*
X-149743Y240750D01*
X-150901Y239977D01*
X-151674Y238819D01*
X-151946Y237453D01*
X-151674Y236088D01*
X-150901Y234930D01*
X-149743Y234156D01*
X-148377Y233885D01*
X-147012Y234156D01*
X-145854Y234930D01*
X-145080Y236088D01*
X-144809Y237453D01*
X-145080Y238819D01*
X-145854Y239977D01*
X-147012Y240750D01*
X-148377Y241022D01*
D02*
G37*
G36*
X115767Y230775D02*
X114402Y230504D01*
X113244Y229730D01*
X112471Y228572D01*
X112199Y227207D01*
X112471Y225841D01*
X113244Y224683D01*
X114402Y223910D01*
X115767Y223638D01*
X117133Y223910D01*
X118291Y224683D01*
X119065Y225841D01*
X119336Y227207D01*
X119065Y228572D01*
X118291Y229730D01*
X117133Y230504D01*
X115767Y230775D01*
D02*
G37*
G36*
X-175463Y228151D02*
X-176829Y227880D01*
X-177987Y227106D01*
X-178760Y225949D01*
X-179032Y224583D01*
X-178760Y223217D01*
X-177987Y222060D01*
X-176829Y221286D01*
X-175463Y221014D01*
X-174098Y221286D01*
X-172940Y222060D01*
X-172167Y223217D01*
X-171895Y224583D01*
X-172167Y225949D01*
X-172940Y227106D01*
X-174098Y227880D01*
X-175463Y228151D01*
D02*
G37*
G36*
X50614Y222802D02*
X49248Y222530D01*
X48091Y221757D01*
X47317Y220599D01*
X47045Y219233D01*
X47212Y218395D01*
X44833Y216016D01*
X44440Y215428D01*
X44302Y214734D01*
Y202744D01*
X43592Y202269D01*
X42818Y201112D01*
X42546Y199746D01*
X42818Y198380D01*
X43592Y197222D01*
X44749Y196449D01*
X46115Y196177D01*
X47481Y196449D01*
X48638Y197222D01*
X49412Y198380D01*
X49683Y199746D01*
X49412Y201112D01*
X48638Y202269D01*
X47928Y202744D01*
Y213983D01*
X49776Y215831D01*
X50614Y215665D01*
X51980Y215936D01*
X53137Y216710D01*
X53911Y217868D01*
X54183Y219233D01*
X53911Y220599D01*
X53137Y221757D01*
X51980Y222530D01*
X50614Y222802D01*
D02*
G37*
G36*
X141606Y221623D02*
X140240Y221351D01*
X139083Y220578D01*
X138309Y219420D01*
X138038Y218054D01*
X138309Y216689D01*
X139083Y215531D01*
X140240Y214757D01*
X141606Y214486D01*
X142972Y214757D01*
X144129Y215531D01*
X144903Y216689D01*
X145175Y218054D01*
X144903Y219420D01*
X144129Y220578D01*
X142972Y221351D01*
X141606Y221623D01*
D02*
G37*
G36*
X-201451Y212177D02*
X-202816Y211905D01*
X-203974Y211132D01*
X-204748Y209974D01*
X-205019Y208608D01*
X-204748Y207243D01*
X-203974Y206085D01*
X-202816Y205312D01*
X-201451Y205040D01*
X-200085Y205312D01*
X-198927Y206085D01*
X-198154Y207243D01*
X-197882Y208608D01*
X-198154Y209974D01*
X-198927Y211132D01*
X-200085Y211905D01*
X-201451Y212177D01*
D02*
G37*
G36*
X-45139Y208660D02*
X-46504Y208388D01*
X-47662Y207615D01*
X-48436Y206457D01*
X-48707Y205091D01*
X-48436Y203726D01*
X-47662Y202568D01*
X-46504Y201794D01*
X-45139Y201523D01*
X-43773Y201794D01*
X-42615Y202568D01*
X-41842Y203726D01*
X-41570Y205091D01*
X-41842Y206457D01*
X-42615Y207615D01*
X-43773Y208388D01*
X-45139Y208660D01*
D02*
G37*
G36*
X153915Y200571D02*
X152550Y200299D01*
X151392Y199526D01*
X150618Y198368D01*
X150347Y197003D01*
X150618Y195637D01*
X151392Y194479D01*
X152550Y193706D01*
X153915Y193434D01*
X155281Y193706D01*
X156439Y194479D01*
X157212Y195637D01*
X157484Y197003D01*
X157212Y198368D01*
X156439Y199526D01*
X155281Y200299D01*
X153915Y200571D01*
D02*
G37*
G36*
X66009Y202873D02*
X64058Y202485D01*
X62404Y201380D01*
X61299Y199726D01*
X60911Y197775D01*
X61299Y195824D01*
X62404Y194171D01*
X64058Y193065D01*
X66009Y192677D01*
X67960Y193065D01*
X69614Y194171D01*
X70719Y195824D01*
X71107Y197775D01*
X70719Y199726D01*
X69614Y201380D01*
X67960Y202485D01*
X66009Y202873D01*
D02*
G37*
G36*
X-197818Y194600D02*
X-199184Y194328D01*
X-200342Y193554D01*
X-201115Y192397D01*
X-201387Y191031D01*
X-201115Y189665D01*
X-200342Y188508D01*
X-199184Y187734D01*
X-197818Y187462D01*
X-196453Y187734D01*
X-195295Y188508D01*
X-194521Y189665D01*
X-194250Y191031D01*
X-194521Y192397D01*
X-195295Y193554D01*
X-196453Y194328D01*
X-197818Y194600D01*
D02*
G37*
G36*
X-88750Y193893D02*
X-90115Y193622D01*
X-91273Y192848D01*
X-92047Y191690D01*
X-92318Y190325D01*
X-92047Y188959D01*
X-91273Y187801D01*
X-90115Y187028D01*
X-88750Y186756D01*
X-87384Y187028D01*
X-86227Y187801D01*
X-85453Y188959D01*
X-85181Y190325D01*
X-85453Y191690D01*
X-86227Y192848D01*
X-87384Y193622D01*
X-88750Y193893D01*
D02*
G37*
G36*
X-2530Y194295D02*
X-4481Y193907D01*
X-6135Y192802D01*
X-7240Y191148D01*
X-7628Y189197D01*
X-7240Y187246D01*
X-6135Y185592D01*
X-4481Y184487D01*
X-2530Y184099D01*
X-579Y184487D01*
X1075Y185592D01*
X2180Y187246D01*
X2568Y189197D01*
X2180Y191148D01*
X1075Y192802D01*
X-579Y193907D01*
X-2530Y194295D01*
D02*
G37*
G36*
X163937Y185639D02*
X162571Y185367D01*
X161414Y184594D01*
X160640Y183436D01*
X160368Y182071D01*
X160640Y180705D01*
X161414Y179547D01*
X162571Y178773D01*
X163937Y178502D01*
X165303Y178773D01*
X166460Y179547D01*
X167234Y180705D01*
X167505Y182071D01*
X167234Y183436D01*
X166460Y184594D01*
X165303Y185367D01*
X163937Y185639D01*
D02*
G37*
G36*
X111283Y181659D02*
X109917Y181387D01*
X108760Y180613D01*
X107986Y179456D01*
X107715Y178090D01*
X107986Y176724D01*
X108760Y175567D01*
X109917Y174793D01*
X111283Y174522D01*
X112649Y174793D01*
X113806Y175567D01*
X114580Y176724D01*
X114852Y178090D01*
X114580Y179456D01*
X113806Y180613D01*
X112649Y181387D01*
X111283Y181659D01*
D02*
G37*
G36*
X287981Y179565D02*
X285640Y179099D01*
X283655Y177773D01*
X282329Y175788D01*
X281863Y173447D01*
X282329Y171106D01*
X283655Y169121D01*
X285640Y167795D01*
X287981Y167330D01*
X290322Y167795D01*
X292306Y169121D01*
X293633Y171106D01*
X294098Y173447D01*
X293633Y175788D01*
X292306Y177773D01*
X290322Y179099D01*
X287981Y179565D01*
D02*
G37*
G36*
X269981D02*
X267640Y179099D01*
X265655Y177773D01*
X264329Y175788D01*
X263863Y173447D01*
X264329Y171106D01*
X265655Y169121D01*
X267640Y167795D01*
X269981Y167330D01*
X272322Y167795D01*
X274307Y169121D01*
X275633Y171106D01*
X276098Y173447D01*
X275633Y175788D01*
X274307Y177773D01*
X272322Y179099D01*
X269981Y179565D01*
D02*
G37*
G36*
X178355Y164160D02*
X176989Y163888D01*
X175831Y163115D01*
X175058Y161957D01*
X174786Y160591D01*
X175058Y159226D01*
X175831Y158068D01*
X176989Y157294D01*
X178355Y157023D01*
X179720Y157294D01*
X180878Y158068D01*
X181652Y159226D01*
X181923Y160591D01*
X181652Y161957D01*
X180878Y163115D01*
X179720Y163888D01*
X178355Y164160D01*
D02*
G37*
G36*
X-284290Y161834D02*
X-285655Y161562D01*
X-286813Y160788D01*
X-287587Y159631D01*
X-287858Y158265D01*
X-287587Y156899D01*
X-286813Y155742D01*
X-285655Y154968D01*
X-284290Y154697D01*
X-282924Y154968D01*
X-281766Y155742D01*
X-280993Y156899D01*
X-280721Y158265D01*
X-280993Y159631D01*
X-281766Y160788D01*
X-282924Y161562D01*
X-284290Y161834D01*
D02*
G37*
G36*
X-78760Y161088D02*
X-80710Y160700D01*
X-82364Y159595D01*
X-83469Y157941D01*
X-83857Y155990D01*
X-83469Y154039D01*
X-82364Y152386D01*
X-80710Y151280D01*
X-78760Y150892D01*
X-76809Y151280D01*
X-75155Y152386D01*
X-74050Y154039D01*
X-73662Y155990D01*
X-74050Y157941D01*
X-75155Y159595D01*
X-76809Y160700D01*
X-78760Y161088D01*
D02*
G37*
G36*
X-109774Y155710D02*
X-111140Y155439D01*
X-112297Y154665D01*
X-113071Y153507D01*
X-113343Y152142D01*
X-113071Y150776D01*
X-112297Y149618D01*
X-111140Y148845D01*
X-109774Y148573D01*
X-108408Y148845D01*
X-107251Y149618D01*
X-106477Y150776D01*
X-106205Y152142D01*
X-106477Y153507D01*
X-107251Y154665D01*
X-108408Y155439D01*
X-109774Y155710D01*
D02*
G37*
G36*
X-272796Y150340D02*
X-274161Y150068D01*
X-275319Y149295D01*
X-276093Y148137D01*
X-276364Y146771D01*
X-276093Y145406D01*
X-275319Y144248D01*
X-274161Y143474D01*
X-272796Y143202D01*
X-271430Y143474D01*
X-270272Y144248D01*
X-269499Y145406D01*
X-269227Y146771D01*
X-269499Y148137D01*
X-270272Y149295D01*
X-271430Y150068D01*
X-272796Y150340D01*
D02*
G37*
G36*
X-42660Y149669D02*
X-44026Y149397D01*
X-45183Y148624D01*
X-45957Y147466D01*
X-46229Y146101D01*
X-45957Y144735D01*
X-45183Y143577D01*
X-44026Y142804D01*
X-42660Y142532D01*
X-41294Y142804D01*
X-40137Y143577D01*
X-39363Y144735D01*
X-39091Y146101D01*
X-39363Y147466D01*
X-40137Y148624D01*
X-41294Y149397D01*
X-42660Y149669D01*
D02*
G37*
G36*
X-284479Y147569D02*
X-285844Y147297D01*
X-287002Y146523D01*
X-287776Y145366D01*
X-288047Y144000D01*
X-287776Y142634D01*
X-287002Y141477D01*
X-285844Y140703D01*
X-284479Y140431D01*
X-283113Y140703D01*
X-281955Y141477D01*
X-281182Y142634D01*
X-280910Y144000D01*
X-281182Y145366D01*
X-281955Y146523D01*
X-283113Y147297D01*
X-284479Y147569D01*
D02*
G37*
G36*
X-159776Y147432D02*
X-161142Y147160D01*
X-162299Y146386D01*
X-163073Y145229D01*
X-163345Y143863D01*
X-163073Y142498D01*
X-162299Y141340D01*
X-161142Y140566D01*
X-159776Y140295D01*
X-158411Y140566D01*
X-157253Y141340D01*
X-156479Y142498D01*
X-156208Y143863D01*
X-156479Y145229D01*
X-157253Y146386D01*
X-158411Y147160D01*
X-159776Y147432D01*
D02*
G37*
G36*
X-78269Y143668D02*
X-79634Y143397D01*
X-80792Y142623D01*
X-81566Y141465D01*
X-81837Y140100D01*
X-81566Y138734D01*
X-80792Y137576D01*
X-79634Y136803D01*
X-78269Y136531D01*
X-76903Y136803D01*
X-75745Y137576D01*
X-74972Y138734D01*
X-74700Y140100D01*
X-74972Y141465D01*
X-75745Y142623D01*
X-76903Y143397D01*
X-78269Y143668D01*
D02*
G37*
G36*
X190119Y141698D02*
X188753Y141426D01*
X187596Y140653D01*
X186822Y139495D01*
X186550Y138130D01*
X186822Y136764D01*
X187596Y135606D01*
X188753Y134833D01*
X190119Y134561D01*
X191485Y134833D01*
X192642Y135606D01*
X193416Y136764D01*
X193687Y138130D01*
X193416Y139495D01*
X192642Y140653D01*
X191485Y141426D01*
X190119Y141698D01*
D02*
G37*
G36*
X-66393Y139225D02*
X-67758Y138954D01*
X-68916Y138180D01*
X-69690Y137022D01*
X-69961Y135657D01*
X-69690Y134291D01*
X-68916Y133133D01*
X-67758Y132360D01*
X-66393Y132088D01*
X-65027Y132360D01*
X-63869Y133133D01*
X-63096Y134291D01*
X-62824Y135657D01*
X-63096Y137022D01*
X-63869Y138180D01*
X-65027Y138954D01*
X-66393Y139225D01*
D02*
G37*
G36*
X-117486Y137022D02*
X-118852Y136750D01*
X-120009Y135977D01*
X-120783Y134819D01*
X-121055Y133453D01*
X-120783Y132088D01*
X-120009Y130930D01*
X-118852Y130156D01*
X-117486Y129885D01*
X-116121Y130156D01*
X-114963Y130930D01*
X-114189Y132088D01*
X-113918Y133453D01*
X-114189Y134819D01*
X-114963Y135977D01*
X-116121Y136750D01*
X-117486Y137022D01*
D02*
G37*
G36*
X127000Y136824D02*
X125634Y136553D01*
X124477Y135779D01*
X123703Y134621D01*
X123431Y133256D01*
X123703Y131890D01*
X124477Y130732D01*
X125634Y129959D01*
X127000Y129687D01*
X128366Y129959D01*
X129523Y130732D01*
X130297Y131890D01*
X130569Y133256D01*
X130297Y134621D01*
X129523Y135779D01*
X128366Y136553D01*
X127000Y136824D01*
D02*
G37*
G36*
X48500D02*
X47134Y136553D01*
X45977Y135779D01*
X45203Y134621D01*
X44931Y133256D01*
X45203Y131890D01*
X45977Y130732D01*
X47134Y129959D01*
X48500Y129687D01*
X49866Y129959D01*
X51023Y130732D01*
X51797Y131890D01*
X52069Y133256D01*
X51797Y134621D01*
X51023Y135779D01*
X49866Y136553D01*
X48500Y136824D01*
D02*
G37*
G36*
X-127000D02*
X-128366Y136553D01*
X-129523Y135779D01*
X-130297Y134621D01*
X-130569Y133256D01*
X-130297Y131890D01*
X-129523Y130732D01*
X-128366Y129959D01*
X-127000Y129687D01*
X-125634Y129959D01*
X-124477Y130732D01*
X-123703Y131890D01*
X-123431Y133256D01*
X-123703Y134621D01*
X-124477Y135779D01*
X-125634Y136553D01*
X-127000Y136824D01*
D02*
G37*
G36*
X-279780Y136241D02*
X-281145Y135969D01*
X-282303Y135196D01*
X-283077Y134038D01*
X-283348Y132672D01*
X-283077Y131307D01*
X-282303Y130149D01*
X-281145Y129375D01*
X-279780Y129104D01*
X-278414Y129375D01*
X-277256Y130149D01*
X-276483Y131307D01*
X-276211Y132672D01*
X-276483Y134038D01*
X-277256Y135196D01*
X-278414Y135969D01*
X-279780Y136241D01*
D02*
G37*
G36*
X-142000Y135196D02*
X-143366Y134925D01*
X-144523Y134151D01*
X-145297Y132993D01*
X-145569Y131628D01*
X-145297Y130262D01*
X-144523Y129104D01*
X-143366Y128331D01*
X-142000Y128059D01*
X-140634Y128331D01*
X-139477Y129104D01*
X-138703Y130262D01*
X-138431Y131628D01*
X-138703Y132993D01*
X-139477Y134151D01*
X-140634Y134925D01*
X-142000Y135196D01*
D02*
G37*
G36*
X-177984Y132881D02*
X-179349Y132610D01*
X-180507Y131836D01*
X-181281Y130678D01*
X-181552Y129313D01*
X-181281Y127947D01*
X-180507Y126789D01*
X-179349Y126016D01*
X-177984Y125744D01*
X-176618Y126016D01*
X-175460Y126789D01*
X-174687Y127947D01*
X-174415Y129313D01*
X-174687Y130678D01*
X-175460Y131836D01*
X-176618Y132610D01*
X-177984Y132881D01*
D02*
G37*
G36*
X235Y127225D02*
X-1131Y126953D01*
X-2288Y126180D01*
X-3062Y125022D01*
X-3334Y123656D01*
X-3062Y122290D01*
X-2288Y121133D01*
X-1131Y120359D01*
X-8Y120136D01*
X276Y118988D01*
X289Y118641D01*
X-806Y117909D01*
X-1579Y116752D01*
X-1851Y115386D01*
X-1579Y114021D01*
X-2396Y112499D01*
X-6699D01*
X-6939Y112858D01*
X-7642Y113561D01*
X-8303Y114003D01*
X-8304Y114003D01*
X-9222Y114384D01*
X-10003Y114539D01*
X-29650D01*
X-30464Y116063D01*
X-30203Y116454D01*
X-29931Y117820D01*
X-30203Y119186D01*
X-30977Y120343D01*
X-32134Y121117D01*
X-33500Y121389D01*
X-34866Y121117D01*
X-36023Y120343D01*
X-36797Y119186D01*
X-37069Y117820D01*
X-36797Y116454D01*
X-36535Y116063D01*
X-37350Y114539D01*
X-44650D01*
X-45465Y116063D01*
X-45203Y116454D01*
X-44931Y117820D01*
X-45203Y119186D01*
X-45977Y120343D01*
X-47134Y121117D01*
X-48500Y121389D01*
X-49866Y121117D01*
X-51023Y120343D01*
X-51797Y119186D01*
X-52069Y117820D01*
X-51797Y116454D01*
X-51536Y116063D01*
X-52350Y114539D01*
X-59650D01*
X-60465Y116063D01*
X-60203Y116454D01*
X-59931Y117820D01*
X-60203Y119186D01*
X-60977Y120343D01*
X-62134Y121117D01*
X-63500Y121389D01*
X-64866Y121117D01*
X-66023Y120343D01*
X-66797Y119186D01*
X-67069Y117820D01*
X-66797Y116454D01*
X-66536Y116063D01*
X-67350Y114539D01*
X-74650D01*
X-75465Y116063D01*
X-75203Y116454D01*
X-74931Y117820D01*
X-75203Y119186D01*
X-75977Y120343D01*
X-77134Y121117D01*
X-78500Y121389D01*
X-79866Y121117D01*
X-81023Y120343D01*
X-81797Y119186D01*
X-82069Y117820D01*
X-81797Y116454D01*
X-81536Y116063D01*
X-82350Y114539D01*
X-165497D01*
X-166278Y114384D01*
X-167197Y114003D01*
X-167858Y113561D01*
X-168561Y112858D01*
X-169003Y112197D01*
X-169384Y111278D01*
X-169539Y110497D01*
Y110000D01*
Y10000D01*
Y9503D01*
X-169384Y8722D01*
X-169003Y7804D01*
X-168561Y7142D01*
X-168561Y7142D01*
X-167858Y6439D01*
X-167197Y5997D01*
X-166278Y5616D01*
X-165497Y5461D01*
X-130850D01*
X-130036Y3937D01*
X-130297Y3546D01*
X-130569Y2180D01*
X-130297Y814D01*
X-129523Y-343D01*
X-128366Y-1117D01*
X-127000Y-1389D01*
X-125634Y-1117D01*
X-124477Y-343D01*
X-123703Y814D01*
X-123431Y2180D01*
X-123703Y3546D01*
X-123964Y3937D01*
X-123150Y5461D01*
X-85750D01*
Y-12681D01*
X-87115Y-12953D01*
X-88273Y-13726D01*
X-89047Y-14884D01*
X-89318Y-16250D01*
X-89047Y-17615D01*
X-88273Y-18773D01*
X-87115Y-19547D01*
X-85750Y-19818D01*
Y-25200D01*
X-86108Y-25439D01*
X-86811Y-26142D01*
X-87253Y-26804D01*
X-87634Y-27722D01*
X-87789Y-28503D01*
Y-29000D01*
Y-129000D01*
Y-129497D01*
X-87634Y-130278D01*
X-87253Y-131196D01*
X-86811Y-131858D01*
X-86811Y-131858D01*
X-86108Y-132561D01*
X-85447Y-133003D01*
X-84528Y-133384D01*
X-83747Y-133539D01*
X-79100D01*
X-78286Y-135063D01*
X-78547Y-135454D01*
X-78819Y-136820D01*
X-78547Y-138186D01*
X-77773Y-139343D01*
X-76616Y-140117D01*
X-75250Y-140388D01*
X-73884Y-140117D01*
X-72727Y-139343D01*
X-71953Y-138186D01*
X-71681Y-136820D01*
X-71953Y-135454D01*
X-72214Y-135063D01*
X-71400Y-133539D01*
X-34100D01*
X-33286Y-135063D01*
X-33547Y-135454D01*
X-33819Y-136820D01*
X-33547Y-138186D01*
X-32773Y-139343D01*
X-31616Y-140117D01*
X-30250Y-140388D01*
X-28884Y-140117D01*
X-27727Y-139343D01*
X-26953Y-138186D01*
X-26681Y-136820D01*
X-26953Y-135454D01*
X-27214Y-135063D01*
X-26400Y-133539D01*
X-19100D01*
X-18286Y-135063D01*
X-18547Y-135454D01*
X-18819Y-136820D01*
X-18547Y-138186D01*
X-17773Y-139343D01*
X-16616Y-140117D01*
X-15250Y-140388D01*
X-13884Y-140117D01*
X-12727Y-139343D01*
X-11953Y-138186D01*
X-11681Y-136820D01*
X-11953Y-135454D01*
X-12214Y-135063D01*
X-11400Y-133539D01*
X71747D01*
X72528Y-133384D01*
X73446Y-133003D01*
X74108Y-132561D01*
X74108Y-132561D01*
X74811Y-131858D01*
X75050Y-131501D01*
X81200Y-131501D01*
X81439Y-131858D01*
X81439Y-131858D01*
X82142Y-132561D01*
X82803Y-133003D01*
X83722Y-133384D01*
X84503Y-133539D01*
X104195D01*
X105010Y-135063D01*
X104703Y-135522D01*
X104431Y-136888D01*
X104703Y-138254D01*
X105477Y-139411D01*
X106634Y-140185D01*
X108000Y-140457D01*
X109366Y-140185D01*
X110523Y-139411D01*
X111297Y-138254D01*
X111569Y-136888D01*
X111297Y-135522D01*
X110990Y-135063D01*
X111805Y-133539D01*
X134195D01*
X135010Y-135063D01*
X134703Y-135522D01*
X134431Y-136888D01*
X134703Y-138254D01*
X135477Y-139411D01*
X136634Y-140185D01*
X138000Y-140457D01*
X139366Y-140185D01*
X140523Y-139411D01*
X141297Y-138254D01*
X141569Y-136888D01*
X141297Y-135522D01*
X140990Y-135063D01*
X141805Y-133539D01*
X149195D01*
X150010Y-135063D01*
X149703Y-135522D01*
X149431Y-136888D01*
X149703Y-138254D01*
X150477Y-139411D01*
X151634Y-140185D01*
X153000Y-140457D01*
X154366Y-140185D01*
X155523Y-139411D01*
X156297Y-138254D01*
X156569Y-136888D01*
X156297Y-135522D01*
X155990Y-135063D01*
X156805Y-133539D01*
X161497D01*
X162278Y-133384D01*
X163197Y-133003D01*
X163858Y-132561D01*
X163858Y-132561D01*
X164561Y-131858D01*
X165003Y-131196D01*
X165003Y-131196D01*
X165384Y-130278D01*
X165539Y-129497D01*
Y-129000D01*
Y-29000D01*
Y-28503D01*
X165384Y-27722D01*
X165003Y-26804D01*
X164561Y-26142D01*
X163858Y-25439D01*
X163499Y-25199D01*
X163499Y-22378D01*
X165023Y-21312D01*
X165556Y-21418D01*
X166922Y-21147D01*
X168079Y-20373D01*
X168853Y-19215D01*
X169125Y-17850D01*
X168853Y-16484D01*
X168079Y-15326D01*
X166922Y-14553D01*
X165556Y-14281D01*
X165023Y-14387D01*
X163499Y-13322D01*
X163498Y4144D01*
X164815Y5461D01*
X165497D01*
X166278Y5616D01*
X167197Y5997D01*
X167858Y6439D01*
X167858Y6439D01*
X168561Y7142D01*
X169003Y7804D01*
X169003Y7804D01*
X169384Y8722D01*
X169539Y9503D01*
Y10000D01*
Y110000D01*
Y110497D01*
X169384Y111278D01*
X169003Y112197D01*
X168561Y112858D01*
X167858Y113561D01*
X167197Y114003D01*
X167196Y114003D01*
X166278Y114384D01*
X165497Y114539D01*
X10003D01*
X9222Y114384D01*
X8303Y114003D01*
X7642Y113561D01*
X7185Y113105D01*
X6091Y113097D01*
X5050Y114200D01*
X5286Y115386D01*
X5014Y116752D01*
X4241Y117909D01*
X3083Y118683D01*
X1961Y118906D01*
X1676Y120054D01*
X1663Y120401D01*
X2758Y121133D01*
X3532Y122290D01*
X3536Y122310D01*
X5090D01*
X5208Y121714D01*
X5982Y120557D01*
X7139Y119783D01*
X8505Y119511D01*
X9871Y119783D01*
X11028Y120557D01*
X11802Y121714D01*
X12074Y123080D01*
X11802Y124446D01*
X11028Y125603D01*
X9871Y126377D01*
X8505Y126649D01*
X7139Y126377D01*
X5982Y125603D01*
X5208Y124446D01*
X5204Y124426D01*
X3650D01*
X3532Y125022D01*
X2758Y126180D01*
X1601Y126953D01*
X235Y127225D01*
D02*
G37*
G36*
X188701Y126112D02*
X187335Y125841D01*
X186178Y125067D01*
X185404Y123909D01*
X185132Y122544D01*
X185404Y121178D01*
X186178Y120020D01*
X187335Y119247D01*
X188701Y118975D01*
X190067Y119247D01*
X191224Y120020D01*
X191998Y121178D01*
X192269Y122544D01*
X191998Y123909D01*
X191224Y125067D01*
X190067Y125841D01*
X188701Y126112D01*
D02*
G37*
G36*
X-195051Y125450D02*
X-196417Y125178D01*
X-197574Y124405D01*
X-198348Y123247D01*
X-198620Y121881D01*
X-198348Y120516D01*
X-197574Y119358D01*
X-196417Y118584D01*
X-195051Y118313D01*
X-193685Y118584D01*
X-192528Y119358D01*
X-191754Y120516D01*
X-191482Y121881D01*
X-191754Y123247D01*
X-192528Y124405D01*
X-193685Y125178D01*
X-195051Y125450D01*
D02*
G37*
G36*
X-176548Y112431D02*
X-177914Y112160D01*
X-179071Y111386D01*
X-179845Y110228D01*
X-180117Y108863D01*
X-179845Y107497D01*
X-179071Y106339D01*
X-177914Y105566D01*
X-176548Y105294D01*
X-175182Y105566D01*
X-174025Y106339D01*
X-173251Y107497D01*
X-172979Y108863D01*
X-173251Y110228D01*
X-174025Y111386D01*
X-175182Y112160D01*
X-176548Y112431D01*
D02*
G37*
G36*
X203078Y111547D02*
X201712Y111275D01*
X200555Y110502D01*
X199781Y109344D01*
X199509Y107978D01*
X199781Y106613D01*
X200555Y105455D01*
X201712Y104682D01*
X203078Y104410D01*
X204444Y104682D01*
X205601Y105455D01*
X206375Y106613D01*
X206646Y107978D01*
X206375Y109344D01*
X205601Y110502D01*
X204444Y111275D01*
X203078Y111547D01*
D02*
G37*
G36*
X-198663Y109200D02*
X-200029Y108928D01*
X-201187Y108154D01*
X-201960Y106997D01*
X-202232Y105631D01*
X-201960Y104265D01*
X-201187Y103108D01*
X-200029Y102334D01*
X-198663Y102063D01*
X-197298Y102334D01*
X-196140Y103108D01*
X-195366Y104265D01*
X-195095Y105631D01*
X-195366Y106997D01*
X-196140Y108154D01*
X-197298Y108928D01*
X-198663Y109200D01*
D02*
G37*
G36*
X-176548Y102907D02*
X-177914Y102636D01*
X-179071Y101862D01*
X-179845Y100704D01*
X-180117Y99339D01*
X-179845Y97973D01*
X-179071Y96815D01*
X-177914Y96042D01*
X-176548Y95770D01*
X-175182Y96042D01*
X-174025Y96815D01*
X-173251Y97973D01*
X-172979Y99339D01*
X-173251Y100704D01*
X-174025Y101862D01*
X-175182Y102636D01*
X-176548Y102907D01*
D02*
G37*
G36*
X-214683Y99152D02*
X-216049Y98880D01*
X-217206Y98106D01*
X-217980Y96949D01*
X-218252Y95583D01*
X-217980Y94218D01*
X-217206Y93060D01*
X-216049Y92286D01*
X-214683Y92015D01*
X-213318Y92286D01*
X-212160Y93060D01*
X-211386Y94218D01*
X-211115Y95583D01*
X-211386Y96949D01*
X-212160Y98106D01*
X-213318Y98880D01*
X-214683Y99152D01*
D02*
G37*
G36*
X-193241Y97818D02*
X-194606Y97547D01*
X-195764Y96773D01*
X-196538Y95615D01*
X-196809Y94250D01*
X-196538Y92884D01*
X-195764Y91726D01*
X-194606Y90953D01*
X-193241Y90681D01*
X-191875Y90953D01*
X-190717Y91726D01*
X-189944Y92884D01*
X-189672Y94250D01*
X-189944Y95615D01*
X-190717Y96773D01*
X-191875Y97547D01*
X-193241Y97818D01*
D02*
G37*
G36*
X222524Y93474D02*
X221158Y93202D01*
X220001Y92429D01*
X219227Y91271D01*
X218955Y89906D01*
X219227Y88540D01*
X220001Y87382D01*
X221158Y86609D01*
X222524Y86337D01*
X223890Y86609D01*
X225047Y87382D01*
X225821Y88540D01*
X226093Y89906D01*
X225821Y91271D01*
X225047Y92429D01*
X223890Y93202D01*
X222524Y93474D01*
D02*
G37*
G36*
X200980Y93051D02*
X199614Y92779D01*
X198457Y92005D01*
X197683Y90848D01*
X197411Y89482D01*
X197683Y88116D01*
X198457Y86959D01*
X199614Y86185D01*
X200980Y85913D01*
X202346Y86185D01*
X203503Y86959D01*
X204277Y88116D01*
X204549Y89482D01*
X204277Y90848D01*
X203503Y92005D01*
X202346Y92779D01*
X200980Y93051D01*
D02*
G37*
G36*
X182394Y78096D02*
X181028Y77824D01*
X179871Y77051D01*
X178117D01*
X176960Y77824D01*
X175594Y78096D01*
X174228Y77824D01*
X173071Y77051D01*
X172297Y75893D01*
X172025Y74527D01*
X172297Y73162D01*
X173071Y72004D01*
X174228Y71230D01*
X175594Y70959D01*
X176960Y71230D01*
X178117Y72004D01*
X179871D01*
X181028Y71230D01*
X182394Y70959D01*
X183760Y71230D01*
X184917Y72004D01*
X185691Y73162D01*
X185963Y74527D01*
X185691Y75893D01*
X184917Y77051D01*
X183760Y77824D01*
X182394Y78096D01*
D02*
G37*
G36*
X269153Y80747D02*
X267787Y80475D01*
X266630Y79702D01*
X265856Y78544D01*
X265585Y77178D01*
X265856Y75813D01*
X266630Y74655D01*
X267787Y73882D01*
X269153Y73610D01*
X270519Y73882D01*
X271677Y74655D01*
X272450Y75813D01*
X272722Y77178D01*
X272450Y78544D01*
X271677Y79702D01*
X270519Y80475D01*
X269153Y80747D01*
D02*
G37*
G36*
X-228253Y77733D02*
X-229619Y77461D01*
X-230777Y76687D01*
X-231550Y75530D01*
X-231822Y74164D01*
X-231550Y72798D01*
X-230777Y71641D01*
X-229619Y70867D01*
X-228253Y70595D01*
X-226888Y70867D01*
X-225730Y71641D01*
X-224957Y72798D01*
X-224685Y74164D01*
X-224957Y75530D01*
X-225730Y76687D01*
X-226888Y77461D01*
X-228253Y77733D01*
D02*
G37*
G36*
X281386Y73726D02*
X280020Y73454D01*
X278862Y72681D01*
X278089Y71523D01*
X277817Y70157D01*
X278089Y68792D01*
X278862Y67634D01*
X280020Y66860D01*
X281386Y66589D01*
X282751Y66860D01*
X283909Y67634D01*
X284683Y68792D01*
X284954Y70157D01*
X284683Y71523D01*
X283909Y72681D01*
X282751Y73454D01*
X281386Y73726D01*
D02*
G37*
G36*
X-199061Y70463D02*
X-200426Y70191D01*
X-201584Y69418D01*
X-202358Y68260D01*
X-202629Y66894D01*
X-202358Y65528D01*
X-201584Y64371D01*
X-200426Y63597D01*
X-199061Y63326D01*
X-197695Y63597D01*
X-196537Y64371D01*
X-195764Y65528D01*
X-195492Y66894D01*
X-195764Y68260D01*
X-196537Y69418D01*
X-197695Y70191D01*
X-199061Y70463D01*
D02*
G37*
G36*
X204477Y70007D02*
X203111Y69736D01*
X201954Y68962D01*
X201180Y67804D01*
X200909Y66439D01*
X201180Y65073D01*
X201954Y63915D01*
X203111Y63142D01*
X204477Y62870D01*
X205843Y63142D01*
X207001Y63915D01*
X207774Y65073D01*
X208046Y66439D01*
X207774Y67804D01*
X207001Y68962D01*
X205843Y69736D01*
X204477Y70007D01*
D02*
G37*
G36*
X178834Y68744D02*
X177468Y68472D01*
X176311Y67698D01*
X175537Y66541D01*
X175265Y65175D01*
X175537Y63809D01*
X176311Y62652D01*
X177468Y61878D01*
X178834Y61606D01*
X180200Y61878D01*
X181357Y62652D01*
X182131Y63809D01*
X182403Y65175D01*
X182131Y66541D01*
X181357Y67698D01*
X180200Y68472D01*
X178834Y68744D01*
D02*
G37*
G36*
X-179096Y64783D02*
X-180462Y64512D01*
X-181619Y63738D01*
X-182393Y62580D01*
X-182665Y61215D01*
X-182393Y59849D01*
X-181619Y58691D01*
X-180462Y57918D01*
X-179096Y57646D01*
X-177730Y57918D01*
X-176573Y58691D01*
X-175799Y59849D01*
X-175527Y61215D01*
X-175799Y62580D01*
X-176573Y63738D01*
X-177730Y64512D01*
X-179096Y64783D01*
D02*
G37*
G36*
X203378Y55887D02*
X202013Y55615D01*
X200855Y54842D01*
X200082Y53684D01*
X199810Y52318D01*
X200082Y50953D01*
X200855Y49795D01*
X201145Y49601D01*
X200551Y48165D01*
X199767Y48321D01*
X198401Y48050D01*
X197243Y47276D01*
X196470Y46118D01*
X196198Y44753D01*
X196470Y43387D01*
X197243Y42229D01*
X198401Y41456D01*
X199767Y41184D01*
X201132Y41456D01*
X202290Y42229D01*
X203064Y43387D01*
X203335Y44753D01*
X203064Y46118D01*
X202290Y47276D01*
X201999Y47470D01*
X202594Y48906D01*
X203378Y48750D01*
X204744Y49021D01*
X205902Y49795D01*
X206675Y50953D01*
X206947Y52318D01*
X206675Y53684D01*
X205902Y54842D01*
X204744Y55615D01*
X203378Y55887D01*
D02*
G37*
G36*
X-239646Y54507D02*
X-241012Y54235D01*
X-242169Y53462D01*
X-242943Y52304D01*
X-243215Y50938D01*
X-242943Y49573D01*
X-242169Y48415D01*
X-241012Y47641D01*
X-239646Y47370D01*
X-238281Y47641D01*
X-237123Y48415D01*
X-236349Y49573D01*
X-236077Y50938D01*
X-236349Y52304D01*
X-237123Y53462D01*
X-238281Y54235D01*
X-239646Y54507D01*
D02*
G37*
G36*
X-181636Y53973D02*
X-183002Y53702D01*
X-184159Y52928D01*
X-184933Y51770D01*
X-185205Y50405D01*
X-184933Y49039D01*
X-184159Y47881D01*
X-183002Y47108D01*
X-181636Y46836D01*
X-180270Y47108D01*
X-179113Y47881D01*
X-178339Y49039D01*
X-178067Y50405D01*
X-178339Y51770D01*
X-179113Y52928D01*
X-180270Y53702D01*
X-181636Y53973D01*
D02*
G37*
G36*
X-204618Y50808D02*
X-205983Y50537D01*
X-207141Y49763D01*
X-207915Y48605D01*
X-208186Y47240D01*
X-207915Y45874D01*
X-207141Y44716D01*
X-205983Y43943D01*
X-204618Y43671D01*
X-203252Y43943D01*
X-202094Y44716D01*
X-201321Y45874D01*
X-201049Y47240D01*
X-201321Y48605D01*
X-202094Y49763D01*
X-203252Y50537D01*
X-204618Y50808D01*
D02*
G37*
G36*
X282226Y43233D02*
X280861Y42961D01*
X279703Y42188D01*
X278929Y41030D01*
X278658Y39664D01*
X278929Y38299D01*
X279703Y37141D01*
X280861Y36367D01*
X282226Y36096D01*
X283592Y36367D01*
X284750Y37141D01*
X285523Y38299D01*
X285795Y39664D01*
X285523Y41030D01*
X284750Y42188D01*
X283592Y42961D01*
X282226Y43233D01*
D02*
G37*
G36*
X-247567Y38362D02*
X-248932Y38090D01*
X-250090Y37317D01*
X-250864Y36159D01*
X-251136Y34793D01*
X-250864Y33428D01*
X-250090Y32270D01*
X-248932Y31496D01*
X-247567Y31225D01*
X-246201Y31496D01*
X-245044Y32270D01*
X-244270Y33428D01*
X-243998Y34793D01*
X-244270Y36159D01*
X-245044Y37317D01*
X-246201Y38090D01*
X-247567Y38362D01*
D02*
G37*
G36*
X-177826Y36193D02*
X-179192Y35921D01*
X-180349Y35147D01*
X-181123Y33990D01*
X-181395Y32624D01*
X-181123Y31258D01*
X-181393Y30607D01*
X-181478Y30590D01*
X-182635Y29817D01*
X-183409Y28659D01*
X-183681Y27293D01*
X-183409Y25928D01*
X-184122Y24678D01*
X-184921Y24144D01*
X-185695Y22986D01*
X-185967Y21621D01*
X-185695Y20255D01*
X-184921Y19097D01*
Y18344D01*
X-185695Y17186D01*
X-185967Y15820D01*
X-185695Y14455D01*
X-184921Y13297D01*
X-183764Y12524D01*
X-182398Y12252D01*
X-181032Y12524D01*
X-179875Y13297D01*
X-179101Y14455D01*
X-178829Y15820D01*
X-179101Y17186D01*
X-179875Y18344D01*
Y19097D01*
X-179101Y20255D01*
X-178829Y21621D01*
X-179101Y22986D01*
X-178388Y24236D01*
X-177589Y24770D01*
X-176815Y25928D01*
X-176543Y27293D01*
X-176815Y28659D01*
X-176545Y29310D01*
X-176460Y29327D01*
X-175303Y30101D01*
X-174529Y31258D01*
X-174257Y32624D01*
X-174529Y33990D01*
X-175303Y35147D01*
X-176460Y35921D01*
X-177826Y36193D01*
D02*
G37*
G36*
X-204626Y20564D02*
X-206577Y20176D01*
X-208231Y19071D01*
X-209336Y17417D01*
X-209724Y15466D01*
X-209336Y13515D01*
X-208231Y11861D01*
X-206577Y10756D01*
X-204626Y10368D01*
X-202675Y10756D01*
X-201021Y11861D01*
X-199916Y13515D01*
X-199528Y15466D01*
X-199916Y17417D01*
X-201021Y19071D01*
X-202675Y20176D01*
X-204626Y20564D01*
D02*
G37*
G36*
X274832Y13166D02*
X273467Y12894D01*
X272309Y12121D01*
X271535Y10963D01*
X271264Y9597D01*
X271535Y8232D01*
X272309Y7074D01*
X273467Y6300D01*
X274832Y6029D01*
X276198Y6300D01*
X277356Y7074D01*
X278129Y8232D01*
X278401Y9597D01*
X278129Y10963D01*
X277356Y12121D01*
X276198Y12894D01*
X274832Y13166D01*
D02*
G37*
G36*
X180122Y5976D02*
X178757Y5705D01*
X177599Y4931D01*
X176826Y3774D01*
X176554Y2408D01*
X176826Y1042D01*
X177377Y217D01*
X176278Y-882D01*
X175648Y-461D01*
X174282Y-189D01*
X172917Y-461D01*
X171759Y-1234D01*
X170985Y-2392D01*
X170714Y-3758D01*
X170985Y-5123D01*
X171759Y-6281D01*
X172917Y-7055D01*
X174282Y-7326D01*
X175648Y-7055D01*
X176806Y-6281D01*
X177579Y-5123D01*
X177851Y-3758D01*
X177579Y-2392D01*
X177028Y-1567D01*
X178127Y-468D01*
X178757Y-889D01*
X180122Y-1161D01*
X181488Y-889D01*
X182646Y-115D01*
X183419Y1042D01*
X183691Y2408D01*
X183419Y3774D01*
X182646Y4931D01*
X181488Y5705D01*
X180122Y5976D01*
D02*
G37*
G36*
X-254845Y-5331D02*
X-256210Y-5602D01*
X-257368Y-6376D01*
X-258141Y-7534D01*
X-258413Y-8899D01*
X-258141Y-10265D01*
X-257368Y-11423D01*
X-256210Y-12196D01*
X-254845Y-12468D01*
X-253479Y-12196D01*
X-252321Y-11423D01*
X-251548Y-10265D01*
X-251276Y-8899D01*
X-251548Y-7534D01*
X-252321Y-6376D01*
X-253479Y-5602D01*
X-254845Y-5331D01*
D02*
G37*
G36*
X-119284Y-6177D02*
X-120650Y-6449D01*
X-121807Y-7222D01*
X-122581Y-8380D01*
X-122853Y-9745D01*
X-122581Y-11111D01*
X-121807Y-12269D01*
X-120650Y-13042D01*
X-119284Y-13314D01*
X-117919Y-13042D01*
X-116761Y-12269D01*
X-115987Y-11111D01*
X-115716Y-9745D01*
X-115987Y-8380D01*
X-116761Y-7222D01*
X-117919Y-6449D01*
X-119284Y-6177D01*
D02*
G37*
G36*
X-134388Y-6532D02*
X-135753Y-6804D01*
X-136911Y-7577D01*
X-137685Y-8735D01*
X-137956Y-10101D01*
X-137685Y-11466D01*
X-136911Y-12624D01*
X-135753Y-13398D01*
X-134388Y-13669D01*
X-133022Y-13398D01*
X-131864Y-12624D01*
X-131091Y-11466D01*
X-130819Y-10101D01*
X-131091Y-8735D01*
X-131864Y-7577D01*
X-133022Y-6804D01*
X-134388Y-6532D01*
D02*
G37*
G36*
X206403Y-3889D02*
X204452Y-4277D01*
X202798Y-5383D01*
X201693Y-7036D01*
X201305Y-8987D01*
X201693Y-10938D01*
X202798Y-12592D01*
X204452Y-13697D01*
X206403Y-14085D01*
X208354Y-13697D01*
X210007Y-12592D01*
X211113Y-10938D01*
X211501Y-8987D01*
X211113Y-7036D01*
X210007Y-5383D01*
X208354Y-4277D01*
X206403Y-3889D01*
D02*
G37*
G36*
X-104164Y-10386D02*
X-105529Y-10658D01*
X-106687Y-11431D01*
X-107461Y-12589D01*
X-107732Y-13955D01*
X-107461Y-15321D01*
X-106687Y-16478D01*
X-105529Y-17252D01*
X-104164Y-17523D01*
X-102798Y-17252D01*
X-101640Y-16478D01*
X-100867Y-15321D01*
X-100595Y-13955D01*
X-100867Y-12589D01*
X-101640Y-11431D01*
X-102798Y-10658D01*
X-104164Y-10386D01*
D02*
G37*
G36*
X-259366Y-14568D02*
X-260732Y-14840D01*
X-261890Y-15613D01*
X-262663Y-16771D01*
X-262935Y-18137D01*
X-262663Y-19502D01*
X-261890Y-20660D01*
X-260732Y-21434D01*
X-259366Y-21705D01*
X-258001Y-21434D01*
X-256843Y-20660D01*
X-256070Y-19502D01*
X-255798Y-18137D01*
X-256070Y-16771D01*
X-256843Y-15613D01*
X-258001Y-14840D01*
X-259366Y-14568D01*
D02*
G37*
G36*
X269342Y-15266D02*
X267977Y-15537D01*
X266819Y-16311D01*
X266045Y-17469D01*
X265774Y-18834D01*
X266045Y-20200D01*
X266819Y-21358D01*
X267977Y-22131D01*
X269342Y-22403D01*
X270708Y-22131D01*
X271866Y-21358D01*
X272639Y-20200D01*
X272911Y-18834D01*
X272639Y-17469D01*
X271866Y-16311D01*
X270708Y-15537D01*
X269342Y-15266D01*
D02*
G37*
G36*
X192103Y-13885D02*
X190152Y-14273D01*
X188498Y-15378D01*
X187393Y-17032D01*
X187005Y-18982D01*
X187393Y-20933D01*
X188498Y-22587D01*
X190152Y-23692D01*
X192103Y-24080D01*
X194053Y-23692D01*
X195707Y-22587D01*
X196812Y-20933D01*
X197201Y-18982D01*
X196812Y-17032D01*
X195707Y-15378D01*
X194053Y-14273D01*
X192103Y-13885D01*
D02*
G37*
G36*
X-104205Y-31411D02*
X-105571Y-31683D01*
X-106728Y-32457D01*
X-107502Y-33614D01*
X-107774Y-34980D01*
X-107502Y-36346D01*
X-106728Y-37503D01*
X-105571Y-38277D01*
X-104205Y-38549D01*
X-102839Y-38277D01*
X-101682Y-37503D01*
X-100908Y-36346D01*
X-100636Y-34980D01*
X-100908Y-33614D01*
X-101682Y-32457D01*
X-102839Y-31683D01*
X-104205Y-31411D01*
D02*
G37*
G36*
X-207719Y-27301D02*
X-209084Y-27573D01*
X-210242Y-28346D01*
X-211016Y-29504D01*
X-211287Y-30870D01*
X-211016Y-32235D01*
X-210242Y-33393D01*
X-209084Y-34167D01*
X-207719Y-34438D01*
X-206479Y-35678D01*
X-206207Y-37044D01*
X-205434Y-38201D01*
X-204276Y-38975D01*
X-202910Y-39247D01*
X-201545Y-38975D01*
X-200387Y-38201D01*
X-199613Y-37044D01*
X-199342Y-35678D01*
X-199613Y-34312D01*
X-200387Y-33155D01*
X-201545Y-32381D01*
X-202910Y-32109D01*
X-204150Y-30870D01*
X-204422Y-29504D01*
X-205195Y-28346D01*
X-206353Y-27573D01*
X-207719Y-27301D01*
D02*
G37*
G36*
X-262421Y-33312D02*
X-263787Y-33584D01*
X-264944Y-34358D01*
X-265718Y-35515D01*
X-265989Y-36881D01*
X-265718Y-38247D01*
X-264944Y-39404D01*
X-263787Y-40178D01*
X-262421Y-40449D01*
X-261055Y-40178D01*
X-259898Y-39404D01*
X-259124Y-38247D01*
X-258852Y-36881D01*
X-259124Y-35515D01*
X-259898Y-34358D01*
X-261055Y-33584D01*
X-262421Y-33312D01*
D02*
G37*
G36*
X-94290Y-33431D02*
X-95656Y-33703D01*
X-96814Y-34477D01*
X-97587Y-35634D01*
X-97859Y-37000D01*
X-97587Y-38366D01*
X-96814Y-39523D01*
X-95656Y-40297D01*
X-94290Y-40568D01*
X-92925Y-40297D01*
X-91767Y-39523D01*
X-90993Y-38366D01*
X-90722Y-37000D01*
X-90993Y-35634D01*
X-91767Y-34477D01*
X-92925Y-33703D01*
X-94290Y-33431D01*
D02*
G37*
G36*
X260974Y-42448D02*
X259608Y-42720D01*
X258451Y-43493D01*
X257677Y-44651D01*
X257405Y-46017D01*
X257677Y-47382D01*
X258451Y-48540D01*
X259608Y-49314D01*
X260974Y-49585D01*
X262340Y-49314D01*
X263497Y-48540D01*
X264271Y-47382D01*
X264543Y-46017D01*
X264271Y-44651D01*
X263497Y-43493D01*
X262340Y-42720D01*
X260974Y-42448D01*
D02*
G37*
G36*
X-123299Y-42332D02*
X-125249Y-42720D01*
X-126903Y-43825D01*
X-128008Y-45479D01*
X-128396Y-47430D01*
X-128008Y-49381D01*
X-126903Y-51035D01*
X-125249Y-52140D01*
X-123299Y-52528D01*
X-121348Y-52140D01*
X-119694Y-51035D01*
X-118589Y-49381D01*
X-118201Y-47430D01*
X-118589Y-45479D01*
X-119694Y-43825D01*
X-121348Y-42720D01*
X-123299Y-42332D01*
D02*
G37*
G36*
X203762Y-47235D02*
X202397Y-47507D01*
X201239Y-48280D01*
X200465Y-49438D01*
X200194Y-50804D01*
X200465Y-52169D01*
X201239Y-53327D01*
X202397Y-54100D01*
X203762Y-54372D01*
X205128Y-54100D01*
X206285Y-53327D01*
X207059Y-52169D01*
X207331Y-50804D01*
X207059Y-49438D01*
X206285Y-48280D01*
X205128Y-47507D01*
X203762Y-47235D01*
D02*
G37*
G36*
X174012Y-56421D02*
X172647Y-56693D01*
X171489Y-57467D01*
X170715Y-58624D01*
X170444Y-59990D01*
X170715Y-61356D01*
X171489Y-62513D01*
X172647Y-63287D01*
X174012Y-63559D01*
X175378Y-63287D01*
X176536Y-62513D01*
X177309Y-61356D01*
X177581Y-59990D01*
X177309Y-58624D01*
X176536Y-57467D01*
X175378Y-56693D01*
X174012Y-56421D01*
D02*
G37*
G36*
X-261980Y-61750D02*
X-263345Y-62022D01*
X-264503Y-62796D01*
X-265277Y-63953D01*
X-265548Y-65319D01*
X-265277Y-66684D01*
X-264503Y-67842D01*
X-263345Y-68616D01*
X-261980Y-68888D01*
X-260614Y-68616D01*
X-259456Y-67842D01*
X-258683Y-66684D01*
X-258411Y-65319D01*
X-258683Y-63953D01*
X-259456Y-62796D01*
X-260614Y-62022D01*
X-261980Y-61750D01*
D02*
G37*
G36*
X249928Y-68097D02*
X248562Y-68369D01*
X247405Y-69142D01*
X246631Y-70300D01*
X246359Y-71666D01*
X246631Y-73031D01*
X247405Y-74189D01*
X248562Y-74963D01*
X249928Y-75234D01*
X251294Y-74963D01*
X252451Y-74189D01*
X253225Y-73031D01*
X253496Y-71666D01*
X253225Y-70300D01*
X252451Y-69142D01*
X251294Y-68369D01*
X249928Y-68097D01*
D02*
G37*
G36*
X177620Y-65945D02*
X176254Y-66217D01*
X175097Y-66990D01*
X174323Y-68148D01*
X174051Y-69514D01*
X174323Y-70880D01*
X175097Y-72037D01*
X176254Y-72811D01*
X177620Y-73082D01*
X178986Y-72811D01*
X180631Y-73419D01*
X181404Y-74577D01*
X182562Y-75351D01*
X183928Y-75623D01*
X185293Y-75351D01*
X186451Y-74577D01*
X187225Y-73419D01*
X187496Y-72054D01*
X187225Y-70688D01*
X186451Y-69531D01*
X185293Y-68757D01*
X183928Y-68485D01*
X182562Y-68757D01*
X180917Y-68148D01*
X180143Y-66990D01*
X178986Y-66217D01*
X177620Y-65945D01*
D02*
G37*
G36*
X196446Y-68873D02*
X195080Y-69145D01*
X193923Y-69919D01*
X193149Y-71076D01*
X192877Y-72442D01*
X193149Y-73808D01*
X193923Y-74965D01*
X195080Y-75739D01*
X196446Y-76011D01*
X197812Y-75739D01*
X198969Y-74965D01*
X199743Y-73808D01*
X200014Y-72442D01*
X199743Y-71076D01*
X198969Y-69919D01*
X197812Y-69145D01*
X196446Y-68873D01*
D02*
G37*
G36*
X-258415Y-90487D02*
X-259781Y-90759D01*
X-260939Y-91532D01*
X-261712Y-92690D01*
X-261984Y-94056D01*
X-261712Y-95421D01*
X-260939Y-96579D01*
X-259781Y-97352D01*
X-258415Y-97624D01*
X-257050Y-97352D01*
X-255892Y-96579D01*
X-255118Y-95421D01*
X-254847Y-94056D01*
X-255118Y-92690D01*
X-255892Y-91532D01*
X-257050Y-90759D01*
X-258415Y-90487D01*
D02*
G37*
G36*
X-143025Y-96324D02*
X-144390Y-96596D01*
X-145548Y-97369D01*
X-146321Y-98527D01*
X-146383Y-98834D01*
X-147936D01*
X-147998Y-98527D01*
X-148771Y-97369D01*
X-149929Y-96596D01*
X-151294Y-96324D01*
X-152660Y-96596D01*
X-153818Y-97369D01*
X-154591Y-98527D01*
X-154863Y-99893D01*
X-154591Y-101258D01*
X-153818Y-102416D01*
X-152660Y-103189D01*
X-151294Y-103461D01*
X-149929Y-103189D01*
X-148771Y-102416D01*
X-147998Y-101258D01*
X-147936Y-100951D01*
X-146383D01*
X-146321Y-101258D01*
X-145548Y-102416D01*
X-144390Y-103189D01*
X-143025Y-103461D01*
X-141659Y-103189D01*
X-140501Y-102416D01*
X-139728Y-101258D01*
X-139456Y-99893D01*
X-139728Y-98527D01*
X-140501Y-97369D01*
X-141659Y-96596D01*
X-143025Y-96324D01*
D02*
G37*
G36*
X236432Y-91956D02*
X235066Y-92228D01*
X233908Y-93001D01*
X233135Y-94159D01*
X232863Y-95525D01*
X233135Y-96890D01*
X233908Y-98048D01*
X235066Y-98822D01*
X236432Y-99093D01*
X237797Y-98822D01*
X238955Y-98048D01*
X239729Y-96890D01*
X240000Y-95525D01*
X239729Y-94159D01*
X238955Y-93001D01*
X237797Y-92228D01*
X236432Y-91956D01*
D02*
G37*
G36*
X220205Y-103832D02*
X218839Y-104104D01*
X217681Y-104878D01*
X216908Y-106035D01*
X216636Y-107401D01*
X216908Y-108766D01*
X217681Y-109924D01*
X218839Y-110698D01*
X220205Y-110969D01*
X221570Y-110698D01*
X222728Y-109924D01*
X223501Y-108766D01*
X223773Y-107401D01*
X223501Y-106035D01*
X222728Y-104878D01*
X221570Y-104104D01*
X220205Y-103832D01*
D02*
G37*
G36*
X-251662Y-119175D02*
X-253028Y-119447D01*
X-254186Y-120220D01*
X-254959Y-121378D01*
X-255231Y-122744D01*
X-254959Y-124109D01*
X-254186Y-125267D01*
X-253028Y-126041D01*
X-251662Y-126312D01*
X-250297Y-126041D01*
X-249139Y-125267D01*
X-248365Y-124109D01*
X-248094Y-122744D01*
X-248365Y-121378D01*
X-249139Y-120220D01*
X-250297Y-119447D01*
X-251662Y-119175D01*
D02*
G37*
G36*
X-173939Y-122805D02*
X-175304Y-123077D01*
X-176462Y-123850D01*
X-177236Y-125008D01*
X-177507Y-126374D01*
X-177236Y-127739D01*
X-176462Y-128897D01*
X-175304Y-129671D01*
X-173939Y-129942D01*
X-172573Y-129671D01*
X-171415Y-128897D01*
X-170642Y-127739D01*
X-170370Y-126374D01*
X-170642Y-125008D01*
X-171415Y-123850D01*
X-172573Y-123077D01*
X-173939Y-122805D01*
D02*
G37*
G36*
X209668Y-132591D02*
X208302Y-132863D01*
X207144Y-133636D01*
X206371Y-134794D01*
X206099Y-136160D01*
X206371Y-137525D01*
X207144Y-138683D01*
X208302Y-139457D01*
X209668Y-139728D01*
X211033Y-139457D01*
X212191Y-138683D01*
X212964Y-137525D01*
X213236Y-136160D01*
X212964Y-134794D01*
X212191Y-133636D01*
X211033Y-132863D01*
X209668Y-132591D01*
D02*
G37*
G36*
X-98511Y-134400D02*
X-99877Y-134672D01*
X-101035Y-135446D01*
X-101808Y-136603D01*
X-102080Y-137969D01*
X-101808Y-139335D01*
X-101035Y-140492D01*
X-99877Y-141266D01*
X-98511Y-141538D01*
X-97146Y-141266D01*
X-95988Y-140492D01*
X-95214Y-139335D01*
X-94943Y-137969D01*
X-95214Y-136603D01*
X-95988Y-135446D01*
X-97146Y-134672D01*
X-98511Y-134400D01*
D02*
G37*
G36*
X73050Y-135455D02*
X71684Y-135727D01*
X70527Y-136501D01*
X69753Y-137658D01*
X69481Y-139024D01*
X69753Y-140390D01*
X70527Y-141547D01*
X71684Y-142321D01*
X73050Y-142593D01*
X74416Y-142321D01*
X75573Y-141547D01*
X76347Y-140390D01*
X76619Y-139024D01*
X76347Y-137658D01*
X75573Y-136501D01*
X74416Y-135727D01*
X73050Y-135455D01*
D02*
G37*
G36*
X194164Y-137500D02*
X192798Y-137772D01*
X191641Y-138545D01*
X190867Y-139703D01*
X190595Y-141068D01*
X190867Y-142434D01*
X191641Y-143592D01*
X192798Y-144365D01*
X194164Y-144637D01*
X195530Y-144365D01*
X196687Y-143592D01*
X197461Y-142434D01*
X197733Y-141068D01*
X197461Y-139703D01*
X196687Y-138545D01*
X195530Y-137772D01*
X194164Y-137500D01*
D02*
G37*
G36*
X-163492Y-143640D02*
X-164858Y-143912D01*
X-166015Y-144685D01*
X-166789Y-145843D01*
X-167060Y-147209D01*
X-166789Y-148574D01*
X-166015Y-149732D01*
X-164858Y-150506D01*
X-163492Y-150777D01*
X-162126Y-150506D01*
X-160968Y-149732D01*
X-160195Y-148574D01*
X-159923Y-147209D01*
X-160195Y-145843D01*
X-160968Y-144685D01*
X-162126Y-143912D01*
X-163492Y-143640D01*
D02*
G37*
G36*
X33250Y-146666D02*
X31884Y-146937D01*
X30727Y-147711D01*
X29953Y-148869D01*
X29681Y-150234D01*
X29953Y-151600D01*
X30727Y-152758D01*
X31884Y-153531D01*
X33250Y-153803D01*
X34616Y-153531D01*
X35773Y-152758D01*
X36547Y-151600D01*
X36819Y-150234D01*
X36547Y-148869D01*
X35773Y-147711D01*
X34616Y-146937D01*
X33250Y-146666D01*
D02*
G37*
G36*
X-241694Y-147458D02*
X-243059Y-147730D01*
X-244217Y-148504D01*
X-244991Y-149661D01*
X-245262Y-151027D01*
X-244991Y-152393D01*
X-244217Y-153550D01*
X-243059Y-154324D01*
X-241694Y-154595D01*
X-240328Y-154324D01*
X-239170Y-153550D01*
X-238397Y-152393D01*
X-238125Y-151027D01*
X-238397Y-149661D01*
X-239170Y-148504D01*
X-240328Y-147730D01*
X-241694Y-147458D01*
D02*
G37*
G36*
X83200Y-141648D02*
X81834Y-141920D01*
X80677Y-142693D01*
X79903Y-143851D01*
X79631Y-145217D01*
X79903Y-146582D01*
X80677Y-147740D01*
X81834Y-148513D01*
X83200Y-148785D01*
X83715Y-148683D01*
X84665Y-150004D01*
X84393Y-151369D01*
X84665Y-152735D01*
X85439Y-153892D01*
X86596Y-154666D01*
X87962Y-154938D01*
X89328Y-154666D01*
X90485Y-153892D01*
X91259Y-152735D01*
X91531Y-151369D01*
X91259Y-150003D01*
X90485Y-148846D01*
X89328Y-148072D01*
X87962Y-147801D01*
X87447Y-147903D01*
X86497Y-146582D01*
X86769Y-145217D01*
X86497Y-143851D01*
X85723Y-142693D01*
X84566Y-141920D01*
X83200Y-141648D01*
D02*
G37*
G36*
X66002Y-147801D02*
X64636Y-148073D01*
X63479Y-148847D01*
X62705Y-150004D01*
X62434Y-151370D01*
X62705Y-152736D01*
X63479Y-153893D01*
X64636Y-154667D01*
X66002Y-154938D01*
X67368Y-154667D01*
X68525Y-153893D01*
X69299Y-152736D01*
X69571Y-151370D01*
X69299Y-150004D01*
X68525Y-148847D01*
X67368Y-148073D01*
X66002Y-147801D01*
D02*
G37*
G36*
X76238Y-148155D02*
X74872Y-148427D01*
X73715Y-149200D01*
X72941Y-150358D01*
X72670Y-151724D01*
X72941Y-153089D01*
X73715Y-154247D01*
X74872Y-155021D01*
X76238Y-155292D01*
X77604Y-155021D01*
X78762Y-154247D01*
X79535Y-153089D01*
X79807Y-151724D01*
X79535Y-150358D01*
X78762Y-149200D01*
X77604Y-148427D01*
X76238Y-148155D01*
D02*
G37*
G36*
X-45250Y-148431D02*
X-46616Y-148703D01*
X-47773Y-149476D01*
X-48547Y-150634D01*
X-48819Y-152000D01*
X-48547Y-153365D01*
X-47773Y-154523D01*
X-46616Y-155297D01*
X-45250Y-155568D01*
X-43884Y-155297D01*
X-42727Y-154523D01*
X-41953Y-153365D01*
X-41681Y-152000D01*
X-41953Y-150634D01*
X-42727Y-149476D01*
X-43884Y-148703D01*
X-45250Y-148431D01*
D02*
G37*
G36*
X-70620D02*
X-71985Y-148703D01*
X-73143Y-149476D01*
X-73917Y-150634D01*
X-74188Y-152000D01*
X-73917Y-153365D01*
X-73143Y-154523D01*
X-71985Y-155297D01*
X-70620Y-155568D01*
X-69254Y-155297D01*
X-68096Y-154523D01*
X-67323Y-153365D01*
X-67051Y-152000D01*
X-67323Y-150634D01*
X-68096Y-149476D01*
X-69254Y-148703D01*
X-70620Y-148431D01*
D02*
G37*
G36*
X122114Y-148712D02*
X120748Y-148984D01*
X119590Y-149757D01*
X118817Y-150915D01*
X118545Y-152281D01*
X118817Y-153646D01*
X119590Y-154804D01*
X120748Y-155578D01*
X122114Y-155849D01*
X123479Y-155578D01*
X124637Y-154804D01*
X125411Y-153646D01*
X125682Y-152281D01*
X125411Y-150915D01*
X124637Y-149757D01*
X123479Y-148984D01*
X122114Y-148712D01*
D02*
G37*
G36*
X9652Y-151436D02*
X8286Y-151707D01*
X7129Y-152481D01*
X6355Y-153638D01*
X6083Y-155004D01*
X6355Y-156370D01*
X7129Y-157528D01*
X8286Y-158301D01*
X9652Y-158573D01*
X11018Y-158301D01*
X12175Y-157528D01*
X12949Y-156370D01*
X13221Y-155004D01*
X12949Y-153638D01*
X12175Y-152481D01*
X11018Y-151707D01*
X9652Y-151436D01*
D02*
G37*
G36*
X140433Y-151436D02*
X139067Y-151708D01*
X137909Y-152482D01*
X137136Y-153639D01*
X136864Y-155005D01*
X137136Y-156371D01*
X137909Y-157528D01*
X139067Y-158302D01*
X140433Y-158574D01*
X141798Y-158302D01*
X142956Y-157528D01*
X143730Y-156371D01*
X144001Y-155005D01*
X143730Y-153639D01*
X142956Y-152482D01*
X141798Y-151708D01*
X140433Y-151436D01*
D02*
G37*
G36*
X-273168Y-127943D02*
X-274533Y-128215D01*
X-275691Y-128989D01*
X-276465Y-130146D01*
X-276736Y-131512D01*
X-276465Y-132878D01*
X-275691Y-134035D01*
X-274533Y-134809D01*
X-273282Y-135058D01*
X-273168Y-135081D01*
X-272892Y-135138D01*
X-272578Y-136666D01*
X-273405Y-137219D01*
X-274179Y-138376D01*
X-274450Y-139742D01*
X-274179Y-141108D01*
X-273405Y-142265D01*
Y-143019D01*
X-274179Y-144176D01*
X-274450Y-145542D01*
X-274179Y-146908D01*
X-273880Y-147355D01*
X-273508Y-148410D01*
X-273861Y-149593D01*
X-274131Y-149997D01*
X-274402Y-151362D01*
X-274131Y-152728D01*
X-273871Y-153117D01*
X-273405Y-154639D01*
X-274179Y-155796D01*
X-274450Y-157162D01*
X-274179Y-158528D01*
X-273405Y-159685D01*
X-272247Y-160459D01*
X-270882Y-160731D01*
X-269516Y-160459D01*
X-268358Y-159685D01*
X-267585Y-158528D01*
X-267313Y-157162D01*
X-267585Y-155796D01*
X-267845Y-155407D01*
X-268311Y-153885D01*
X-267537Y-152728D01*
X-267265Y-151362D01*
X-267537Y-149997D01*
X-267836Y-149549D01*
X-268207Y-148494D01*
X-267854Y-147311D01*
X-267585Y-146908D01*
X-267313Y-145542D01*
X-267585Y-144176D01*
X-268358Y-143019D01*
Y-142265D01*
X-267585Y-141108D01*
X-267313Y-139742D01*
X-267585Y-138376D01*
X-268358Y-137219D01*
X-269516Y-136445D01*
X-270767Y-136196D01*
X-270882Y-136173D01*
X-271157Y-136116D01*
X-271472Y-134588D01*
X-270644Y-134035D01*
X-269871Y-132878D01*
X-269599Y-131512D01*
X-269871Y-130146D01*
X-270644Y-128989D01*
X-271802Y-128215D01*
X-273168Y-127943D01*
D02*
G37*
G36*
X174639Y-153677D02*
X173273Y-153949D01*
X172116Y-154722D01*
X171342Y-155880D01*
X171070Y-157246D01*
X171342Y-158611D01*
X172116Y-159769D01*
X173273Y-160543D01*
X174639Y-160814D01*
X176005Y-160543D01*
X177162Y-159769D01*
X177936Y-158611D01*
X178208Y-157246D01*
X177936Y-155880D01*
X177162Y-154722D01*
X176005Y-153949D01*
X174639Y-153677D01*
D02*
G37*
G36*
X130481Y-153913D02*
X129116Y-154184D01*
X127958Y-154958D01*
X127184Y-156116D01*
X126913Y-157481D01*
X127184Y-158847D01*
X127958Y-160005D01*
X129116Y-160778D01*
X130481Y-161050D01*
X131847Y-160778D01*
X133005Y-160005D01*
X133778Y-158847D01*
X134050Y-157481D01*
X133778Y-156116D01*
X133005Y-154958D01*
X131847Y-154184D01*
X130481Y-153913D01*
D02*
G37*
G36*
X30Y-156796D02*
X-1336Y-157068D01*
X-2493Y-157842D01*
X-3267Y-158999D01*
X-3539Y-160365D01*
X-3267Y-161731D01*
X-2493Y-162888D01*
X-1336Y-163662D01*
X30Y-163934D01*
X1396Y-163662D01*
X2553Y-162888D01*
X3327Y-161731D01*
X3599Y-160365D01*
X3327Y-158999D01*
X2553Y-157842D01*
X1396Y-157068D01*
X30Y-156796D01*
D02*
G37*
G36*
X-240421Y-158597D02*
X-241786Y-158869D01*
X-242944Y-159642D01*
X-243718Y-160800D01*
X-243989Y-162166D01*
X-243718Y-163531D01*
X-242944Y-164689D01*
X-241786Y-165463D01*
X-240421Y-165734D01*
X-239055Y-165463D01*
X-237897Y-164689D01*
X-237124Y-163531D01*
X-236852Y-162166D01*
X-237124Y-160800D01*
X-237897Y-159642D01*
X-239055Y-158869D01*
X-240421Y-158597D01*
D02*
G37*
G36*
X94299Y-159813D02*
X92933Y-160085D01*
X91775Y-160859D01*
X91002Y-162016D01*
X90730Y-163382D01*
X91002Y-164748D01*
X91775Y-165905D01*
X92933Y-166679D01*
X94299Y-166951D01*
X95664Y-166679D01*
X96822Y-165905D01*
X97596Y-164748D01*
X97867Y-163382D01*
X97596Y-162016D01*
X96822Y-160859D01*
X95664Y-160085D01*
X94299Y-159813D01*
D02*
G37*
G36*
X-150554Y-163639D02*
X-151920Y-163911D01*
X-153078Y-164684D01*
X-153851Y-165842D01*
X-154123Y-167208D01*
X-153851Y-168573D01*
X-153078Y-169731D01*
X-151920Y-170504D01*
X-150554Y-170776D01*
X-149189Y-170504D01*
X-148031Y-169731D01*
X-147257Y-168573D01*
X-146986Y-167208D01*
X-147257Y-165842D01*
X-148031Y-164684D01*
X-149189Y-163911D01*
X-150554Y-163639D01*
D02*
G37*
G36*
X59160Y-164616D02*
X57794Y-164888D01*
X56636Y-165662D01*
X55863Y-166819D01*
X55591Y-168185D01*
X55863Y-169550D01*
X56636Y-170708D01*
X57794Y-171482D01*
X59160Y-171753D01*
X60525Y-171482D01*
X61683Y-170708D01*
X62457Y-169550D01*
X62728Y-168185D01*
X62457Y-166819D01*
X61683Y-165662D01*
X60525Y-164888D01*
X59160Y-164616D01*
D02*
G37*
G36*
X153900Y-167355D02*
X152534Y-167626D01*
X151377Y-168400D01*
X150603Y-169558D01*
X150331Y-170923D01*
X150603Y-172289D01*
X151377Y-173447D01*
X152534Y-174220D01*
X153900Y-174492D01*
X155266Y-174220D01*
X156423Y-173447D01*
X157197Y-172289D01*
X157469Y-170923D01*
X157197Y-169558D01*
X156423Y-168400D01*
X155266Y-167626D01*
X153900Y-167355D01*
D02*
G37*
G36*
X-114374Y-172552D02*
X-115740Y-172824D01*
X-116898Y-173598D01*
X-117671Y-174755D01*
X-117943Y-176121D01*
X-117671Y-177486D01*
X-116898Y-178644D01*
X-115740Y-179418D01*
X-114374Y-179689D01*
X-113009Y-179418D01*
X-111851Y-178644D01*
X-111077Y-177486D01*
X-110806Y-176121D01*
X-111077Y-174755D01*
X-111851Y-173598D01*
X-113009Y-172824D01*
X-114374Y-172552D01*
D02*
G37*
G36*
X-68000Y-174431D02*
X-69366Y-174703D01*
X-70523Y-175477D01*
X-71297Y-176634D01*
X-71569Y-178000D01*
X-71297Y-179366D01*
X-70523Y-180523D01*
X-69366Y-181297D01*
X-68000Y-181569D01*
X-66634Y-181297D01*
X-65477Y-180523D01*
X-64703Y-179366D01*
X-64431Y-178000D01*
X-64703Y-176634D01*
X-65477Y-175477D01*
X-66634Y-174703D01*
X-68000Y-174431D01*
D02*
G37*
G36*
X132252Y-178460D02*
X130886Y-178732D01*
X129728Y-179506D01*
X128955Y-180663D01*
X128683Y-182029D01*
X128955Y-183395D01*
X129728Y-184552D01*
X130886Y-185326D01*
X132252Y-185597D01*
X133617Y-185326D01*
X134775Y-184552D01*
X135549Y-183395D01*
X135820Y-182029D01*
X135549Y-180663D01*
X134775Y-179506D01*
X133617Y-178732D01*
X132252Y-178460D01*
D02*
G37*
G36*
X-77821Y-179066D02*
X-79186Y-179338D01*
X-80344Y-180112D01*
X-81117Y-181269D01*
X-81389Y-182635D01*
X-81117Y-184001D01*
X-80344Y-185158D01*
X-79186Y-185932D01*
X-77821Y-186204D01*
X-76455Y-185932D01*
X-75297Y-185158D01*
X-74524Y-184001D01*
X-74252Y-182635D01*
X-74524Y-181269D01*
X-75297Y-180112D01*
X-76455Y-179338D01*
X-77821Y-179066D01*
D02*
G37*
G36*
X-135191Y-182505D02*
X-136556Y-182777D01*
X-137714Y-183550D01*
X-138488Y-184708D01*
X-138759Y-186074D01*
X-138488Y-187439D01*
X-137714Y-188597D01*
X-136556Y-189371D01*
X-135191Y-189643D01*
X-133825Y-189371D01*
X-132667Y-188597D01*
X-131894Y-187439D01*
X-131622Y-186074D01*
X-131894Y-184708D01*
X-132667Y-183550D01*
X-133825Y-182777D01*
X-135191Y-182505D01*
D02*
G37*
G36*
X-290340Y-184102D02*
X-291706Y-184374D01*
X-292863Y-185148D01*
X-293637Y-186305D01*
X-293909Y-187671D01*
X-293637Y-189037D01*
X-292863Y-190194D01*
X-291706Y-190968D01*
X-290340Y-191239D01*
X-288974Y-190968D01*
X-287817Y-190194D01*
X-287043Y-189037D01*
X-286771Y-187671D01*
X-287043Y-186305D01*
X-287817Y-185148D01*
X-288974Y-184374D01*
X-290340Y-184102D01*
D02*
G37*
G36*
X100936Y-186265D02*
X99571Y-186537D01*
X98413Y-187310D01*
X97640Y-188468D01*
X97368Y-189834D01*
X97640Y-191199D01*
X98413Y-192357D01*
X99571Y-193131D01*
X100936Y-193402D01*
X102302Y-193131D01*
X103460Y-192357D01*
X104233Y-191199D01*
X104505Y-189834D01*
X104233Y-188468D01*
X103460Y-187310D01*
X102302Y-186537D01*
X100936Y-186265D01*
D02*
G37*
G36*
X110000Y-186957D02*
X108634Y-187229D01*
X107477Y-188002D01*
X106703Y-189160D01*
X106431Y-190526D01*
X106703Y-191891D01*
X107477Y-193049D01*
X108634Y-193822D01*
X110000Y-194094D01*
X111366Y-193822D01*
X112523Y-193049D01*
X113297Y-191891D01*
X113569Y-190526D01*
X113297Y-189160D01*
X112523Y-188002D01*
X111366Y-187229D01*
X110000Y-186957D01*
D02*
G37*
G36*
X24139Y-191126D02*
X21525Y-191470D01*
X19088Y-192479D01*
X16996Y-194085D01*
X15390Y-196177D01*
X14381Y-198614D01*
X14037Y-201228D01*
X14381Y-203843D01*
X15390Y-206280D01*
X16996Y-208372D01*
X19088Y-209977D01*
X21525Y-210987D01*
X24139Y-211331D01*
X26754Y-210987D01*
X29191Y-209977D01*
X31283Y-208372D01*
X32888Y-206280D01*
X33898Y-203843D01*
X34242Y-201228D01*
X33898Y-198614D01*
X32888Y-196177D01*
X31283Y-194085D01*
X29191Y-192479D01*
X26754Y-191470D01*
X24139Y-191126D01*
D02*
G37*
G36*
X-272668Y-206999D02*
X-274033Y-207270D01*
X-275191Y-208044D01*
X-275965Y-209202D01*
X-276236Y-210567D01*
X-275965Y-211933D01*
X-275191Y-213091D01*
X-274033Y-213864D01*
X-272668Y-214136D01*
X-271302Y-213864D01*
X-270144Y-213091D01*
X-269371Y-211933D01*
X-269099Y-210567D01*
X-269371Y-209202D01*
X-270144Y-208044D01*
X-271302Y-207270D01*
X-272668Y-206999D01*
D02*
G37*
G36*
X-103017Y-207648D02*
X-104383Y-207920D01*
X-105541Y-208693D01*
X-106314Y-209851D01*
X-106586Y-211217D01*
X-106314Y-212582D01*
X-105541Y-213740D01*
X-104383Y-214513D01*
X-103017Y-214785D01*
X-101652Y-214513D01*
X-100494Y-213740D01*
X-99720Y-212582D01*
X-99449Y-211217D01*
X-99720Y-209851D01*
X-100494Y-208693D01*
X-101652Y-207920D01*
X-103017Y-207648D01*
D02*
G37*
G36*
X-112673Y-208339D02*
X-114039Y-208610D01*
X-115197Y-209384D01*
X-115970Y-210542D01*
X-116242Y-211907D01*
X-115970Y-213273D01*
X-115197Y-214431D01*
X-114039Y-215204D01*
X-112673Y-215476D01*
X-111307Y-215204D01*
X-110150Y-214431D01*
X-109376Y-213273D01*
X-109105Y-211907D01*
X-109376Y-210542D01*
X-110150Y-209384D01*
X-111307Y-208610D01*
X-112673Y-208339D01*
D02*
G37*
G36*
X-280556Y-212220D02*
X-281921Y-212492D01*
X-283079Y-213266D01*
X-283853Y-214423D01*
X-284124Y-215789D01*
X-283853Y-217155D01*
X-283079Y-218312D01*
X-281921Y-219086D01*
X-280556Y-219357D01*
X-279190Y-219086D01*
X-278032Y-218312D01*
X-277259Y-217155D01*
X-276987Y-215789D01*
X-277259Y-214423D01*
X-278032Y-213266D01*
X-279190Y-212492D01*
X-280556Y-212220D01*
D02*
G37*
G36*
X-99650Y-220250D02*
X-101016Y-220522D01*
X-102174Y-221295D01*
X-102947Y-222453D01*
X-103219Y-223819D01*
X-102947Y-225184D01*
X-102174Y-226342D01*
X-101016Y-227115D01*
X-99650Y-227387D01*
X-98285Y-227115D01*
X-97127Y-226342D01*
X-96354Y-225184D01*
X-96082Y-223819D01*
X-96354Y-222453D01*
X-97127Y-221295D01*
X-98285Y-220522D01*
X-99650Y-220250D01*
D02*
G37*
G36*
X-85505Y-231355D02*
X-86871Y-231626D01*
X-88028Y-232400D01*
X-88802Y-233557D01*
X-89074Y-234923D01*
X-88802Y-236289D01*
X-88028Y-237446D01*
X-86871Y-238220D01*
X-85505Y-238492D01*
X-84139Y-238220D01*
X-82982Y-237446D01*
X-82208Y-236289D01*
X-81936Y-234923D01*
X-82208Y-233557D01*
X-82982Y-232400D01*
X-84139Y-231626D01*
X-85505Y-231355D01*
D02*
G37*
G36*
X242984Y-234392D02*
X241619Y-234664D01*
X240461Y-235437D01*
X239687Y-236595D01*
X239416Y-237961D01*
X239687Y-239326D01*
X240461Y-240484D01*
X241619Y-241258D01*
X242984Y-241529D01*
X244350Y-241258D01*
X245508Y-240484D01*
X246281Y-239326D01*
X246553Y-237961D01*
X246281Y-236595D01*
X245508Y-235437D01*
X244350Y-234664D01*
X242984Y-234392D01*
D02*
G37*
G36*
X12778Y-236091D02*
X11412Y-236363D01*
X10254Y-237136D01*
X9481Y-238294D01*
X9209Y-239660D01*
X9481Y-241025D01*
X10254Y-242183D01*
X11412Y-242957D01*
X12778Y-243228D01*
X14143Y-242957D01*
X15301Y-242183D01*
X16075Y-241025D01*
X16346Y-239660D01*
X16075Y-238294D01*
X15301Y-237136D01*
X14143Y-236363D01*
X12778Y-236091D01*
D02*
G37*
G36*
X248499Y-242075D02*
X247133Y-242347D01*
X245976Y-243120D01*
X245202Y-244278D01*
X244930Y-245644D01*
X245202Y-247009D01*
X245976Y-248167D01*
X247133Y-248941D01*
X248499Y-249212D01*
X249865Y-248941D01*
X251022Y-248167D01*
X251796Y-247009D01*
X252068Y-245644D01*
X251796Y-244278D01*
X251022Y-243120D01*
X249865Y-242347D01*
X248499Y-242075D01*
D02*
G37*
G36*
X-44280Y-247557D02*
X-45646Y-247829D01*
X-46804Y-248603D01*
X-47577Y-249760D01*
X-47849Y-251126D01*
X-47577Y-252491D01*
X-46804Y-253649D01*
X-45646Y-254423D01*
X-44280Y-254694D01*
X-42915Y-254423D01*
X-41757Y-253649D01*
X-40983Y-252491D01*
X-40712Y-251126D01*
X-40983Y-249760D01*
X-41757Y-248603D01*
X-42915Y-247829D01*
X-44280Y-247557D01*
D02*
G37*
G36*
X-290340Y-249226D02*
X-291706Y-249498D01*
X-292863Y-250272D01*
X-293637Y-251429D01*
X-293909Y-252795D01*
X-293637Y-254161D01*
X-292863Y-255318D01*
X-291706Y-256092D01*
X-290340Y-256364D01*
X-288974Y-256092D01*
X-287817Y-255318D01*
X-287043Y-254161D01*
X-286772Y-252795D01*
X-287043Y-251429D01*
X-287817Y-250272D01*
X-288974Y-249498D01*
X-290340Y-249226D01*
D02*
G37*
G36*
X-18137Y-255798D02*
X-19502Y-256070D01*
X-20660Y-256843D01*
X-21434Y-258001D01*
X-21705Y-259367D01*
X-21434Y-260732D01*
X-20660Y-261890D01*
X-19502Y-262663D01*
X-18137Y-262935D01*
X-16771Y-262663D01*
X-15613Y-261890D01*
X-14840Y-260732D01*
X-14568Y-259367D01*
X-14840Y-258001D01*
X-15613Y-256843D01*
X-16771Y-256070D01*
X-18137Y-255798D01*
D02*
G37*
G36*
X267462Y-258051D02*
X266096Y-258323D01*
X264939Y-259097D01*
X264165Y-260254D01*
X263893Y-261620D01*
X264165Y-262986D01*
X264939Y-264143D01*
X266096Y-264917D01*
X267462Y-265189D01*
X268828Y-264917D01*
X269985Y-264143D01*
X270759Y-262986D01*
X271031Y-261620D01*
X270759Y-260254D01*
X269985Y-259097D01*
X268828Y-258323D01*
X267462Y-258051D01*
D02*
G37*
G36*
X9248Y-261270D02*
X7883Y-261542D01*
X6725Y-262315D01*
X5951Y-263473D01*
X5680Y-264839D01*
X5951Y-266204D01*
X6725Y-267362D01*
X7883Y-268135D01*
X9248Y-268407D01*
X10614Y-268135D01*
X11772Y-267362D01*
X12545Y-266204D01*
X12817Y-264839D01*
X12545Y-263473D01*
X11772Y-262315D01*
X10614Y-261542D01*
X9248Y-261270D01*
D02*
G37*
G36*
X97476Y-264244D02*
X96110Y-264515D01*
X94952Y-265289D01*
X94179Y-266447D01*
X93907Y-267812D01*
X94179Y-269178D01*
X94952Y-270336D01*
X96110Y-271109D01*
X97476Y-271381D01*
X98841Y-271109D01*
X99999Y-270336D01*
X100773Y-269178D01*
X101044Y-267812D01*
X100773Y-266447D01*
X99999Y-265289D01*
X98841Y-264515D01*
X97476Y-264244D01*
D02*
G37*
G36*
X-248753Y-265222D02*
X-250119Y-265494D01*
X-251276Y-266267D01*
X-252050Y-267425D01*
X-252321Y-268791D01*
X-252050Y-270156D01*
X-251276Y-271314D01*
X-250119Y-272088D01*
X-248753Y-272359D01*
X-247387Y-272088D01*
X-246230Y-271314D01*
X-245456Y-270156D01*
X-245184Y-268791D01*
X-245456Y-267425D01*
X-246230Y-266267D01*
X-247387Y-265494D01*
X-248753Y-265222D01*
D02*
G37*
G36*
X108636Y-265315D02*
X107270Y-265586D01*
X106112Y-266360D01*
X105339Y-267518D01*
X105067Y-268883D01*
X105339Y-270249D01*
X106112Y-271406D01*
X107270Y-272180D01*
X108636Y-272452D01*
X110001Y-272180D01*
X111159Y-271406D01*
X111933Y-270249D01*
X112204Y-268883D01*
X111933Y-267518D01*
X111159Y-266360D01*
X110001Y-265586D01*
X108636Y-265315D01*
D02*
G37*
G36*
X-9423Y-266267D02*
X-10789Y-266539D01*
X-11946Y-267312D01*
X-12720Y-268470D01*
X-12991Y-269835D01*
X-12720Y-271201D01*
X-11946Y-272359D01*
X-10789Y-273132D01*
X-9423Y-273404D01*
X-8057Y-273132D01*
X-6899Y-272359D01*
X-6126Y-271201D01*
X-5854Y-269835D01*
X-6126Y-268470D01*
X-6899Y-267312D01*
X-8057Y-266539D01*
X-9423Y-266267D01*
D02*
G37*
G36*
X67738Y-268114D02*
X66372Y-268386D01*
X65215Y-269159D01*
X64441Y-270317D01*
X64170Y-271683D01*
X64441Y-273048D01*
X65215Y-274206D01*
X66372Y-274980D01*
X67738Y-275251D01*
X69104Y-274980D01*
X70262Y-274206D01*
X71035Y-273048D01*
X71307Y-271683D01*
X71035Y-270317D01*
X70262Y-269159D01*
X69104Y-268386D01*
X67738Y-268114D01*
D02*
G37*
G36*
X38273Y-268755D02*
X36907Y-269027D01*
X35749Y-269800D01*
X34976Y-270958D01*
X34704Y-272324D01*
X34976Y-273689D01*
X35749Y-274847D01*
X36907Y-275620D01*
X38273Y-275892D01*
X39638Y-275620D01*
X40796Y-274847D01*
X41569Y-273689D01*
X41841Y-272324D01*
X41569Y-270958D01*
X40796Y-269800D01*
X39638Y-269027D01*
X38273Y-268755D01*
D02*
G37*
G36*
X-59255Y-275203D02*
X-60620Y-275475D01*
X-61778Y-276248D01*
X-62552Y-277406D01*
X-62823Y-278772D01*
X-62552Y-280138D01*
X-61778Y-281295D01*
X-60620Y-282069D01*
X-59255Y-282341D01*
X-57889Y-282069D01*
X-56731Y-281295D01*
X-55958Y-280138D01*
X-55686Y-278772D01*
X-55958Y-277406D01*
X-56731Y-276248D01*
X-57889Y-275475D01*
X-59255Y-275203D01*
D02*
G37*
G36*
X-278092Y-277735D02*
X-279458Y-278006D01*
X-280616Y-278780D01*
X-281389Y-279937D01*
X-281661Y-281303D01*
X-281389Y-282669D01*
X-280616Y-283827D01*
X-279458Y-284600D01*
X-278092Y-284872D01*
X-276727Y-284600D01*
X-275569Y-283827D01*
X-274795Y-282669D01*
X-274524Y-281303D01*
X-274795Y-279937D01*
X-275569Y-278780D01*
X-276727Y-278006D01*
X-278092Y-277735D01*
D02*
G37*
G36*
X-50358Y-282026D02*
X-51724Y-282297D01*
X-52881Y-283071D01*
X-53655Y-284228D01*
X-53927Y-285594D01*
X-53655Y-286960D01*
X-52881Y-288117D01*
X-51724Y-288891D01*
X-50358Y-289163D01*
X-48992Y-288891D01*
X-47835Y-288117D01*
X-47061Y-286960D01*
X-46789Y-285594D01*
X-47061Y-284228D01*
X-47835Y-283071D01*
X-48992Y-282297D01*
X-50358Y-282026D01*
D02*
G37*
G36*
X-89408Y-307073D02*
X-90774Y-307345D01*
X-91931Y-308119D01*
X-92705Y-309276D01*
X-92977Y-310642D01*
X-92705Y-312008D01*
X-91931Y-313165D01*
X-90774Y-313939D01*
X-89408Y-314211D01*
X-88042Y-313939D01*
X-86885Y-313165D01*
X-86111Y-312008D01*
X-85839Y-310642D01*
X-86111Y-309276D01*
X-86885Y-308119D01*
X-88042Y-307345D01*
X-89408Y-307073D01*
D02*
G37*
G36*
X267208Y-317995D02*
X265842Y-318267D01*
X264685Y-319041D01*
X263911Y-320198D01*
X263639Y-321564D01*
X263911Y-322930D01*
X264685Y-324087D01*
X265842Y-324861D01*
X267208Y-325133D01*
X268574Y-324861D01*
X269731Y-324087D01*
X270505Y-322930D01*
X270777Y-321564D01*
X270505Y-320198D01*
X269731Y-319041D01*
X268574Y-318267D01*
X267208Y-317995D01*
D02*
G37*
G36*
X-265544Y-326166D02*
X-266910Y-326437D01*
X-268068Y-327211D01*
X-268841Y-328369D01*
X-269113Y-329734D01*
X-268841Y-331100D01*
X-268068Y-332258D01*
X-266910Y-333031D01*
X-265544Y-333303D01*
X-264179Y-333031D01*
X-263021Y-332258D01*
X-262248Y-331100D01*
X-261976Y-329734D01*
X-262248Y-328369D01*
X-263021Y-327211D01*
X-264179Y-326437D01*
X-265544Y-326166D01*
D02*
G37*
G36*
X-212663Y-328181D02*
X-214028Y-328453D01*
X-215186Y-329227D01*
X-215960Y-330384D01*
X-216231Y-331750D01*
X-215960Y-333116D01*
X-215186Y-334273D01*
X-214028Y-335047D01*
X-212663Y-335319D01*
X-211297Y-335047D01*
X-210140Y-334273D01*
X-209366Y-333116D01*
X-209094Y-331750D01*
X-209366Y-330384D01*
X-210140Y-329227D01*
X-211297Y-328453D01*
X-212663Y-328181D01*
D02*
G37*
G36*
X-223219D02*
X-224585Y-328453D01*
X-225742Y-329227D01*
X-226516Y-330384D01*
X-226787Y-331750D01*
X-226516Y-333116D01*
X-225742Y-334273D01*
X-224585Y-335047D01*
X-223219Y-335319D01*
X-221853Y-335047D01*
X-220695Y-334273D01*
X-219922Y-333116D01*
X-219650Y-331750D01*
X-219922Y-330384D01*
X-220695Y-329227D01*
X-221853Y-328453D01*
X-223219Y-328181D01*
D02*
G37*
G36*
X-256131Y-334914D02*
X-257497Y-335186D01*
X-258655Y-335959D01*
X-259428Y-337117D01*
X-259700Y-338483D01*
X-259428Y-339848D01*
X-258655Y-341006D01*
X-257497Y-341780D01*
X-256131Y-342051D01*
X-254766Y-341780D01*
X-253608Y-341006D01*
X-252834Y-339848D01*
X-252563Y-338483D01*
X-252834Y-337117D01*
X-253608Y-335959D01*
X-254766Y-335186D01*
X-256131Y-334914D01*
D02*
G37*
G36*
X-117377Y-353149D02*
X-118743Y-353421D01*
X-119901Y-354195D01*
X-120674Y-355352D01*
X-120946Y-356718D01*
X-120674Y-358084D01*
X-119901Y-359241D01*
X-118743Y-360015D01*
X-117377Y-360287D01*
X-116012Y-360015D01*
X-114854Y-359241D01*
X-114080Y-358084D01*
X-113809Y-356718D01*
X-114080Y-355352D01*
X-114854Y-354195D01*
X-116012Y-353421D01*
X-117377Y-353149D01*
D02*
G37*
G36*
X-141500D02*
X-142866Y-353421D01*
X-144023Y-354195D01*
X-144797Y-355352D01*
X-145069Y-356718D01*
X-144797Y-358084D01*
X-144023Y-359241D01*
X-142866Y-360015D01*
X-141500Y-360287D01*
X-140134Y-360015D01*
X-138977Y-359241D01*
X-138203Y-358084D01*
X-137931Y-356718D01*
X-138203Y-355352D01*
X-138977Y-354195D01*
X-140134Y-353421D01*
X-141500Y-353149D01*
D02*
G37*
G36*
X95584Y-358161D02*
X94218Y-358433D01*
X93061Y-359206D01*
X92287Y-360364D01*
X92015Y-361730D01*
X92287Y-363095D01*
X93061Y-364253D01*
X94218Y-365027D01*
X95584Y-365298D01*
X96950Y-365027D01*
X98107Y-364253D01*
X98881Y-363095D01*
X99152Y-361730D01*
X98881Y-360364D01*
X98107Y-359206D01*
X96950Y-358433D01*
X95584Y-358161D01*
D02*
G37*
G36*
X84774D02*
X83408Y-358433D01*
X82251Y-359206D01*
X81477Y-360364D01*
X81205Y-361730D01*
X81477Y-363095D01*
X82251Y-364253D01*
X83408Y-365027D01*
X84774Y-365298D01*
X86140Y-365027D01*
X87297Y-364253D01*
X88071Y-363095D01*
X88343Y-361730D01*
X88071Y-360364D01*
X87297Y-359206D01*
X86140Y-358433D01*
X84774Y-358161D01*
D02*
G37*
G36*
X-203962Y-364662D02*
X-205328Y-364934D01*
X-206485Y-365707D01*
X-207259Y-366865D01*
X-207531Y-368231D01*
X-207259Y-369596D01*
X-206485Y-370754D01*
X-205328Y-371528D01*
X-203962Y-371799D01*
X-202596Y-371528D01*
X-201439Y-370754D01*
X-200665Y-369596D01*
X-200393Y-368231D01*
X-200665Y-366865D01*
X-201439Y-365707D01*
X-202596Y-364934D01*
X-203962Y-364662D01*
D02*
G37*
G36*
X-169427Y-371162D02*
X-170793Y-371434D01*
X-171951Y-372207D01*
X-172724Y-373365D01*
X-172996Y-374731D01*
X-172724Y-376096D01*
X-171951Y-377254D01*
X-170793Y-378028D01*
X-169427Y-378299D01*
X-168062Y-378028D01*
X-166904Y-377254D01*
X-166130Y-376096D01*
X-165859Y-374731D01*
X-166130Y-373365D01*
X-166904Y-372207D01*
X-168062Y-371434D01*
X-169427Y-371162D01*
D02*
G37*
G36*
X-188105D02*
X-189470Y-371434D01*
X-190628Y-372207D01*
X-191402Y-373365D01*
X-191673Y-374731D01*
X-191402Y-376096D01*
X-190628Y-377254D01*
X-189470Y-378028D01*
X-188105Y-378299D01*
X-186739Y-378028D01*
X-185581Y-377254D01*
X-184808Y-376096D01*
X-184536Y-374731D01*
X-184808Y-373365D01*
X-185581Y-372207D01*
X-186739Y-371434D01*
X-188105Y-371162D01*
D02*
G37*
G36*
X102900Y-376011D02*
X100677Y-376303D01*
X98605Y-377161D01*
X96826Y-378526D01*
X95461Y-380305D01*
X94603Y-382377D01*
X94311Y-384600D01*
X94603Y-386823D01*
X95461Y-388895D01*
X96826Y-390674D01*
X98605Y-392039D01*
X100677Y-392897D01*
X102900Y-393190D01*
X105123Y-392897D01*
X107195Y-392039D01*
X108974Y-390674D01*
X110339Y-388895D01*
X111197Y-386823D01*
X111489Y-384600D01*
X111197Y-382377D01*
X110339Y-380305D01*
X108974Y-378526D01*
X107195Y-377161D01*
X105123Y-376303D01*
X102900Y-376011D01*
D02*
G37*
G36*
X77500D02*
X75277Y-376303D01*
X73205Y-377161D01*
X71426Y-378526D01*
X70061Y-380305D01*
X69203Y-382377D01*
X68910Y-384600D01*
X69203Y-386823D01*
X70061Y-388895D01*
X71426Y-390674D01*
X73205Y-392039D01*
X75277Y-392897D01*
X77500Y-393190D01*
X79723Y-392897D01*
X81795Y-392039D01*
X83574Y-390674D01*
X84939Y-388895D01*
X85797Y-386823D01*
X86089Y-384600D01*
X85797Y-382377D01*
X84939Y-380305D01*
X83574Y-378526D01*
X81795Y-377161D01*
X79723Y-376303D01*
X77500Y-376011D01*
D02*
G37*
G36*
X-180336Y-394177D02*
X-191586D01*
X-192714Y-394402D01*
X-193670Y-395041D01*
X-194309Y-395997D01*
X-194533Y-397125D01*
Y-408375D01*
X-194309Y-409503D01*
X-193670Y-410459D01*
X-192714Y-411098D01*
X-191586Y-411323D01*
X-180336D01*
X-179207Y-411098D01*
X-178251Y-410459D01*
X-177612Y-409503D01*
X-177388Y-408375D01*
Y-397125D01*
X-177612Y-395997D01*
X-178251Y-395041D01*
X-179207Y-394402D01*
X-180336Y-394177D01*
D02*
G37*
G36*
X-160560Y-394160D02*
X-162784Y-394453D01*
X-164855Y-395311D01*
X-166634Y-396676D01*
X-167999Y-398455D01*
X-168857Y-400527D01*
X-169150Y-402750D01*
X-168857Y-404973D01*
X-167999Y-407045D01*
X-166634Y-408824D01*
X-164855Y-410189D01*
X-162784Y-411047D01*
X-160560Y-411339D01*
X-158337Y-411047D01*
X-156266Y-410189D01*
X-154487Y-408824D01*
X-153122Y-407045D01*
X-152264Y-404973D01*
X-151971Y-402750D01*
X-152264Y-400527D01*
X-153122Y-398455D01*
X-154487Y-396676D01*
X-156266Y-395311D01*
X-158337Y-394453D01*
X-160560Y-394160D01*
D02*
G37*
G36*
X108900Y-401435D02*
X96900D01*
X95918Y-401630D01*
X95086Y-402186D01*
X94530Y-403018D01*
X94335Y-404000D01*
Y-416000D01*
X94530Y-416982D01*
X95086Y-417814D01*
X95918Y-418370D01*
X96900Y-418565D01*
X108900D01*
X109882Y-418370D01*
X110714Y-417814D01*
X111270Y-416982D01*
X111465Y-416000D01*
Y-404000D01*
X111270Y-403018D01*
X110714Y-402186D01*
X109882Y-401630D01*
X108900Y-401435D01*
D02*
G37*
G36*
X36750Y-419046D02*
X34799Y-419434D01*
X33145Y-420539D01*
X32040Y-422193D01*
X31652Y-424144D01*
X32040Y-426095D01*
X33145Y-427749D01*
X34799Y-428854D01*
X36750Y-429242D01*
X38701Y-428854D01*
X40355Y-427749D01*
X41460Y-426095D01*
X41848Y-424144D01*
X41460Y-422193D01*
X40355Y-420539D01*
X38701Y-419434D01*
X36750Y-419046D01*
D02*
G37*
G36*
X-109761Y-419561D02*
X-111984Y-419853D01*
X-114055Y-420711D01*
X-115834Y-422076D01*
X-117199Y-423855D01*
X-118057Y-425927D01*
X-118350Y-428150D01*
X-118057Y-430373D01*
X-117199Y-432445D01*
X-115834Y-434224D01*
X-114055Y-435589D01*
X-111984Y-436447D01*
X-109761Y-436740D01*
X-107537Y-436447D01*
X-105466Y-435589D01*
X-103687Y-434224D01*
X-102322Y-432445D01*
X-101464Y-430373D01*
X-101171Y-428150D01*
X-101464Y-425927D01*
X-102322Y-423855D01*
X-103687Y-422076D01*
X-105466Y-420711D01*
X-107537Y-419853D01*
X-109761Y-419561D01*
D02*
G37*
G36*
X-135161D02*
X-137384Y-419853D01*
X-139455Y-420711D01*
X-141234Y-422076D01*
X-142599Y-423855D01*
X-143457Y-425927D01*
X-143750Y-428150D01*
X-143457Y-430373D01*
X-142599Y-432445D01*
X-141234Y-434224D01*
X-139455Y-435589D01*
X-137384Y-436447D01*
X-135161Y-436740D01*
X-132937Y-436447D01*
X-130866Y-435589D01*
X-129087Y-434224D01*
X-127722Y-432445D01*
X-126864Y-430373D01*
X-126571Y-428150D01*
X-126864Y-425927D01*
X-127722Y-423855D01*
X-129087Y-422076D01*
X-130866Y-420711D01*
X-132937Y-419853D01*
X-135161Y-419561D01*
D02*
G37*
G36*
X-160560D02*
X-162784Y-419853D01*
X-164855Y-420711D01*
X-166634Y-422076D01*
X-167999Y-423855D01*
X-168857Y-425927D01*
X-169150Y-428150D01*
X-168857Y-430373D01*
X-167999Y-432445D01*
X-166634Y-434224D01*
X-164855Y-435589D01*
X-162784Y-436447D01*
X-160560Y-436740D01*
X-158337Y-436447D01*
X-156266Y-435589D01*
X-154487Y-434224D01*
X-153122Y-432445D01*
X-152264Y-430373D01*
X-151971Y-428150D01*
X-152264Y-425927D01*
X-153122Y-423855D01*
X-154487Y-422076D01*
X-156266Y-420711D01*
X-158337Y-419853D01*
X-160560Y-419561D01*
D02*
G37*
G36*
X-185961D02*
X-188184Y-419853D01*
X-190255Y-420711D01*
X-192034Y-422076D01*
X-193399Y-423855D01*
X-194257Y-425927D01*
X-194550Y-428150D01*
X-194257Y-430373D01*
X-193399Y-432445D01*
X-192034Y-434224D01*
X-190255Y-435589D01*
X-188184Y-436447D01*
X-185961Y-436740D01*
X-183737Y-436447D01*
X-181666Y-435589D01*
X-179887Y-434224D01*
X-178522Y-432445D01*
X-177664Y-430373D01*
X-177371Y-428150D01*
X-177664Y-425927D01*
X-178522Y-423855D01*
X-179887Y-422076D01*
X-181666Y-420711D01*
X-183737Y-419853D01*
X-185961Y-419561D01*
D02*
G37*
G36*
X102900Y-426810D02*
X100677Y-427103D01*
X98605Y-427961D01*
X96826Y-429326D01*
X95461Y-431105D01*
X94603Y-433177D01*
X94311Y-435400D01*
X94603Y-437623D01*
X95461Y-439695D01*
X96826Y-441474D01*
X98605Y-442839D01*
X100677Y-443697D01*
X102900Y-443989D01*
X105123Y-443697D01*
X107195Y-442839D01*
X108974Y-441474D01*
X110339Y-439695D01*
X111197Y-437623D01*
X111489Y-435400D01*
X111197Y-433177D01*
X110339Y-431105D01*
X108974Y-429326D01*
X107195Y-427961D01*
X105123Y-427103D01*
X102900Y-426810D01*
D02*
G37*
G36*
X77500D02*
X75277Y-427103D01*
X73205Y-427961D01*
X71426Y-429326D01*
X70061Y-431105D01*
X69203Y-433177D01*
X68910Y-435400D01*
X69203Y-437623D01*
X70061Y-439695D01*
X71426Y-441474D01*
X73205Y-442839D01*
X75277Y-443697D01*
X77500Y-443989D01*
X79723Y-443697D01*
X81795Y-442839D01*
X83574Y-441474D01*
X84939Y-439695D01*
X85797Y-437623D01*
X86089Y-435400D01*
X85797Y-433177D01*
X84939Y-431105D01*
X83574Y-429326D01*
X81795Y-427961D01*
X79723Y-427103D01*
X77500Y-426810D01*
D02*
G37*
%LPD*%
D10*
X48145Y-21075D02*
X48250Y-21180D01*
D47*
X-183970Y-320280D02*
D03*
X-156030D02*
D03*
X-175080D02*
D03*
X-183970Y-284720D02*
D03*
X-156030D02*
D03*
X-175080D02*
D03*
X-183970Y-302500D02*
D03*
Y-311390D02*
D03*
Y-293610D02*
D03*
X-156030Y-302500D02*
D03*
Y-311390D02*
D03*
Y-293610D02*
D03*
X-164920Y-284720D02*
D03*
Y-320280D02*
D03*
D48*
X-185961Y-402750D02*
D03*
D49*
X-160560D02*
D03*
X-135161D02*
D03*
X-109761D02*
D03*
X-185961Y-428150D02*
D03*
X-160560D02*
D03*
X-135161D02*
D03*
X-109761D02*
D03*
X102900Y-435400D02*
D03*
Y-384600D02*
D03*
X77500D02*
D03*
Y-410000D02*
D03*
Y-435400D02*
D03*
D50*
X-28000Y-329250D02*
D03*
X28000D02*
D03*
D51*
X0Y-350750D02*
D03*
D52*
X287981Y173447D02*
D03*
X269981D02*
D03*
X175950Y288001D02*
D03*
Y270001D02*
D03*
D53*
X102900Y-410000D02*
D03*
D54*
X46115Y199746D02*
D03*
X50614Y219233D02*
D03*
X0Y58872D02*
D03*
X0Y86985D02*
D03*
X-50358Y-285594D02*
D03*
X-59255Y-278772D02*
D03*
X188701Y122544D02*
D03*
X-103017Y-211217D02*
D03*
X-112673Y-211907D02*
D03*
X-195051Y121881D02*
D03*
X-89408Y-310642D02*
D03*
X97476Y-267812D02*
D03*
X282226Y39664D02*
D03*
X248499Y-245644D02*
D03*
X242984Y-237961D02*
D03*
X-203962Y-368231D02*
D03*
X267208Y-321564D02*
D03*
X267462Y-261620D02*
D03*
X95584Y-361730D02*
D03*
X84774D02*
D03*
X-169427Y-374731D02*
D03*
X-188105D02*
D03*
X12778Y-239660D02*
D03*
X-223219Y-331750D02*
D03*
X-212663D02*
D03*
X-256131Y-338483D02*
D03*
X-265544Y-329734D02*
D03*
X-143025Y-99893D02*
D03*
X-179096Y61215D02*
D03*
X-181636Y50405D02*
D03*
X-182398Y21621D02*
D03*
X-177826Y32624D02*
D03*
X-163492Y-147209D02*
D03*
X200980Y89482D02*
D03*
X-45139Y205091D02*
D03*
X-180112Y27293D02*
D03*
X-182398Y15820D02*
D03*
X-119284Y-9745D02*
D03*
X-134388Y-10101D02*
D03*
X9652Y-155004D02*
D03*
X8505Y123080D02*
D03*
X235Y123656D02*
D03*
X-273168Y-131512D02*
D03*
X-288550Y-145407D02*
D03*
X-290836Y-140076D02*
D03*
X-293122Y-134746D02*
D03*
X-286137Y-150681D02*
D03*
X-270882Y-139742D02*
D03*
Y-145542D02*
D03*
X-270834Y-151362D02*
D03*
X-270882Y-157162D02*
D03*
X-278092Y-281303D02*
D03*
X-63500Y2180D02*
D03*
X-141500Y-356718D02*
D03*
X59160Y-168185D02*
D03*
X203378Y52318D02*
D03*
X-204618Y47240D02*
D03*
X-98511Y-137969D02*
D03*
X-109774Y152142D02*
D03*
X-88750Y190325D02*
D03*
X-207719Y-30870D02*
D03*
X111283Y178090D02*
D03*
X110000Y-190526D02*
D03*
X100936Y-189834D02*
D03*
X203762Y-50804D02*
D03*
X196446Y-72442D02*
D03*
X-114374Y-176121D02*
D03*
X-177984Y129313D02*
D03*
X-176548Y108863D02*
D03*
Y99339D02*
D03*
X-199061Y66894D02*
D03*
X-272796Y146771D02*
D03*
X-284290Y158265D02*
D03*
X81714Y-12370D02*
D03*
X-202910Y-35678D02*
D03*
X87962Y-151369D02*
D03*
X76238Y-151724D02*
D03*
X66002Y-151370D02*
D03*
X83200Y-145217D02*
D03*
X73050Y-139024D02*
D03*
X94299Y-163382D02*
D03*
X174282Y-3758D02*
D03*
X165556Y-17850D02*
D03*
X-104164Y-13955D02*
D03*
X-2418Y98733D02*
D03*
X33250Y-150234D02*
D03*
X-117377Y-356718D02*
D03*
X-248753Y-268791D02*
D03*
X-290340Y-252795D02*
D03*
X-290340Y-187671D02*
D03*
X-77821Y-182635D02*
D03*
X-104205Y-34980D02*
D03*
X-94290Y-37000D02*
D03*
X-68000Y-178000D02*
D03*
X-151294Y-99893D02*
D03*
X183928Y-72054D02*
D03*
X199767Y44753D02*
D03*
X174012Y-59990D02*
D03*
X177620Y-69514D02*
D03*
X130481Y-157481D02*
D03*
X30Y-160365D02*
D03*
X-19881Y284306D02*
D03*
X-175463Y224583D02*
D03*
X-241694Y-151027D02*
D03*
X19532Y279318D02*
D03*
X281386Y70157D02*
D03*
X269153Y77178D02*
D03*
X108636Y-268883D02*
D03*
X67738Y-271683D02*
D03*
X-148377Y237453D02*
D03*
X-272668Y-210567D02*
D03*
X-279780Y132672D02*
D03*
X-284479Y144000D02*
D03*
X-280556Y-215789D02*
D03*
X-193241Y94250D02*
D03*
X-142000Y131628D02*
D03*
X-63500Y117820D02*
D03*
X222524Y89906D02*
D03*
X178834Y65175D02*
D03*
X182394Y74527D02*
D03*
X18250Y-21180D02*
D03*
X153915Y197003D02*
D03*
X-247567Y34793D02*
D03*
X-85505Y-234923D02*
D03*
X108000Y-136888D02*
D03*
X153000D02*
D03*
X140433Y-155005D02*
D03*
X209668Y-136160D02*
D03*
X1717Y115386D02*
D03*
X-127000Y2180D02*
D03*
X-9423Y-269835D02*
D03*
X-197818Y191031D02*
D03*
X-101144Y250340D02*
D03*
X-201451Y208608D02*
D03*
X-254845Y-8899D02*
D03*
X-259366Y-18137D02*
D03*
X-35489Y252518D02*
D03*
X-62900Y252277D02*
D03*
X-44280Y-251126D02*
D03*
X-18137Y-259367D02*
D03*
X249928Y-71666D02*
D03*
X236432Y-95525D02*
D03*
X115767Y227207D02*
D03*
X141606Y218054D02*
D03*
X174639Y-157246D02*
D03*
X-240421Y-162166D02*
D03*
X-198663Y105631D02*
D03*
X203078Y107978D02*
D03*
X204477Y66439D02*
D03*
X-159776Y143863D02*
D03*
X-214683Y95583D02*
D03*
X-228253Y74164D02*
D03*
X-239646Y50938D02*
D03*
X-173939Y-126374D02*
D03*
X-150554Y-167208D02*
D03*
X-135191Y-186074D02*
D03*
X-99650Y-223819D02*
D03*
X132252Y-182029D02*
D03*
X153900Y-170923D02*
D03*
X194164Y-141068D02*
D03*
X274832Y9597D02*
D03*
X190119Y138130D02*
D03*
X178355Y160591D02*
D03*
X163937Y182071D02*
D03*
X-10121Y289823D02*
D03*
X220205Y-107401D02*
D03*
X-262421Y-36881D02*
D03*
X-258415Y-94056D02*
D03*
X-251662Y-122744D02*
D03*
X260974Y-46017D02*
D03*
X269342Y-18834D02*
D03*
X99271Y245704D02*
D03*
X-261980Y-65319D02*
D03*
X-1886Y29187D02*
D03*
X180122Y2408D02*
D03*
X-15250Y-136820D02*
D03*
X175594Y74527D02*
D03*
X-60250Y-21180D02*
D03*
X-70620Y-152000D02*
D03*
X-75250Y-136820D02*
D03*
Y-21180D02*
D03*
X-30250Y-136820D02*
D03*
Y-21180D02*
D03*
X-15250D02*
D03*
X3250D02*
D03*
X33250D02*
D03*
X48250D02*
D03*
X63250D02*
D03*
X-85750Y-16250D02*
D03*
X-45250Y-152000D02*
D03*
Y-21180D02*
D03*
X138000Y-136888D02*
D03*
X108000Y-21180D02*
D03*
X-602Y20153D02*
D03*
X-66393Y135657D02*
D03*
X-42660Y146101D02*
D03*
X122114Y-152281D02*
D03*
X93000Y-21180D02*
D03*
X123000D02*
D03*
X153000D02*
D03*
X138000D02*
D03*
X127000Y133256D02*
D03*
X-78269Y140100D02*
D03*
X-127000Y133256D02*
D03*
X-117486Y133453D02*
D03*
X-33500Y2180D02*
D03*
X48500Y133256D02*
D03*
X-33500Y117820D02*
D03*
X-48500D02*
D03*
X-78500D02*
D03*
X112000Y2180D02*
D03*
X127000D02*
D03*
X142000D02*
D03*
X78500D02*
D03*
X63500D02*
D03*
X48500D02*
D03*
X33500D02*
D03*
X-18500D02*
D03*
X-48500D02*
D03*
X38273Y-272324D02*
D03*
X-90635Y249018D02*
D03*
X9248Y-264839D02*
D03*
X74422Y259541D02*
D03*
X47753Y270822D02*
D03*
D55*
X-204626Y15466D02*
D03*
X-213634Y-435021D02*
D03*
X-195285Y26399D02*
D03*
X66009Y197775D02*
D03*
X36750Y-424144D02*
D03*
X-164090Y-348730D02*
D03*
X-101600Y165330D02*
D03*
X-78760Y155990D02*
D03*
X-248081Y-222130D02*
D03*
X-244201Y-215630D02*
D03*
X93598Y174395D02*
D03*
X-206812Y26399D02*
D03*
X44594Y-341750D02*
D03*
X56435D02*
D03*
X44594Y-329250D02*
D03*
X56435D02*
D03*
X111273Y-278808D02*
D03*
X102978D02*
D03*
X284004Y-211063D02*
D03*
X292000Y-189434D02*
D03*
X-113568Y-317721D02*
D03*
X-22380Y-386536D02*
D03*
X-34880D02*
D03*
X-9880D02*
D03*
X2620D02*
D03*
X-32191Y-311338D02*
D03*
Y-299496D02*
D03*
X-44691Y-311338D02*
D03*
Y-299496D02*
D03*
X-19691D02*
D03*
Y-311338D02*
D03*
X-7191Y-299496D02*
D03*
Y-311338D02*
D03*
X-284294Y-425568D02*
D03*
X-187539Y-338250D02*
D03*
X-282939Y-341219D02*
D03*
X-244271Y-318769D02*
D03*
X-275840Y-252795D02*
D03*
X-244665Y-241630D02*
D03*
X-2530Y189197D02*
D03*
X271731Y203557D02*
D03*
X192103Y-18982D02*
D03*
X206403Y-8987D02*
D03*
X191903Y-9451D02*
D03*
X271731Y143360D02*
D03*
X157950Y261373D02*
D03*
X193950Y261395D02*
D03*
X93598Y186072D02*
D03*
X-112601Y276198D02*
D03*
X-290340Y-156650D02*
D03*
X-98511Y-182635D02*
D03*
Y-170917D02*
D03*
X-146850Y-57590D02*
D03*
X-155360Y-47430D02*
D03*
X206603Y-18185D02*
D03*
X-93260Y155956D02*
D03*
X-2530Y158628D02*
D03*
X6839Y166750D02*
D03*
X-123299Y-47430D02*
D03*
D56*
X24139Y-201228D02*
D03*
D57*
X255000Y255000D02*
D03*
X-255000D02*
D03*
D58*
X0Y0D02*
D03*
D59*
X46115Y199746D02*
Y214734D01*
X50614Y219233D01*
X156503Y-17850D02*
X165556D01*
X155001Y-16348D02*
X156503Y-17850D01*
X150998Y-16348D02*
X155001D01*
X138000Y-21180D02*
X146166D01*
X150998Y-16348D01*
D60*
X4984Y7715D02*
Y53889D01*
X0Y58872D02*
X4984Y53889D01*
Y7715D02*
X8786Y3913D01*
X127000Y-8370D02*
Y2180D01*
X123000Y-12370D02*
X127000Y-8370D01*
X81714Y-12370D02*
X123000D01*
Y-21180D02*
Y-12370D01*
X123000Y-12370D01*
X-85750Y-16250D02*
X-85750D01*
X-81064Y-11564D02*
X-45250D01*
X-85750Y-16250D02*
X-81064Y-11564D01*
X-48500Y-7326D02*
Y2180D01*
Y-7326D02*
X-47310Y-8516D01*
X8786D01*
X-45250Y-11564D02*
X32060D01*
X-45250Y-21180D02*
Y-11564D01*
X33250Y-21180D02*
Y-12754D01*
X32060Y-11564D02*
X33250Y-12754D01*
X47310Y-8516D02*
X48500Y-7326D01*
Y2180D01*
X8786Y-8516D02*
X47310D01*
X8786D02*
Y3913D01*
%TF.MD5,9d1b1f38a1d4bd5310685721014506df*%
M02*
