%TF.GenerationSoftware,Altium Limited,Altium Designer,20.1.8 (145)*%
G04 Layer_Color=128*
%FSLAX44Y44*%
%MOMM*%
%TF.SameCoordinates,3BEBD2D3-E5B3-4009-AA71-14EFD01F195C*%
%TF.FilePolarity,Positive*%
%TF.FileFunction,Paste,Bot*%
%TF.Part,Single*%
G01*
G75*
%TA.AperFunction,SMDPad,CuDef*%
%ADD62O,1.2000X0.4000*%
G04:AMPARAMS|DCode=63|XSize=3.4mm|YSize=4.4mm|CornerRadius=0.085mm|HoleSize=0mm|Usage=FLASHONLY|Rotation=0.000|XOffset=0mm|YOffset=0mm|HoleType=Round|Shape=RoundedRectangle|*
%AMROUNDEDRECTD63*
21,1,3.4000,4.2300,0,0,0.0*
21,1,3.2300,4.4000,0,0,0.0*
1,1,0.1700,1.6150,-2.1150*
1,1,0.1700,-1.6150,-2.1150*
1,1,0.1700,-1.6150,2.1150*
1,1,0.1700,1.6150,2.1150*
%
%ADD63ROUNDEDRECTD63*%
%ADD64O,1.1500X0.4000*%
G04:AMPARAMS|DCode=65|XSize=0.85mm|YSize=0.5mm|CornerRadius=0.0025mm|HoleSize=0mm|Usage=FLASHONLY|Rotation=0.000|XOffset=0mm|YOffset=0mm|HoleType=Round|Shape=RoundedRectangle|*
%AMROUNDEDRECTD65*
21,1,0.8500,0.4950,0,0,0.0*
21,1,0.8450,0.5000,0,0,0.0*
1,1,0.0050,0.4225,-0.2475*
1,1,0.0050,-0.4225,-0.2475*
1,1,0.0050,-0.4225,0.2475*
1,1,0.0050,0.4225,0.2475*
%
%ADD65ROUNDEDRECTD65*%
%ADD66O,0.4000X1.2000*%
G04:AMPARAMS|DCode=67|XSize=0.85mm|YSize=0.6mm|CornerRadius=0.003mm|HoleSize=0mm|Usage=FLASHONLY|Rotation=180.000|XOffset=0mm|YOffset=0mm|HoleType=Round|Shape=RoundedRectangle|*
%AMROUNDEDRECTD67*
21,1,0.8500,0.5940,0,0,180.0*
21,1,0.8440,0.6000,0,0,180.0*
1,1,0.0060,-0.4220,0.2970*
1,1,0.0060,0.4220,0.2970*
1,1,0.0060,0.4220,-0.2970*
1,1,0.0060,-0.4220,-0.2970*
%
%ADD67ROUNDEDRECTD67*%
G04:AMPARAMS|DCode=68|XSize=0.85mm|YSize=0.6mm|CornerRadius=0.003mm|HoleSize=0mm|Usage=FLASHONLY|Rotation=90.000|XOffset=0mm|YOffset=0mm|HoleType=Round|Shape=RoundedRectangle|*
%AMROUNDEDRECTD68*
21,1,0.8500,0.5940,0,0,90.0*
21,1,0.8440,0.6000,0,0,90.0*
1,1,0.0060,0.2970,0.4220*
1,1,0.0060,0.2970,-0.4220*
1,1,0.0060,-0.2970,-0.4220*
1,1,0.0060,-0.2970,0.4220*
%
%ADD68ROUNDEDRECTD68*%
G04:AMPARAMS|DCode=69|XSize=0.55mm|YSize=0.7mm|CornerRadius=0.0028mm|HoleSize=0mm|Usage=FLASHONLY|Rotation=270.000|XOffset=0mm|YOffset=0mm|HoleType=Round|Shape=RoundedRectangle|*
%AMROUNDEDRECTD69*
21,1,0.5500,0.6945,0,0,270.0*
21,1,0.5445,0.7000,0,0,270.0*
1,1,0.0055,-0.3473,-0.2723*
1,1,0.0055,-0.3473,0.2723*
1,1,0.0055,0.3473,0.2723*
1,1,0.0055,0.3473,-0.2723*
%
%ADD69ROUNDEDRECTD69*%
G04:AMPARAMS|DCode=70|XSize=0.55mm|YSize=0.7mm|CornerRadius=0.0028mm|HoleSize=0mm|Usage=FLASHONLY|Rotation=180.000|XOffset=0mm|YOffset=0mm|HoleType=Round|Shape=RoundedRectangle|*
%AMROUNDEDRECTD70*
21,1,0.5500,0.6945,0,0,180.0*
21,1,0.5445,0.7000,0,0,180.0*
1,1,0.0055,-0.2723,0.3473*
1,1,0.0055,0.2723,0.3473*
1,1,0.0055,0.2723,-0.3473*
1,1,0.0055,-0.2723,-0.3473*
%
%ADD70ROUNDEDRECTD70*%
G04:AMPARAMS|DCode=71|XSize=1.65mm|YSize=0.95mm|CornerRadius=0.0048mm|HoleSize=0mm|Usage=FLASHONLY|Rotation=90.000|XOffset=0mm|YOffset=0mm|HoleType=Round|Shape=RoundedRectangle|*
%AMROUNDEDRECTD71*
21,1,1.6500,0.9405,0,0,90.0*
21,1,1.6405,0.9500,0,0,90.0*
1,1,0.0095,0.4703,0.8203*
1,1,0.0095,0.4703,-0.8203*
1,1,0.0095,-0.4703,-0.8203*
1,1,0.0095,-0.4703,0.8203*
%
%ADD71ROUNDEDRECTD71*%
G04:AMPARAMS|DCode=72|XSize=1mm|YSize=2.15mm|CornerRadius=0.005mm|HoleSize=0mm|Usage=FLASHONLY|Rotation=90.000|XOffset=0mm|YOffset=0mm|HoleType=Round|Shape=RoundedRectangle|*
%AMROUNDEDRECTD72*
21,1,1.0000,2.1400,0,0,90.0*
21,1,0.9900,2.1500,0,0,90.0*
1,1,0.0100,1.0700,0.4950*
1,1,0.0100,1.0700,-0.4950*
1,1,0.0100,-1.0700,-0.4950*
1,1,0.0100,-1.0700,0.4950*
%
%ADD72ROUNDEDRECTD72*%
G04:AMPARAMS|DCode=73|XSize=3.25mm|YSize=2.15mm|CornerRadius=0.0108mm|HoleSize=0mm|Usage=FLASHONLY|Rotation=90.000|XOffset=0mm|YOffset=0mm|HoleType=Round|Shape=RoundedRectangle|*
%AMROUNDEDRECTD73*
21,1,3.2500,2.1285,0,0,90.0*
21,1,3.2285,2.1500,0,0,90.0*
1,1,0.0215,1.0642,1.6143*
1,1,0.0215,1.0642,-1.6143*
1,1,0.0215,-1.0642,-1.6143*
1,1,0.0215,-1.0642,1.6143*
%
%ADD73ROUNDEDRECTD73*%
G04:AMPARAMS|DCode=74|XSize=1.1mm|YSize=2.3mm|CornerRadius=0.0055mm|HoleSize=0mm|Usage=FLASHONLY|Rotation=270.000|XOffset=0mm|YOffset=0mm|HoleType=Round|Shape=RoundedRectangle|*
%AMROUNDEDRECTD74*
21,1,1.1000,2.2890,0,0,270.0*
21,1,1.0890,2.3000,0,0,270.0*
1,1,0.0110,-1.1445,-0.5445*
1,1,0.0110,-1.1445,0.5445*
1,1,0.0110,1.1445,0.5445*
1,1,0.0110,1.1445,-0.5445*
%
%ADD74ROUNDEDRECTD74*%
G04:AMPARAMS|DCode=75|XSize=1.1mm|YSize=2.3mm|CornerRadius=0.0055mm|HoleSize=0mm|Usage=FLASHONLY|Rotation=180.000|XOffset=0mm|YOffset=0mm|HoleType=Round|Shape=RoundedRectangle|*
%AMROUNDEDRECTD75*
21,1,1.1000,2.2890,0,0,180.0*
21,1,1.0890,2.3000,0,0,180.0*
1,1,0.0110,-0.5445,1.1445*
1,1,0.0110,0.5445,1.1445*
1,1,0.0110,0.5445,-1.1445*
1,1,0.0110,-0.5445,-1.1445*
%
%ADD75ROUNDEDRECTD75*%
G04:AMPARAMS|DCode=76|XSize=0.45mm|YSize=1.5mm|CornerRadius=0.1125mm|HoleSize=0mm|Usage=FLASHONLY|Rotation=180.000|XOffset=0mm|YOffset=0mm|HoleType=Round|Shape=RoundedRectangle|*
%AMROUNDEDRECTD76*
21,1,0.4500,1.2750,0,0,180.0*
21,1,0.2250,1.5000,0,0,180.0*
1,1,0.2250,-0.1125,0.6375*
1,1,0.2250,0.1125,0.6375*
1,1,0.2250,0.1125,-0.6375*
1,1,0.2250,-0.1125,-0.6375*
%
%ADD76ROUNDEDRECTD76*%
G04:AMPARAMS|DCode=77|XSize=0.85mm|YSize=0.5mm|CornerRadius=0.0025mm|HoleSize=0mm|Usage=FLASHONLY|Rotation=90.000|XOffset=0mm|YOffset=0mm|HoleType=Round|Shape=RoundedRectangle|*
%AMROUNDEDRECTD77*
21,1,0.8500,0.4950,0,0,90.0*
21,1,0.8450,0.5000,0,0,90.0*
1,1,0.0050,0.2475,0.4225*
1,1,0.0050,0.2475,-0.4225*
1,1,0.0050,-0.2475,-0.4225*
1,1,0.0050,-0.2475,0.4225*
%
%ADD77ROUNDEDRECTD77*%
G04:AMPARAMS|DCode=78|XSize=1mm|YSize=1.25mm|CornerRadius=0.005mm|HoleSize=0mm|Usage=FLASHONLY|Rotation=180.000|XOffset=0mm|YOffset=0mm|HoleType=Round|Shape=RoundedRectangle|*
%AMROUNDEDRECTD78*
21,1,1.0000,1.2400,0,0,180.0*
21,1,0.9900,1.2500,0,0,180.0*
1,1,0.0100,-0.4950,0.6200*
1,1,0.0100,0.4950,0.6200*
1,1,0.0100,0.4950,-0.6200*
1,1,0.0100,-0.4950,-0.6200*
%
%ADD78ROUNDEDRECTD78*%
G04:AMPARAMS|DCode=79|XSize=1.4mm|YSize=1.05mm|CornerRadius=0.0053mm|HoleSize=0mm|Usage=FLASHONLY|Rotation=270.000|XOffset=0mm|YOffset=0mm|HoleType=Round|Shape=RoundedRectangle|*
%AMROUNDEDRECTD79*
21,1,1.4000,1.0395,0,0,270.0*
21,1,1.3895,1.0500,0,0,270.0*
1,1,0.0105,-0.5198,-0.6948*
1,1,0.0105,-0.5198,0.6948*
1,1,0.0105,0.5198,0.6948*
1,1,0.0105,0.5198,-0.6948*
%
%ADD79ROUNDEDRECTD79*%
G04:AMPARAMS|DCode=80|XSize=1.4mm|YSize=1.05mm|CornerRadius=0.0053mm|HoleSize=0mm|Usage=FLASHONLY|Rotation=0.000|XOffset=0mm|YOffset=0mm|HoleType=Round|Shape=RoundedRectangle|*
%AMROUNDEDRECTD80*
21,1,1.4000,1.0395,0,0,0.0*
21,1,1.3895,1.0500,0,0,0.0*
1,1,0.0105,0.6948,-0.5198*
1,1,0.0105,-0.6948,-0.5198*
1,1,0.0105,-0.6948,0.5198*
1,1,0.0105,0.6948,0.5198*
%
%ADD80ROUNDEDRECTD80*%
G04:AMPARAMS|DCode=81|XSize=1.4mm|YSize=2mm|CornerRadius=0.35mm|HoleSize=0mm|Usage=FLASHONLY|Rotation=0.000|XOffset=0mm|YOffset=0mm|HoleType=Round|Shape=RoundedRectangle|*
%AMROUNDEDRECTD81*
21,1,1.4000,1.3000,0,0,0.0*
21,1,0.7000,2.0000,0,0,0.0*
1,1,0.7000,0.3500,-0.6500*
1,1,0.7000,-0.3500,-0.6500*
1,1,0.7000,-0.3500,0.6500*
1,1,0.7000,0.3500,0.6500*
%
%ADD81ROUNDEDRECTD81*%
G04:AMPARAMS|DCode=82|XSize=1.4mm|YSize=1.2mm|CornerRadius=0.3mm|HoleSize=0mm|Usage=FLASHONLY|Rotation=0.000|XOffset=0mm|YOffset=0mm|HoleType=Round|Shape=RoundedRectangle|*
%AMROUNDEDRECTD82*
21,1,1.4000,0.6000,0,0,0.0*
21,1,0.8000,1.2000,0,0,0.0*
1,1,0.6000,0.4000,-0.3000*
1,1,0.6000,-0.4000,-0.3000*
1,1,0.6000,-0.4000,0.3000*
1,1,0.6000,0.4000,0.3000*
%
%ADD82ROUNDEDRECTD82*%
D62*
X-198500Y-338250D02*
D03*
Y-331750D02*
D03*
Y-325250D02*
D03*
Y-318750D02*
D03*
Y-312250D02*
D03*
Y-305750D02*
D03*
Y-299250D02*
D03*
Y-292750D02*
D03*
Y-286250D02*
D03*
Y-279750D02*
D03*
Y-273250D02*
D03*
Y-266750D02*
D03*
X-141500Y-338250D02*
D03*
Y-331750D02*
D03*
Y-325250D02*
D03*
Y-318750D02*
D03*
Y-312250D02*
D03*
Y-305750D02*
D03*
Y-299250D02*
D03*
Y-292750D02*
D03*
Y-286250D02*
D03*
Y-279750D02*
D03*
Y-273250D02*
D03*
Y-266750D02*
D03*
X-290340Y-318769D02*
D03*
Y-312269D02*
D03*
Y-305769D02*
D03*
Y-299269D02*
D03*
Y-292769D02*
D03*
Y-286269D02*
D03*
Y-279769D02*
D03*
X-233340Y-318769D02*
D03*
Y-312269D02*
D03*
Y-305769D02*
D03*
Y-299269D02*
D03*
Y-292769D02*
D03*
Y-286269D02*
D03*
Y-279769D02*
D03*
X-233340Y-196130D02*
D03*
Y-202630D02*
D03*
Y-209130D02*
D03*
Y-215630D02*
D03*
Y-222130D02*
D03*
Y-228630D02*
D03*
Y-235130D02*
D03*
Y-241630D02*
D03*
X-290340Y-196130D02*
D03*
Y-202630D02*
D03*
Y-209130D02*
D03*
Y-215630D02*
D03*
Y-222130D02*
D03*
Y-228630D02*
D03*
Y-235130D02*
D03*
Y-241630D02*
D03*
D63*
X-170000Y-302500D02*
D03*
D64*
X-219084Y-355231D02*
D03*
Y-361731D02*
D03*
Y-368231D02*
D03*
Y-374731D02*
D03*
Y-381231D02*
D03*
Y-387731D02*
D03*
Y-394231D02*
D03*
Y-400731D02*
D03*
Y-407231D02*
D03*
Y-413731D02*
D03*
X-275084Y-355231D02*
D03*
Y-361731D02*
D03*
Y-368231D02*
D03*
Y-374731D02*
D03*
Y-381231D02*
D03*
Y-387731D02*
D03*
Y-394231D02*
D03*
Y-400731D02*
D03*
Y-407231D02*
D03*
Y-413731D02*
D03*
D65*
X-101553Y-317500D02*
D03*
Y-331500D02*
D03*
X-123000Y-331750D02*
D03*
Y-317750D02*
D03*
X60869Y187590D02*
D03*
Y173590D02*
D03*
X71871Y187590D02*
D03*
Y173590D02*
D03*
X224460Y-40000D02*
D03*
Y-54000D02*
D03*
X-67462Y183833D02*
D03*
Y197833D02*
D03*
X218423Y19087D02*
D03*
Y33087D02*
D03*
X-143684Y-65130D02*
D03*
Y-79130D02*
D03*
X236680Y-54000D02*
D03*
Y-40000D02*
D03*
X-55484Y197833D02*
D03*
Y183833D02*
D03*
X230407Y33087D02*
D03*
Y19087D02*
D03*
X-155955Y-79130D02*
D03*
Y-65130D02*
D03*
D66*
X-55250Y-388500D02*
D03*
X-61750D02*
D03*
X-68250D02*
D03*
X-74750D02*
D03*
X-55250Y-331500D02*
D03*
X-61750D02*
D03*
X-68250D02*
D03*
X-74750D02*
D03*
D67*
X-88889D02*
D03*
Y-317000D02*
D03*
X-290340Y-165010D02*
D03*
Y-179510D02*
D03*
X-98511Y-160655D02*
D03*
Y-146155D02*
D03*
X-224690Y966D02*
D03*
Y15466D02*
D03*
X-2530Y166750D02*
D03*
Y181250D02*
D03*
X57500Y-422484D02*
D03*
Y-436984D02*
D03*
X107248Y-236530D02*
D03*
Y-222030D02*
D03*
D68*
X-74750Y-404823D02*
D03*
X-60250D02*
D03*
X-141500Y-348730D02*
D03*
X-156000D02*
D03*
X-290340Y-263698D02*
D03*
X-275840D02*
D03*
X96624Y199601D02*
D03*
X82124D02*
D03*
X206603Y-27612D02*
D03*
X192103D02*
D03*
X-93260Y165330D02*
D03*
X-78760D02*
D03*
X191903Y19D02*
D03*
X206403D02*
D03*
X-146850Y-47430D02*
D03*
X-132350D02*
D03*
X-221760Y-435021D02*
D03*
X-236260D02*
D03*
X44750Y-370468D02*
D03*
X30250D02*
D03*
X-275840Y-332578D02*
D03*
X-290340D02*
D03*
X-284271Y-435021D02*
D03*
X-269771D02*
D03*
D69*
X82124Y168590D02*
D03*
Y187590D02*
D03*
X103124Y178090D02*
D03*
X213103Y-50724D02*
D03*
X192103Y-41224D02*
D03*
Y-60224D02*
D03*
X-78760Y197833D02*
D03*
Y178833D02*
D03*
X-99760Y188333D02*
D03*
X206403Y33182D02*
D03*
Y14182D02*
D03*
X185403Y23682D02*
D03*
X-111350Y-69630D02*
D03*
X-132350Y-60130D02*
D03*
Y-79130D02*
D03*
D70*
X-131494Y-146155D02*
D03*
X-112494D02*
D03*
X-121994Y-167155D02*
D03*
X-204618Y36466D02*
D03*
X-214118Y15466D02*
D03*
X-195118D02*
D03*
X-25000Y160250D02*
D03*
X-15500Y181250D02*
D03*
X-34500D02*
D03*
D71*
X13000Y-305000D02*
D03*
X41000D02*
D03*
D72*
X36750Y-390984D02*
D03*
Y-413984D02*
D03*
Y-436984D02*
D03*
D73*
X-21750Y-413984D02*
D03*
D74*
X283750Y-361730D02*
D03*
Y-341918D02*
D03*
Y-321598D02*
D03*
Y-301786D02*
D03*
Y-281720D02*
D03*
X284004Y-261654D02*
D03*
Y-241842D02*
D03*
X129794Y-222030D02*
D03*
Y-261908D02*
D03*
Y-281720D02*
D03*
Y-302040D02*
D03*
Y-321852D02*
D03*
Y-341918D02*
D03*
X284004Y-221776D02*
D03*
X129794Y-242096D02*
D03*
Y-361730D02*
D03*
D75*
X256810Y-202202D02*
D03*
X236490D02*
D03*
X216678D02*
D03*
X196358D02*
D03*
X176546D02*
D03*
X156734D02*
D03*
D76*
X6500Y-331750D02*
D03*
X13000D02*
D03*
X-6500D02*
D03*
X-13000D02*
D03*
X0D02*
D03*
D77*
X-131377Y-380369D02*
D03*
X-117377D02*
D03*
X292000Y-180000D02*
D03*
X278000D02*
D03*
X103036Y-309191D02*
D03*
X89036D02*
D03*
X-246069Y-435021D02*
D03*
X-260069D02*
D03*
X-117494Y-135362D02*
D03*
X-131494D02*
D03*
X-195118Y3922D02*
D03*
X-209118D02*
D03*
X-15500Y192715D02*
D03*
X-29500D02*
D03*
X-131494Y-123498D02*
D03*
X-117494D02*
D03*
X-209118Y-7852D02*
D03*
X-195118D02*
D03*
X-29500Y205011D02*
D03*
X-15500D02*
D03*
D78*
X63500Y-1320D02*
D03*
X48500D02*
D03*
X33500D02*
D03*
X18500D02*
D03*
X78500D02*
D03*
X63500Y121320D02*
D03*
X33500D02*
D03*
X48500D02*
D03*
X18500D02*
D03*
X78500D02*
D03*
X-33500Y-1320D02*
D03*
X-48500D02*
D03*
X-63500D02*
D03*
X-78500D02*
D03*
X-18500D02*
D03*
X-33500Y121320D02*
D03*
X-63500D02*
D03*
X-48500D02*
D03*
X-78500D02*
D03*
X-18500D02*
D03*
X138000Y-140320D02*
D03*
X123000D02*
D03*
X108000D02*
D03*
X93000D02*
D03*
X153000D02*
D03*
X138000Y-17680D02*
D03*
X108000D02*
D03*
X123000D02*
D03*
X93000D02*
D03*
X153000D02*
D03*
X142000Y-1320D02*
D03*
X127000D02*
D03*
X112000D02*
D03*
X97000D02*
D03*
X157000D02*
D03*
X142000Y121320D02*
D03*
X112000D02*
D03*
X127000D02*
D03*
X97000D02*
D03*
X157000D02*
D03*
X48250Y-140320D02*
D03*
X33250D02*
D03*
X18250D02*
D03*
X3250D02*
D03*
X63250D02*
D03*
X48250Y-17680D02*
D03*
X18250D02*
D03*
X33250D02*
D03*
X3250D02*
D03*
X63250D02*
D03*
X-30250Y-140320D02*
D03*
X-45250D02*
D03*
X-60250D02*
D03*
X-75250D02*
D03*
X-15250D02*
D03*
X-30250Y-17680D02*
D03*
X-60250D02*
D03*
X-45250D02*
D03*
X-75250D02*
D03*
X-15250D02*
D03*
X-112000Y-1320D02*
D03*
X-127000D02*
D03*
X-142000D02*
D03*
X-157000D02*
D03*
X-97000D02*
D03*
X-112000Y121320D02*
D03*
X-142000D02*
D03*
X-127000D02*
D03*
X-157000D02*
D03*
X-97000D02*
D03*
D79*
X271731Y155447D02*
D03*
X286231D02*
D03*
Y191447D02*
D03*
X271731D02*
D03*
D80*
X193950Y271751D02*
D03*
Y286251D02*
D03*
X157950D02*
D03*
Y271751D02*
D03*
D81*
X-185661Y276198D02*
D03*
D82*
X-124661D02*
D03*
%TF.MD5,e525567ea24414d203ddacf194c8faac*%
M02*
