%TF.GenerationSoftware,Altium Limited,Altium Designer,20.1.8 (145)*%
G04 Layer_Color=16771225*
%FSLAX44Y44*%
%MOMM*%
%TF.SameCoordinates,3BEBD2D3-E5B3-4009-AA71-14EFD01F195C*%
%TF.FilePolarity,Positive*%
%TF.FileFunction,Other,Sheet*%
%TF.Part,Single*%
G01*
G75*
%TA.AperFunction,NonConductor*%
%ADD154C,0.0254*%
G36*
X897279Y309815D02*
X894131D01*
Y313407D01*
X897279D01*
Y309815D01*
D02*
G37*
G36*
X830397Y313815D02*
X830657D01*
X831360Y313741D01*
X832138Y313629D01*
X832953Y313444D01*
X833841Y313222D01*
X834656Y312926D01*
X834693D01*
X834767Y312889D01*
X834878Y312815D01*
X835026Y312741D01*
X835397Y312556D01*
X835878Y312222D01*
X836434Y311852D01*
X836989Y311371D01*
X837508Y310815D01*
X837989Y310186D01*
Y310148D01*
X838026Y310111D01*
X838100Y310000D01*
X838174Y309889D01*
X838360Y309519D01*
X838582Y309037D01*
X838841Y308445D01*
X839026Y307741D01*
X839211Y307001D01*
X839285Y306186D01*
X836026Y305927D01*
Y305964D01*
Y306038D01*
X835989Y306149D01*
X835952Y306334D01*
X835841Y306741D01*
X835693Y307297D01*
X835471Y307889D01*
X835138Y308482D01*
X834730Y309037D01*
X834212Y309556D01*
X834138Y309593D01*
X833952Y309741D01*
X833582Y309963D01*
X833101Y310186D01*
X832471Y310408D01*
X831730Y310630D01*
X830805Y310778D01*
X829768Y310815D01*
X829249D01*
X829027Y310778D01*
X828731Y310741D01*
X828064Y310667D01*
X827324Y310519D01*
X826583Y310334D01*
X825879Y310037D01*
X825583Y309852D01*
X825287Y309667D01*
X825213Y309630D01*
X825064Y309482D01*
X824842Y309223D01*
X824620Y308926D01*
X824361Y308519D01*
X824139Y308075D01*
X823991Y307556D01*
X823916Y306964D01*
Y306889D01*
Y306741D01*
X823953Y306482D01*
X824028Y306186D01*
X824139Y305816D01*
X824324Y305445D01*
X824546Y305075D01*
X824879Y304704D01*
X824916Y304667D01*
X825102Y304556D01*
X825250Y304445D01*
X825398Y304371D01*
X825620Y304260D01*
X825879Y304112D01*
X826213Y304001D01*
X826583Y303853D01*
X826990Y303705D01*
X827472Y303519D01*
X827990Y303371D01*
X828583Y303186D01*
X829249Y303038D01*
X829990Y302853D01*
X830027D01*
X830175Y302816D01*
X830397Y302779D01*
X830657Y302705D01*
X830990Y302631D01*
X831397Y302520D01*
X831805Y302409D01*
X832249Y302297D01*
X833212Y302038D01*
X834138Y301779D01*
X834582Y301631D01*
X834989Y301483D01*
X835360Y301372D01*
X835656Y301223D01*
X835693D01*
X835767Y301186D01*
X835878Y301112D01*
X836026Y301038D01*
X836434Y300816D01*
X836915Y300520D01*
X837471Y300112D01*
X838026Y299668D01*
X838545Y299150D01*
X838989Y298594D01*
X839026Y298520D01*
X839174Y298335D01*
X839322Y298001D01*
X839545Y297557D01*
X839730Y297039D01*
X839915Y296409D01*
X840026Y295706D01*
X840063Y294965D01*
Y294928D01*
Y294891D01*
Y294780D01*
Y294632D01*
X839989Y294224D01*
X839915Y293706D01*
X839767Y293113D01*
X839582Y292484D01*
X839285Y291817D01*
X838878Y291113D01*
Y291076D01*
X838841Y291039D01*
X838656Y290817D01*
X838397Y290484D01*
X838026Y290114D01*
X837545Y289669D01*
X836952Y289188D01*
X836286Y288743D01*
X835508Y288336D01*
X835471D01*
X835397Y288299D01*
X835286Y288262D01*
X835138Y288188D01*
X834915Y288114D01*
X834656Y288003D01*
X834064Y287854D01*
X833360Y287669D01*
X832508Y287484D01*
X831582Y287373D01*
X830583Y287336D01*
X829990D01*
X829694Y287373D01*
X829360D01*
X828990Y287410D01*
X828546Y287447D01*
X827620Y287595D01*
X826657Y287743D01*
X825694Y288003D01*
X824768Y288336D01*
X824731D01*
X824657Y288373D01*
X824546Y288447D01*
X824398Y288521D01*
X823953Y288743D01*
X823435Y289076D01*
X822843Y289521D01*
X822213Y290039D01*
X821620Y290669D01*
X821065Y291373D01*
Y291410D01*
X820991Y291484D01*
X820954Y291595D01*
X820843Y291743D01*
X820769Y291928D01*
X820658Y292150D01*
X820398Y292706D01*
X820139Y293409D01*
X819917Y294187D01*
X819769Y295076D01*
X819695Y296002D01*
X822880Y296298D01*
Y296261D01*
Y296224D01*
X822917Y296113D01*
Y295965D01*
X822991Y295631D01*
X823102Y295150D01*
X823250Y294669D01*
X823398Y294113D01*
X823657Y293595D01*
X823916Y293113D01*
X823953Y293076D01*
X824065Y292928D01*
X824250Y292669D01*
X824546Y292409D01*
X824916Y292076D01*
X825324Y291743D01*
X825879Y291410D01*
X826472Y291113D01*
X826509D01*
X826546Y291076D01*
X826657Y291039D01*
X826768Y291002D01*
X827138Y290891D01*
X827620Y290743D01*
X828212Y290595D01*
X828879Y290484D01*
X829620Y290410D01*
X830434Y290373D01*
X830768D01*
X831138Y290410D01*
X831582Y290447D01*
X832101Y290521D01*
X832693Y290595D01*
X833286Y290743D01*
X833841Y290928D01*
X833915Y290965D01*
X834101Y291039D01*
X834360Y291187D01*
X834693Y291336D01*
X835026Y291595D01*
X835397Y291854D01*
X835767Y292150D01*
X836063Y292521D01*
X836100Y292558D01*
X836174Y292706D01*
X836286Y292891D01*
X836434Y293187D01*
X836582Y293484D01*
X836693Y293854D01*
X836767Y294261D01*
X836804Y294706D01*
Y294743D01*
Y294928D01*
X836767Y295150D01*
X836730Y295446D01*
X836619Y295742D01*
X836508Y296113D01*
X836323Y296483D01*
X836063Y296817D01*
X836026Y296854D01*
X835915Y296965D01*
X835767Y297113D01*
X835508Y297335D01*
X835212Y297557D01*
X834804Y297816D01*
X834323Y298076D01*
X833767Y298298D01*
X833730Y298335D01*
X833545Y298372D01*
X833249Y298483D01*
X833064Y298520D01*
X832804Y298594D01*
X832545Y298705D01*
X832212Y298779D01*
X831842Y298890D01*
X831397Y299001D01*
X830953Y299112D01*
X830434Y299261D01*
X829842Y299409D01*
X829212Y299557D01*
X829175D01*
X829064Y299594D01*
X828879Y299631D01*
X828657Y299705D01*
X828361Y299779D01*
X828027Y299853D01*
X827287Y300075D01*
X826472Y300335D01*
X825620Y300594D01*
X824879Y300853D01*
X824546Y301001D01*
X824250Y301149D01*
X824213D01*
X824176Y301186D01*
X823953Y301334D01*
X823620Y301520D01*
X823250Y301816D01*
X822805Y302149D01*
X822361Y302557D01*
X821917Y303038D01*
X821546Y303556D01*
X821509Y303631D01*
X821398Y303816D01*
X821250Y304112D01*
X821102Y304482D01*
X820954Y304964D01*
X820806Y305519D01*
X820695Y306112D01*
X820658Y306741D01*
Y306778D01*
Y306815D01*
Y306926D01*
Y307075D01*
X820732Y307445D01*
X820806Y307926D01*
X820917Y308482D01*
X821102Y309111D01*
X821361Y309741D01*
X821732Y310371D01*
Y310408D01*
X821769Y310445D01*
X821954Y310667D01*
X822213Y310963D01*
X822546Y311334D01*
X822991Y311741D01*
X823546Y312185D01*
X824213Y312593D01*
X824953Y312963D01*
X824990D01*
X825064Y313000D01*
X825176Y313037D01*
X825324Y313111D01*
X825509Y313185D01*
X825768Y313259D01*
X826324Y313407D01*
X827027Y313556D01*
X827842Y313704D01*
X828694Y313815D01*
X829657Y313852D01*
X830138D01*
X830397Y313815D01*
D02*
G37*
G36*
X944089D02*
X944423Y313778D01*
X944830Y313741D01*
X945237Y313704D01*
X945719Y313592D01*
X946719Y313370D01*
X947830Y313037D01*
X948385Y312815D01*
X948904Y312556D01*
X949422Y312222D01*
X949940Y311889D01*
X949977Y311852D01*
X950052Y311815D01*
X950200Y311704D01*
X950385Y311519D01*
X950570Y311334D01*
X950829Y311074D01*
X951088Y310778D01*
X951385Y310482D01*
X951681Y310111D01*
X951977Y309667D01*
X952311Y309223D01*
X952607Y308741D01*
X952866Y308186D01*
X953162Y307630D01*
X953385Y307038D01*
X953607Y306371D01*
X950274Y305593D01*
Y305630D01*
X950237Y305704D01*
X950163Y305853D01*
X950089Y306038D01*
X950015Y306260D01*
X949903Y306556D01*
X949607Y307149D01*
X949237Y307815D01*
X948792Y308482D01*
X948237Y309111D01*
X947644Y309667D01*
X947570Y309741D01*
X947348Y309889D01*
X946978Y310074D01*
X946496Y310334D01*
X945867Y310556D01*
X945163Y310778D01*
X944311Y310926D01*
X943386Y310963D01*
X943089D01*
X942904Y310926D01*
X942645D01*
X942349Y310889D01*
X941645Y310778D01*
X940867Y310630D01*
X940053Y310371D01*
X939201Y310000D01*
X938423Y309519D01*
X938386D01*
X938349Y309445D01*
X938090Y309260D01*
X937757Y308963D01*
X937349Y308519D01*
X936868Y307964D01*
X936423Y307334D01*
X936016Y306556D01*
X935646Y305704D01*
Y305667D01*
X935609Y305593D01*
X935572Y305482D01*
X935535Y305297D01*
X935461Y305075D01*
X935386Y304816D01*
X935275Y304186D01*
X935127Y303445D01*
X934979Y302631D01*
X934905Y301742D01*
X934868Y300779D01*
Y300742D01*
Y300631D01*
Y300446D01*
Y300224D01*
X934905Y299964D01*
Y299631D01*
X934942Y299261D01*
X934979Y298853D01*
X935090Y297964D01*
X935275Y297002D01*
X935498Y296039D01*
X935794Y295076D01*
Y295039D01*
X935831Y294965D01*
X935905Y294854D01*
X935979Y294669D01*
X936201Y294224D01*
X936535Y293706D01*
X936942Y293113D01*
X937460Y292484D01*
X938053Y291928D01*
X938756Y291410D01*
X938793D01*
X938868Y291373D01*
X938979Y291299D01*
X939127Y291224D01*
X939312Y291150D01*
X939534Y291039D01*
X940053Y290817D01*
X940719Y290595D01*
X941460Y290410D01*
X942275Y290262D01*
X943126Y290225D01*
X943386D01*
X943608Y290262D01*
X943867D01*
X944126Y290299D01*
X944793Y290447D01*
X945571Y290632D01*
X946348Y290928D01*
X947163Y291336D01*
X947570Y291558D01*
X947941Y291854D01*
X947978Y291891D01*
X948015Y291928D01*
X948126Y292039D01*
X948274Y292150D01*
X948422Y292335D01*
X948607Y292558D01*
X948829Y292780D01*
X949015Y293076D01*
X949237Y293409D01*
X949496Y293780D01*
X949718Y294150D01*
X949940Y294594D01*
X950126Y295076D01*
X950311Y295594D01*
X950496Y296150D01*
X950644Y296742D01*
X954051Y295891D01*
Y295854D01*
X954014Y295706D01*
X953940Y295483D01*
X953829Y295187D01*
X953718Y294854D01*
X953570Y294446D01*
X953385Y294002D01*
X953162Y293521D01*
X952644Y292484D01*
X951977Y291447D01*
X951570Y290928D01*
X951163Y290410D01*
X950718Y289965D01*
X950200Y289521D01*
X950163Y289484D01*
X950089Y289410D01*
X949903Y289336D01*
X949718Y289188D01*
X949422Y289002D01*
X949126Y288817D01*
X948718Y288632D01*
X948311Y288447D01*
X947830Y288225D01*
X947311Y288040D01*
X946756Y287854D01*
X946163Y287669D01*
X945534Y287521D01*
X944867Y287447D01*
X944163Y287373D01*
X943423Y287336D01*
X943015D01*
X942719Y287373D01*
X942386D01*
X941978Y287410D01*
X941534Y287484D01*
X941015Y287558D01*
X939941Y287743D01*
X938830Y288040D01*
X937719Y288447D01*
X937201Y288706D01*
X936683Y289002D01*
X936646Y289039D01*
X936572Y289076D01*
X936423Y289188D01*
X936275Y289336D01*
X936053Y289484D01*
X935794Y289706D01*
X935498Y289965D01*
X935201Y290262D01*
X934905Y290595D01*
X934572Y290928D01*
X933905Y291780D01*
X933276Y292780D01*
X932720Y293891D01*
Y293928D01*
X932646Y294039D01*
X932609Y294224D01*
X932498Y294446D01*
X932424Y294743D01*
X932313Y295113D01*
X932165Y295520D01*
X932054Y295965D01*
X931942Y296446D01*
X931794Y297002D01*
X931609Y298150D01*
X931461Y299446D01*
X931387Y300779D01*
Y300816D01*
Y300964D01*
Y301186D01*
X931424Y301446D01*
Y301816D01*
X931461Y302186D01*
X931498Y302668D01*
X931572Y303149D01*
X931757Y304223D01*
X932016Y305408D01*
X932387Y306593D01*
X932905Y307741D01*
X932942Y307778D01*
X932979Y307889D01*
X933053Y308037D01*
X933202Y308223D01*
X933350Y308482D01*
X933535Y308778D01*
X934016Y309445D01*
X934646Y310186D01*
X935386Y310926D01*
X936238Y311667D01*
X937238Y312296D01*
X937275Y312333D01*
X937386Y312370D01*
X937534Y312444D01*
X937719Y312556D01*
X938016Y312667D01*
X938312Y312778D01*
X938682Y312926D01*
X939090Y313074D01*
X939534Y313222D01*
X940016Y313370D01*
X941052Y313592D01*
X942238Y313778D01*
X943460Y313852D01*
X943830D01*
X944089Y313815D01*
D02*
G37*
G36*
X889132Y287780D02*
X886206D01*
Y290114D01*
X886169Y290076D01*
X886132Y290002D01*
X886021Y289854D01*
X885873Y289669D01*
X885688Y289484D01*
X885466Y289262D01*
X885207Y289002D01*
X884873Y288743D01*
X884540Y288484D01*
X884169Y288225D01*
X883725Y288003D01*
X883244Y287817D01*
X882762Y287632D01*
X882207Y287484D01*
X881614Y287410D01*
X880985Y287373D01*
X880762D01*
X880614Y287410D01*
X880170Y287447D01*
X879651Y287521D01*
X879022Y287669D01*
X878318Y287892D01*
X877615Y288188D01*
X876911Y288595D01*
X876874D01*
X876837Y288669D01*
X876615Y288817D01*
X876282Y289114D01*
X875874Y289484D01*
X875393Y289965D01*
X874911Y290558D01*
X874430Y291224D01*
X874022Y292002D01*
Y292039D01*
X873985Y292113D01*
X873948Y292224D01*
X873874Y292372D01*
X873800Y292595D01*
X873689Y292854D01*
X873615Y293113D01*
X873541Y293447D01*
X873356Y294187D01*
X873171Y295039D01*
X873060Y296002D01*
X873023Y297039D01*
Y297076D01*
Y297150D01*
Y297298D01*
Y297520D01*
X873060Y297742D01*
Y298039D01*
X873134Y298705D01*
X873245Y299483D01*
X873430Y300335D01*
X873652Y301223D01*
X873948Y302075D01*
Y302112D01*
X873985Y302186D01*
X874060Y302297D01*
X874134Y302446D01*
X874356Y302853D01*
X874652Y303371D01*
X875022Y303927D01*
X875504Y304482D01*
X876059Y305075D01*
X876726Y305556D01*
X876763D01*
X876800Y305593D01*
X876911Y305667D01*
X877059Y305742D01*
X877430Y305927D01*
X877948Y306186D01*
X878540Y306408D01*
X879244Y306593D01*
X880022Y306741D01*
X880836Y306778D01*
X881133D01*
X881429Y306741D01*
X881836Y306704D01*
X882318Y306593D01*
X882836Y306482D01*
X883355Y306297D01*
X883836Y306038D01*
X883910Y306001D01*
X884058Y305927D01*
X884281Y305742D01*
X884577Y305556D01*
X884947Y305297D01*
X885281Y304964D01*
X885651Y304631D01*
X885984Y304223D01*
Y313407D01*
X889132D01*
Y287780D01*
D02*
G37*
G36*
X799363Y306741D02*
X799623Y306704D01*
X800178Y306630D01*
X800845Y306482D01*
X801548Y306260D01*
X802252Y305927D01*
X802956Y305519D01*
X802993D01*
X803030Y305445D01*
X803252Y305297D01*
X803585Y305001D01*
X803993Y304631D01*
X804437Y304149D01*
X804881Y303556D01*
X805326Y302853D01*
X805696Y302075D01*
Y302038D01*
X805733Y301964D01*
X805770Y301853D01*
X805844Y301705D01*
X805918Y301483D01*
X805992Y301223D01*
X806178Y300631D01*
X806363Y299890D01*
X806511Y299076D01*
X806622Y298150D01*
X806659Y297187D01*
Y297150D01*
Y297076D01*
Y296928D01*
Y296705D01*
X806622Y296446D01*
Y296150D01*
X806548Y295483D01*
X806400Y294669D01*
X806215Y293817D01*
X805955Y292928D01*
X805622Y292039D01*
Y292002D01*
X805585Y291928D01*
X805511Y291817D01*
X805437Y291669D01*
X805178Y291262D01*
X804844Y290743D01*
X804437Y290187D01*
X803919Y289632D01*
X803326Y289076D01*
X802622Y288558D01*
X802585D01*
X802548Y288521D01*
X802437Y288447D01*
X802289Y288373D01*
X801919Y288188D01*
X801400Y287966D01*
X800771Y287743D01*
X800104Y287558D01*
X799326Y287410D01*
X798549Y287373D01*
X798289D01*
X797993Y287410D01*
X797623Y287447D01*
X797178Y287521D01*
X796697Y287632D01*
X796216Y287780D01*
X795734Y288003D01*
X795697Y288040D01*
X795512Y288114D01*
X795290Y288262D01*
X794994Y288484D01*
X794697Y288706D01*
X794327Y289002D01*
X793994Y289336D01*
X793697Y289706D01*
Y280670D01*
X790550D01*
Y306371D01*
X793401D01*
Y303927D01*
X793438Y304001D01*
X793586Y304149D01*
X793772Y304408D01*
X794068Y304704D01*
X794401Y305075D01*
X794771Y305408D01*
X795216Y305742D01*
X795660Y306038D01*
X795734Y306075D01*
X795882Y306149D01*
X796179Y306260D01*
X796549Y306408D01*
X796993Y306556D01*
X797512Y306667D01*
X798104Y306741D01*
X798771Y306778D01*
X799178D01*
X799363Y306741D01*
D02*
G37*
G36*
X731667D02*
X732222Y306704D01*
X732815Y306630D01*
X733444Y306482D01*
X734111Y306334D01*
X734741Y306112D01*
X734778D01*
X734815Y306075D01*
X735000Y306001D01*
X735296Y305853D01*
X735666Y305667D01*
X736074Y305408D01*
X736481Y305112D01*
X736852Y304779D01*
X737185Y304408D01*
X737222Y304371D01*
X737296Y304223D01*
X737444Y303964D01*
X737629Y303668D01*
X737814Y303223D01*
X737999Y302742D01*
X738148Y302186D01*
X738296Y301557D01*
X735222Y301149D01*
Y301223D01*
X735185Y301372D01*
X735111Y301631D01*
X735000Y301964D01*
X734815Y302297D01*
X734592Y302668D01*
X734333Y303038D01*
X733963Y303371D01*
X733926Y303408D01*
X733778Y303482D01*
X733556Y303631D01*
X733222Y303779D01*
X732852Y303927D01*
X732370Y304075D01*
X731778Y304149D01*
X731148Y304186D01*
X730778D01*
X730408Y304149D01*
X729926Y304112D01*
X729445Y304001D01*
X728926Y303890D01*
X728445Y303705D01*
X728038Y303445D01*
X728000Y303408D01*
X727889Y303334D01*
X727741Y303186D01*
X727593Y302964D01*
X727408Y302742D01*
X727260Y302446D01*
X727149Y302112D01*
X727112Y301779D01*
Y301742D01*
Y301668D01*
X727149Y301557D01*
Y301409D01*
X727260Y301038D01*
X727482Y300668D01*
X727519Y300631D01*
X727556Y300594D01*
X727630Y300483D01*
X727778Y300372D01*
X727926Y300261D01*
X728149Y300112D01*
X728408Y300001D01*
X728704Y299853D01*
X728741D01*
X728815Y299816D01*
X728963Y299779D01*
X729223Y299668D01*
X729593Y299557D01*
X730074Y299446D01*
X730371Y299335D01*
X730704Y299261D01*
X731074Y299150D01*
X731482Y299039D01*
X731519D01*
X731630Y299001D01*
X731815Y298964D01*
X732037Y298890D01*
X732296Y298816D01*
X732630Y298742D01*
X733333Y298520D01*
X734111Y298298D01*
X734889Y298039D01*
X735592Y297779D01*
X735889Y297668D01*
X736148Y297557D01*
X736222Y297520D01*
X736370Y297446D01*
X736592Y297335D01*
X736926Y297150D01*
X737259Y296928D01*
X737592Y296631D01*
X737925Y296298D01*
X738222Y295928D01*
X738259Y295891D01*
X738333Y295742D01*
X738481Y295520D01*
X738629Y295187D01*
X738740Y294780D01*
X738888Y294335D01*
X738962Y293817D01*
X738999Y293224D01*
Y293150D01*
Y292965D01*
X738962Y292669D01*
X738888Y292261D01*
X738777Y291817D01*
X738592Y291336D01*
X738370Y290780D01*
X738074Y290262D01*
X738036Y290187D01*
X737888Y290039D01*
X737703Y289780D01*
X737407Y289484D01*
X737000Y289151D01*
X736555Y288780D01*
X736037Y288447D01*
X735407Y288114D01*
X735370D01*
X735333Y288077D01*
X735111Y288003D01*
X734741Y287892D01*
X734259Y287743D01*
X733667Y287595D01*
X733000Y287484D01*
X732296Y287410D01*
X731482Y287373D01*
X731148D01*
X730889Y287410D01*
X730593D01*
X730222Y287447D01*
X729852Y287484D01*
X729445Y287558D01*
X728556Y287743D01*
X727630Y288003D01*
X726741Y288373D01*
X726334Y288595D01*
X725964Y288854D01*
X725927Y288891D01*
X725890Y288928D01*
X725667Y289151D01*
X725334Y289484D01*
X724964Y290002D01*
X724556Y290632D01*
X724149Y291373D01*
X723816Y292298D01*
X723557Y293335D01*
X726667Y293817D01*
Y293780D01*
Y293743D01*
X726741Y293521D01*
X726815Y293150D01*
X726964Y292743D01*
X727149Y292298D01*
X727371Y291817D01*
X727704Y291336D01*
X728112Y290928D01*
X728186Y290891D01*
X728334Y290780D01*
X728630Y290632D01*
X729000Y290447D01*
X729482Y290262D01*
X730037Y290114D01*
X730704Y290002D01*
X731482Y289965D01*
X731852D01*
X732222Y290002D01*
X732704Y290076D01*
X733222Y290187D01*
X733778Y290336D01*
X734259Y290521D01*
X734704Y290817D01*
X734741Y290854D01*
X734889Y290965D01*
X735037Y291150D01*
X735259Y291410D01*
X735444Y291706D01*
X735629Y292076D01*
X735741Y292447D01*
X735778Y292891D01*
Y292928D01*
Y293076D01*
X735741Y293261D01*
X735666Y293521D01*
X735555Y293780D01*
X735370Y294039D01*
X735148Y294335D01*
X734815Y294557D01*
X734778Y294594D01*
X734667Y294632D01*
X734481Y294743D01*
X734185Y294854D01*
X733741Y295002D01*
X733481Y295113D01*
X733185Y295187D01*
X732852Y295298D01*
X732482Y295409D01*
X732074Y295520D01*
X731593Y295631D01*
X731556D01*
X731445Y295668D01*
X731259Y295706D01*
X731037Y295779D01*
X730741Y295854D01*
X730408Y295965D01*
X729704Y296150D01*
X728889Y296409D01*
X728112Y296631D01*
X727371Y296891D01*
X727038Y297039D01*
X726778Y297150D01*
X726704Y297187D01*
X726556Y297261D01*
X726334Y297409D01*
X726038Y297594D01*
X725704Y297853D01*
X725371Y298150D01*
X725038Y298483D01*
X724742Y298890D01*
X724705Y298927D01*
X724631Y299076D01*
X724519Y299335D01*
X724408Y299631D01*
X724297Y300001D01*
X724186Y300446D01*
X724112Y300890D01*
X724075Y301409D01*
Y301483D01*
Y301631D01*
X724112Y301853D01*
X724149Y302186D01*
X724223Y302520D01*
X724297Y302927D01*
X724445Y303297D01*
X724631Y303705D01*
X724668Y303742D01*
X724742Y303890D01*
X724853Y304075D01*
X725038Y304334D01*
X725260Y304593D01*
X725519Y304927D01*
X725816Y305223D01*
X726186Y305482D01*
X726223Y305519D01*
X726334Y305556D01*
X726482Y305667D01*
X726704Y305779D01*
X727001Y305927D01*
X727334Y306075D01*
X727741Y306223D01*
X728186Y306371D01*
X728260Y306408D01*
X728408Y306445D01*
X728667Y306519D01*
X729000Y306593D01*
X729408Y306667D01*
X729852Y306704D01*
X730371Y306778D01*
X731259D01*
X731667Y306741D01*
D02*
G37*
G36*
X993751D02*
X993973D01*
X994269Y306704D01*
X994973Y306593D01*
X995751Y306408D01*
X996565Y306112D01*
X997380Y305742D01*
X998158Y305223D01*
X998195D01*
X998232Y305149D01*
X998454Y304927D01*
X998787Y304593D01*
X999195Y304112D01*
X999602Y303519D01*
X1000009Y302779D01*
X1000380Y301927D01*
X1000639Y300927D01*
X997565Y300446D01*
Y300483D01*
X997528Y300520D01*
X997491Y300742D01*
X997380Y301075D01*
X997195Y301483D01*
X997010Y301927D01*
X996713Y302409D01*
X996380Y302853D01*
X996010Y303223D01*
X995973Y303260D01*
X995825Y303371D01*
X995565Y303519D01*
X995269Y303705D01*
X994862Y303890D01*
X994417Y304038D01*
X993899Y304149D01*
X993343Y304186D01*
X993121D01*
X992936Y304149D01*
X992529Y304112D01*
X991973Y303964D01*
X991381Y303779D01*
X990714Y303482D01*
X990085Y303038D01*
X989788Y302779D01*
X989492Y302483D01*
Y302446D01*
X989418Y302409D01*
X989344Y302297D01*
X989270Y302149D01*
X989159Y301964D01*
X989010Y301742D01*
X988899Y301483D01*
X988751Y301186D01*
X988603Y300816D01*
X988492Y300409D01*
X988344Y299964D01*
X988233Y299483D01*
X988159Y298964D01*
X988085Y298372D01*
X988011Y297742D01*
Y297076D01*
Y297039D01*
Y296928D01*
Y296705D01*
X988048Y296483D01*
Y296150D01*
X988085Y295817D01*
X988196Y295002D01*
X988344Y294113D01*
X988603Y293187D01*
X988936Y292372D01*
X989159Y291965D01*
X989418Y291632D01*
X989492Y291558D01*
X989677Y291373D01*
X990010Y291113D01*
X990418Y290817D01*
X990973Y290484D01*
X991603Y290225D01*
X992344Y290039D01*
X992751Y290002D01*
X993158Y289965D01*
X993232D01*
X993455Y290002D01*
X993825Y290039D01*
X994232Y290114D01*
X994714Y290225D01*
X995232Y290447D01*
X995751Y290706D01*
X996232Y291076D01*
X996306Y291113D01*
X996417Y291299D01*
X996639Y291558D01*
X996899Y291965D01*
X997158Y292447D01*
X997454Y293039D01*
X997676Y293780D01*
X997824Y294594D01*
X1000935Y294187D01*
Y294150D01*
X1000898Y294039D01*
X1000861Y293891D01*
X1000824Y293669D01*
X1000750Y293372D01*
X1000676Y293076D01*
X1000417Y292335D01*
X1000083Y291558D01*
X999602Y290706D01*
X999009Y289891D01*
X998676Y289521D01*
X998306Y289151D01*
X998269Y289114D01*
X998195Y289076D01*
X998084Y289002D01*
X997935Y288891D01*
X997750Y288743D01*
X997491Y288595D01*
X997195Y288447D01*
X996899Y288262D01*
X996158Y287929D01*
X995269Y287669D01*
X994306Y287447D01*
X993751Y287410D01*
X993195Y287373D01*
X992825D01*
X992566Y287410D01*
X992232Y287447D01*
X991862Y287521D01*
X991455Y287595D01*
X991010Y287669D01*
X990010Y287966D01*
X989529Y288188D01*
X989010Y288410D01*
X988492Y288706D01*
X988011Y289039D01*
X987529Y289410D01*
X987085Y289854D01*
X987048Y289891D01*
X986974Y289965D01*
X986863Y290114D01*
X986714Y290299D01*
X986566Y290558D01*
X986344Y290891D01*
X986159Y291262D01*
X985937Y291669D01*
X985715Y292150D01*
X985529Y292706D01*
X985307Y293261D01*
X985159Y293928D01*
X985011Y294594D01*
X984900Y295372D01*
X984826Y296150D01*
X984789Y297002D01*
Y297039D01*
Y297150D01*
Y297298D01*
Y297520D01*
X984826Y297779D01*
Y298076D01*
X984863Y298409D01*
X984900Y298779D01*
X985011Y299594D01*
X985196Y300483D01*
X985418Y301372D01*
X985752Y302260D01*
Y302297D01*
X985789Y302372D01*
X985863Y302483D01*
X985937Y302631D01*
X986159Y303038D01*
X986492Y303519D01*
X986937Y304075D01*
X987455Y304631D01*
X988085Y305186D01*
X988788Y305630D01*
X988825D01*
X988899Y305667D01*
X989010Y305742D01*
X989159Y305816D01*
X989344Y305890D01*
X989566Y306001D01*
X990122Y306223D01*
X990751Y306408D01*
X991529Y306593D01*
X992344Y306741D01*
X993232Y306778D01*
X993529D01*
X993751Y306741D01*
D02*
G37*
G36*
X869282Y287780D02*
X866468D01*
Y290484D01*
X866431Y290447D01*
X866357Y290336D01*
X866245Y290187D01*
X866060Y290002D01*
X865838Y289780D01*
X865579Y289484D01*
X865283Y289225D01*
X864912Y288928D01*
X864505Y288632D01*
X864061Y288373D01*
X863579Y288114D01*
X863061Y287854D01*
X862468Y287669D01*
X861876Y287521D01*
X861209Y287410D01*
X860542Y287373D01*
X860283D01*
X859950Y287410D01*
X859542Y287447D01*
X859061Y287521D01*
X858543Y287632D01*
X858024Y287780D01*
X857469Y288003D01*
X857394Y288040D01*
X857246Y288114D01*
X856987Y288262D01*
X856691Y288447D01*
X856321Y288669D01*
X855987Y288928D01*
X855654Y289225D01*
X855358Y289558D01*
X855321Y289595D01*
X855247Y289743D01*
X855135Y289928D01*
X854987Y290225D01*
X854802Y290558D01*
X854654Y290965D01*
X854506Y291410D01*
X854395Y291891D01*
Y291928D01*
X854358Y292076D01*
X854321Y292298D01*
Y292595D01*
X854284Y293039D01*
X854247Y293521D01*
X854210Y294150D01*
Y294854D01*
Y306371D01*
X857357D01*
Y296039D01*
Y296002D01*
Y295928D01*
Y295817D01*
Y295631D01*
Y295224D01*
X857394Y294706D01*
Y294150D01*
X857432Y293595D01*
X857469Y293113D01*
X857543Y292706D01*
Y292669D01*
X857617Y292521D01*
X857691Y292298D01*
X857802Y292002D01*
X857987Y291706D01*
X858209Y291373D01*
X858468Y291076D01*
X858802Y290780D01*
X858839Y290743D01*
X858987Y290669D01*
X859172Y290558D01*
X859468Y290447D01*
X859802Y290299D01*
X860209Y290187D01*
X860653Y290114D01*
X861172Y290076D01*
X861431D01*
X861690Y290114D01*
X862024Y290151D01*
X862431Y290262D01*
X862875Y290373D01*
X863357Y290558D01*
X863838Y290780D01*
X863912Y290817D01*
X864061Y290928D01*
X864283Y291076D01*
X864542Y291299D01*
X864838Y291595D01*
X865135Y291928D01*
X865394Y292298D01*
X865616Y292743D01*
X865653Y292817D01*
X865690Y292965D01*
X865764Y293261D01*
X865875Y293669D01*
X865986Y294187D01*
X866060Y294817D01*
X866097Y295557D01*
X866134Y296409D01*
Y306371D01*
X869282D01*
Y287780D01*
D02*
G37*
G36*
X1006786Y298779D02*
X1014230Y306371D01*
X1018341D01*
X1011193Y299446D01*
X1019044Y287780D01*
X1015156D01*
X1008971Y297261D01*
X1006786Y295150D01*
Y287780D01*
X1003639D01*
Y313407D01*
X1006786D01*
Y298779D01*
D02*
G37*
G36*
X960902Y287780D02*
X957755D01*
Y313407D01*
X960902D01*
Y287780D01*
D02*
G37*
G36*
X897279D02*
X894131D01*
Y306371D01*
X897279D01*
Y287780D01*
D02*
G37*
G36*
X745888Y298779D02*
X753331Y306371D01*
X757442D01*
X750294Y299446D01*
X758146Y287780D01*
X754257D01*
X748073Y297261D01*
X745888Y295150D01*
Y287780D01*
X742740D01*
Y313407D01*
X745888D01*
Y298779D01*
D02*
G37*
G36*
X689967Y313370D02*
X690708Y313333D01*
X691449Y313259D01*
X692189Y313148D01*
X692819Y313037D01*
X692856D01*
X692930Y313000D01*
X693041D01*
X693189Y312926D01*
X693597Y312815D01*
X694115Y312630D01*
X694708Y312370D01*
X695337Y312037D01*
X695967Y311667D01*
X696559Y311185D01*
X696596Y311148D01*
X696633Y311111D01*
X696745Y311000D01*
X696893Y310889D01*
X697263Y310519D01*
X697707Y310000D01*
X698189Y309371D01*
X698707Y308630D01*
X699189Y307778D01*
X699596Y306815D01*
Y306778D01*
X699633Y306704D01*
X699707Y306556D01*
X699744Y306334D01*
X699855Y306075D01*
X699929Y305779D01*
X700003Y305445D01*
X700115Y305038D01*
X700226Y304631D01*
X700300Y304149D01*
X700485Y303112D01*
X700596Y301964D01*
X700633Y300705D01*
Y300668D01*
Y300594D01*
Y300409D01*
Y300224D01*
X700596Y299964D01*
Y299668D01*
X700559Y298964D01*
X700448Y298150D01*
X700337Y297298D01*
X700152Y296409D01*
X699929Y295520D01*
Y295483D01*
X699892Y295409D01*
X699855Y295298D01*
X699818Y295150D01*
X699670Y294743D01*
X699448Y294224D01*
X699226Y293632D01*
X698930Y293039D01*
X698559Y292409D01*
X698189Y291817D01*
X698152Y291743D01*
X698004Y291558D01*
X697781Y291299D01*
X697485Y290965D01*
X697152Y290595D01*
X696745Y290225D01*
X696337Y289817D01*
X695856Y289484D01*
X695782Y289447D01*
X695633Y289336D01*
X695374Y289188D01*
X695004Y289002D01*
X694559Y288780D01*
X694041Y288595D01*
X693448Y288373D01*
X692782Y288188D01*
X692708D01*
X692597Y288151D01*
X692486Y288114D01*
X692115Y288077D01*
X691597Y288003D01*
X691004Y287929D01*
X690301Y287854D01*
X689523Y287817D01*
X688671Y287780D01*
X679450D01*
Y313407D01*
X689301D01*
X689967Y313370D01*
D02*
G37*
G36*
X847988Y306371D02*
X851173D01*
Y303927D01*
X847988D01*
Y293002D01*
Y292928D01*
Y292780D01*
Y292558D01*
X848025Y292298D01*
X848062Y291706D01*
X848099Y291447D01*
X848136Y291262D01*
X848173Y291187D01*
X848284Y291039D01*
X848432Y290854D01*
X848692Y290669D01*
X848766Y290632D01*
X848951Y290558D01*
X849284Y290484D01*
X849766Y290447D01*
X850136D01*
X850321Y290484D01*
X850580D01*
X850877Y290521D01*
X851173Y290558D01*
X851580Y287780D01*
X851506D01*
X851358Y287743D01*
X851099Y287706D01*
X850766Y287669D01*
X850395Y287595D01*
X849988Y287558D01*
X849173Y287521D01*
X848877D01*
X848581Y287558D01*
X848210Y287595D01*
X847766Y287632D01*
X847321Y287743D01*
X846914Y287854D01*
X846507Y288040D01*
X846470Y288077D01*
X846359Y288151D01*
X846210Y288262D01*
X845988Y288447D01*
X845803Y288632D01*
X845581Y288891D01*
X845359Y289151D01*
X845211Y289484D01*
Y289521D01*
X845136Y289669D01*
X845099Y289928D01*
X845025Y290299D01*
X844951Y290780D01*
X844914Y291076D01*
Y291410D01*
X844877Y291817D01*
X844840Y292224D01*
Y292669D01*
Y293187D01*
Y303927D01*
X842507D01*
Y306371D01*
X844840D01*
Y310963D01*
X847988Y312852D01*
Y306371D01*
D02*
G37*
G36*
X764330D02*
X767515D01*
Y303927D01*
X764330D01*
Y293002D01*
Y292928D01*
Y292780D01*
Y292558D01*
X764367Y292298D01*
X764404Y291706D01*
X764441Y291447D01*
X764478Y291262D01*
X764515Y291187D01*
X764626Y291039D01*
X764774Y290854D01*
X765034Y290669D01*
X765108Y290632D01*
X765293Y290558D01*
X765626Y290484D01*
X766108Y290447D01*
X766478D01*
X766663Y290484D01*
X766922D01*
X767219Y290521D01*
X767515Y290558D01*
X767922Y287780D01*
X767848D01*
X767700Y287743D01*
X767441Y287706D01*
X767108Y287669D01*
X766737Y287595D01*
X766330Y287558D01*
X765515Y287521D01*
X765219D01*
X764923Y287558D01*
X764552Y287595D01*
X764108Y287632D01*
X763663Y287743D01*
X763256Y287854D01*
X762849Y288040D01*
X762812Y288077D01*
X762701Y288151D01*
X762552Y288262D01*
X762330Y288447D01*
X762145Y288632D01*
X761923Y288891D01*
X761701Y289151D01*
X761553Y289484D01*
Y289521D01*
X761479Y289669D01*
X761441Y289928D01*
X761367Y290299D01*
X761293Y290780D01*
X761256Y291076D01*
Y291410D01*
X761219Y291817D01*
X761182Y292224D01*
Y292669D01*
Y293187D01*
Y303927D01*
X758849D01*
Y306371D01*
X761182D01*
Y310963D01*
X764330Y312852D01*
Y306371D01*
D02*
G37*
G36*
X973938Y306741D02*
X974271Y306704D01*
X974642Y306630D01*
X975049Y306556D01*
X975530Y306482D01*
X976530Y306149D01*
X977049Y305964D01*
X977567Y305704D01*
X978086Y305445D01*
X978604Y305075D01*
X979086Y304704D01*
X979567Y304260D01*
X979604Y304223D01*
X979678Y304149D01*
X979789Y304001D01*
X979937Y303816D01*
X980123Y303556D01*
X980345Y303223D01*
X980567Y302853D01*
X980789Y302446D01*
X981011Y302001D01*
X981234Y301446D01*
X981456Y300890D01*
X981641Y300261D01*
X981789Y299594D01*
X981900Y298890D01*
X981974Y298150D01*
X982011Y297335D01*
Y297298D01*
Y297187D01*
Y297002D01*
Y296742D01*
X981974Y296446D01*
X981937Y296076D01*
Y295706D01*
X981863Y295298D01*
X981752Y294372D01*
X981530Y293447D01*
X981271Y292521D01*
X980900Y291669D01*
Y291632D01*
X980863Y291595D01*
X980789Y291484D01*
X980715Y291336D01*
X980456Y290965D01*
X980123Y290521D01*
X979678Y290002D01*
X979123Y289484D01*
X978493Y288965D01*
X977752Y288484D01*
X977715D01*
X977678Y288447D01*
X977567Y288373D01*
X977382Y288299D01*
X977197Y288225D01*
X976975Y288151D01*
X976419Y287929D01*
X975790Y287743D01*
X975012Y287558D01*
X974197Y287410D01*
X973308Y287373D01*
X972938D01*
X972642Y287410D01*
X972309Y287447D01*
X971938Y287521D01*
X971494Y287595D01*
X971049Y287669D01*
X970050Y287966D01*
X969494Y288188D01*
X968976Y288410D01*
X968457Y288706D01*
X967939Y289039D01*
X967457Y289410D01*
X966976Y289854D01*
X966939Y289891D01*
X966865Y289965D01*
X966754Y290114D01*
X966605Y290336D01*
X966420Y290595D01*
X966235Y290891D01*
X966013Y291262D01*
X965791Y291706D01*
X965568Y292187D01*
X965346Y292743D01*
X965161Y293335D01*
X964976Y293965D01*
X964828Y294669D01*
X964717Y295409D01*
X964643Y296224D01*
X964606Y297076D01*
Y297150D01*
Y297298D01*
X964643Y297557D01*
Y297927D01*
X964680Y298335D01*
X964754Y298853D01*
X964828Y299372D01*
X964976Y299964D01*
X965124Y300557D01*
X965309Y301186D01*
X965531Y301853D01*
X965828Y302483D01*
X966124Y303075D01*
X966531Y303668D01*
X966939Y304223D01*
X967457Y304704D01*
X967494Y304742D01*
X967568Y304779D01*
X967716Y304890D01*
X967902Y305038D01*
X968124Y305186D01*
X968420Y305371D01*
X968716Y305556D01*
X969087Y305742D01*
X969494Y305927D01*
X969938Y306112D01*
X970938Y306445D01*
X972086Y306704D01*
X972679Y306741D01*
X973308Y306778D01*
X973679D01*
X973938Y306741D01*
D02*
G37*
G36*
X910241D02*
X910574Y306704D01*
X910945Y306630D01*
X911352Y306556D01*
X911833Y306482D01*
X912833Y306149D01*
X913352Y305964D01*
X913870Y305704D01*
X914389Y305445D01*
X914907Y305075D01*
X915388Y304704D01*
X915870Y304260D01*
X915907Y304223D01*
X915981Y304149D01*
X916092Y304001D01*
X916240Y303816D01*
X916425Y303556D01*
X916648Y303223D01*
X916870Y302853D01*
X917092Y302446D01*
X917314Y302001D01*
X917536Y301446D01*
X917759Y300890D01*
X917944Y300261D01*
X918092Y299594D01*
X918203Y298890D01*
X918277Y298150D01*
X918314Y297335D01*
Y297298D01*
Y297187D01*
Y297002D01*
Y296742D01*
X918277Y296446D01*
X918240Y296076D01*
Y295706D01*
X918166Y295298D01*
X918055Y294372D01*
X917833Y293447D01*
X917573Y292521D01*
X917203Y291669D01*
Y291632D01*
X917166Y291595D01*
X917092Y291484D01*
X917018Y291336D01*
X916759Y290965D01*
X916425Y290521D01*
X915981Y290002D01*
X915426Y289484D01*
X914796Y288965D01*
X914055Y288484D01*
X914018D01*
X913981Y288447D01*
X913870Y288373D01*
X913685Y288299D01*
X913500Y288225D01*
X913278Y288151D01*
X912722Y287929D01*
X912093Y287743D01*
X911315Y287558D01*
X910500Y287410D01*
X909611Y287373D01*
X909241D01*
X908945Y287410D01*
X908611Y287447D01*
X908241Y287521D01*
X907797Y287595D01*
X907352Y287669D01*
X906352Y287966D01*
X905797Y288188D01*
X905278Y288410D01*
X904760Y288706D01*
X904241Y289039D01*
X903760Y289410D01*
X903279Y289854D01*
X903242Y289891D01*
X903168Y289965D01*
X903056Y290114D01*
X902908Y290336D01*
X902723Y290595D01*
X902538Y290891D01*
X902316Y291262D01*
X902094Y291706D01*
X901871Y292187D01*
X901649Y292743D01*
X901464Y293335D01*
X901279Y293965D01*
X901131Y294669D01*
X901020Y295409D01*
X900946Y296224D01*
X900909Y297076D01*
Y297150D01*
Y297298D01*
X900946Y297557D01*
Y297927D01*
X900983Y298335D01*
X901057Y298853D01*
X901131Y299372D01*
X901279Y299964D01*
X901427Y300557D01*
X901612Y301186D01*
X901834Y301853D01*
X902131Y302483D01*
X902427Y303075D01*
X902834Y303668D01*
X903242Y304223D01*
X903760Y304704D01*
X903797Y304742D01*
X903871Y304779D01*
X904019Y304890D01*
X904204Y305038D01*
X904427Y305186D01*
X904723Y305371D01*
X905019Y305556D01*
X905390Y305742D01*
X905797Y305927D01*
X906241Y306112D01*
X907241Y306445D01*
X908389Y306704D01*
X908982Y306741D01*
X909611Y306778D01*
X909982D01*
X910241Y306741D01*
D02*
G37*
G36*
X778773D02*
X779106Y306704D01*
X779477Y306630D01*
X779884Y306556D01*
X780366Y306482D01*
X781365Y306149D01*
X781884Y305964D01*
X782402Y305704D01*
X782921Y305445D01*
X783439Y305075D01*
X783921Y304704D01*
X784402Y304260D01*
X784439Y304223D01*
X784513Y304149D01*
X784624Y304001D01*
X784772Y303816D01*
X784958Y303556D01*
X785180Y303223D01*
X785402Y302853D01*
X785624Y302446D01*
X785846Y302001D01*
X786069Y301446D01*
X786291Y300890D01*
X786476Y300261D01*
X786624Y299594D01*
X786735Y298890D01*
X786809Y298150D01*
X786846Y297335D01*
Y297298D01*
Y297187D01*
Y297002D01*
Y296742D01*
X786809Y296446D01*
X786772Y296076D01*
Y295706D01*
X786698Y295298D01*
X786587Y294372D01*
X786365Y293447D01*
X786106Y292521D01*
X785735Y291669D01*
Y291632D01*
X785698Y291595D01*
X785624Y291484D01*
X785550Y291336D01*
X785291Y290965D01*
X784958Y290521D01*
X784513Y290002D01*
X783958Y289484D01*
X783328Y288965D01*
X782588Y288484D01*
X782550D01*
X782513Y288447D01*
X782402Y288373D01*
X782217Y288299D01*
X782032Y288225D01*
X781810Y288151D01*
X781254Y287929D01*
X780625Y287743D01*
X779847Y287558D01*
X779032Y287410D01*
X778143Y287373D01*
X777773D01*
X777477Y287410D01*
X777144Y287447D01*
X776773Y287521D01*
X776329Y287595D01*
X775884Y287669D01*
X774885Y287966D01*
X774329Y288188D01*
X773811Y288410D01*
X773292Y288706D01*
X772774Y289039D01*
X772292Y289410D01*
X771811Y289854D01*
X771774Y289891D01*
X771700Y289965D01*
X771589Y290114D01*
X771441Y290336D01*
X771255Y290595D01*
X771070Y290891D01*
X770848Y291262D01*
X770626Y291706D01*
X770404Y292187D01*
X770181Y292743D01*
X769996Y293335D01*
X769811Y293965D01*
X769663Y294669D01*
X769552Y295409D01*
X769478Y296224D01*
X769441Y297076D01*
Y297150D01*
Y297298D01*
X769478Y297557D01*
Y297927D01*
X769515Y298335D01*
X769589Y298853D01*
X769663Y299372D01*
X769811Y299964D01*
X769959Y300557D01*
X770144Y301186D01*
X770367Y301853D01*
X770663Y302483D01*
X770959Y303075D01*
X771366Y303668D01*
X771774Y304223D01*
X772292Y304704D01*
X772329Y304742D01*
X772403Y304779D01*
X772551Y304890D01*
X772737Y305038D01*
X772959Y305186D01*
X773255Y305371D01*
X773551Y305556D01*
X773922Y305742D01*
X774329Y305927D01*
X774773Y306112D01*
X775773Y306445D01*
X776921Y306704D01*
X777514Y306741D01*
X778143Y306778D01*
X778514D01*
X778773Y306741D01*
D02*
G37*
G36*
X713113D02*
X713409Y306704D01*
X713780Y306630D01*
X714187Y306556D01*
X714669Y306445D01*
X715113Y306334D01*
X715631Y306149D01*
X716113Y305964D01*
X716631Y305704D01*
X717150Y305408D01*
X717668Y305075D01*
X718150Y304667D01*
X718594Y304223D01*
X718631Y304186D01*
X718705Y304112D01*
X718816Y303964D01*
X718964Y303742D01*
X719150Y303482D01*
X719335Y303186D01*
X719557Y302816D01*
X719779Y302372D01*
X720001Y301890D01*
X720224Y301372D01*
X720409Y300779D01*
X720594Y300149D01*
X720742Y299446D01*
X720853Y298705D01*
X720927Y297927D01*
X720964Y297076D01*
Y297039D01*
Y296891D01*
Y296631D01*
X720927Y296261D01*
X707040D01*
Y296224D01*
Y296113D01*
X707077Y295965D01*
Y295742D01*
X707114Y295483D01*
X707188Y295187D01*
X707299Y294520D01*
X707521Y293780D01*
X707817Y292965D01*
X708225Y292224D01*
X708743Y291558D01*
X708780D01*
X708817Y291484D01*
X709040Y291299D01*
X709373Y291039D01*
X709817Y290780D01*
X710410Y290484D01*
X711076Y290225D01*
X711817Y290039D01*
X712224Y290002D01*
X712669Y289965D01*
X712965D01*
X713298Y290002D01*
X713706Y290076D01*
X714150Y290187D01*
X714669Y290336D01*
X715150Y290558D01*
X715631Y290854D01*
X715668Y290891D01*
X715854Y291039D01*
X716076Y291262D01*
X716335Y291558D01*
X716631Y291965D01*
X716965Y292484D01*
X717298Y293076D01*
X717594Y293780D01*
X720853Y293372D01*
Y293335D01*
X720816Y293261D01*
X720779Y293113D01*
X720705Y292891D01*
X720594Y292669D01*
X720483Y292372D01*
X720186Y291743D01*
X719816Y291039D01*
X719298Y290299D01*
X718705Y289595D01*
X717964Y288928D01*
X717927D01*
X717853Y288854D01*
X717742Y288780D01*
X717594Y288669D01*
X717372Y288558D01*
X717150Y288447D01*
X716853Y288299D01*
X716520Y288151D01*
X716150Y288003D01*
X715780Y287854D01*
X714854Y287632D01*
X713817Y287447D01*
X712669Y287373D01*
X712261D01*
X712002Y287410D01*
X711669Y287447D01*
X711262Y287521D01*
X710817Y287595D01*
X710336Y287669D01*
X709299Y287966D01*
X708743Y288188D01*
X708225Y288410D01*
X707669Y288706D01*
X707151Y289039D01*
X706669Y289410D01*
X706188Y289854D01*
X706151Y289891D01*
X706077Y289965D01*
X705966Y290114D01*
X705818Y290336D01*
X705632Y290595D01*
X705447Y290891D01*
X705225Y291262D01*
X705003Y291669D01*
X704781Y292150D01*
X704558Y292669D01*
X704373Y293261D01*
X704188Y293891D01*
X704040Y294557D01*
X703929Y295298D01*
X703855Y296076D01*
X703818Y296891D01*
Y296928D01*
Y297113D01*
Y297335D01*
X703855Y297668D01*
X703892Y298076D01*
X703929Y298520D01*
X704003Y299039D01*
X704114Y299557D01*
X704410Y300742D01*
X704595Y301334D01*
X704818Y301964D01*
X705114Y302557D01*
X705447Y303112D01*
X705818Y303668D01*
X706225Y304186D01*
X706262Y304223D01*
X706336Y304297D01*
X706484Y304408D01*
X706669Y304593D01*
X706892Y304779D01*
X707188Y305001D01*
X707521Y305260D01*
X707928Y305482D01*
X708336Y305742D01*
X708817Y305964D01*
X709336Y306186D01*
X709891Y306371D01*
X710484Y306556D01*
X711113Y306667D01*
X711780Y306741D01*
X712484Y306778D01*
X712854D01*
X713113Y306741D01*
D02*
G37*
%LPC*%
G36*
X881170Y304186D02*
X880985D01*
X880836Y304149D01*
X880429Y304112D01*
X879948Y303964D01*
X879392Y303779D01*
X878800Y303445D01*
X878207Y303038D01*
X877911Y302742D01*
X877652Y302446D01*
Y302409D01*
X877578Y302372D01*
X877541Y302260D01*
X877430Y302112D01*
X877318Y301927D01*
X877207Y301705D01*
X877096Y301446D01*
X876948Y301149D01*
X876800Y300779D01*
X876689Y300372D01*
X876578Y299927D01*
X876467Y299446D01*
X876393Y298927D01*
X876319Y298335D01*
X876244Y297705D01*
Y297039D01*
Y297002D01*
Y296891D01*
Y296705D01*
X876282Y296446D01*
Y296150D01*
X876319Y295817D01*
X876430Y295039D01*
X876615Y294187D01*
X876874Y293298D01*
X877244Y292447D01*
X877467Y292076D01*
X877726Y291706D01*
X877763D01*
X877800Y291632D01*
X877985Y291447D01*
X878318Y291150D01*
X878726Y290854D01*
X879244Y290521D01*
X879874Y290225D01*
X880540Y290039D01*
X880911Y290002D01*
X881281Y289965D01*
X881466D01*
X881614Y290002D01*
X882022Y290039D01*
X882503Y290187D01*
X883058Y290373D01*
X883651Y290669D01*
X884244Y291076D01*
X884540Y291336D01*
X884799Y291632D01*
Y291669D01*
X884873Y291706D01*
X884947Y291817D01*
X885021Y291965D01*
X885132Y292150D01*
X885281Y292335D01*
X885392Y292632D01*
X885540Y292928D01*
X885688Y293261D01*
X885799Y293632D01*
X885947Y294076D01*
X886058Y294520D01*
X886132Y295039D01*
X886206Y295557D01*
X886280Y296150D01*
Y296779D01*
Y296817D01*
Y296965D01*
Y297150D01*
X886243Y297409D01*
Y297705D01*
X886206Y298076D01*
X886169Y298483D01*
X886095Y298927D01*
X885910Y299816D01*
X885651Y300742D01*
X885281Y301631D01*
X885058Y302001D01*
X884799Y302372D01*
Y302409D01*
X884725Y302446D01*
X884540Y302668D01*
X884207Y302964D01*
X883799Y303297D01*
X883281Y303631D01*
X882651Y303890D01*
X881947Y304112D01*
X881577Y304149D01*
X881170Y304186D01*
D02*
G37*
G36*
X798475Y304297D02*
X798289D01*
X798141Y304260D01*
X797771Y304186D01*
X797290Y304075D01*
X796734Y303853D01*
X796142Y303519D01*
X795808Y303297D01*
X795512Y303038D01*
X795216Y302742D01*
X794920Y302409D01*
Y302372D01*
X794846Y302334D01*
X794771Y302223D01*
X794697Y302075D01*
X794586Y301853D01*
X794438Y301631D01*
X794290Y301334D01*
X794179Y301038D01*
X794031Y300668D01*
X793883Y300261D01*
X793772Y299816D01*
X793623Y299335D01*
X793549Y298779D01*
X793475Y298224D01*
X793401Y297631D01*
Y296965D01*
Y296928D01*
Y296817D01*
Y296631D01*
X793438Y296372D01*
Y296076D01*
X793475Y295742D01*
X793586Y294965D01*
X793772Y294076D01*
X793994Y293224D01*
X794364Y292372D01*
X794586Y292002D01*
X794846Y291669D01*
X794920Y291595D01*
X795105Y291410D01*
X795401Y291113D01*
X795808Y290817D01*
X796327Y290521D01*
X796919Y290225D01*
X797586Y290039D01*
X797956Y290002D01*
X798327Y289965D01*
X798549D01*
X798697Y290002D01*
X799067Y290076D01*
X799586Y290187D01*
X800141Y290410D01*
X800734Y290706D01*
X801326Y291150D01*
X801622Y291410D01*
X801919Y291706D01*
Y291743D01*
X801993Y291780D01*
X802067Y291891D01*
X802141Y292039D01*
X802289Y292224D01*
X802400Y292484D01*
X802548Y292743D01*
X802697Y293076D01*
X802808Y293409D01*
X802956Y293854D01*
X803104Y294298D01*
X803215Y294780D01*
X803289Y295335D01*
X803363Y295928D01*
X803437Y296557D01*
Y297224D01*
Y297261D01*
Y297372D01*
Y297557D01*
X803400Y297816D01*
Y298113D01*
X803363Y298446D01*
X803252Y299224D01*
X803067Y300075D01*
X802808Y300927D01*
X802437Y301779D01*
X802215Y302186D01*
X801956Y302520D01*
Y302557D01*
X801882Y302594D01*
X801697Y302816D01*
X801400Y303075D01*
X800993Y303408D01*
X800474Y303742D01*
X799882Y304038D01*
X799215Y304223D01*
X798845Y304260D01*
X798475Y304297D01*
D02*
G37*
G36*
X688782Y310371D02*
X682857D01*
Y290817D01*
X688931D01*
X689190Y290854D01*
X689745Y290891D01*
X690375Y290928D01*
X691041Y291002D01*
X691708Y291113D01*
X692263Y291262D01*
X692338Y291299D01*
X692523Y291336D01*
X692782Y291447D01*
X693115Y291595D01*
X693486Y291817D01*
X693856Y292039D01*
X694226Y292298D01*
X694597Y292595D01*
X694634Y292669D01*
X694782Y292817D01*
X695004Y293076D01*
X695263Y293447D01*
X695559Y293928D01*
X695893Y294483D01*
X696189Y295113D01*
X696448Y295817D01*
Y295854D01*
X696485Y295928D01*
X696522Y296039D01*
X696559Y296187D01*
X696596Y296372D01*
X696670Y296631D01*
X696745Y296891D01*
X696819Y297187D01*
X696930Y297927D01*
X697041Y298779D01*
X697115Y299742D01*
X697152Y300779D01*
Y300816D01*
Y300964D01*
Y301149D01*
X697115Y301446D01*
Y301779D01*
X697078Y302149D01*
X697041Y302594D01*
X697004Y303038D01*
X696819Y304038D01*
X696596Y305075D01*
X696263Y306038D01*
X696041Y306519D01*
X695819Y306926D01*
Y306964D01*
X695745Y307038D01*
X695670Y307149D01*
X695596Y307297D01*
X695300Y307667D01*
X694930Y308112D01*
X694448Y308593D01*
X693893Y309074D01*
X693263Y309482D01*
X692597Y309815D01*
X692523Y309852D01*
X692338Y309889D01*
X692004Y310000D01*
X691523Y310111D01*
X690930Y310186D01*
X690190Y310297D01*
X689745Y310334D01*
X689264D01*
X688782Y310371D01*
D02*
G37*
G36*
X973308Y304186D02*
X973086D01*
X972901Y304149D01*
X972494Y304112D01*
X971938Y303964D01*
X971309Y303742D01*
X970642Y303445D01*
X970013Y303001D01*
X969679Y302705D01*
X969383Y302409D01*
Y302372D01*
X969309Y302334D01*
X969235Y302223D01*
X969124Y302075D01*
X969013Y301890D01*
X968902Y301668D01*
X968753Y301372D01*
X968605Y301075D01*
X968457Y300705D01*
X968309Y300335D01*
X968198Y299890D01*
X968087Y299409D01*
X967976Y298890D01*
X967902Y298335D01*
X967865Y297705D01*
X967828Y297076D01*
Y297039D01*
Y296928D01*
Y296742D01*
X967865Y296483D01*
Y296187D01*
X967902Y295854D01*
X968013Y295076D01*
X968198Y294187D01*
X968494Y293298D01*
X968865Y292447D01*
X969124Y292076D01*
X969383Y291706D01*
X969420D01*
X969457Y291632D01*
X969679Y291447D01*
X970013Y291150D01*
X970457Y290854D01*
X971012Y290521D01*
X971679Y290225D01*
X972457Y290039D01*
X972864Y290002D01*
X973308Y289965D01*
X973531D01*
X973716Y290002D01*
X974123Y290076D01*
X974679Y290187D01*
X975271Y290410D01*
X975938Y290706D01*
X976567Y291150D01*
X976901Y291447D01*
X977197Y291743D01*
X977234Y291780D01*
X977271Y291817D01*
X977345Y291928D01*
X977456Y292076D01*
X977567Y292261D01*
X977715Y292484D01*
X977863Y292780D01*
X978012Y293076D01*
X978160Y293447D01*
X978271Y293854D01*
X978419Y294298D01*
X978530Y294780D01*
X978641Y295335D01*
X978715Y295891D01*
X978789Y296520D01*
Y297187D01*
Y297224D01*
Y297335D01*
Y297520D01*
X978752Y297742D01*
Y298039D01*
X978715Y298372D01*
X978604Y299150D01*
X978419Y299964D01*
X978123Y300853D01*
X977715Y301668D01*
X977493Y302075D01*
X977197Y302409D01*
Y302446D01*
X977123Y302483D01*
X976901Y302705D01*
X976567Y302964D01*
X976123Y303297D01*
X975567Y303631D01*
X974901Y303927D01*
X974160Y304112D01*
X973753Y304149D01*
X973308Y304186D01*
D02*
G37*
G36*
X909611D02*
X909389D01*
X909204Y304149D01*
X908797Y304112D01*
X908241Y303964D01*
X907611Y303742D01*
X906945Y303445D01*
X906315Y303001D01*
X905982Y302705D01*
X905686Y302409D01*
Y302372D01*
X905612Y302334D01*
X905538Y302223D01*
X905427Y302075D01*
X905315Y301890D01*
X905204Y301668D01*
X905056Y301372D01*
X904908Y301075D01*
X904760Y300705D01*
X904612Y300335D01*
X904501Y299890D01*
X904390Y299409D01*
X904279Y298890D01*
X904204Y298335D01*
X904167Y297705D01*
X904130Y297076D01*
Y297039D01*
Y296928D01*
Y296742D01*
X904167Y296483D01*
Y296187D01*
X904204Y295854D01*
X904316Y295076D01*
X904501Y294187D01*
X904797Y293298D01*
X905167Y292447D01*
X905427Y292076D01*
X905686Y291706D01*
X905723D01*
X905760Y291632D01*
X905982Y291447D01*
X906315Y291150D01*
X906760Y290854D01*
X907315Y290521D01*
X907982Y290225D01*
X908760Y290039D01*
X909167Y290002D01*
X909611Y289965D01*
X909834D01*
X910019Y290002D01*
X910426Y290076D01*
X910982Y290187D01*
X911574Y290410D01*
X912241Y290706D01*
X912870Y291150D01*
X913204Y291447D01*
X913500Y291743D01*
X913537Y291780D01*
X913574Y291817D01*
X913648Y291928D01*
X913759Y292076D01*
X913870Y292261D01*
X914018Y292484D01*
X914166Y292780D01*
X914315Y293076D01*
X914463Y293447D01*
X914574Y293854D01*
X914722Y294298D01*
X914833Y294780D01*
X914944Y295335D01*
X915018Y295891D01*
X915092Y296520D01*
Y297187D01*
Y297224D01*
Y297335D01*
Y297520D01*
X915055Y297742D01*
Y298039D01*
X915018Y298372D01*
X914907Y299150D01*
X914722Y299964D01*
X914426Y300853D01*
X914018Y301668D01*
X913796Y302075D01*
X913500Y302409D01*
Y302446D01*
X913426Y302483D01*
X913204Y302705D01*
X912870Y302964D01*
X912426Y303297D01*
X911870Y303631D01*
X911204Y303927D01*
X910463Y304112D01*
X910056Y304149D01*
X909611Y304186D01*
D02*
G37*
G36*
X778143D02*
X777921D01*
X777736Y304149D01*
X777329Y304112D01*
X776773Y303964D01*
X776144Y303742D01*
X775477Y303445D01*
X774847Y303001D01*
X774514Y302705D01*
X774218Y302409D01*
Y302372D01*
X774144Y302334D01*
X774070Y302223D01*
X773959Y302075D01*
X773848Y301890D01*
X773736Y301668D01*
X773588Y301372D01*
X773440Y301075D01*
X773292Y300705D01*
X773144Y300335D01*
X773033Y299890D01*
X772922Y299409D01*
X772811Y298890D01*
X772737Y298335D01*
X772700Y297705D01*
X772663Y297076D01*
Y297039D01*
Y296928D01*
Y296742D01*
X772700Y296483D01*
Y296187D01*
X772737Y295854D01*
X772848Y295076D01*
X773033Y294187D01*
X773329Y293298D01*
X773699Y292447D01*
X773959Y292076D01*
X774218Y291706D01*
X774255D01*
X774292Y291632D01*
X774514Y291447D01*
X774847Y291150D01*
X775292Y290854D01*
X775847Y290521D01*
X776514Y290225D01*
X777292Y290039D01*
X777699Y290002D01*
X778143Y289965D01*
X778366D01*
X778551Y290002D01*
X778958Y290076D01*
X779514Y290187D01*
X780106Y290410D01*
X780773Y290706D01*
X781402Y291150D01*
X781736Y291447D01*
X782032Y291743D01*
X782069Y291780D01*
X782106Y291817D01*
X782180Y291928D01*
X782291Y292076D01*
X782402Y292261D01*
X782550Y292484D01*
X782699Y292780D01*
X782847Y293076D01*
X782995Y293447D01*
X783106Y293854D01*
X783254Y294298D01*
X783365Y294780D01*
X783476Y295335D01*
X783550Y295891D01*
X783624Y296520D01*
Y297187D01*
Y297224D01*
Y297335D01*
Y297520D01*
X783587Y297742D01*
Y298039D01*
X783550Y298372D01*
X783439Y299150D01*
X783254Y299964D01*
X782958Y300853D01*
X782550Y301668D01*
X782328Y302075D01*
X782032Y302409D01*
Y302446D01*
X781958Y302483D01*
X781736Y302705D01*
X781402Y302964D01*
X780958Y303297D01*
X780403Y303631D01*
X779736Y303927D01*
X778995Y304112D01*
X778588Y304149D01*
X778143Y304186D01*
D02*
G37*
G36*
X712521D02*
X712298D01*
X712150Y304149D01*
X711743Y304112D01*
X711262Y304001D01*
X710669Y303816D01*
X710039Y303556D01*
X709447Y303186D01*
X708854Y302705D01*
X708780Y302631D01*
X708632Y302446D01*
X708373Y302112D01*
X708114Y301668D01*
X707817Y301149D01*
X707558Y300483D01*
X707336Y299705D01*
X707225Y298853D01*
X717631D01*
Y298890D01*
Y298964D01*
X717594Y299076D01*
Y299224D01*
X717520Y299668D01*
X717409Y300149D01*
X717224Y300742D01*
X717039Y301297D01*
X716742Y301853D01*
X716409Y302334D01*
Y302372D01*
X716335Y302409D01*
X716150Y302631D01*
X715817Y302927D01*
X715372Y303260D01*
X714817Y303594D01*
X714150Y303890D01*
X713372Y304112D01*
X712965Y304149D01*
X712521Y304186D01*
D02*
G37*
%LPD*%
D154*
X-538480Y491490D02*
X1301750D01*
X-538480D02*
X-538480Y-651510D01*
X1301750Y-651510D01*
X1301750Y491490D02*
X1301750Y-651510D01*
%TF.MD5,62e160279c90d6f65f52a12962963e86*%
M02*
