%TF.GenerationSoftware,Altium Limited,Altium Designer,20.1.8 (145)*%
G04 Layer_Physical_Order=3*
G04 Layer_Color=16440176*
%FSLAX44Y44*%
%MOMM*%
%TF.SameCoordinates,3BEBD2D3-E5B3-4009-AA71-14EFD01F195C*%
%TF.FilePolarity,Positive*%
%TF.FileFunction,Copper,L3,Inr,Signal*%
%TF.Part,Single*%
G01*
G75*
%TA.AperFunction,Conductor*%
%ADD10C,0.1270*%
%ADD45C,0.3048*%
%ADD46C,0.2540*%
%TA.AperFunction,ComponentPad*%
%ADD47C,0.5600*%
G04:AMPARAMS|DCode=48|XSize=1.5mm|YSize=1.5mm|CornerRadius=0.1875mm|HoleSize=0mm|Usage=FLASHONLY|Rotation=0.000|XOffset=0mm|YOffset=0mm|HoleType=Round|Shape=RoundedRectangle|*
%AMROUNDEDRECTD48*
21,1,1.5000,1.1250,0,0,0.0*
21,1,1.1250,1.5000,0,0,0.0*
1,1,0.3750,0.5625,-0.5625*
1,1,0.3750,-0.5625,-0.5625*
1,1,0.3750,-0.5625,0.5625*
1,1,0.3750,0.5625,0.5625*
%
%ADD48ROUNDEDRECTD48*%
%ADD49C,1.5000*%
%ADD50O,1.9000X1.1000*%
%ADD51O,2.2000X1.1000*%
%ADD52C,0.7000*%
G04:AMPARAMS|DCode=53|XSize=1.5mm|YSize=1.5mm|CornerRadius=0.15mm|HoleSize=0mm|Usage=FLASHONLY|Rotation=180.000|XOffset=0mm|YOffset=0mm|HoleType=Round|Shape=RoundedRectangle|*
%AMROUNDEDRECTD53*
21,1,1.5000,1.2000,0,0,180.0*
21,1,1.2000,1.5000,0,0,180.0*
1,1,0.3000,-0.6000,0.6000*
1,1,0.3000,0.6000,0.6000*
1,1,0.3000,0.6000,-0.6000*
1,1,0.3000,-0.6000,-0.6000*
%
%ADD53ROUNDEDRECTD53*%
%TA.AperFunction,ViaPad*%
%ADD54C,0.4600*%
%ADD55C,0.7600*%
%ADD56C,1.8000*%
%ADD57C,4.0000*%
%ADD58C,1.2600*%
%TA.AperFunction,Conductor*%
%ADD59C,0.1524*%
%ADD60C,0.2032*%
%ADD61C,0.3000*%
D10*
X-238701Y-170178D02*
G03*
X-89407Y-279186I238701J170178D01*
G01*
X35586Y-8516D02*
X48250Y-21180D01*
X-89407Y-310641D02*
Y-279186D01*
X-89408Y-310642D02*
X-89407Y-310641D01*
X84774Y-361730D02*
X95584D01*
X242984Y-237961D02*
X247862Y-242838D01*
Y-245007D02*
Y-242838D01*
Y-245007D02*
X248499Y-245644D01*
X267462Y-315462D02*
Y-261620D01*
X263646Y-319278D02*
X267462Y-315462D01*
X209804Y-319278D02*
X263646D01*
X-203962Y-415592D02*
Y-368231D01*
X-203218Y-416336D02*
X-160560D01*
X-203962Y-415592D02*
X-203218Y-416336D01*
X-160560Y-428150D02*
Y-416336D01*
X4981D01*
X186690Y-342392D02*
X209804Y-319278D01*
X75692Y-342392D02*
X186690D01*
X4981Y-416336D02*
X76639Y-344678D01*
X4034Y-414050D02*
X75692Y-342392D01*
X-160560Y-413306D02*
Y-402750D01*
Y-413306D02*
X-159817Y-414050D01*
X4034D01*
X76639Y-344678D02*
X187637D01*
X210751Y-321564D02*
X267208D01*
X187637Y-344678D02*
X210751Y-321564D01*
X-188105Y-374731D02*
X-188104Y-374730D01*
X-169428D02*
X-169427Y-374731D01*
X-188104Y-374730D02*
X-169428D01*
X-223219Y-331750D02*
X-212663D01*
X-265544Y-329734D02*
X-265212D01*
X-256464Y-338483D01*
X-256131D01*
X-151294Y-99893D02*
X-143025D01*
X-178928Y66894D02*
X-173691Y61658D01*
X-199061Y66894D02*
X-178928D01*
X-173691Y6400D02*
Y61658D01*
X-178517Y41373D02*
Y47286D01*
X-181636Y50405D02*
X-178517Y47286D01*
X-177826Y32171D02*
Y32624D01*
X-175977Y-24182D02*
Y30322D01*
X-186787Y33103D02*
X-178517Y41373D01*
X-186787Y20162D02*
Y33103D01*
X-52249Y205091D02*
X-45139D01*
X-186787Y20162D02*
X-182446Y15820D01*
X-180112Y26841D02*
Y27293D01*
X-177826Y32171D02*
X-175977Y30322D01*
X-180112Y26841D02*
X-178263Y24992D01*
Y-25129D02*
Y24992D01*
X-182446Y15820D02*
X-182398D01*
X-104490Y-9745D02*
X-93144Y1601D01*
X-119284Y-9745D02*
X-104490D01*
X-134388Y-10101D02*
X-128920Y-4633D01*
Y-2455D01*
X8217Y123368D02*
X8505Y123080D01*
X523Y123368D02*
X8217D01*
X235Y123656D02*
X523Y123368D01*
X-273168Y-137456D02*
Y-131512D01*
X-288550Y-145407D02*
X-285563D01*
X-290836Y-140076D02*
X-289935D01*
X-296344Y-134746D02*
X-293122D01*
X-273168Y-137456D02*
X-270882Y-139742D01*
X-297180Y-135582D02*
X-296344Y-134746D01*
X-297180Y-169436D02*
Y-135582D01*
Y-169436D02*
X-296436Y-170180D01*
X-238704D01*
X-286137Y-150681D02*
X-277363D01*
X-270882Y-157162D01*
X-285563Y-145407D02*
X-283142Y-147828D01*
X-274443D02*
X-270909Y-151362D01*
X-283142Y-147828D02*
X-274443D01*
X-270909Y-151362D02*
X-270834D01*
X-289935Y-140076D02*
X-288739Y-141272D01*
X-282195Y-145542D02*
X-270882D01*
X-286465Y-141272D02*
X-282195Y-145542D01*
X-288739Y-141272D02*
X-286465D01*
X-278092Y-281303D02*
X-269261D01*
X-256749Y-268791D01*
X-207719Y-36717D02*
X-204623Y-39813D01*
X-207719Y-36717D02*
Y-30870D01*
X-204623Y-39813D02*
X-201198D01*
X-198275Y-36891D01*
Y-35724D01*
X-35029Y-16401D02*
X-30250Y-21180D01*
X-84037Y-12115D02*
X-81393Y-14759D01*
X-72590D01*
X-70948Y-16401D01*
X-35029D01*
X-65267Y-2685D02*
X-38365D01*
X-75711Y-1043D02*
X-66909D01*
X-65267Y-2685D01*
X-66214Y-4971D02*
X-25651D01*
X-67856Y-3329D02*
X-66214Y-4971D01*
X-76658Y-3329D02*
X-67856D01*
X-68108Y-9543D02*
X-20421D01*
X-69750Y-7901D02*
X-68108Y-9543D01*
X-78552Y-7901D02*
X-69750D01*
X-69054Y-11829D02*
X-21368D01*
X-70697Y-10187D02*
X-69054Y-11829D01*
X-79499Y-10187D02*
X-70697D01*
X-88409Y-9829D02*
X-83090D01*
X-80446Y-12473D01*
X-71644D01*
X-70001Y-14115D02*
X-22315D01*
X-71644Y-12473D02*
X-70001Y-14115D01*
X-22315D02*
X-15250Y-21180D01*
X-82143Y-7543D02*
X-79499Y-10187D01*
X-21368Y-11829D02*
X-18438Y-14759D01*
X-77409Y3887D02*
X-75701Y2180D01*
X-63500D01*
X-78356Y1601D02*
X-75711Y-1043D01*
X-93144Y1601D02*
X-78356D01*
X-92197Y-685D02*
X-79303D01*
X-76658Y-3329D01*
X-20421Y-9543D02*
X-17491Y-12473D01*
X-2224D01*
X1521Y-16218D01*
X-81196Y-5257D02*
X-78552Y-7901D01*
X-90303Y-5257D02*
X-81196D01*
X-18438Y-14759D02*
X-3171D01*
X3250Y-21180D01*
Y-21180D02*
Y-21180D01*
X-89356Y-7543D02*
X-82143D01*
X-93171Y-14590D02*
X-88409Y-9829D01*
X-84188Y-21579D02*
X-79654Y-17045D01*
X-73537D01*
X-71895Y-18687D01*
X-62743D01*
X-94091Y3887D02*
X-77409D01*
X-87462Y-12115D02*
X-84037D01*
X-120882Y1743D02*
X-96235D01*
X-94091Y3887D01*
X-102315Y-10803D02*
X-92197Y-685D01*
X-97743Y-12696D02*
X-90303Y-5257D01*
X-95457Y-13643D02*
X-89356Y-7543D01*
X-90885Y-15537D02*
X-87462Y-12115D01*
X-125080Y-2455D02*
X-120882Y1743D01*
X-102315Y-11653D02*
Y-10803D01*
X-104164Y-13955D02*
Y-13502D01*
X-102315Y-11653D01*
X13288Y-16218D02*
X18250Y-21180D01*
X1521Y-16218D02*
X13288D01*
X-97743Y-17846D02*
Y-12696D01*
X-95457Y-18793D02*
Y-13643D01*
X-93171Y-19740D02*
Y-14590D01*
X-90885Y-20687D02*
Y-15537D01*
X-97991Y-27793D02*
X-90885Y-20687D01*
X-104205Y-34980D02*
X-99304Y-30079D01*
X-97044D01*
X-88544Y-21579D02*
X-84188D01*
X-97044Y-30079D02*
X-88544Y-21579D01*
X-197532Y-34980D02*
X-110760D01*
X-103573Y-27793D01*
X-97991D01*
X-104520Y-25507D02*
X-98938D01*
X-93171Y-19740D01*
X-99826Y-23162D02*
X-95457Y-18793D01*
X-105407Y-23162D02*
X-99826D01*
X-100773Y-20876D02*
X-97743Y-17846D01*
X-106354Y-20876D02*
X-100773D01*
X-178263Y-25129D02*
X-172984Y-30408D01*
X-112654D01*
X-175977Y-24182D02*
X-172037Y-28122D01*
X-113601D01*
X-128713Y137391D02*
X-126996D01*
X-113909Y150478D01*
X-131135Y134969D02*
X-128713Y137391D01*
X-132379Y131628D02*
X-131135Y132872D01*
Y134969D01*
X-105639Y148990D02*
Y153854D01*
Y148990D02*
X-102027Y145379D01*
X-113909Y150478D02*
Y153854D01*
X-111096Y156668D01*
X-108452D01*
X-105639Y153854D01*
X-87146Y-23865D02*
X-77935D01*
X-75250Y-21180D01*
X-60250D02*
X-60250D01*
X-62743Y-18687D02*
X-60250Y-21180D01*
X-90671Y-178203D02*
Y-41879D01*
X-96003Y-41135D02*
X-91415D01*
X-90671Y-41879D01*
X-98425Y-38713D02*
X-96003Y-41135D01*
X-98425Y-38713D02*
Y-35145D01*
X-87146Y-23865D01*
X-88588Y-180286D02*
X-80329D01*
X-77980Y-182635D01*
X-90671Y-178203D02*
X-88588Y-180286D01*
X-66393Y135657D02*
Y190948D01*
X-52249Y205091D01*
X-107388Y147507D02*
X-102974Y143093D01*
X-117486Y133453D02*
Y138639D01*
X-108618Y147507D02*
X-107388D01*
X-117486Y138639D02*
X-108618Y147507D01*
X-81262Y143093D02*
X-78269Y140100D01*
X-102974Y143093D02*
X-81262D01*
X-102027Y145379D02*
X-76993D01*
X-78500Y139868D02*
X-78269Y140100D01*
X-78500Y117820D02*
Y139868D01*
X-76993Y145379D02*
X-73634Y142020D01*
X190095Y-72442D02*
X196446D01*
X-168600Y118691D02*
X-142744D01*
X-173691Y113600D02*
X-168600Y118691D01*
X-176548Y108863D02*
Y108863D01*
X-284290Y158265D02*
X-272796Y146771D01*
X169165Y-74149D02*
X181165D01*
X183260Y-72054D01*
X168421Y-73405D02*
Y-21540D01*
Y-73405D02*
X169165Y-74149D01*
X183260Y-72054D02*
X183928D01*
X182008Y-76689D02*
X185848D01*
X181754Y-76435D02*
X182008Y-76689D01*
X168218Y-76435D02*
X181754D01*
X185848Y-76689D02*
X190095Y-72442D01*
X166135Y-74352D02*
X168218Y-76435D01*
X166135Y-74352D02*
Y-26873D01*
X170258Y-17370D02*
Y-13473D01*
X170191Y-17437D02*
X170258Y-17370D01*
X168421Y-21540D02*
X170191Y-19770D01*
Y-17437D01*
X165556Y-26294D02*
X166135Y-26873D01*
X165556Y-26294D02*
Y-17850D01*
X-198275Y-35724D02*
X-197532Y-34980D01*
X-202910Y-35678D02*
X-199926Y-32694D01*
X76025Y-151510D02*
Y-145411D01*
X71130Y-143659D02*
X74272D01*
X76025Y-145411D01*
Y-151510D02*
X76238Y-151724D01*
X68415Y-140944D02*
X71130Y-143659D01*
X68415Y-140944D02*
Y-140086D01*
X-7445Y-139342D02*
X67671D01*
X68415Y-140086D01*
X-89129Y-37000D02*
X-88385Y-37744D01*
Y-177256D02*
Y-37744D01*
X168417Y-11632D02*
X170258Y-13473D01*
X157409Y-11632D02*
X168417D01*
X153000Y-16040D02*
X157409Y-11632D01*
X153000Y-21180D02*
Y-16040D01*
X-73634Y118564D02*
Y142020D01*
Y118564D02*
X-72890Y117820D01*
X-63500D01*
X-113601Y-28122D02*
X-106354Y-20876D01*
X-112654Y-30408D02*
X-105407Y-23162D01*
X-111707Y-32694D02*
X-104520Y-25507D01*
X-176548Y108863D02*
X-173691Y111720D01*
Y113600D01*
X-142000Y119435D02*
Y131628D01*
X-142744Y118691D02*
X-142000Y119435D01*
X-199926Y-32694D02*
X-111707D01*
X-15250Y-21180D02*
Y-21180D01*
X-25651Y-4971D02*
X-18500Y2180D01*
X-38365Y-2685D02*
X-33500Y2180D01*
X-5365Y32667D02*
Y95786D01*
X-2418Y98733D01*
X-256749Y-268791D02*
X-248753D01*
X-168600Y1309D02*
X-132684D01*
X-128920Y-2455D01*
X-173691Y6400D02*
X-168600Y1309D01*
X-5365Y32667D02*
X-1886Y29187D01*
X-77980Y-182635D02*
X-77821D01*
X-94290Y-37000D02*
X-89129D01*
X-87641Y-178000D02*
X-68000D01*
X-88385Y-177256D02*
X-87641Y-178000D01*
X-12226Y-144122D02*
X-7445Y-139342D01*
X-18275Y-144122D02*
X-12226D01*
X-20815Y-141582D02*
X-18275Y-144122D01*
X-32222Y-141582D02*
X-20815D01*
X-36985Y-136820D02*
X-32222Y-141582D01*
X-75250Y-136820D02*
X-36985D01*
X-280556Y-215789D02*
X-275334Y-210567D01*
X-272668D01*
X-280556Y-215789D02*
X-280556D01*
X-284479Y137371D02*
Y144000D01*
Y137371D02*
X-279780Y132672D01*
X-142000Y131628D02*
X-132379D01*
X-128920Y-2455D02*
X-125080D01*
D45*
X-109761Y-446476D02*
X34964D01*
X36750Y-444691D02*
Y-424144D01*
X34964Y-446476D02*
X36750Y-444691D01*
X-294691Y-446476D02*
X-109761D01*
Y-428150D01*
X-296476Y-252795D02*
X-290340D01*
X-296476D02*
Y-190000D01*
Y-444691D02*
Y-252795D01*
Y-444691D02*
X-294691Y-446476D01*
X-294147Y-187671D02*
X-290371D01*
X-296476Y-190000D02*
X-294147Y-187671D01*
D46*
X-170770Y7610D02*
Y112390D01*
X-128484Y115770D02*
X-126996Y117258D01*
X-167390Y115770D02*
X-128484D01*
X-170770Y112390D02*
X-167390Y115770D01*
X-141500Y-356718D02*
X-117377D01*
X-127000Y133256D02*
X-110359Y149896D01*
Y151556D01*
X-109774Y152142D01*
X-127000Y133256D02*
X-126996Y133252D01*
Y117258D02*
Y133252D01*
X-167390Y4230D02*
X-129878D01*
X-170770Y7610D02*
X-167390Y4230D01*
X-129878D02*
X-127828Y2180D01*
X-127000D01*
X134547Y133256D02*
X139817Y138526D01*
X144183D02*
X147270Y135439D01*
X127000Y133256D02*
X134547D01*
X139817Y138526D02*
X144183D01*
X146536Y115770D02*
X167390D01*
X145048Y117258D02*
Y128851D01*
X147270Y131073D01*
X145048Y117258D02*
X146536Y115770D01*
X147270Y131073D02*
Y135439D01*
X4641Y118310D02*
X47012D01*
X1717Y115386D02*
X4641Y118310D01*
X48500Y119798D02*
Y133256D01*
X47012Y118310D02*
X48500Y119798D01*
X-70620Y-152000D02*
X-44422D01*
X-42656Y-150234D01*
X33274D01*
X-31288Y123160D02*
X-26438Y118310D01*
X-4134Y115386D02*
X1717D01*
X-7058Y118310D02*
X-4134Y115386D01*
X-26438Y118310D02*
X-7058D01*
X-43160Y123160D02*
X-42660Y123660D01*
X-48500Y117820D02*
X-43160Y123160D01*
X-31288D01*
X-42660Y123660D02*
Y146101D01*
Y123660D02*
X-42660D01*
X170770Y79351D02*
X175594Y74527D01*
X170770Y79351D02*
Y112390D01*
X167390Y115770D02*
X170770Y112390D01*
D47*
X-183970Y-320280D02*
D03*
X-156030D02*
D03*
X-175080D02*
D03*
X-183970Y-284720D02*
D03*
X-156030D02*
D03*
X-175080D02*
D03*
X-183970Y-302500D02*
D03*
Y-311390D02*
D03*
Y-293610D02*
D03*
X-156030Y-302500D02*
D03*
Y-311390D02*
D03*
Y-293610D02*
D03*
X-164920Y-284720D02*
D03*
Y-320280D02*
D03*
D48*
X-185961Y-402750D02*
D03*
D49*
X-160560D02*
D03*
X-135161D02*
D03*
X-109761D02*
D03*
X-185961Y-428150D02*
D03*
X-160560D02*
D03*
X-135161D02*
D03*
X-109761D02*
D03*
X102900Y-435400D02*
D03*
Y-384600D02*
D03*
X77500D02*
D03*
Y-410000D02*
D03*
Y-435400D02*
D03*
D50*
X-28000Y-329250D02*
D03*
X28000D02*
D03*
D51*
X0Y-350750D02*
D03*
D52*
X287981Y173447D02*
D03*
X269981D02*
D03*
X175950Y288001D02*
D03*
Y270001D02*
D03*
D53*
X102900Y-410000D02*
D03*
D54*
X46115Y199746D02*
D03*
X50614Y219233D02*
D03*
X0Y58872D02*
D03*
X0Y86985D02*
D03*
X-50358Y-285594D02*
D03*
X-59255Y-278772D02*
D03*
X188701Y122544D02*
D03*
X-103017Y-211217D02*
D03*
X-112673Y-211907D02*
D03*
X-195051Y121881D02*
D03*
X-89408Y-310642D02*
D03*
X97476Y-267812D02*
D03*
X282226Y39664D02*
D03*
X248499Y-245644D02*
D03*
X242984Y-237961D02*
D03*
X-203962Y-368231D02*
D03*
X267208Y-321564D02*
D03*
X267462Y-261620D02*
D03*
X95584Y-361730D02*
D03*
X84774D02*
D03*
X-169427Y-374731D02*
D03*
X-188105D02*
D03*
X12778Y-239660D02*
D03*
X-223219Y-331750D02*
D03*
X-212663D02*
D03*
X-256131Y-338483D02*
D03*
X-265544Y-329734D02*
D03*
X-143025Y-99893D02*
D03*
X-179096Y61215D02*
D03*
X-181636Y50405D02*
D03*
X-182398Y21621D02*
D03*
X-177826Y32624D02*
D03*
X-163492Y-147209D02*
D03*
X200980Y89482D02*
D03*
X-45139Y205091D02*
D03*
X-180112Y27293D02*
D03*
X-182398Y15820D02*
D03*
X-119284Y-9745D02*
D03*
X-134388Y-10101D02*
D03*
X9652Y-155004D02*
D03*
X8505Y123080D02*
D03*
X235Y123656D02*
D03*
X-273168Y-131512D02*
D03*
X-288550Y-145407D02*
D03*
X-290836Y-140076D02*
D03*
X-293122Y-134746D02*
D03*
X-286137Y-150681D02*
D03*
X-270882Y-139742D02*
D03*
Y-145542D02*
D03*
X-270834Y-151362D02*
D03*
X-270882Y-157162D02*
D03*
X-278092Y-281303D02*
D03*
X-63500Y2180D02*
D03*
X-141500Y-356718D02*
D03*
X59160Y-168185D02*
D03*
X203378Y52318D02*
D03*
X-204618Y47240D02*
D03*
X-98511Y-137969D02*
D03*
X-109774Y152142D02*
D03*
X-88750Y190325D02*
D03*
X-207719Y-30870D02*
D03*
X111283Y178090D02*
D03*
X110000Y-190526D02*
D03*
X100936Y-189834D02*
D03*
X203762Y-50804D02*
D03*
X196446Y-72442D02*
D03*
X-114374Y-176121D02*
D03*
X-177984Y129313D02*
D03*
X-176548Y108863D02*
D03*
Y99339D02*
D03*
X-199061Y66894D02*
D03*
X-272796Y146771D02*
D03*
X-284290Y158265D02*
D03*
X81714Y-12370D02*
D03*
X-202910Y-35678D02*
D03*
X87962Y-151369D02*
D03*
X76238Y-151724D02*
D03*
X66002Y-151370D02*
D03*
X83200Y-145217D02*
D03*
X73050Y-139024D02*
D03*
X94299Y-163382D02*
D03*
X174282Y-3758D02*
D03*
X165556Y-17850D02*
D03*
X-104164Y-13955D02*
D03*
X-2418Y98733D02*
D03*
X33250Y-150234D02*
D03*
X-117377Y-356718D02*
D03*
X-248753Y-268791D02*
D03*
X-290340Y-252795D02*
D03*
X-290340Y-187671D02*
D03*
X-77821Y-182635D02*
D03*
X-104205Y-34980D02*
D03*
X-94290Y-37000D02*
D03*
X-68000Y-178000D02*
D03*
X-151294Y-99893D02*
D03*
X183928Y-72054D02*
D03*
X199767Y44753D02*
D03*
X174012Y-59990D02*
D03*
X177620Y-69514D02*
D03*
X130481Y-157481D02*
D03*
X30Y-160365D02*
D03*
X-19881Y284306D02*
D03*
X-175463Y224583D02*
D03*
X-241694Y-151027D02*
D03*
X19532Y279318D02*
D03*
X281386Y70157D02*
D03*
X269153Y77178D02*
D03*
X108636Y-268883D02*
D03*
X67738Y-271683D02*
D03*
X-148377Y237453D02*
D03*
X-272668Y-210567D02*
D03*
X-279780Y132672D02*
D03*
X-284479Y144000D02*
D03*
X-280556Y-215789D02*
D03*
X-193241Y94250D02*
D03*
X-142000Y131628D02*
D03*
X-63500Y117820D02*
D03*
X222524Y89906D02*
D03*
X178834Y65175D02*
D03*
X182394Y74527D02*
D03*
X18250Y-21180D02*
D03*
X153915Y197003D02*
D03*
X-247567Y34793D02*
D03*
X-85505Y-234923D02*
D03*
X108000Y-136888D02*
D03*
X153000D02*
D03*
X140433Y-155005D02*
D03*
X209668Y-136160D02*
D03*
X1717Y115386D02*
D03*
X-127000Y2180D02*
D03*
X-9423Y-269835D02*
D03*
X-197818Y191031D02*
D03*
X-101144Y250340D02*
D03*
X-201451Y208608D02*
D03*
X-254845Y-8899D02*
D03*
X-259366Y-18137D02*
D03*
X-35489Y252518D02*
D03*
X-62900Y252277D02*
D03*
X-44280Y-251126D02*
D03*
X-18137Y-259367D02*
D03*
X249928Y-71666D02*
D03*
X236432Y-95525D02*
D03*
X115767Y227207D02*
D03*
X141606Y218054D02*
D03*
X174639Y-157246D02*
D03*
X-240421Y-162166D02*
D03*
X-198663Y105631D02*
D03*
X203078Y107978D02*
D03*
X204477Y66439D02*
D03*
X-159776Y143863D02*
D03*
X-214683Y95583D02*
D03*
X-228253Y74164D02*
D03*
X-239646Y50938D02*
D03*
X-173939Y-126374D02*
D03*
X-150554Y-167208D02*
D03*
X-135191Y-186074D02*
D03*
X-99650Y-223819D02*
D03*
X132252Y-182029D02*
D03*
X153900Y-170923D02*
D03*
X194164Y-141068D02*
D03*
X274832Y9597D02*
D03*
X190119Y138130D02*
D03*
X178355Y160591D02*
D03*
X163937Y182071D02*
D03*
X-10121Y289823D02*
D03*
X220205Y-107401D02*
D03*
X-262421Y-36881D02*
D03*
X-258415Y-94056D02*
D03*
X-251662Y-122744D02*
D03*
X260974Y-46017D02*
D03*
X269342Y-18834D02*
D03*
X99271Y245704D02*
D03*
X-261980Y-65319D02*
D03*
X-1886Y29187D02*
D03*
X180122Y2408D02*
D03*
X-15250Y-136820D02*
D03*
X175594Y74527D02*
D03*
X-60250Y-21180D02*
D03*
X-70620Y-152000D02*
D03*
X-75250Y-136820D02*
D03*
Y-21180D02*
D03*
X-30250Y-136820D02*
D03*
Y-21180D02*
D03*
X-15250D02*
D03*
X3250D02*
D03*
X33250D02*
D03*
X48250D02*
D03*
X63250D02*
D03*
X-85750Y-16250D02*
D03*
X-45250Y-152000D02*
D03*
Y-21180D02*
D03*
X138000Y-136888D02*
D03*
X108000Y-21180D02*
D03*
X-602Y20153D02*
D03*
X-66393Y135657D02*
D03*
X-42660Y146101D02*
D03*
X122114Y-152281D02*
D03*
X93000Y-21180D02*
D03*
X123000D02*
D03*
X153000D02*
D03*
X138000D02*
D03*
X127000Y133256D02*
D03*
X-78269Y140100D02*
D03*
X-127000Y133256D02*
D03*
X-117486Y133453D02*
D03*
X-33500Y2180D02*
D03*
X48500Y133256D02*
D03*
X-33500Y117820D02*
D03*
X-48500D02*
D03*
X-78500D02*
D03*
X112000Y2180D02*
D03*
X127000D02*
D03*
X142000D02*
D03*
X78500D02*
D03*
X63500D02*
D03*
X48500D02*
D03*
X33500D02*
D03*
X-18500D02*
D03*
X-48500D02*
D03*
X38273Y-272324D02*
D03*
X-90635Y249018D02*
D03*
X9248Y-264839D02*
D03*
X74422Y259541D02*
D03*
X47753Y270822D02*
D03*
D55*
X-204626Y15466D02*
D03*
X-213634Y-435021D02*
D03*
X-195285Y26399D02*
D03*
X66009Y197775D02*
D03*
X36750Y-424144D02*
D03*
X-164090Y-348730D02*
D03*
X-101600Y165330D02*
D03*
X-78760Y155990D02*
D03*
X-248081Y-222130D02*
D03*
X-244201Y-215630D02*
D03*
X93598Y174395D02*
D03*
X-206812Y26399D02*
D03*
X44594Y-341750D02*
D03*
X56435D02*
D03*
X44594Y-329250D02*
D03*
X56435D02*
D03*
X111273Y-278808D02*
D03*
X102978D02*
D03*
X284004Y-211063D02*
D03*
X292000Y-189434D02*
D03*
X-113568Y-317721D02*
D03*
X-22380Y-386536D02*
D03*
X-34880D02*
D03*
X-9880D02*
D03*
X2620D02*
D03*
X-32191Y-311338D02*
D03*
Y-299496D02*
D03*
X-44691Y-311338D02*
D03*
Y-299496D02*
D03*
X-19691D02*
D03*
Y-311338D02*
D03*
X-7191Y-299496D02*
D03*
Y-311338D02*
D03*
X-284294Y-425568D02*
D03*
X-187539Y-338250D02*
D03*
X-282939Y-341219D02*
D03*
X-244271Y-318769D02*
D03*
X-275840Y-252795D02*
D03*
X-244665Y-241630D02*
D03*
X-2530Y189197D02*
D03*
X271731Y203557D02*
D03*
X192103Y-18982D02*
D03*
X206403Y-8987D02*
D03*
X191903Y-9451D02*
D03*
X271731Y143360D02*
D03*
X157950Y261373D02*
D03*
X193950Y261395D02*
D03*
X93598Y186072D02*
D03*
X-112601Y276198D02*
D03*
X-290340Y-156650D02*
D03*
X-98511Y-182635D02*
D03*
Y-170917D02*
D03*
X-146850Y-57590D02*
D03*
X-155360Y-47430D02*
D03*
X206603Y-18185D02*
D03*
X-93260Y155956D02*
D03*
X-2530Y158628D02*
D03*
X6839Y166750D02*
D03*
X-123299Y-47430D02*
D03*
D56*
X24139Y-201228D02*
D03*
D57*
X255000Y255000D02*
D03*
X-255000D02*
D03*
D58*
X0Y0D02*
D03*
D59*
X30614Y-8516D02*
X35586D01*
X17360Y4738D02*
X30614Y-8516D01*
X5238Y7820D02*
X8320Y4738D01*
X5238Y7820D02*
Y110069D01*
X8320Y4738D02*
X17360D01*
X52762Y119749D02*
Y135021D01*
X48275Y115262D02*
X52762Y119749D01*
X46115Y141668D02*
X52762Y135021D01*
X8320Y115262D02*
X48275D01*
X46115Y141668D02*
Y199746D01*
X4182Y111124D02*
X8320Y115262D01*
X4182Y111124D02*
X5238Y110069D01*
X-30414Y115262D02*
X-8321D01*
X-32972Y117820D02*
X-30414Y115262D01*
X-4183Y111124D02*
X4182D01*
X-8321Y115262D02*
X-4183Y111124D01*
X-179096Y61215D02*
X-179004D01*
X-176104Y58315D01*
Y40373D02*
Y58315D01*
X-184374Y32103D02*
X-176104Y40373D01*
X-182398Y21621D02*
Y21999D01*
X-184374Y23975D02*
Y32103D01*
Y23975D02*
X-182398Y21999D01*
X9652Y-155004D02*
X62368D01*
X66002Y-151370D01*
X169530Y-9332D02*
X171258Y-11060D01*
X176600D01*
X186924Y-735D01*
X169290Y-9092D02*
X169530Y-9332D01*
X186924Y-735D02*
Y5225D01*
X182940Y9210D02*
X186924Y5225D01*
X178390Y10103D02*
X179283Y9210D01*
X182940D01*
X178390Y10103D02*
Y41320D01*
X177313Y6670D02*
X181888D01*
X172310Y-8520D02*
X175548D01*
X184384Y317D02*
Y4173D01*
X175850Y8133D02*
X177313Y6670D01*
X181888D02*
X184384Y4173D01*
X175548Y-8520D02*
X184384Y317D01*
X108000Y-136888D02*
X108000Y-136889D01*
X59160Y-168185D02*
X107108D01*
X108000Y-167292D02*
Y-136889D01*
X107108Y-168185D02*
X108000Y-167292D01*
X82820Y-134262D02*
X105374D01*
X108000Y-136888D01*
X7850Y-168185D02*
X59160D01*
X30Y-160365D02*
X7850Y-168185D01*
X203378Y47875D02*
Y52318D01*
X-181637Y94250D02*
X-176548Y99339D01*
X174012Y-65906D02*
X177620Y-69514D01*
X174012Y-65906D02*
Y-59990D01*
X82618Y-151369D02*
X87962D01*
X78438Y-147189D02*
X82618Y-151369D01*
X73050Y-139024D02*
X78438Y-144412D01*
Y-147189D02*
Y-144412D01*
X-193241Y94250D02*
X-181637D01*
X-193241D02*
X-193241D01*
X82307Y-139596D02*
X83200Y-140489D01*
X80611Y-139596D02*
X82307D01*
X83200Y-145217D02*
Y-140489D01*
X72214Y-139024D02*
X73050D01*
X70119Y-136929D02*
X72214Y-139024D01*
X-8625Y-136929D02*
X70119D01*
X75277Y-134262D02*
X80611Y-139596D01*
X-12692Y-134262D02*
X75277D01*
X-13277Y-141582D02*
X-8625Y-136929D01*
X81663Y-137056D02*
X90321D01*
X94299Y-163382D02*
Y-141033D01*
X90321Y-137056D02*
X94299Y-141033D01*
X76944Y-132337D02*
X81663Y-137056D01*
X170342Y-6552D02*
X172310Y-8520D01*
X154945Y-6552D02*
X170342D01*
X149775Y-11722D02*
X154945Y-6552D01*
X156356Y-9092D02*
X169290D01*
X150932Y-14516D02*
X156356Y-9092D01*
X169021Y-964D02*
X172393Y2408D01*
X152271Y-964D02*
X169021D01*
X167969Y1576D02*
X173056Y6663D01*
X151219Y1576D02*
X167969D01*
X166558Y4116D02*
X170262Y7820D01*
X150167Y4116D02*
X166558D01*
X170262Y68872D02*
X171155Y69765D01*
X170262Y7820D02*
Y68872D01*
X62427Y-9143D02*
X79738Y-26454D01*
X33500Y2180D02*
X44823Y-9143D01*
X62427D01*
X33500Y2180D02*
X33500D01*
X79738Y-131180D02*
X82820Y-134262D01*
X79738Y-131180D02*
Y-26454D01*
X63250Y-21180D02*
X70872D01*
X76944Y-27252D01*
Y-132337D02*
Y-27252D01*
X175850Y42372D02*
X178231Y44753D01*
X199767D01*
X175850Y8133D02*
Y42372D01*
X179283Y42213D02*
X195572D01*
X178390Y41320D02*
X179283Y42213D01*
X195572D02*
X197794Y39991D01*
X204529Y42780D02*
Y46725D01*
X201739Y39991D02*
X204529Y42780D01*
X197794Y39991D02*
X201739D01*
X203378Y47875D02*
X204529Y46725D01*
X130481Y-157481D02*
Y-144407D01*
X138000Y-136888D01*
X122000Y-152395D02*
X122114Y-152281D01*
X122893Y-157481D02*
X130481D01*
X122000Y-156588D02*
X122893Y-157481D01*
X122000Y-156588D02*
Y-152395D01*
X175380Y61721D02*
X178834Y65175D01*
X173949Y61721D02*
X175380D01*
X78500Y2180D02*
X78500D01*
X86306Y-5626D02*
X147609D01*
X78500Y2180D02*
X86306Y-5626D01*
X171155Y69765D02*
X177567D01*
X182328Y74527D01*
X182394D01*
X142000Y2180D02*
X148231D01*
X150167Y4116D01*
X146811Y-2832D02*
X151219Y1576D01*
X117012Y-2832D02*
X146811D01*
X147609Y-5626D02*
X152271Y-964D01*
X-15250Y-136820D02*
X-12692Y-134262D01*
X-30250Y-136820D02*
X-21985D01*
X-17222Y-141582D01*
X-13277D01*
X172393Y2408D02*
X180122D01*
X93000Y-21180D02*
X102458Y-11722D01*
X149775D01*
X114664Y-14516D02*
X150932D01*
X108000Y-21180D02*
X114664Y-14516D01*
X112000Y2180D02*
X117012Y-2832D01*
X-33500Y117820D02*
X-32972D01*
X173056Y60828D02*
X173949Y61721D01*
X173056Y6663D02*
Y60828D01*
X146379Y-149059D02*
Y-143509D01*
X153000Y-136888D01*
X140433Y-155005D02*
X146379Y-149059D01*
D60*
X85410Y-8674D02*
X148512D01*
X81714Y-12370D02*
X85410Y-8674D01*
X153429Y-3758D02*
X174282D01*
X148512Y-8674D02*
X153429Y-3758D01*
D61*
X215000Y0D02*
G03*
X215000Y0I-215000J0D01*
G01*
X255000D02*
G03*
X255000Y0I-255000J0D01*
G01*
X285000D02*
G03*
X285000Y0I-285000J0D01*
G01*
X290000D02*
G03*
X290000Y0I-290000J0D01*
G01*
X280000D02*
G03*
X280000Y0I-280000J0D01*
G01*
X270000D02*
G03*
X270000Y0I-270000J0D01*
G01*
X275000D02*
G03*
X275000Y0I-275000J0D01*
G01*
X260000D02*
G03*
X260000Y0I-260000J0D01*
G01*
X265000D02*
G03*
X265000Y0I-265000J0D01*
G01*
X220000D02*
G03*
X220000Y0I-220000J0D01*
G01*
X225000D02*
G03*
X225000Y0I-225000J0D01*
G01*
X230000D02*
G03*
X230000Y0I-230000J0D01*
G01*
X235000D02*
G03*
X235000Y0I-235000J0D01*
G01*
X240000D02*
G03*
X240000Y0I-240000J0D01*
G01*
X245000D02*
G03*
X245000Y0I-245000J0D01*
G01*
X250000D02*
G03*
X250000Y0I-250000J0D01*
G01*
%TF.MD5,93382675d4c427a0c2135cdbc2b1db70*%
M02*
