M48
;Layer_Color=9474304
;FILE_FORMAT=2:4
INCH,LZ
;TYPE=PLATED
T1F00S00C0.0079
T2F00S00C0.0118
T3F00S00C0.0197
T5F00S00C0.0315
T6F00S00C0.0394
T7F00S00C0.0492
T8F00S00C0.1181
%
T01
X003338Y-014241
X003763
X003838Y-010544
X004277Y-010586
X002667Y-010696
X001507Y-010721
X000364Y-010427
X000503Y-009435
X00038Y-006103
X000001Y-006314
X001309Y-005915
X002599Y-005959
X003002Y-005973
X003463Y-005959
X003276Y-005717
X002876Y-005473
X004252Y-005389
X004808Y-005995
X005137Y-0062
X005529Y-006103
X005433Y-005389
X006024
X006059Y-006729
X005207Y-007166
X004331Y-007501
X003974Y-007474
X003713Y-006432
X002329Y-006621
X006876Y-006191
X007644Y-005554
X008255Y-005361
X009566Y-009369
X009783Y-009671
X01053Y-0103
X01052Y-01266
X-000371Y-010623
X-000714Y-010211
X-001743Y-009887
X-001983Y-011244
X-002333Y-010975
X-00352Y-01223
X-004621Y-014044
X-005571
X-00667Y-014753
X-007406
X-00803Y-014497
X-008373Y-013061
X-008788
X-010084Y-013326
X-010455Y-012982
X-010949Y-011075
X-011431Y-009953
X-011046Y-008496
X-010735Y-00829
X-011431Y-007389
X-011265Y-005932
X-01136Y-005725
X-01145Y-005515
X-01154Y-005305
X-010755Y-005178
X-010665Y-005502
Y-00573
X-010663Y-005959
X-010665Y-006187
X-009516Y-005946
X-009465Y-006384
X-006437Y-005796
X-005927Y-006583
X-005322Y-007326
X-004503Y-006934
X-004436Y-008343
X-004056Y-008316
X-003923Y-008812
X-003366Y-009249
X-003064Y-00719
X-002677Y-007008
X-00278Y-005984
X-002963Y-005387
X-003878Y-005432
X-001781Y-005984
X-001191Y-005387
X-0006
X-009793Y-010582
X-009908Y-004832
X-010174Y-003703
X-010314Y-002572
X-010332Y-001452
X-010211Y-000714
X-010033Y-00035
X-009747Y00137
X-009435Y002005
X-008986Y00292
X-008452Y003763
X-007608Y003711
X-007821Y004159
X-007679Y004798
X-007007Y005091
X-006951Y004286
Y003911
X-007051Y00241
X-007151Y001984
X-007001Y001284
X-007091Y001075
X-007181Y000851
Y000623
X-008056Y00186
X-007837Y002634
X-008178Y-001215
X-007989Y-001405
X-005291Y-000398
X-004696Y-000384
X-004101Y-000549
X-003376Y-00064
X-002963Y-000834
X-002372
X-001781
X-001191
X-0006
X-000728Y000086
X-001319
X-001909
X-0025
X-005
X-004103Y-001377
X-003712Y-001457
X-005631Y-003933
X-005956
X-006848Y-004975
X-00629Y005664
X-005591Y005182
X-005Y005246
X-004625Y005254
X-004322Y00599
X-003081Y005516
X-002614Y005341
X-0025Y004639
X-001909
X-001319
X-00168Y005752
X-001777Y008074
X-001397Y009942
X-002476Y009932
X-003568Y009804
X-003982Y009856
X-005842Y009349
X-006908Y008842
X-007931Y008213
X-007788Y007521
X-003494Y007493
X-003091Y004639
X-011015Y005223
X-0112Y005669
X-01074Y005778
X-011193Y006231
X000009Y004868
X000335Y004846
X000068Y004543
X-000095Y003887
X0Y003425
X0Y002318
X-000074Y001149
X-000024Y000793
X000128Y-000834
X000719
X001309
X0019
X00249
X0025Y000086
X003091
X003217Y-000487
X003661Y-000834
X004252
X004843
X005433
X006024
X006518Y-000703
X006862Y-000148
X007091Y000095
X005591Y000086
X005
X004409
X001909
X001319
X001909Y005246
X001816Y007864
X001993Y008631
X00293Y010218
X003908Y009673
X004558Y008945
X005575Y008585
X00606Y007756
X006454Y007168
X007022Y006322
X007485Y005438
X007429Y004825
X007995Y004251
X007913Y003523
X008761Y00354
X00805Y002616
X008007Y00206
X007865Y001762
X007041Y002566
X006913Y002934
X007181
X010597Y003039
X011078Y002762
X011111Y001562
X01082Y000378
X010604Y-000742
X010275Y-001812
X00984Y-002821
X009308Y-003761
X008669Y-004228
X007734Y-002852
X007241Y-002837
X006993Y-002737
X006851Y-002362
X008022Y-002
X005Y005246
X004381Y007011
X00188Y010662
X000769Y010997
X-000398Y01141
X-000783Y011193
T02
X-007243Y-012609
X-006893
X-006493
X-006143
Y-012259
Y-011909
Y-011559
Y-011209
X-006493
X-006893
X-007243
Y-011559
Y-011909
Y-012259
T03
X001447Y-016699
X000103Y-015218
X001756Y-013455
X002222
Y-012963
X001756
X004054Y-010977
X004381
X011181Y-00831
X011496Y-007458
X-003878Y-00719
Y-006729
X-004471Y-012509
X-001759Y-012257
Y-011791
X-001267
Y-012257
X-000775
Y-011791
X-000283
Y-012257
X-000389Y-015218
X-000881
X-001373
X-00646Y-01373
X-007383Y-013317
X-009617Y-01255
X-011139Y-013434
X-011193Y-016755
X-008411Y-017127
X-009632Y-009513
X-009767Y-008745
X-009614Y-008489
X-01086Y-009953
X-011431Y-006167
X-005781Y-002267
X-006117Y-001867
X-004854
X-008056Y000609
X-008142Y001039
X-007688
X-003672Y00614
X-003101Y006141
X-004Y006509
X-0001Y006245
X000269Y006565
X-0001Y007449
X002599Y007786
X003685Y007326
Y006866
X006219Y01029
X007636Y010291
X010698Y008014
Y005644
X008126Y-000354
X008134Y-000716
X007563Y-000747
X007555Y-000372
X-004433Y010874
T05
X-007321Y-016856
Y-015856
X-006321
X-005321
X-004321
Y-016856
X-005321
X-006321
T06
X003051Y-017142
X004051
Y-016142
Y-015142
X003051
Y-016142
X0Y0
T07
X00095Y-007922
T08
X-010039Y010039
X010039
M30
