G04 Generated by CircuitCAM Version 4.4*
%FSLAX33Y33*%
%MOMM*%
%ADD178C,0.400000*%
%ADD18C,0.300000*%
%ADD179C,0.000000*%
%LNSolderPasteTop_Ready*%
%LPD*%
G36*
G01X-36895Y-122108D02*
X-36917Y-122176D01*
X-36943Y-122251D01*
X-36973Y-122328D01*
X-37006Y-122409D01*
X-37044Y-122494D01*
X-37086Y-122584D01*
X-37131Y-122676D01*
X-37175Y-122770D01*
X-37219Y-122860D01*
X-37262Y-122947D01*
X-37306Y-123030D01*
X-37350Y-123110D01*
X-37393Y-123187D01*
X-37437Y-123261D01*
X-39090Y-123261D01*
X-39437Y-123065D01*
X-39430Y-123236D01*
X-39423Y-123409D01*
X-39418Y-123580D01*
X-39414Y-123753D01*
X-39412Y-123927D01*
X-39410Y-124100D01*
X-39409Y-124275D01*
X-39410Y-124449D01*
X-39412Y-124624D01*
X-39414Y-124798D01*
X-39418Y-124973D01*
X-39423Y-125148D01*
X-39437Y-125496D01*
X-39435Y-125496D01*
X-39104Y-125358D01*
X-39104Y-125094D01*
X-37937Y-125094D01*
X-37937Y-125775D01*
X-40243Y-125775D01*
X-40062Y-125941D01*
X-39784Y-125900D01*
X-37937Y-125900D01*
X-37938Y-126066D01*
X-37939Y-126241D01*
X-37942Y-126423D01*
X-37946Y-126614D01*
X-37951Y-126812D01*
X-37957Y-127019D01*
X-37965Y-127232D01*
X-37963Y-127232D01*
X-37618Y-127080D01*
X-37621Y-126985D01*
X-37624Y-126865D01*
X-37627Y-126720D01*
X-37629Y-126552D01*
X-37630Y-126359D01*
X-37631Y-126141D01*
X-37631Y-125900D01*
X-35187Y-125900D01*
X-35659Y-125427D01*
X-36006Y-125775D01*
X-37631Y-125775D01*
X-37631Y-125094D01*
X-36395Y-125094D01*
X-36395Y-125343D01*
X-36393Y-125343D01*
X-36090Y-125205D01*
X-36097Y-125071D01*
X-36103Y-124899D01*
X-36109Y-124689D01*
X-36112Y-124441D01*
X-36115Y-124155D01*
X-36117Y-123831D01*
X-36118Y-123468D01*
X-35923Y-123316D01*
X-36270Y-123065D01*
X-36437Y-123261D01*
X-37312Y-123261D01*
X-37238Y-123167D01*
X-37166Y-123079D01*
X-37096Y-122997D01*
X-37029Y-122921D01*
X-36963Y-122848D01*
X-36900Y-122781D01*
X-36840Y-122719D01*
X-36781Y-122658D01*
X-36724Y-122604D01*
X-36669Y-122557D01*
X-36615Y-122514D01*
X-36563Y-122480D01*
X-36513Y-122449D01*
X-36465Y-122427D01*
X-36895Y-122108D01*
G37*
%LPC*%
G36*
G01X-36395Y-123385D02*
X-37631Y-123385D01*
X-37631Y-124108D01*
X-36395Y-124108D01*
X-36395Y-123385D01*
G37*
G36*
G01X-37937Y-123385D02*
X-39104Y-123385D01*
X-39104Y-124108D01*
X-37937Y-124108D01*
X-37937Y-123385D01*
G37*
G36*
G01X-36395Y-124233D02*
X-37631Y-124233D01*
X-37631Y-124969D01*
X-36395Y-124969D01*
X-36395Y-124233D01*
G37*
G36*
G01X-37937Y-124233D02*
X-39104Y-124233D01*
X-39104Y-124969D01*
X-37937Y-124969D01*
X-37937Y-124233D01*
G37*
%LPD*%
G54D178*
X-72189Y-92052D02*
X-72189Y-95333D01*
X-72189Y-92052D02*
X-70939Y-95333D01*
X-69689Y-92052D02*
X-70939Y-95333D01*
X-69689Y-92052D02*
X-69689Y-95333D01*
X-67658Y-92052D02*
X-67970Y-92208D01*
X-68283Y-92521D01*
X-68439Y-92833D01*
X-68595Y-93302D01*
X-68595Y-94083D01*
X-68439Y-94552D01*
X-68283Y-94865D01*
X-67970Y-95177D01*
X-67658Y-95333D01*
X-67033Y-95333D01*
X-66720Y-95177D01*
X-66408Y-94865D01*
X-66252Y-94552D01*
X-66095Y-94083D01*
X-66095Y-93302D01*
X-66252Y-92833D01*
X-66408Y-92521D01*
X-66720Y-92208D01*
X-67033Y-92052D01*
X-67658Y-92052D01*
X-65002Y-92052D02*
X-65002Y-95333D01*
X-65002Y-92052D02*
X-63908Y-92052D01*
X-63439Y-92208D01*
X-63127Y-92521D01*
X-62970Y-92833D01*
X-62814Y-93302D01*
X-62814Y-94083D01*
X-62970Y-94552D01*
X-63127Y-94865D01*
X-63439Y-95177D01*
X-63908Y-95333D01*
X-65002Y-95333D01*
X-61720Y-92052D02*
X-61720Y-95333D01*
X-61720Y-92052D02*
X-59689Y-92052D01*
X-61720Y-93615D02*
X-60470Y-93615D01*
X-61720Y-95333D02*
X-59689Y-95333D01*
X-58752Y-92052D02*
X-58752Y-95333D01*
X-58752Y-95333D02*
X-56877Y-95333D01*
X-55939Y-93146D02*
X-56095Y-93302D01*
X-55939Y-93458D01*
X-55783Y-93302D01*
X-55939Y-93146D01*
X-55939Y-95021D02*
X-56095Y-95177D01*
X-55939Y-95333D01*
X-55783Y-95177D01*
X-55939Y-95021D01*
X-54533Y-92833D02*
X-54533Y-92677D01*
X-54377Y-92365D01*
X-54220Y-92208D01*
X-53908Y-92052D01*
X-53283Y-92052D01*
X-52970Y-92208D01*
X-52814Y-92365D01*
X-52658Y-92677D01*
X-52658Y-92990D01*
X-52814Y-93302D01*
X-53127Y-93771D01*
X-54689Y-95333D01*
X-52502Y-95333D01*
X-50627Y-92052D02*
X-51095Y-92208D01*
X-51408Y-92677D01*
X-51564Y-93458D01*
X-51564Y-93927D01*
X-51408Y-94708D01*
X-51095Y-95177D01*
X-50627Y-95333D01*
X-50314Y-95333D01*
X-49845Y-95177D01*
X-49533Y-94708D01*
X-49377Y-93927D01*
X-49377Y-93458D01*
X-49533Y-92677D01*
X-49845Y-92208D01*
X-50314Y-92052D01*
X-50627Y-92052D01*
X-48283Y-92833D02*
X-48283Y-92677D01*
X-48127Y-92365D01*
X-47970Y-92208D01*
X-47658Y-92052D01*
X-47033Y-92052D01*
X-46720Y-92208D01*
X-46564Y-92365D01*
X-46408Y-92677D01*
X-46408Y-92990D01*
X-46564Y-93302D01*
X-46877Y-93771D01*
X-48439Y-95333D01*
X-46252Y-95333D01*
X-44377Y-92052D02*
X-44845Y-92208D01*
X-45158Y-92677D01*
X-45314Y-93458D01*
X-45314Y-93927D01*
X-45158Y-94708D01*
X-44845Y-95177D01*
X-44377Y-95333D01*
X-44064Y-95333D01*
X-43595Y-95177D01*
X-43283Y-94708D01*
X-43127Y-93927D01*
X-43127Y-93458D01*
X-43283Y-92677D01*
X-43595Y-92208D01*
X-44064Y-92052D01*
X-44377Y-92052D01*
X-42033Y-93927D02*
X-39220Y-93927D01*
X-37189Y-92052D02*
X-37658Y-92208D01*
X-37970Y-92677D01*
X-38127Y-93458D01*
X-38127Y-93927D01*
X-37970Y-94708D01*
X-37658Y-95177D01*
X-37189Y-95333D01*
X-36877Y-95333D01*
X-36408Y-95177D01*
X-36095Y-94708D01*
X-35939Y-93927D01*
X-35939Y-93458D01*
X-36095Y-92677D01*
X-36408Y-92208D01*
X-36877Y-92052D01*
X-37189Y-92052D01*
X-32970Y-93146D02*
X-33127Y-93615D01*
X-33439Y-93927D01*
X-33908Y-94083D01*
X-34064Y-94083D01*
X-34533Y-93927D01*
X-34845Y-93615D01*
X-35002Y-93146D01*
X-35002Y-92990D01*
X-34845Y-92521D01*
X-34533Y-92208D01*
X-34064Y-92052D01*
X-33908Y-92052D01*
X-33439Y-92208D01*
X-33127Y-92521D01*
X-32970Y-93146D01*
X-32970Y-93927D01*
X-33127Y-94708D01*
X-33439Y-95177D01*
X-33908Y-95333D01*
X-34220Y-95333D01*
X-34689Y-95177D01*
X-34845Y-94865D01*
X-31720Y-93927D02*
X-28908Y-93927D01*
X-27502Y-92052D02*
X-25783Y-92052D01*
X-26720Y-93302D01*
X-26252Y-93302D01*
X-25939Y-93458D01*
X-25783Y-93615D01*
X-25627Y-94083D01*
X-25627Y-94396D01*
X-25783Y-94865D01*
X-26095Y-95177D01*
X-26564Y-95333D01*
X-27033Y-95333D01*
X-27502Y-95177D01*
X-27658Y-95021D01*
X-27814Y-94708D01*
X-23752Y-92052D02*
X-24220Y-92208D01*
X-24533Y-92677D01*
X-24689Y-93458D01*
X-24689Y-93927D01*
X-24533Y-94708D01*
X-24220Y-95177D01*
X-23752Y-95333D01*
X-23439Y-95333D01*
X-22970Y-95177D01*
X-22658Y-94708D01*
X-22502Y-93927D01*
X-22502Y-93458D01*
X-22658Y-92677D01*
X-22970Y-92208D01*
X-23439Y-92052D01*
X-23752Y-92052D01*
X-21408Y-93927D02*
X-18595Y-93927D01*
X-15314Y-92521D02*
X-15627Y-92208D01*
X-16095Y-92052D01*
X-16720Y-92052D01*
X-17189Y-92208D01*
X-17502Y-92521D01*
X-17502Y-92833D01*
X-17345Y-93146D01*
X-17189Y-93302D01*
X-16877Y-93458D01*
X-15939Y-93771D01*
X-15627Y-93927D01*
X-15470Y-94083D01*
X-15314Y-94396D01*
X-15314Y-94865D01*
X-15627Y-95177D01*
X-16095Y-95333D01*
X-16720Y-95333D01*
X-17189Y-95177D01*
X-17502Y-94865D01*
X-13439Y-92052D02*
X-13752Y-92208D01*
X-14064Y-92521D01*
X-14220Y-92833D01*
X-14377Y-93302D01*
X-14377Y-94083D01*
X-14220Y-94552D01*
X-14064Y-94865D01*
X-13752Y-95177D01*
X-13439Y-95333D01*
X-12814Y-95333D01*
X-12502Y-95177D01*
X-12189Y-94865D01*
X-12033Y-94552D01*
X-11877Y-94083D01*
X-11877Y-93302D01*
X-12033Y-92833D01*
X-12189Y-92521D01*
X-12502Y-92208D01*
X-12814Y-92052D01*
X-13439Y-92052D01*
X-10783Y-92833D02*
X-10783Y-92677D01*
X-10627Y-92365D01*
X-10470Y-92208D01*
X-10158Y-92052D01*
X-9533Y-92052D01*
X-9220Y-92208D01*
X-9064Y-92365D01*
X-8908Y-92677D01*
X-8908Y-92990D01*
X-9064Y-93302D01*
X-9377Y-93771D01*
X-10939Y-95333D01*
X-8752Y-95333D01*
X-6877Y-92052D02*
X-7345Y-92208D01*
X-7658Y-92677D01*
X-7814Y-93458D01*
X-7814Y-93927D01*
X-7658Y-94708D01*
X-7345Y-95177D01*
X-6877Y-95333D01*
X-6564Y-95333D01*
X-6095Y-95177D01*
X-5783Y-94708D01*
X-5627Y-93927D01*
X-5627Y-93458D01*
X-5783Y-92677D01*
X-6095Y-92208D01*
X-6564Y-92052D01*
X-6877Y-92052D01*
X-3752Y-92052D02*
X-4220Y-92208D01*
X-4533Y-92677D01*
X-4689Y-93458D01*
X-4689Y-93927D01*
X-4533Y-94708D01*
X-4220Y-95177D01*
X-3752Y-95333D01*
X-3439Y-95333D01*
X-2970Y-95177D01*
X-2658Y-94708D01*
X-2502Y-93927D01*
X-2502Y-93458D01*
X-2658Y-92677D01*
X-2970Y-92208D01*
X-3439Y-92052D01*
X-3752Y-92052D01*
X467Y-93146D02*
X311Y-93615D01*
X-2Y-93927D01*
X-470Y-94083D01*
X-627Y-94083D01*
X-1095Y-93927D01*
X-1408Y-93615D01*
X-1564Y-93146D01*
X-1564Y-92990D01*
X-1408Y-92521D01*
X-1095Y-92208D01*
X-627Y-92052D01*
X-470Y-92052D01*
X-2Y-92208D01*
X311Y-92521D01*
X467Y-93146D01*
X467Y-93927D01*
X311Y-94708D01*
X-2Y-95177D01*
X-470Y-95333D01*
X-783Y-95333D01*
X-1252Y-95177D01*
X-1408Y-94865D01*
X1873Y-92052D02*
X3592Y-92052D01*
X2655Y-93302D01*
X3123Y-93302D01*
X3436Y-93458D01*
X3592Y-93615D01*
X3748Y-94083D01*
X3748Y-94396D01*
X3592Y-94865D01*
X3280Y-95177D01*
X2811Y-95333D01*
X2342Y-95333D01*
X1873Y-95177D01*
X1717Y-95021D01*
X1561Y-94708D01*
X5623Y-92052D02*
X5155Y-92208D01*
X4842Y-92677D01*
X4686Y-93458D01*
X4686Y-93927D01*
X4842Y-94708D01*
X5155Y-95177D01*
X5623Y-95333D01*
X5936Y-95333D01*
X6405Y-95177D01*
X6717Y-94708D01*
X6873Y-93927D01*
X6873Y-93458D01*
X6717Y-92677D01*
X6405Y-92208D01*
X5936Y-92052D01*
X5623Y-92052D01*
X9842Y-92521D02*
X9686Y-92208D01*
X9217Y-92052D01*
X8905Y-92052D01*
X8436Y-92208D01*
X8123Y-92677D01*
X7967Y-93458D01*
X7967Y-94240D01*
X8123Y-94865D01*
X8436Y-95177D01*
X8905Y-95333D01*
X9061Y-95333D01*
X9530Y-95177D01*
X9842Y-94865D01*
X9998Y-94396D01*
X9998Y-94240D01*
X9842Y-93771D01*
X9530Y-93458D01*
X9061Y-93302D01*
X8905Y-93302D01*
X8436Y-93458D01*
X8123Y-93771D01*
X7967Y-94240D01*
X11405Y-92677D02*
X11717Y-92521D01*
X12186Y-92052D01*
X12186Y-95333D01*
X14373Y-92052D02*
X16092Y-92052D01*
X15155Y-93302D01*
X15623Y-93302D01*
X15936Y-93458D01*
X16092Y-93615D01*
X16248Y-94083D01*
X16248Y-94396D01*
X16092Y-94865D01*
X15780Y-95177D01*
X15311Y-95333D01*
X14842Y-95333D01*
X14373Y-95177D01*
X14217Y-95021D01*
X14061Y-94708D01*
X18748Y-92052D02*
X17186Y-94240D01*
X19530Y-94240D01*
X18748Y-92052D02*
X18748Y-95333D01*
X-70158Y-98791D02*
X-70470Y-98478D01*
X-70939Y-98322D01*
X-71564Y-98322D01*
X-72033Y-98478D01*
X-72345Y-98791D01*
X-72345Y-99103D01*
X-72189Y-99416D01*
X-72033Y-99572D01*
X-71720Y-99728D01*
X-70783Y-100041D01*
X-70470Y-100197D01*
X-70314Y-100353D01*
X-70158Y-100666D01*
X-70158Y-101135D01*
X-70470Y-101447D01*
X-70939Y-101603D01*
X-71564Y-101603D01*
X-72033Y-101447D01*
X-72345Y-101135D01*
X-69064Y-98322D02*
X-69064Y-101603D01*
X-65783Y-98322D02*
X-67970Y-101603D01*
X-67970Y-98322D02*
X-65783Y-98322D01*
X-67970Y-101603D02*
X-65783Y-101603D01*
X-64689Y-98322D02*
X-64689Y-101603D01*
X-64689Y-98322D02*
X-62658Y-98322D01*
X-64689Y-99885D02*
X-63439Y-99885D01*
X-64689Y-101603D02*
X-62658Y-101603D01*
X-61564Y-99416D02*
X-61720Y-99572D01*
X-61564Y-99728D01*
X-61408Y-99572D01*
X-61564Y-99416D01*
X-61564Y-101291D02*
X-61720Y-101447D01*
X-61564Y-101603D01*
X-61408Y-101447D01*
X-61564Y-101291D01*
X-59845Y-98947D02*
X-59533Y-98791D01*
X-59064Y-98322D01*
X-59064Y-101603D01*
X-55314Y-98322D02*
X-56877Y-98322D01*
X-57033Y-99728D01*
X-56877Y-99572D01*
X-56408Y-99416D01*
X-55939Y-99416D01*
X-55470Y-99572D01*
X-55158Y-99885D01*
X-55002Y-100353D01*
X-55002Y-100666D01*
X-55158Y-101135D01*
X-55470Y-101447D01*
X-55939Y-101603D01*
X-56408Y-101603D01*
X-56877Y-101447D01*
X-57033Y-101291D01*
X-57189Y-100978D01*
X-53283Y-99260D02*
X-53283Y-101135D01*
X-54064Y-99728D02*
X-52502Y-100666D01*
X-52502Y-99728D02*
X-54064Y-100666D01*
X-51095Y-98947D02*
X-50783Y-98791D01*
X-50314Y-98322D01*
X-50314Y-101603D01*
X-48283Y-99103D02*
X-48283Y-98947D01*
X-48127Y-98635D01*
X-47970Y-98478D01*
X-47658Y-98322D01*
X-47033Y-98322D01*
X-46720Y-98478D01*
X-46564Y-98635D01*
X-46408Y-98947D01*
X-46408Y-99260D01*
X-46564Y-99572D01*
X-46877Y-100041D01*
X-48439Y-101603D01*
X-46252Y-101603D01*
X-42970Y-99103D02*
X-43127Y-98791D01*
X-43439Y-98478D01*
X-43752Y-98322D01*
X-44377Y-98322D01*
X-44689Y-98478D01*
X-45002Y-98791D01*
X-45158Y-99103D01*
X-45314Y-99572D01*
X-45314Y-100353D01*
X-45158Y-100822D01*
X-45002Y-101135D01*
X-44689Y-101447D01*
X-44377Y-101603D01*
X-43752Y-101603D01*
X-43439Y-101447D01*
X-43127Y-101135D01*
X-42970Y-100822D01*
X-41877Y-98322D02*
X-41877Y-101603D01*
X-41877Y-98322D02*
X-40627Y-101603D01*
X-39377Y-98322D02*
X-40627Y-101603D01*
X-39377Y-98322D02*
X-39377Y-101603D01*
X-30002Y-98322D02*
X-30002Y-101603D01*
X-31095Y-98322D02*
X-28908Y-98322D01*
X-28127Y-99728D02*
X-25314Y-99728D01*
X-28127Y-100666D02*
X-25314Y-100666D01*
X-23283Y-98322D02*
X-23752Y-98478D01*
X-24064Y-98947D01*
X-24220Y-99728D01*
X-24220Y-100197D01*
X-24064Y-100978D01*
X-23752Y-101447D01*
X-23283Y-101603D01*
X-22970Y-101603D01*
X-22502Y-101447D01*
X-22189Y-100978D01*
X-22033Y-100197D01*
X-22033Y-99728D01*
X-22189Y-98947D01*
X-22502Y-98478D01*
X-22970Y-98322D01*
X-23283Y-98322D01*
X-20783Y-101291D02*
X-20939Y-101447D01*
X-20783Y-101603D01*
X-20627Y-101447D01*
X-20783Y-101291D01*
X-19064Y-98947D02*
X-18752Y-98791D01*
X-18283Y-98322D01*
X-18283Y-101603D01*
X-14533Y-98322D02*
X-16095Y-98322D01*
X-16252Y-99728D01*
X-16095Y-99572D01*
X-15627Y-99416D01*
X-15158Y-99416D01*
X-14689Y-99572D01*
X-14377Y-99885D01*
X-14220Y-100353D01*
X-14220Y-100666D01*
X-14377Y-101135D01*
X-14689Y-101447D01*
X-15158Y-101603D01*
X-15627Y-101603D01*
X-16095Y-101447D01*
X-16252Y-101291D01*
X-16408Y-100978D01*
X-13127Y-98322D02*
X-13127Y-101603D01*
X-13127Y-98322D02*
X-11877Y-101603D01*
X-10627Y-98322D02*
X-11877Y-101603D01*
X-10627Y-98322D02*
X-10627Y-101603D01*
X-9377Y-98322D02*
X-9377Y-101603D01*
X-9377Y-98322D02*
X-8127Y-101603D01*
X-6877Y-98322D02*
X-8127Y-101603D01*
X-6877Y-98322D02*
X-6877Y-101603D01*
X-72189Y-104592D02*
X-72189Y-107873D01*
X-72189Y-104592D02*
X-71095Y-104592D01*
X-70627Y-104748D01*
X-70314Y-105061D01*
X-70158Y-105373D01*
X-70002Y-105842D01*
X-70002Y-106623D01*
X-70158Y-107092D01*
X-70314Y-107405D01*
X-70627Y-107717D01*
X-71095Y-107873D01*
X-72189Y-107873D01*
X-68127Y-104592D02*
X-69377Y-107873D01*
X-68127Y-104592D02*
X-66877Y-107873D01*
X-68908Y-106780D02*
X-67345Y-106780D01*
X-65470Y-104592D02*
X-65470Y-107873D01*
X-66564Y-104592D02*
X-64377Y-104592D01*
X-63595Y-104592D02*
X-63595Y-107873D01*
X-63595Y-104592D02*
X-61564Y-104592D01*
X-63595Y-106155D02*
X-62345Y-106155D01*
X-63595Y-107873D02*
X-61564Y-107873D01*
X-60470Y-105686D02*
X-60627Y-105842D01*
X-60470Y-105998D01*
X-60314Y-105842D01*
X-60470Y-105686D01*
X-60470Y-107561D02*
X-60627Y-107717D01*
X-60470Y-107873D01*
X-60314Y-107717D01*
X-60470Y-107561D01*
X-59064Y-105373D02*
X-59064Y-105217D01*
X-58908Y-104905D01*
X-58752Y-104748D01*
X-58439Y-104592D01*
X-57814Y-104592D01*
X-57502Y-104748D01*
X-57345Y-104905D01*
X-57189Y-105217D01*
X-57189Y-105530D01*
X-57345Y-105842D01*
X-57658Y-106311D01*
X-59220Y-107873D01*
X-57033Y-107873D01*
X-55158Y-104592D02*
X-55627Y-104748D01*
X-55939Y-105217D01*
X-56095Y-105998D01*
X-56095Y-106467D01*
X-55939Y-107248D01*
X-55627Y-107717D01*
X-55158Y-107873D01*
X-54845Y-107873D01*
X-54377Y-107717D01*
X-54064Y-107248D01*
X-53908Y-106467D01*
X-53908Y-105998D01*
X-54064Y-105217D01*
X-54377Y-104748D01*
X-54845Y-104592D01*
X-55158Y-104592D01*
X-52814Y-105373D02*
X-52814Y-105217D01*
X-52658Y-104905D01*
X-52502Y-104748D01*
X-52189Y-104592D01*
X-51564Y-104592D01*
X-51252Y-104748D01*
X-51095Y-104905D01*
X-50939Y-105217D01*
X-50939Y-105530D01*
X-51095Y-105842D01*
X-51408Y-106311D01*
X-52970Y-107873D01*
X-50783Y-107873D01*
X-48908Y-104592D02*
X-49377Y-104748D01*
X-49689Y-105217D01*
X-49845Y-105998D01*
X-49845Y-106467D01*
X-49689Y-107248D01*
X-49377Y-107717D01*
X-48908Y-107873D01*
X-48595Y-107873D01*
X-48127Y-107717D01*
X-47814Y-107248D01*
X-47658Y-106467D01*
X-47658Y-105998D01*
X-47814Y-105217D01*
X-48127Y-104748D01*
X-48595Y-104592D01*
X-48908Y-104592D01*
X-46564Y-106467D02*
X-43752Y-106467D01*
X-42189Y-105217D02*
X-41877Y-105061D01*
X-41408Y-104592D01*
X-41408Y-107873D01*
X-38595Y-104592D02*
X-39064Y-104748D01*
X-39377Y-105217D01*
X-39533Y-105998D01*
X-39533Y-106467D01*
X-39377Y-107248D01*
X-39064Y-107717D01*
X-38595Y-107873D01*
X-38283Y-107873D01*
X-37814Y-107717D01*
X-37502Y-107248D01*
X-37345Y-106467D01*
X-37345Y-105998D01*
X-37502Y-105217D01*
X-37814Y-104748D01*
X-38283Y-104592D01*
X-38595Y-104592D01*
X-36252Y-106467D02*
X-33439Y-106467D01*
X-31408Y-104592D02*
X-31877Y-104748D01*
X-32189Y-105217D01*
X-32345Y-105998D01*
X-32345Y-106467D01*
X-32189Y-107248D01*
X-31877Y-107717D01*
X-31408Y-107873D01*
X-31095Y-107873D01*
X-30627Y-107717D01*
X-30314Y-107248D01*
X-30158Y-106467D01*
X-30158Y-105998D01*
X-30314Y-105217D01*
X-30627Y-104748D01*
X-31095Y-104592D01*
X-31408Y-104592D01*
X-28752Y-105217D02*
X-28439Y-105061D01*
X-27970Y-104592D01*
X-27970Y-107873D01*
X-23439Y-105373D02*
X-23439Y-105217D01*
X-23283Y-104905D01*
X-23127Y-104748D01*
X-22814Y-104592D01*
X-22189Y-104592D01*
X-21877Y-104748D01*
X-21720Y-104905D01*
X-21564Y-105217D01*
X-21564Y-105530D01*
X-21720Y-105842D01*
X-22033Y-106311D01*
X-23595Y-107873D01*
X-21408Y-107873D01*
X-20314Y-105373D02*
X-20314Y-105217D01*
X-20158Y-104905D01*
X-20002Y-104748D01*
X-19689Y-104592D01*
X-19064Y-104592D01*
X-18752Y-104748D01*
X-18595Y-104905D01*
X-18439Y-105217D01*
X-18439Y-105530D01*
X-18595Y-105842D01*
X-18908Y-106311D01*
X-20470Y-107873D01*
X-18283Y-107873D01*
X-17033Y-105686D02*
X-17189Y-105842D01*
X-17033Y-105998D01*
X-16877Y-105842D01*
X-17033Y-105686D01*
X-17033Y-107561D02*
X-17189Y-107717D01*
X-17033Y-107873D01*
X-16877Y-107717D01*
X-17033Y-107561D01*
X-14845Y-104592D02*
X-15314Y-104748D01*
X-15627Y-105217D01*
X-15783Y-105998D01*
X-15783Y-106467D01*
X-15627Y-107248D01*
X-15314Y-107717D01*
X-14845Y-107873D01*
X-14533Y-107873D01*
X-14064Y-107717D01*
X-13752Y-107248D01*
X-13595Y-106467D01*
X-13595Y-105998D01*
X-13752Y-105217D01*
X-14064Y-104748D01*
X-14533Y-104592D01*
X-14845Y-104592D01*
X-11720Y-104592D02*
X-12189Y-104748D01*
X-12502Y-105217D01*
X-12658Y-105998D01*
X-12658Y-106467D01*
X-12502Y-107248D01*
X-12189Y-107717D01*
X-11720Y-107873D01*
X-11408Y-107873D01*
X-10939Y-107717D01*
X-10627Y-107248D01*
X-10470Y-106467D01*
X-10470Y-105998D01*
X-10627Y-105217D01*
X-10939Y-104748D01*
X-11408Y-104592D01*
X-11720Y-104592D01*
X-72189Y-110862D02*
X-72189Y-114143D01*
X-72189Y-110862D02*
X-70002Y-114143D01*
X-70002Y-110862D02*
X-70002Y-114143D01*
X-67970Y-110862D02*
X-68283Y-111018D01*
X-68595Y-111331D01*
X-68752Y-111643D01*
X-68908Y-112112D01*
X-68908Y-112893D01*
X-68752Y-113362D01*
X-68595Y-113675D01*
X-68283Y-113987D01*
X-67970Y-114143D01*
X-67345Y-114143D01*
X-67033Y-113987D01*
X-66720Y-113675D01*
X-66564Y-113362D01*
X-66408Y-112893D01*
X-66408Y-112112D01*
X-66564Y-111643D01*
X-66720Y-111331D01*
X-67033Y-111018D01*
X-67345Y-110862D01*
X-67970Y-110862D01*
X-65158Y-111956D02*
X-65314Y-112112D01*
X-65158Y-112268D01*
X-65002Y-112112D01*
X-65158Y-111956D01*
X-65158Y-113831D02*
X-65314Y-113987D01*
X-65158Y-114143D01*
X-65002Y-113987D01*
X-65158Y-113831D01*
X-61720Y-111331D02*
X-62033Y-111018D01*
X-62502Y-110862D01*
X-63127Y-110862D01*
X-63595Y-111018D01*
X-63908Y-111331D01*
X-63908Y-111643D01*
X-63752Y-111956D01*
X-63595Y-112112D01*
X-63283Y-112268D01*
X-62345Y-112581D01*
X-62033Y-112737D01*
X-61877Y-112893D01*
X-61720Y-113206D01*
X-61720Y-113675D01*
X-62033Y-113987D01*
X-62502Y-114143D01*
X-63127Y-114143D01*
X-63595Y-113987D01*
X-63908Y-113675D01*
X-59845Y-110862D02*
X-60158Y-111018D01*
X-60470Y-111331D01*
X-60627Y-111643D01*
X-60783Y-112112D01*
X-60783Y-112893D01*
X-60627Y-113362D01*
X-60470Y-113675D01*
X-60158Y-113987D01*
X-59845Y-114143D01*
X-59220Y-114143D01*
X-58908Y-113987D01*
X-58595Y-113675D01*
X-58439Y-113362D01*
X-58283Y-112893D01*
X-58283Y-112112D01*
X-58439Y-111643D01*
X-58595Y-111331D01*
X-58908Y-111018D01*
X-59220Y-110862D01*
X-59845Y-110862D01*
X-57189Y-111643D02*
X-57189Y-111487D01*
X-57033Y-111175D01*
X-56877Y-111018D01*
X-56564Y-110862D01*
X-55939Y-110862D01*
X-55627Y-111018D01*
X-55470Y-111175D01*
X-55314Y-111487D01*
X-55314Y-111800D01*
X-55470Y-112112D01*
X-55783Y-112581D01*
X-57345Y-114143D01*
X-55158Y-114143D01*
X-53283Y-110862D02*
X-53752Y-111018D01*
X-54064Y-111487D01*
X-54220Y-112268D01*
X-54220Y-112737D01*
X-54064Y-113518D01*
X-53752Y-113987D01*
X-53283Y-114143D01*
X-52970Y-114143D01*
X-52502Y-113987D01*
X-52189Y-113518D01*
X-52033Y-112737D01*
X-52033Y-112268D01*
X-52189Y-111487D01*
X-52502Y-111018D01*
X-52970Y-110862D01*
X-53283Y-110862D01*
X-50158Y-110862D02*
X-50627Y-111018D01*
X-50939Y-111487D01*
X-51095Y-112268D01*
X-51095Y-112737D01*
X-50939Y-113518D01*
X-50627Y-113987D01*
X-50158Y-114143D01*
X-49845Y-114143D01*
X-49377Y-113987D01*
X-49064Y-113518D01*
X-48908Y-112737D01*
X-48908Y-112268D01*
X-49064Y-111487D01*
X-49377Y-111018D01*
X-49845Y-110862D01*
X-50158Y-110862D01*
X-45939Y-111956D02*
X-46095Y-112425D01*
X-46408Y-112737D01*
X-46877Y-112893D01*
X-47033Y-112893D01*
X-47502Y-112737D01*
X-47814Y-112425D01*
X-47970Y-111956D01*
X-47970Y-111800D01*
X-47814Y-111331D01*
X-47502Y-111018D01*
X-47033Y-110862D01*
X-46877Y-110862D01*
X-46408Y-111018D01*
X-46095Y-111331D01*
X-45939Y-111956D01*
X-45939Y-112737D01*
X-46095Y-113518D01*
X-46408Y-113987D01*
X-46877Y-114143D01*
X-47189Y-114143D01*
X-47658Y-113987D01*
X-47814Y-113675D01*
X-44533Y-110862D02*
X-42814Y-110862D01*
X-43752Y-112112D01*
X-43283Y-112112D01*
X-42970Y-112268D01*
X-42814Y-112425D01*
X-42658Y-112893D01*
X-42658Y-113206D01*
X-42814Y-113675D01*
X-43127Y-113987D01*
X-43595Y-114143D01*
X-44064Y-114143D01*
X-44533Y-113987D01*
X-44689Y-113831D01*
X-44845Y-113518D01*
X-40783Y-110862D02*
X-41252Y-111018D01*
X-41564Y-111487D01*
X-41720Y-112268D01*
X-41720Y-112737D01*
X-41564Y-113518D01*
X-41252Y-113987D01*
X-40783Y-114143D01*
X-40470Y-114143D01*
X-40002Y-113987D01*
X-39689Y-113518D01*
X-39533Y-112737D01*
X-39533Y-112268D01*
X-39689Y-111487D01*
X-40002Y-111018D01*
X-40470Y-110862D01*
X-40783Y-110862D01*
X-36564Y-111331D02*
X-36720Y-111018D01*
X-37189Y-110862D01*
X-37502Y-110862D01*
X-37970Y-111018D01*
X-38283Y-111487D01*
X-38439Y-112268D01*
X-38439Y-113050D01*
X-38283Y-113675D01*
X-37970Y-113987D01*
X-37502Y-114143D01*
X-37345Y-114143D01*
X-36877Y-113987D01*
X-36564Y-113675D01*
X-36408Y-113206D01*
X-36408Y-113050D01*
X-36564Y-112581D01*
X-36877Y-112268D01*
X-37345Y-112112D01*
X-37502Y-112112D01*
X-37970Y-112268D01*
X-38283Y-112581D01*
X-38439Y-113050D01*
X-35002Y-111487D02*
X-34689Y-111331D01*
X-34220Y-110862D01*
X-34220Y-114143D01*
X-32033Y-110862D02*
X-30314Y-110862D01*
X-31252Y-112112D01*
X-30783Y-112112D01*
X-30470Y-112268D01*
X-30314Y-112425D01*
X-30158Y-112893D01*
X-30158Y-113206D01*
X-30314Y-113675D01*
X-30627Y-113987D01*
X-31095Y-114143D01*
X-31564Y-114143D01*
X-32033Y-113987D01*
X-32189Y-113831D01*
X-32345Y-113518D01*
X-27658Y-110862D02*
X-29220Y-113050D01*
X-26877Y-113050D01*
X-27658Y-110862D02*
X-27658Y-114143D01*
X-15939Y-111643D02*
X-15939Y-111487D01*
X-15783Y-111175D01*
X-15627Y-111018D01*
X-15314Y-110862D01*
X-14689Y-110862D01*
X-14377Y-111018D01*
X-14220Y-111175D01*
X-14064Y-111487D01*
X-14064Y-111800D01*
X-14220Y-112112D01*
X-14533Y-112581D01*
X-16095Y-114143D01*
X-13908Y-114143D01*
X-12658Y-110862D02*
X-10939Y-110862D01*
X-11877Y-112112D01*
X-11408Y-112112D01*
X-11095Y-112268D01*
X-10939Y-112425D01*
X-10783Y-112893D01*
X-10783Y-113206D01*
X-10939Y-113675D01*
X-11252Y-113987D01*
X-11720Y-114143D01*
X-12189Y-114143D01*
X-12658Y-113987D01*
X-12814Y-113831D01*
X-12970Y-113518D01*
X-7814Y-111331D02*
X-7970Y-111018D01*
X-8439Y-110862D01*
X-8752Y-110862D01*
X-9220Y-111018D01*
X-9533Y-111487D01*
X-9689Y-112268D01*
X-9689Y-113050D01*
X-9533Y-113675D01*
X-9220Y-113987D01*
X-8752Y-114143D01*
X-8595Y-114143D01*
X-8127Y-113987D01*
X-7814Y-113675D01*
X-7658Y-113206D01*
X-7658Y-113050D01*
X-7814Y-112581D01*
X-8127Y-112268D01*
X-8595Y-112112D01*
X-8752Y-112112D01*
X-9220Y-112268D01*
X-9533Y-112581D01*
X-9689Y-113050D01*
X-4533Y-110862D02*
X-6095Y-114143D01*
X-6720Y-110862D02*
X-4533Y-110862D01*
X-2814Y-110862D02*
X-3283Y-111018D01*
X-3439Y-111331D01*
X-3439Y-111643D01*
X-3283Y-111956D01*
X-2970Y-112112D01*
X-2345Y-112268D01*
X-1877Y-112425D01*
X-1564Y-112737D01*
X-1408Y-113050D01*
X-1408Y-113518D01*
X-1564Y-113831D01*
X-1720Y-113987D01*
X-2189Y-114143D01*
X-2814Y-114143D01*
X-3283Y-113987D01*
X-3439Y-113831D01*
X-3595Y-113518D01*
X-3595Y-113050D01*
X-3439Y-112737D01*
X-3127Y-112425D01*
X-2658Y-112268D01*
X-2033Y-112112D01*
X-1720Y-111956D01*
X-1564Y-111643D01*
X-1564Y-111331D01*
X-1720Y-111018D01*
X-2189Y-110862D01*
X-2814Y-110862D01*
X1561Y-111331D02*
X1405Y-111018D01*
X936Y-110862D01*
X623Y-110862D01*
X155Y-111018D01*
X-158Y-111487D01*
X-314Y-112268D01*
X-314Y-113050D01*
X-158Y-113675D01*
X155Y-113987D01*
X623Y-114143D01*
X780Y-114143D01*
X1248Y-113987D01*
X1561Y-113675D01*
X1717Y-113206D01*
X1717Y-113050D01*
X1561Y-112581D01*
X1248Y-112268D01*
X780Y-112112D01*
X623Y-112112D01*
X155Y-112268D01*
X-158Y-112581D01*
X-314Y-113050D01*
X4686Y-111956D02*
X4530Y-112425D01*
X4217Y-112737D01*
X3748Y-112893D01*
X3592Y-112893D01*
X3123Y-112737D01*
X2811Y-112425D01*
X2655Y-111956D01*
X2655Y-111800D01*
X2811Y-111331D01*
X3123Y-111018D01*
X3592Y-110862D01*
X3748Y-110862D01*
X4217Y-111018D01*
X4530Y-111331D01*
X4686Y-111956D01*
X4686Y-112737D01*
X4530Y-113518D01*
X4217Y-113987D01*
X3748Y-114143D01*
X3436Y-114143D01*
X2967Y-113987D01*
X2811Y-113675D01*
X6717Y-110862D02*
X5467Y-114143D01*
X6717Y-110862D02*
X7967Y-114143D01*
X5936Y-113050D02*
X7498Y-113050D01*
X9842Y-110237D02*
X9530Y-110550D01*
X9217Y-111018D01*
X8905Y-111643D01*
X8748Y-112425D01*
X8748Y-113050D01*
X8905Y-113831D01*
X9217Y-114456D01*
X9530Y-114925D01*
X9842Y-115237D01*
X10780Y-110237D02*
X11092Y-110550D01*
X11405Y-111018D01*
X11717Y-111643D01*
X11873Y-112425D01*
X11873Y-113050D01*
X11717Y-113831D01*
X11405Y-114456D01*
X11092Y-114925D01*
X10780Y-115237D01*
X-71252Y-120257D02*
X-71252Y-116976D01*
X-71252Y-116976D02*
X-71252Y-116663D01*
X-70470Y-116663D01*
X-71252Y-120257D02*
X-71252Y-120570D01*
X-70470Y-120570D01*
X-69220Y-116976D02*
X-69220Y-120257D01*
X-69220Y-116976D02*
X-69220Y-116663D01*
X-70002Y-116663D01*
X-69220Y-120257D02*
X-69220Y-120570D01*
X-70002Y-120570D01*
G54D18*
X-61467Y-127321D02*
X-61467Y-122113D01*
X-59715Y-122113D01*
X-59715Y-122368D01*
X-61162Y-122368D01*
X-61162Y-127067D01*
X-59715Y-127067D01*
X-59715Y-127321D01*
X-61467Y-127321D01*
X-32850Y-127343D02*
X-34197Y-127343D01*
X-34197Y-127140D01*
X-33054Y-127140D01*
X-33054Y-122567D01*
X-34197Y-122567D01*
X-34197Y-122390D01*
X-32850Y-122390D01*
X-32850Y-127343D01*
G36*
G01X-38868Y-122149D02*
X-38909Y-122218D01*
X-38829Y-122318D01*
X-38756Y-122415D01*
X-38690Y-122513D01*
X-38630Y-122611D01*
X-38578Y-122707D01*
X-38532Y-122804D01*
X-38493Y-122899D01*
X-38457Y-122985D01*
X-38422Y-123052D01*
X-38388Y-123100D01*
X-38354Y-123131D01*
X-38321Y-123141D01*
X-38288Y-123133D01*
X-38256Y-123108D01*
X-38223Y-123074D01*
X-38194Y-123041D01*
X-38170Y-123005D01*
X-38150Y-122966D01*
X-38135Y-122927D01*
X-38124Y-122886D01*
X-38118Y-122844D01*
X-38122Y-122799D01*
X-38136Y-122754D01*
X-38158Y-122707D01*
X-38190Y-122660D01*
X-38231Y-122611D01*
X-38281Y-122561D01*
X-38340Y-122511D01*
X-38405Y-122455D01*
X-38474Y-122401D01*
X-38546Y-122348D01*
X-38621Y-122297D01*
X-38700Y-122247D01*
X-38782Y-122198D01*
X-38868Y-122149D01*
G37*
G36*
G01X-55895Y-122468D02*
X-56409Y-122190D01*
X-56442Y-122375D01*
X-56485Y-122572D01*
X-56538Y-122782D01*
X-56602Y-123005D01*
X-56676Y-123239D01*
X-56760Y-123486D01*
X-56854Y-123747D01*
X-56958Y-124002D01*
X-57066Y-124242D01*
X-57176Y-124469D01*
X-57289Y-124681D01*
X-57405Y-124879D01*
X-57524Y-125063D01*
X-57645Y-125233D01*
X-57590Y-125302D01*
X-57490Y-125202D01*
X-57388Y-125092D01*
X-57285Y-124971D01*
X-57179Y-124840D01*
X-57073Y-124699D01*
X-56964Y-124547D01*
X-56854Y-124386D01*
X-56748Y-124487D01*
X-56652Y-124583D01*
X-56566Y-124675D01*
X-56491Y-124762D01*
X-56426Y-124845D01*
X-56371Y-124923D01*
X-56326Y-124997D01*
X-56291Y-125060D01*
X-56258Y-125106D01*
X-56226Y-125135D01*
X-56197Y-125147D01*
X-56169Y-125141D01*
X-56142Y-125119D01*
X-56118Y-125080D01*
X-56093Y-125029D01*
X-56073Y-124977D01*
X-56060Y-124925D01*
X-56052Y-124874D01*
X-56050Y-124822D01*
X-56053Y-124771D01*
X-56062Y-124719D01*
X-56091Y-124666D01*
X-56146Y-124611D01*
X-56227Y-124554D01*
X-56334Y-124495D01*
X-56467Y-124433D01*
X-56627Y-124369D01*
X-56812Y-124302D01*
X-56761Y-124213D01*
X-56710Y-124119D01*
X-56660Y-124020D01*
X-56610Y-123917D01*
X-56561Y-123809D01*
X-56513Y-123697D01*
X-56465Y-123580D01*
X-55465Y-123580D01*
X-55541Y-123896D01*
X-55627Y-124199D01*
X-55722Y-124491D01*
X-55828Y-124771D01*
X-55942Y-125039D01*
X-56067Y-125294D01*
X-56201Y-125539D01*
X-56347Y-125776D01*
X-56514Y-126005D01*
X-56703Y-126224D01*
X-56913Y-126434D01*
X-57145Y-126635D01*
X-57398Y-126828D01*
X-57673Y-127011D01*
X-57631Y-127080D01*
X-57413Y-126975D01*
X-57204Y-126858D01*
X-57003Y-126729D01*
X-56811Y-126588D01*
X-56627Y-126435D01*
X-56451Y-126271D01*
X-56284Y-126094D01*
X-56127Y-125909D01*
X-55980Y-125710D01*
X-55845Y-125497D01*
X-55720Y-125271D01*
X-55605Y-125031D01*
X-55502Y-124778D01*
X-55409Y-124511D01*
X-55320Y-124260D01*
X-55235Y-124049D01*
X-55153Y-123877D01*
X-55076Y-123744D01*
X-55002Y-123650D01*
X-54933Y-123595D01*
X-54868Y-123580D01*
X-55312Y-123218D01*
X-55479Y-123455D01*
X-56409Y-123455D01*
X-56361Y-123325D01*
X-56313Y-123196D01*
X-56264Y-123069D01*
X-56214Y-122944D01*
X-56164Y-122822D01*
X-56113Y-122700D01*
X-56062Y-122579D01*
X-55895Y-122468D01*
G37*
G36*
G01X-54173Y-126164D02*
X-54173Y-124233D01*
X-53973Y-124362D01*
X-53792Y-124488D01*
X-53631Y-124611D01*
X-53491Y-124730D01*
X-53370Y-124845D01*
X-53268Y-124957D01*
X-53187Y-125066D01*
X-53116Y-125159D01*
X-53052Y-125222D01*
X-52997Y-125255D01*
X-52949Y-125259D01*
X-52909Y-125234D01*
X-52877Y-125179D01*
X-52854Y-125094D01*
X-52841Y-124998D01*
X-52845Y-124909D01*
X-52863Y-124827D01*
X-52897Y-124752D01*
X-52946Y-124683D01*
X-53010Y-124621D01*
X-53090Y-124566D01*
X-53187Y-124513D01*
X-53303Y-124456D01*
X-53438Y-124396D01*
X-53593Y-124333D01*
X-53767Y-124266D01*
X-53961Y-124196D01*
X-54173Y-124122D01*
X-54173Y-122607D01*
X-53965Y-122427D01*
X-54506Y-122190D01*
X-54499Y-122284D01*
X-54493Y-122391D01*
X-54488Y-122508D01*
X-54484Y-122639D01*
X-54481Y-122783D01*
X-54479Y-122939D01*
X-54479Y-123108D01*
X-54479Y-126275D01*
X-54479Y-126427D01*
X-54481Y-126574D01*
X-54484Y-126716D01*
X-54488Y-126853D01*
X-54493Y-126985D01*
X-54499Y-127111D01*
X-54506Y-127233D01*
X-54159Y-127080D01*
X-54163Y-126980D01*
X-54166Y-126869D01*
X-54169Y-126749D01*
X-54171Y-126618D01*
X-54172Y-126476D01*
X-54173Y-126325D01*
X-54173Y-126164D01*
G37*
G36*
G01X-47645Y-122649D02*
X-49687Y-122649D01*
X-49493Y-122844D01*
X-49424Y-122826D01*
X-49354Y-122809D01*
X-49283Y-122796D01*
X-49209Y-122786D01*
X-49134Y-122779D01*
X-49057Y-122776D01*
X-48979Y-122774D01*
X-48840Y-122774D01*
X-48913Y-123087D01*
X-49020Y-123376D01*
X-49162Y-123641D01*
X-49339Y-123881D01*
X-49550Y-124097D01*
X-49796Y-124288D01*
X-50076Y-124455D01*
X-50034Y-124511D01*
X-49691Y-124363D01*
X-49391Y-124182D01*
X-49135Y-123967D01*
X-48923Y-123719D01*
X-48754Y-123437D01*
X-48629Y-123123D01*
X-48548Y-122774D01*
X-47631Y-122774D01*
X-47651Y-122942D01*
X-47670Y-123096D01*
X-47688Y-123236D01*
X-47706Y-123364D01*
X-47724Y-123477D01*
X-47740Y-123576D01*
X-47756Y-123664D01*
X-47778Y-123734D01*
X-47804Y-123794D01*
X-47834Y-123844D01*
X-47868Y-123883D01*
X-47905Y-123913D01*
X-47947Y-123932D01*
X-47993Y-123941D01*
X-48042Y-123943D01*
X-48101Y-123940D01*
X-48172Y-123933D01*
X-48253Y-123921D01*
X-48345Y-123904D01*
X-48448Y-123883D01*
X-48562Y-123858D01*
X-48590Y-123955D01*
X-48450Y-124005D01*
X-48331Y-124058D01*
X-48234Y-124116D01*
X-48159Y-124177D01*
X-48105Y-124243D01*
X-48073Y-124312D01*
X-48062Y-124386D01*
X-47968Y-124352D01*
X-47883Y-124313D01*
X-47808Y-124270D01*
X-47742Y-124222D01*
X-47686Y-124170D01*
X-47640Y-124114D01*
X-47604Y-124052D01*
X-47567Y-123977D01*
X-47530Y-123869D01*
X-47491Y-123728D01*
X-47452Y-123555D01*
X-47411Y-123351D01*
X-47369Y-123114D01*
X-47326Y-122844D01*
X-47131Y-122732D01*
X-47479Y-122427D01*
X-47645Y-122649D01*
G37*
G36*
G01X-50062Y-123580D02*
X-51145Y-123927D01*
X-51145Y-122844D01*
X-51023Y-122818D01*
X-50902Y-122791D01*
X-50781Y-122761D01*
X-50662Y-122731D01*
X-50544Y-122696D01*
X-50428Y-122660D01*
X-50312Y-122621D01*
X-50200Y-122581D01*
X-50095Y-122548D01*
X-49997Y-122523D01*
X-49906Y-122505D01*
X-49822Y-122495D01*
X-49744Y-122492D01*
X-49673Y-122496D01*
X-50020Y-122122D01*
X-50071Y-122176D01*
X-50126Y-122229D01*
X-50186Y-122280D01*
X-50252Y-122329D01*
X-50322Y-122377D01*
X-50398Y-122424D01*
X-50479Y-122468D01*
X-50564Y-122512D01*
X-50652Y-122552D01*
X-50744Y-122592D01*
X-50839Y-122629D01*
X-50938Y-122665D01*
X-51040Y-122700D01*
X-51145Y-122732D01*
X-51451Y-122525D01*
X-51444Y-122620D01*
X-51437Y-122745D01*
X-51432Y-122894D01*
X-51428Y-123070D01*
X-51425Y-123273D01*
X-51424Y-123504D01*
X-51423Y-123761D01*
X-51422Y-123818D01*
X-51425Y-123872D01*
X-51434Y-123921D01*
X-51448Y-123967D01*
X-51467Y-124009D01*
X-51491Y-124046D01*
X-51520Y-124080D01*
X-51270Y-124400D01*
X-51212Y-124341D01*
X-51147Y-124283D01*
X-51076Y-124226D01*
X-50998Y-124171D01*
X-50915Y-124116D01*
X-50825Y-124063D01*
X-50729Y-124011D01*
X-50626Y-123956D01*
X-50523Y-123903D01*
X-50422Y-123852D01*
X-50321Y-123802D01*
X-50220Y-123754D01*
X-50120Y-123708D01*
X-50020Y-123664D01*
X-50001Y-123703D01*
X-49982Y-123744D01*
X-49963Y-123785D01*
X-49946Y-123827D01*
X-49928Y-123869D01*
X-49912Y-123912D01*
X-49895Y-123955D01*
X-49877Y-123991D01*
X-49856Y-124012D01*
X-49830Y-124017D01*
X-49800Y-124007D01*
X-49766Y-123982D01*
X-49729Y-123942D01*
X-49687Y-123886D01*
X-49651Y-123823D01*
X-49629Y-123760D01*
X-49622Y-123698D01*
X-49630Y-123636D01*
X-49653Y-123575D01*
X-49690Y-123514D01*
X-49743Y-123455D01*
X-49807Y-123391D01*
X-49883Y-123326D01*
X-49970Y-123262D01*
X-50067Y-123196D01*
X-50175Y-123131D01*
X-50294Y-123064D01*
X-50423Y-122997D01*
X-50479Y-123038D01*
X-50395Y-123127D01*
X-50320Y-123212D01*
X-50252Y-123293D01*
X-50193Y-123371D01*
X-50141Y-123445D01*
X-50098Y-123514D01*
X-50062Y-123580D01*
G37*
G36*
G01X-47936Y-125080D02*
X-47937Y-124844D01*
X-47756Y-124705D01*
X-48090Y-124427D01*
X-48256Y-124650D01*
X-50604Y-124650D01*
X-50909Y-124497D01*
X-50902Y-124631D01*
X-50896Y-124766D01*
X-50891Y-124899D01*
X-50887Y-125032D01*
X-50884Y-125164D01*
X-50882Y-125296D01*
X-50881Y-125427D01*
X-50882Y-125558D01*
X-50884Y-125687D01*
X-50887Y-125815D01*
X-50891Y-125942D01*
X-50896Y-126068D01*
X-50902Y-126193D01*
X-50909Y-126316D01*
X-50604Y-126164D01*
X-50604Y-124775D01*
X-48215Y-124775D01*
X-48215Y-126233D01*
X-47909Y-126094D01*
X-47917Y-125973D01*
X-47923Y-125833D01*
X-47928Y-125674D01*
X-47932Y-125495D01*
X-47935Y-125298D01*
X-47936Y-125080D01*
G37*
G36*
G01X-49062Y-125205D02*
X-49604Y-124955D01*
X-49607Y-125119D01*
X-49615Y-125276D01*
X-49629Y-125427D01*
X-49649Y-125572D01*
X-49675Y-125711D01*
X-49706Y-125843D01*
X-49743Y-125969D01*
X-49788Y-126089D01*
X-49845Y-126203D01*
X-49913Y-126310D01*
X-49992Y-126411D01*
X-50083Y-126506D01*
X-50185Y-126595D01*
X-50298Y-126677D01*
X-50429Y-126752D01*
X-50585Y-126825D01*
X-50765Y-126896D01*
X-50969Y-126965D01*
X-51198Y-127033D01*
X-51451Y-127099D01*
X-51729Y-127164D01*
X-51715Y-127233D01*
X-51490Y-127210D01*
X-51275Y-127181D01*
X-51070Y-127145D01*
X-50876Y-127104D01*
X-50692Y-127056D01*
X-50518Y-127002D01*
X-50354Y-126941D01*
X-50202Y-126878D01*
X-50063Y-126806D01*
X-49939Y-126727D01*
X-49828Y-126640D01*
X-49730Y-126544D01*
X-49646Y-126441D01*
X-49576Y-126330D01*
X-49512Y-126211D01*
X-49456Y-126085D01*
X-49407Y-125952D01*
X-49365Y-125811D01*
X-49331Y-125663D01*
X-49304Y-125507D01*
X-49284Y-125344D01*
X-49062Y-125205D01*
G37*
G36*
G01X-49256Y-126094D02*
X-49284Y-126191D01*
X-49136Y-126247D01*
X-48993Y-126305D01*
X-48855Y-126363D01*
X-48722Y-126423D01*
X-48594Y-126483D01*
X-48471Y-126545D01*
X-48354Y-126608D01*
X-48242Y-126672D01*
X-48136Y-126737D01*
X-48037Y-126804D01*
X-47943Y-126871D01*
X-47856Y-126940D01*
X-47775Y-127009D01*
X-47701Y-127080D01*
X-47631Y-127140D01*
X-47571Y-127178D01*
X-47521Y-127192D01*
X-47481Y-127184D01*
X-47451Y-127154D01*
X-47432Y-127101D01*
X-47423Y-127025D01*
X-47427Y-126936D01*
X-47448Y-126853D01*
X-47485Y-126776D01*
X-47539Y-126705D01*
X-47609Y-126639D01*
X-47695Y-126579D01*
X-47798Y-126525D01*
X-47927Y-126472D01*
X-48082Y-126416D01*
X-48263Y-126357D01*
X-48472Y-126296D01*
X-48707Y-126231D01*
X-48968Y-126164D01*
X-49256Y-126094D01*
G37*
G36*
G01X-43480Y-126595D02*
X-43659Y-126580D01*
X-43659Y-126691D01*
X-43497Y-126721D01*
X-43352Y-126764D01*
X-43224Y-126819D01*
X-43113Y-126886D01*
X-43019Y-126966D01*
X-42942Y-127059D01*
X-42881Y-127164D01*
X-42817Y-127131D01*
X-42758Y-127099D01*
X-42705Y-127066D01*
X-42657Y-127032D01*
X-42615Y-126998D01*
X-42579Y-126963D01*
X-42548Y-126927D01*
X-42522Y-126893D01*
X-42501Y-126854D01*
X-42483Y-126809D01*
X-42469Y-126760D01*
X-42459Y-126705D01*
X-42453Y-126645D01*
X-42451Y-126580D01*
X-42451Y-123010D01*
X-41062Y-123010D01*
X-41451Y-122607D01*
X-41729Y-122885D01*
X-44298Y-122885D01*
X-44104Y-123079D01*
X-44034Y-123061D01*
X-43968Y-123046D01*
X-43905Y-123033D01*
X-43845Y-123023D01*
X-43789Y-123015D01*
X-43736Y-123011D01*
X-43687Y-123010D01*
X-42770Y-123010D01*
X-42770Y-126441D01*
X-42773Y-126489D01*
X-42779Y-126531D01*
X-42791Y-126565D01*
X-42807Y-126593D01*
X-42827Y-126614D01*
X-42852Y-126628D01*
X-42881Y-126636D01*
X-42925Y-126635D01*
X-42990Y-126631D01*
X-43079Y-126626D01*
X-43190Y-126618D01*
X-43324Y-126607D01*
X-43480Y-126595D01*
G37*
G36*
G01X-43840Y-125205D02*
X-44812Y-126191D01*
X-44812Y-124191D01*
X-44618Y-124039D01*
X-44923Y-123733D01*
X-45159Y-123969D01*
X-46048Y-123969D01*
X-45854Y-124164D01*
X-45785Y-124149D01*
X-45715Y-124136D01*
X-45644Y-124126D01*
X-45570Y-124118D01*
X-45495Y-124112D01*
X-45418Y-124109D01*
X-45340Y-124108D01*
X-45118Y-124108D01*
X-45118Y-126094D01*
X-45119Y-126163D01*
X-45124Y-126228D01*
X-45133Y-126288D01*
X-45145Y-126344D01*
X-45160Y-126395D01*
X-45179Y-126441D01*
X-45201Y-126483D01*
X-44881Y-126816D01*
X-44834Y-126727D01*
X-44781Y-126634D01*
X-44720Y-126537D01*
X-44652Y-126435D01*
X-44578Y-126330D01*
X-44497Y-126221D01*
X-44409Y-126108D01*
X-44321Y-125993D01*
X-44232Y-125878D01*
X-44142Y-125763D01*
X-44051Y-125648D01*
X-43959Y-125533D01*
X-43865Y-125417D01*
X-43770Y-125302D01*
X-43840Y-125205D01*
G37*
G36*
G01X-45437Y-122301D02*
X-45493Y-122386D01*
X-45402Y-122483D01*
X-45320Y-122581D01*
X-45248Y-122678D01*
X-45184Y-122772D01*
X-45130Y-122867D01*
X-45084Y-122961D01*
X-45048Y-123051D01*
X-45016Y-123132D01*
X-44985Y-123195D01*
X-44953Y-123244D01*
X-44921Y-123279D01*
X-44889Y-123298D01*
X-44858Y-123301D01*
X-44826Y-123289D01*
X-44792Y-123266D01*
X-44762Y-123239D01*
X-44737Y-123208D01*
X-44715Y-123172D01*
X-44697Y-123132D01*
X-44683Y-123087D01*
X-44673Y-123038D01*
X-44670Y-122990D01*
X-44675Y-122942D01*
X-44690Y-122893D01*
X-44714Y-122844D01*
X-44747Y-122792D01*
X-44789Y-122742D01*
X-44840Y-122691D01*
X-44900Y-122642D01*
X-44968Y-122592D01*
X-45045Y-122538D01*
X-45130Y-122482D01*
X-45224Y-122424D01*
X-45326Y-122364D01*
X-45437Y-122301D01*
G37*
X-22722Y-127279D02*
X-22722Y-125120D01*
X-22722Y-123063D01*
X-22443Y-123240D01*
X-20741Y-123240D01*
X-20563Y-123063D01*
X-20309Y-123317D01*
X-20436Y-123418D01*
X-20436Y-126822D01*
X-20512Y-127076D01*
X-20817Y-127279D01*
X-21351Y-126873D01*
X-21351Y-126796D01*
X-20792Y-126847D01*
X-20716Y-126746D01*
X-20716Y-123342D01*
X-22443Y-123342D01*
X-22443Y-126492D01*
X-22443Y-127127D01*
X-22722Y-127279D01*
X-22290Y-123875D02*
X-21554Y-124663D01*
X-21300Y-123621D01*
X-20919Y-123850D01*
X-21046Y-123977D01*
X-21376Y-124891D01*
X-20995Y-125501D01*
X-20868Y-125857D01*
X-20970Y-126060D01*
X-21173Y-125857D01*
X-21503Y-125171D01*
X-22341Y-126288D01*
X-22392Y-126238D01*
X-21655Y-124917D01*
X-22341Y-123926D01*
X-22290Y-123875D01*
X-23687Y-126593D02*
X-22849Y-126009D01*
X-22798Y-126060D01*
X-23814Y-127101D01*
X-24043Y-126822D01*
X-23967Y-126517D01*
X-23967Y-125476D01*
X-24119Y-125476D01*
X-24602Y-125526D01*
X-24780Y-125349D01*
X-23967Y-125349D01*
X-23967Y-124561D01*
X-24348Y-124561D01*
X-24780Y-125044D01*
X-24830Y-124993D01*
X-23916Y-122809D01*
X-23535Y-123037D01*
X-23687Y-123164D01*
X-23916Y-123672D01*
X-23281Y-123672D01*
X-23052Y-123469D01*
X-22748Y-123799D01*
X-23941Y-123799D01*
X-24297Y-124434D01*
X-23408Y-124434D01*
X-23230Y-124256D01*
X-22925Y-124561D01*
X-23687Y-124561D01*
X-23687Y-125349D01*
X-23281Y-125349D01*
X-23052Y-125120D01*
X-22748Y-125476D01*
X-23687Y-125476D01*
X-23687Y-126593D01*
X-17922Y-124383D02*
X-17947Y-125222D01*
X-16296Y-125222D01*
X-16169Y-125018D01*
X-15839Y-125272D01*
X-15991Y-125399D01*
X-15966Y-127203D01*
X-16296Y-127355D01*
X-16271Y-125349D01*
X-17947Y-125349D01*
X-19115Y-127254D01*
X-19141Y-127177D01*
X-18404Y-126060D01*
X-18201Y-124510D01*
X-18201Y-123012D01*
X-17744Y-123240D01*
X-17922Y-123393D01*
X-17922Y-124256D01*
X-16575Y-124256D01*
X-16601Y-122758D01*
X-16144Y-122986D01*
X-16296Y-123139D01*
X-16296Y-124256D01*
X-15483Y-124256D01*
X-15178Y-123977D01*
X-14848Y-124383D01*
X-17922Y-124383D01*
X-26247Y-122604D02*
X-26247Y-122782D01*
X-27364Y-122782D01*
X-27364Y-127354D01*
X-26247Y-127354D01*
X-26247Y-127557D01*
X-27567Y-127557D01*
X-27567Y-122604D01*
X-26247Y-122604D01*
X-11473Y-127481D02*
X-12819Y-127481D01*
X-12819Y-127278D01*
X-11701Y-127278D01*
X-11701Y-122706D01*
X-12819Y-122706D01*
X-12819Y-122528D01*
X-11473Y-122528D01*
X-11473Y-127481D01*
G36*
G01X-10127Y-28608D02*
X-10752Y-28608D01*
X-10752Y-29458D01*
X-10127Y-29458D01*
X-10127Y-28608D01*
G37*
G36*
G01X-8702Y-28608D02*
X-9327Y-28608D01*
X-9327Y-29458D01*
X-8702Y-29458D01*
X-8702Y-28608D01*
G37*
G36*
G01X-18446Y-28708D02*
X-19296Y-28708D01*
X-19296Y-29333D01*
X-18446Y-29333D01*
X-18446Y-28708D01*
G37*
G36*
G01X-25334Y-28708D02*
X-26184Y-28708D01*
X-26184Y-29333D01*
X-25334Y-29333D01*
X-25334Y-28708D01*
G37*
G36*
G01X-24218Y-28593D02*
G75*
G03X-24378Y-28433I-160J0D01*
G74*
G01*
G75*
G03X-24538Y-28593I0J-160D01*
G74*
G01*
X-24538Y-29473D01*
G75*
G03X-24378Y-29633I160J0D01*
G74*
G01*
G75*
G03X-24218Y-29473I0J160D01*
G74*
G01*
X-24218Y-28593D01*
G37*
G36*
G01X-23568Y-28593D02*
G75*
G03X-23728Y-28433I-160J0D01*
G74*
G01*
G75*
G03X-23888Y-28593I0J-160D01*
G74*
G01*
X-23888Y-29473D01*
G75*
G03X-23728Y-29633I160J0D01*
G74*
G01*
G75*
G03X-23568Y-29473I0J160D01*
G74*
G01*
X-23568Y-28593D01*
G37*
G36*
G01X-22918Y-28593D02*
G75*
G03X-23078Y-28433I-160J0D01*
G74*
G01*
G75*
G03X-23238Y-28593I0J-160D01*
G74*
G01*
X-23238Y-29473D01*
G75*
G03X-23078Y-29633I160J0D01*
G74*
G01*
G75*
G03X-22918Y-29473I0J160D01*
G74*
G01*
X-22918Y-28593D01*
G37*
G36*
G01X-22268Y-28593D02*
G75*
G03X-22428Y-28433I-160J0D01*
G74*
G01*
G75*
G03X-22588Y-28593I0J-160D01*
G74*
G01*
X-22588Y-29473D01*
G75*
G03X-22428Y-29633I160J0D01*
G74*
G01*
G75*
G03X-22268Y-29473I0J160D01*
G74*
G01*
X-22268Y-28593D01*
G37*
G36*
G01X-21618Y-28593D02*
G75*
G03X-21778Y-28433I-160J0D01*
G74*
G01*
G75*
G03X-21938Y-28593I0J-160D01*
G74*
G01*
X-21938Y-29473D01*
G75*
G03X-21778Y-29633I160J0D01*
G74*
G01*
G75*
G03X-21618Y-29473I0J160D01*
G74*
G01*
X-21618Y-28593D01*
G37*
G36*
G01X-20968Y-28593D02*
G75*
G03X-21128Y-28433I-160J0D01*
G74*
G01*
G75*
G03X-21288Y-28593I0J-160D01*
G74*
G01*
X-21288Y-29473D01*
G75*
G03X-21128Y-29633I160J0D01*
G74*
G01*
G75*
G03X-20968Y-29473I0J160D01*
G74*
G01*
X-20968Y-28593D01*
G37*
G36*
G01X-20318Y-28593D02*
G75*
G03X-20478Y-28433I-160J0D01*
G74*
G01*
G75*
G03X-20638Y-28593I0J-160D01*
G74*
G01*
X-20638Y-29473D01*
G75*
G03X-20478Y-29633I160J0D01*
G74*
G01*
G75*
G03X-20318Y-29473I0J160D01*
G74*
G01*
X-20318Y-28593D01*
G37*
G36*
G01X-16504Y-28593D02*
G75*
G03X-16664Y-28433I-160J0D01*
G74*
G01*
G75*
G03X-16824Y-28593I0J-160D01*
G74*
G01*
X-16824Y-29473D01*
G75*
G03X-16664Y-29633I160J0D01*
G74*
G01*
G75*
G03X-16504Y-29473I0J160D01*
G74*
G01*
X-16504Y-28593D01*
G37*
G36*
G01X-15854Y-28593D02*
G75*
G03X-16014Y-28433I-160J0D01*
G74*
G01*
G75*
G03X-16174Y-28593I0J-160D01*
G74*
G01*
X-16174Y-29473D01*
G75*
G03X-16014Y-29633I160J0D01*
G74*
G01*
G75*
G03X-15854Y-29473I0J160D01*
G74*
G01*
X-15854Y-28593D01*
G37*
G36*
G01X-15204Y-28593D02*
G75*
G03X-15364Y-28433I-160J0D01*
G74*
G01*
G75*
G03X-15524Y-28593I0J-160D01*
G74*
G01*
X-15524Y-29473D01*
G75*
G03X-15364Y-29633I160J0D01*
G74*
G01*
G75*
G03X-15204Y-29473I0J160D01*
G74*
G01*
X-15204Y-28593D01*
G37*
G36*
G01X-14554Y-28593D02*
G75*
G03X-14714Y-28433I-160J0D01*
G74*
G01*
G75*
G03X-14874Y-28593I0J-160D01*
G74*
G01*
X-14874Y-29473D01*
G75*
G03X-14714Y-29633I160J0D01*
G74*
G01*
G75*
G03X-14554Y-29473I0J160D01*
G74*
G01*
X-14554Y-28593D01*
G37*
G36*
G01X-13904Y-28593D02*
G75*
G03X-14064Y-28433I-160J0D01*
G74*
G01*
G75*
G03X-14224Y-28593I0J-160D01*
G74*
G01*
X-14224Y-29473D01*
G75*
G03X-14064Y-29633I160J0D01*
G74*
G01*
G75*
G03X-13904Y-29473I0J160D01*
G74*
G01*
X-13904Y-28593D01*
G37*
G36*
G01X-13254Y-28593D02*
G75*
G03X-13414Y-28433I-160J0D01*
G74*
G01*
G75*
G03X-13574Y-28593I0J-160D01*
G74*
G01*
X-13574Y-29473D01*
G75*
G03X-13414Y-29633I160J0D01*
G74*
G01*
G75*
G03X-13254Y-29473I0J160D01*
G74*
G01*
X-13254Y-28593D01*
G37*
G36*
G01X-12604Y-28593D02*
G75*
G03X-12764Y-28433I-160J0D01*
G74*
G01*
G75*
G03X-12924Y-28593I0J-160D01*
G74*
G01*
X-12924Y-29473D01*
G75*
G03X-12764Y-29633I160J0D01*
G74*
G01*
G75*
G03X-12604Y-29473I0J160D01*
G74*
G01*
X-12604Y-28593D01*
G37*
G36*
G01X-11954Y-28593D02*
G75*
G03X-12114Y-28433I-160J0D01*
G74*
G01*
G75*
G03X-12274Y-28593I0J-160D01*
G74*
G01*
X-12274Y-29473D01*
G75*
G03X-12114Y-29633I160J0D01*
G74*
G01*
G75*
G03X-11954Y-29473I0J160D01*
G74*
G01*
X-11954Y-28593D01*
G37*
G36*
G01X-35578Y-28101D02*
X-36428Y-28101D01*
X-36428Y-28726D01*
X-35578Y-28726D01*
X-35578Y-28101D01*
G37*
G36*
G01X-25334Y-27283D02*
X-26184Y-27283D01*
X-26184Y-27908D01*
X-25334Y-27908D01*
X-25334Y-27283D01*
G37*
G36*
G01X-18446Y-27283D02*
X-19296Y-27283D01*
X-19296Y-27908D01*
X-18446Y-27908D01*
X-18446Y-27283D01*
G37*
G36*
G01X-33714Y-27092D02*
G75*
G03X-33874Y-26932I-160J0D01*
G74*
G01*
G75*
G03X-34034Y-27092I0J-160D01*
G74*
G01*
X-34034Y-27922D01*
G75*
G03X-33874Y-28082I160J0D01*
G74*
G01*
G75*
G03X-33714Y-27922I0J160D01*
G74*
G01*
X-33714Y-27092D01*
G37*
G36*
G01X-33064Y-27092D02*
G75*
G03X-33224Y-26932I-160J0D01*
G74*
G01*
G75*
G03X-33384Y-27092I0J-160D01*
G74*
G01*
X-33384Y-27922D01*
G75*
G03X-33224Y-28082I160J0D01*
G74*
G01*
G75*
G03X-33064Y-27922I0J160D01*
G74*
G01*
X-33064Y-27092D01*
G37*
G36*
G01X-32414Y-27092D02*
G75*
G03X-32574Y-26932I-160J0D01*
G74*
G01*
G75*
G03X-32734Y-27092I0J-160D01*
G74*
G01*
X-32734Y-27922D01*
G75*
G03X-32574Y-28082I160J0D01*
G74*
G01*
G75*
G03X-32414Y-27922I0J160D01*
G74*
G01*
X-32414Y-27092D01*
G37*
G36*
G01X-31764Y-27092D02*
G75*
G03X-31924Y-26932I-160J0D01*
G74*
G01*
G75*
G03X-32084Y-27092I0J-160D01*
G74*
G01*
X-32084Y-27922D01*
G75*
G03X-31924Y-28082I160J0D01*
G74*
G01*
G75*
G03X-31764Y-27922I0J160D01*
G74*
G01*
X-31764Y-27092D01*
G37*
G36*
G01X-31114Y-27092D02*
G75*
G03X-31274Y-26932I-160J0D01*
G74*
G01*
G75*
G03X-31434Y-27092I0J-160D01*
G74*
G01*
X-31434Y-27922D01*
G75*
G03X-31274Y-28082I160J0D01*
G74*
G01*
G75*
G03X-31114Y-27922I0J160D01*
G74*
G01*
X-31114Y-27092D01*
G37*
G36*
G01X-30464Y-27092D02*
G75*
G03X-30624Y-26932I-160J0D01*
G74*
G01*
G75*
G03X-30784Y-27092I0J-160D01*
G74*
G01*
X-30784Y-27922D01*
G75*
G03X-30624Y-28082I160J0D01*
G74*
G01*
G75*
G03X-30464Y-27922I0J160D01*
G74*
G01*
X-30464Y-27092D01*
G37*
G36*
G01X-29814Y-27092D02*
G75*
G03X-29974Y-26932I-160J0D01*
G74*
G01*
G75*
G03X-30134Y-27092I0J-160D01*
G74*
G01*
X-30134Y-27922D01*
G75*
G03X-29974Y-28082I160J0D01*
G74*
G01*
G75*
G03X-29814Y-27922I0J160D01*
G74*
G01*
X-29814Y-27092D01*
G37*
G36*
G01X-29164Y-27092D02*
G75*
G03X-29324Y-26932I-160J0D01*
G74*
G01*
G75*
G03X-29484Y-27092I0J-160D01*
G74*
G01*
X-29484Y-27922D01*
G75*
G03X-29324Y-28082I160J0D01*
G74*
G01*
G75*
G03X-29164Y-27922I0J160D01*
G74*
G01*
X-29164Y-27092D01*
G37*
G36*
G01X-28514Y-27092D02*
G75*
G03X-28674Y-26932I-160J0D01*
G74*
G01*
G75*
G03X-28834Y-27092I0J-160D01*
G74*
G01*
X-28834Y-27922D01*
G75*
G03X-28674Y-28082I160J0D01*
G74*
G01*
G75*
G03X-28514Y-27922I0J160D01*
G74*
G01*
X-28514Y-27092D01*
G37*
G36*
G01X-27864Y-27092D02*
G75*
G03X-28024Y-26932I-160J0D01*
G74*
G01*
G75*
G03X-28184Y-27092I0J-160D01*
G74*
G01*
X-28184Y-27922D01*
G75*
G03X-28024Y-28082I160J0D01*
G74*
G01*
G75*
G03X-27864Y-27922I0J160D01*
G74*
G01*
X-27864Y-27092D01*
G37*
G36*
G01X-35578Y-26676D02*
X-36428Y-26676D01*
X-36428Y-27301D01*
X-35578Y-27301D01*
X-35578Y-26676D01*
G37*
G36*
G01X-35578Y-25706D02*
X-36428Y-25706D01*
X-36428Y-26256D01*
X-35578Y-26256D01*
X-35578Y-25706D01*
G37*
G36*
G01X-35578Y-24356D02*
X-36428Y-24356D01*
X-36428Y-24906D01*
X-35578Y-24906D01*
X-35578Y-24356D01*
G37*
G36*
G01X-35578Y-23300D02*
X-36428Y-23300D01*
X-36428Y-23925D01*
X-35578Y-23925D01*
X-35578Y-23300D01*
G37*
G36*
G01X-24218Y-22893D02*
G75*
G03X-24378Y-22733I-160J0D01*
G74*
G01*
G75*
G03X-24538Y-22893I0J-160D01*
G74*
G01*
X-24538Y-23773D01*
G75*
G03X-24378Y-23933I160J0D01*
G74*
G01*
G75*
G03X-24218Y-23773I0J160D01*
G74*
G01*
X-24218Y-22893D01*
G37*
G36*
G01X-23568Y-22893D02*
G75*
G03X-23728Y-22733I-160J0D01*
G74*
G01*
G75*
G03X-23888Y-22893I0J-160D01*
G74*
G01*
X-23888Y-23773D01*
G75*
G03X-23728Y-23933I160J0D01*
G74*
G01*
G75*
G03X-23568Y-23773I0J160D01*
G74*
G01*
X-23568Y-22893D01*
G37*
G36*
G01X-22918Y-22893D02*
G75*
G03X-23078Y-22733I-160J0D01*
G74*
G01*
G75*
G03X-23238Y-22893I0J-160D01*
G74*
G01*
X-23238Y-23773D01*
G75*
G03X-23078Y-23933I160J0D01*
G74*
G01*
G75*
G03X-22918Y-23773I0J160D01*
G74*
G01*
X-22918Y-22893D01*
G37*
G36*
G01X-22268Y-22893D02*
G75*
G03X-22428Y-22733I-160J0D01*
G74*
G01*
G75*
G03X-22588Y-22893I0J-160D01*
G74*
G01*
X-22588Y-23773D01*
G75*
G03X-22428Y-23933I160J0D01*
G74*
G01*
G75*
G03X-22268Y-23773I0J160D01*
G74*
G01*
X-22268Y-22893D01*
G37*
G36*
G01X-21618Y-22893D02*
G75*
G03X-21778Y-22733I-160J0D01*
G74*
G01*
G75*
G03X-21938Y-22893I0J-160D01*
G74*
G01*
X-21938Y-23773D01*
G75*
G03X-21778Y-23933I160J0D01*
G74*
G01*
G75*
G03X-21618Y-23773I0J160D01*
G74*
G01*
X-21618Y-22893D01*
G37*
G36*
G01X-20968Y-22893D02*
G75*
G03X-21128Y-22733I-160J0D01*
G74*
G01*
G75*
G03X-21288Y-22893I0J-160D01*
G74*
G01*
X-21288Y-23773D01*
G75*
G03X-21128Y-23933I160J0D01*
G74*
G01*
G75*
G03X-20968Y-23773I0J160D01*
G74*
G01*
X-20968Y-22893D01*
G37*
G36*
G01X-20318Y-22893D02*
G75*
G03X-20478Y-22733I-160J0D01*
G74*
G01*
G75*
G03X-20638Y-22893I0J-160D01*
G74*
G01*
X-20638Y-23773D01*
G75*
G03X-20478Y-23933I160J0D01*
G74*
G01*
G75*
G03X-20318Y-23773I0J160D01*
G74*
G01*
X-20318Y-22893D01*
G37*
G36*
G01X-16504Y-22893D02*
G75*
G03X-16664Y-22733I-160J0D01*
G74*
G01*
G75*
G03X-16824Y-22893I0J-160D01*
G74*
G01*
X-16824Y-23773D01*
G75*
G03X-16664Y-23933I160J0D01*
G74*
G01*
G75*
G03X-16504Y-23773I0J160D01*
G74*
G01*
X-16504Y-22893D01*
G37*
G36*
G01X-15854Y-22893D02*
G75*
G03X-16014Y-22733I-160J0D01*
G74*
G01*
G75*
G03X-16174Y-22893I0J-160D01*
G74*
G01*
X-16174Y-23773D01*
G75*
G03X-16014Y-23933I160J0D01*
G74*
G01*
G75*
G03X-15854Y-23773I0J160D01*
G74*
G01*
X-15854Y-22893D01*
G37*
G36*
G01X-15204Y-22893D02*
G75*
G03X-15364Y-22733I-160J0D01*
G74*
G01*
G75*
G03X-15524Y-22893I0J-160D01*
G74*
G01*
X-15524Y-23773D01*
G75*
G03X-15364Y-23933I160J0D01*
G74*
G01*
G75*
G03X-15204Y-23773I0J160D01*
G74*
G01*
X-15204Y-22893D01*
G37*
G36*
G01X-14554Y-22893D02*
G75*
G03X-14714Y-22733I-160J0D01*
G74*
G01*
G75*
G03X-14874Y-22893I0J-160D01*
G74*
G01*
X-14874Y-23773D01*
G75*
G03X-14714Y-23933I160J0D01*
G74*
G01*
G75*
G03X-14554Y-23773I0J160D01*
G74*
G01*
X-14554Y-22893D01*
G37*
G36*
G01X-13904Y-22893D02*
G75*
G03X-14064Y-22733I-160J0D01*
G74*
G01*
G75*
G03X-14224Y-22893I0J-160D01*
G74*
G01*
X-14224Y-23773D01*
G75*
G03X-14064Y-23933I160J0D01*
G74*
G01*
G75*
G03X-13904Y-23773I0J160D01*
G74*
G01*
X-13904Y-22893D01*
G37*
G36*
G01X-13254Y-22893D02*
G75*
G03X-13414Y-22733I-160J0D01*
G74*
G01*
G75*
G03X-13574Y-22893I0J-160D01*
G74*
G01*
X-13574Y-23773D01*
G75*
G03X-13414Y-23933I160J0D01*
G74*
G01*
G75*
G03X-13254Y-23773I0J160D01*
G74*
G01*
X-13254Y-22893D01*
G37*
G36*
G01X-12604Y-22893D02*
G75*
G03X-12764Y-22733I-160J0D01*
G74*
G01*
G75*
G03X-12924Y-22893I0J-160D01*
G74*
G01*
X-12924Y-23773D01*
G75*
G03X-12764Y-23933I160J0D01*
G74*
G01*
G75*
G03X-12604Y-23773I0J160D01*
G74*
G01*
X-12604Y-22893D01*
G37*
G36*
G01X-11954Y-22893D02*
G75*
G03X-12114Y-22733I-160J0D01*
G74*
G01*
G75*
G03X-12274Y-22893I0J-160D01*
G74*
G01*
X-12274Y-23773D01*
G75*
G03X-12114Y-23933I160J0D01*
G74*
G01*
G75*
G03X-11954Y-23773I0J160D01*
G74*
G01*
X-11954Y-22893D01*
G37*
G36*
G01X7921Y-22043D02*
X7296Y-22043D01*
X7296Y-22893D01*
X7921Y-22893D01*
X7921Y-22043D01*
G37*
G36*
G01X9346Y-22043D02*
X8721Y-22043D01*
X8721Y-22893D01*
X9346Y-22893D01*
X9346Y-22043D01*
G37*
G36*
G01X-35578Y-21875D02*
X-36428Y-21875D01*
X-36428Y-22500D01*
X-35578Y-22500D01*
X-35578Y-21875D01*
G37*
G36*
G01X-33714Y-21492D02*
G75*
G03X-33874Y-21332I-160J0D01*
G74*
G01*
G75*
G03X-34034Y-21492I0J-160D01*
G74*
G01*
X-34034Y-22322D01*
G75*
G03X-33874Y-22482I160J0D01*
G74*
G01*
G75*
G03X-33714Y-22322I0J160D01*
G74*
G01*
X-33714Y-21492D01*
G37*
G36*
G01X-33064Y-21492D02*
G75*
G03X-33224Y-21332I-160J0D01*
G74*
G01*
G75*
G03X-33384Y-21492I0J-160D01*
G74*
G01*
X-33384Y-22322D01*
G75*
G03X-33224Y-22482I160J0D01*
G74*
G01*
G75*
G03X-33064Y-22322I0J160D01*
G74*
G01*
X-33064Y-21492D01*
G37*
G36*
G01X-32414Y-21492D02*
G75*
G03X-32574Y-21332I-160J0D01*
G74*
G01*
G75*
G03X-32734Y-21492I0J-160D01*
G74*
G01*
X-32734Y-22322D01*
G75*
G03X-32574Y-22482I160J0D01*
G74*
G01*
G75*
G03X-32414Y-22322I0J160D01*
G74*
G01*
X-32414Y-21492D01*
G37*
G36*
G01X-31764Y-21492D02*
G75*
G03X-31924Y-21332I-160J0D01*
G74*
G01*
G75*
G03X-32084Y-21492I0J-160D01*
G74*
G01*
X-32084Y-22322D01*
G75*
G03X-31924Y-22482I160J0D01*
G74*
G01*
G75*
G03X-31764Y-22322I0J160D01*
G74*
G01*
X-31764Y-21492D01*
G37*
G36*
G01X-31114Y-21492D02*
G75*
G03X-31274Y-21332I-160J0D01*
G74*
G01*
G75*
G03X-31434Y-21492I0J-160D01*
G74*
G01*
X-31434Y-22322D01*
G75*
G03X-31274Y-22482I160J0D01*
G74*
G01*
G75*
G03X-31114Y-22322I0J160D01*
G74*
G01*
X-31114Y-21492D01*
G37*
G36*
G01X-30464Y-21492D02*
G75*
G03X-30624Y-21332I-160J0D01*
G74*
G01*
G75*
G03X-30784Y-21492I0J-160D01*
G74*
G01*
X-30784Y-22322D01*
G75*
G03X-30624Y-22482I160J0D01*
G74*
G01*
G75*
G03X-30464Y-22322I0J160D01*
G74*
G01*
X-30464Y-21492D01*
G37*
G36*
G01X-29814Y-21492D02*
G75*
G03X-29974Y-21332I-160J0D01*
G74*
G01*
G75*
G03X-30134Y-21492I0J-160D01*
G74*
G01*
X-30134Y-22322D01*
G75*
G03X-29974Y-22482I160J0D01*
G74*
G01*
G75*
G03X-29814Y-22322I0J160D01*
G74*
G01*
X-29814Y-21492D01*
G37*
G36*
G01X-29164Y-21492D02*
G75*
G03X-29324Y-21332I-160J0D01*
G74*
G01*
G75*
G03X-29484Y-21492I0J-160D01*
G74*
G01*
X-29484Y-22322D01*
G75*
G03X-29324Y-22482I160J0D01*
G74*
G01*
G75*
G03X-29164Y-22322I0J160D01*
G74*
G01*
X-29164Y-21492D01*
G37*
G36*
G01X-28514Y-21492D02*
G75*
G03X-28674Y-21332I-160J0D01*
G74*
G01*
G75*
G03X-28834Y-21492I0J-160D01*
G74*
G01*
X-28834Y-22322D01*
G75*
G03X-28674Y-22482I160J0D01*
G74*
G01*
G75*
G03X-28514Y-22322I0J160D01*
G74*
G01*
X-28514Y-21492D01*
G37*
G36*
G01X-27864Y-21492D02*
G75*
G03X-28024Y-21332I-160J0D01*
G74*
G01*
G75*
G03X-28184Y-21492I0J-160D01*
G74*
G01*
X-28184Y-22322D01*
G75*
G03X-28024Y-22482I160J0D01*
G74*
G01*
G75*
G03X-27864Y-22322I0J160D01*
G74*
G01*
X-27864Y-21492D01*
G37*
G36*
G01X9396Y-21136D02*
X8696Y-21136D01*
X8696Y-21686D01*
X9396Y-21686D01*
X9396Y-21136D01*
G37*
G36*
G01X7139Y-20611D02*
X6289Y-20611D01*
X6289Y-21161D01*
X7139Y-21161D01*
X7139Y-20611D01*
G37*
G36*
G01X8316Y-20611D02*
X7466Y-20611D01*
X7466Y-21161D01*
X8316Y-21161D01*
X8316Y-20611D01*
G37*
G36*
G01X11496Y-20186D02*
X10796Y-20186D01*
X10796Y-20736D01*
X11496Y-20736D01*
X11496Y-20186D01*
G37*
G36*
G01X7139Y-19261D02*
X6289Y-19261D01*
X6289Y-19811D01*
X7139Y-19811D01*
X7139Y-19261D01*
G37*
G36*
G01X8316Y-19261D02*
X7466Y-19261D01*
X7466Y-19811D01*
X8316Y-19811D01*
X8316Y-19261D01*
G37*
G36*
G01X-26166Y-19409D02*
G75*
G03X-26326Y-19249I-160J0D01*
G74*
G01*
G75*
G03X-26486Y-19409I0J-160D01*
G74*
G01*
X-26486Y-20289D01*
G75*
G03X-26326Y-20449I160J0D01*
G74*
G01*
G75*
G03X-26166Y-20289I0J160D01*
G74*
G01*
X-26166Y-19409D01*
G37*
G36*
G01X-25516Y-19409D02*
G75*
G03X-25676Y-19249I-160J0D01*
G74*
G01*
G75*
G03X-25836Y-19409I0J-160D01*
G74*
G01*
X-25836Y-20289D01*
G75*
G03X-25676Y-20449I160J0D01*
G74*
G01*
G75*
G03X-25516Y-20289I0J160D01*
G74*
G01*
X-25516Y-19409D01*
G37*
G36*
G01X-24866Y-19409D02*
G75*
G03X-25026Y-19249I-160J0D01*
G74*
G01*
G75*
G03X-25186Y-19409I0J-160D01*
G74*
G01*
X-25186Y-20289D01*
G75*
G03X-25026Y-20449I160J0D01*
G74*
G01*
G75*
G03X-24866Y-20289I0J160D01*
G74*
G01*
X-24866Y-19409D01*
G37*
G36*
G01X-24216Y-19409D02*
G75*
G03X-24376Y-19249I-160J0D01*
G74*
G01*
G75*
G03X-24536Y-19409I0J-160D01*
G74*
G01*
X-24536Y-20289D01*
G75*
G03X-24376Y-20449I160J0D01*
G74*
G01*
G75*
G03X-24216Y-20289I0J160D01*
G74*
G01*
X-24216Y-19409D01*
G37*
G36*
G01X-23566Y-19409D02*
G75*
G03X-23726Y-19249I-160J0D01*
G74*
G01*
G75*
G03X-23886Y-19409I0J-160D01*
G74*
G01*
X-23886Y-20289D01*
G75*
G03X-23726Y-20449I160J0D01*
G74*
G01*
G75*
G03X-23566Y-20289I0J160D01*
G74*
G01*
X-23566Y-19409D01*
G37*
G36*
G01X-22916Y-19409D02*
G75*
G03X-23076Y-19249I-160J0D01*
G74*
G01*
G75*
G03X-23236Y-19409I0J-160D01*
G74*
G01*
X-23236Y-20289D01*
G75*
G03X-23076Y-20449I160J0D01*
G74*
G01*
G75*
G03X-22916Y-20289I0J160D01*
G74*
G01*
X-22916Y-19409D01*
G37*
G36*
G01X-22266Y-19409D02*
G75*
G03X-22426Y-19249I-160J0D01*
G74*
G01*
G75*
G03X-22586Y-19409I0J-160D01*
G74*
G01*
X-22586Y-20289D01*
G75*
G03X-22426Y-20449I160J0D01*
G74*
G01*
G75*
G03X-22266Y-20289I0J160D01*
G74*
G01*
X-22266Y-19409D01*
G37*
G36*
G01X-21616Y-19409D02*
G75*
G03X-21776Y-19249I-160J0D01*
G74*
G01*
G75*
G03X-21936Y-19409I0J-160D01*
G74*
G01*
X-21936Y-20289D01*
G75*
G03X-21776Y-20449I160J0D01*
G74*
G01*
G75*
G03X-21616Y-20289I0J160D01*
G74*
G01*
X-21616Y-19409D01*
G37*
G36*
G01X-20966Y-19409D02*
G75*
G03X-21126Y-19249I-160J0D01*
G74*
G01*
G75*
G03X-21286Y-19409I0J-160D01*
G74*
G01*
X-21286Y-20289D01*
G75*
G03X-21126Y-20449I160J0D01*
G74*
G01*
G75*
G03X-20966Y-20289I0J160D01*
G74*
G01*
X-20966Y-19409D01*
G37*
G36*
G01X-20316Y-19409D02*
G75*
G03X-20476Y-19249I-160J0D01*
G74*
G01*
G75*
G03X-20636Y-19409I0J-160D01*
G74*
G01*
X-20636Y-20289D01*
G75*
G03X-20476Y-20449I160J0D01*
G74*
G01*
G75*
G03X-20316Y-20289I0J160D01*
G74*
G01*
X-20316Y-19409D01*
G37*
G36*
G01X-19666Y-19409D02*
G75*
G03X-19826Y-19249I-160J0D01*
G74*
G01*
G75*
G03X-19986Y-19409I0J-160D01*
G74*
G01*
X-19986Y-20289D01*
G75*
G03X-19826Y-20449I160J0D01*
G74*
G01*
G75*
G03X-19666Y-20289I0J160D01*
G74*
G01*
X-19666Y-19409D01*
G37*
G36*
G01X-19016Y-19409D02*
G75*
G03X-19176Y-19249I-160J0D01*
G74*
G01*
G75*
G03X-19336Y-19409I0J-160D01*
G74*
G01*
X-19336Y-20289D01*
G75*
G03X-19176Y-20449I160J0D01*
G74*
G01*
G75*
G03X-19016Y-20289I0J160D01*
G74*
G01*
X-19016Y-19409D01*
G37*
G36*
G01X9396Y-19236D02*
X8696Y-19236D01*
X8696Y-19786D01*
X9396Y-19786D01*
X9396Y-19236D01*
G37*
G36*
G01X35769Y-17865D02*
X34469Y-17865D01*
X34414Y-17869D01*
X34361Y-17882D01*
X34310Y-17903D01*
X34263Y-17932D01*
X34221Y-17968D01*
X34186Y-18009D01*
X34157Y-18056D01*
X34136Y-18107D01*
X34123Y-18160D01*
X34119Y-18215D01*
X34119Y-18915D01*
X34123Y-18970D01*
X34136Y-19023D01*
X34157Y-19074D01*
X34186Y-19121D01*
X34221Y-19163D01*
X34263Y-19198D01*
X34310Y-19227D01*
X34361Y-19248D01*
X34414Y-19261D01*
X34469Y-19265D01*
X35769Y-19265D01*
X35824Y-19261D01*
X35877Y-19248D01*
X35928Y-19227D01*
X35975Y-19198D01*
X36016Y-19163D01*
X36052Y-19121D01*
X36081Y-19074D01*
X36102Y-19023D01*
X36114Y-18970D01*
X36119Y-18915D01*
X36119Y-18215D01*
X36114Y-18160D01*
X36102Y-18107D01*
X36081Y-18056D01*
X36052Y-18009D01*
X36016Y-17968D01*
X35975Y-17932D01*
X35928Y-17903D01*
X35877Y-17882D01*
X35824Y-17869D01*
X35769Y-17865D01*
G37*
G36*
G01X-23584Y-17249D02*
X-24251Y-17249D01*
X-24251Y-18149D01*
X-23584Y-18149D01*
X-23584Y-17249D01*
G37*
G36*
G01X-22418Y-17249D02*
X-23084Y-17249D01*
X-23084Y-18149D01*
X-22418Y-18149D01*
X-22418Y-17249D01*
G37*
G36*
G01X-21251Y-17249D02*
X-21918Y-17249D01*
X-21918Y-18149D01*
X-21251Y-18149D01*
X-21251Y-17249D01*
G37*
G36*
G01X7992Y-15199D02*
X6742Y-15199D01*
X6742Y-16199D01*
X7992Y-16199D01*
X7992Y-15199D01*
G37*
G36*
G01X20256Y-15199D02*
X19006Y-15199D01*
X19006Y-16199D01*
X20256Y-16199D01*
X20256Y-15199D01*
G37*
G36*
G01X-23584Y-15849D02*
X-24251Y-15849D01*
X-24251Y-16749D01*
X-23584Y-16749D01*
X-23584Y-15849D01*
G37*
G36*
G01X-22418Y-15849D02*
X-23084Y-15849D01*
X-23084Y-16749D01*
X-22418Y-16749D01*
X-22418Y-15849D01*
G37*
G36*
G01X-21251Y-15849D02*
X-21918Y-15849D01*
X-21918Y-16749D01*
X-21251Y-16749D01*
X-21251Y-15849D01*
G37*
G36*
G01X-26949Y-15274D02*
X-27799Y-15274D01*
X-27799Y-15899D01*
X-26949Y-15899D01*
X-26949Y-15274D01*
G37*
G36*
G01X-114Y-15169D02*
X-664Y-15169D01*
X-664Y-16019D01*
X-114Y-16019D01*
X-114Y-15169D01*
G37*
G36*
G01X1236Y-15169D02*
X686Y-15169D01*
X686Y-16019D01*
X1236Y-16019D01*
X1236Y-15169D01*
G37*
G36*
G01X3181Y-14359D02*
X2331Y-14359D01*
X2331Y-14984D01*
X3181Y-14984D01*
X3181Y-14359D01*
G37*
G36*
G01X-114Y-13942D02*
X-664Y-13942D01*
X-664Y-14792D01*
X-114Y-14792D01*
X-114Y-13942D01*
G37*
G36*
G01X1236Y-13942D02*
X686Y-13942D01*
X686Y-14792D01*
X1236Y-14792D01*
X1236Y-13942D01*
G37*
G36*
G01X7992Y-13699D02*
X6742Y-13699D01*
X6742Y-14699D01*
X7992Y-14699D01*
X7992Y-13699D01*
G37*
G36*
G01X20256Y-13699D02*
X19006Y-13699D01*
X19006Y-14699D01*
X20256Y-14699D01*
X20256Y-13699D01*
G37*
G36*
G01X3181Y-12934D02*
X2331Y-12934D01*
X2331Y-13559D01*
X3181Y-13559D01*
X3181Y-12934D01*
G37*
G36*
G01X-26949Y-13849D02*
X-27799Y-13849D01*
X-27799Y-14474D01*
X-26949Y-14474D01*
X-26949Y-13849D01*
G37*
G36*
G01X-26166Y-13709D02*
G75*
G03X-26326Y-13549I-160J0D01*
G74*
G01*
G75*
G03X-26486Y-13709I0J-160D01*
G74*
G01*
X-26486Y-14589D01*
G75*
G03X-26326Y-14749I160J0D01*
G74*
G01*
G75*
G03X-26166Y-14589I0J160D01*
G74*
G01*
X-26166Y-13709D01*
G37*
G36*
G01X-25516Y-13709D02*
G75*
G03X-25676Y-13549I-160J0D01*
G74*
G01*
G75*
G03X-25836Y-13709I0J-160D01*
G74*
G01*
X-25836Y-14589D01*
G75*
G03X-25676Y-14749I160J0D01*
G74*
G01*
G75*
G03X-25516Y-14589I0J160D01*
G74*
G01*
X-25516Y-13709D01*
G37*
G36*
G01X-24866Y-13709D02*
G75*
G03X-25026Y-13549I-160J0D01*
G74*
G01*
G75*
G03X-25186Y-13709I0J-160D01*
G74*
G01*
X-25186Y-14589D01*
G75*
G03X-25026Y-14749I160J0D01*
G74*
G01*
G75*
G03X-24866Y-14589I0J160D01*
G74*
G01*
X-24866Y-13709D01*
G37*
G36*
G01X-24216Y-13709D02*
G75*
G03X-24376Y-13549I-160J0D01*
G74*
G01*
G75*
G03X-24536Y-13709I0J-160D01*
G74*
G01*
X-24536Y-14589D01*
G75*
G03X-24376Y-14749I160J0D01*
G74*
G01*
G75*
G03X-24216Y-14589I0J160D01*
G74*
G01*
X-24216Y-13709D01*
G37*
G36*
G01X-23566Y-13709D02*
G75*
G03X-23726Y-13549I-160J0D01*
G74*
G01*
G75*
G03X-23886Y-13709I0J-160D01*
G74*
G01*
X-23886Y-14589D01*
G75*
G03X-23726Y-14749I160J0D01*
G74*
G01*
G75*
G03X-23566Y-14589I0J160D01*
G74*
G01*
X-23566Y-13709D01*
G37*
G36*
G01X-22916Y-13709D02*
G75*
G03X-23076Y-13549I-160J0D01*
G74*
G01*
G75*
G03X-23236Y-13709I0J-160D01*
G74*
G01*
X-23236Y-14589D01*
G75*
G03X-23076Y-14749I160J0D01*
G74*
G01*
G75*
G03X-22916Y-14589I0J160D01*
G74*
G01*
X-22916Y-13709D01*
G37*
G36*
G01X-22266Y-13709D02*
G75*
G03X-22426Y-13549I-160J0D01*
G74*
G01*
G75*
G03X-22586Y-13709I0J-160D01*
G74*
G01*
X-22586Y-14589D01*
G75*
G03X-22426Y-14749I160J0D01*
G74*
G01*
G75*
G03X-22266Y-14589I0J160D01*
G74*
G01*
X-22266Y-13709D01*
G37*
G36*
G01X-21616Y-13709D02*
G75*
G03X-21776Y-13549I-160J0D01*
G74*
G01*
G75*
G03X-21936Y-13709I0J-160D01*
G74*
G01*
X-21936Y-14589D01*
G75*
G03X-21776Y-14749I160J0D01*
G74*
G01*
G75*
G03X-21616Y-14589I0J160D01*
G74*
G01*
X-21616Y-13709D01*
G37*
G36*
G01X-20966Y-13709D02*
G75*
G03X-21126Y-13549I-160J0D01*
G74*
G01*
G75*
G03X-21286Y-13709I0J-160D01*
G74*
G01*
X-21286Y-14589D01*
G75*
G03X-21126Y-14749I160J0D01*
G74*
G01*
G75*
G03X-20966Y-14589I0J160D01*
G74*
G01*
X-20966Y-13709D01*
G37*
G36*
G01X-20316Y-13709D02*
G75*
G03X-20476Y-13549I-160J0D01*
G74*
G01*
G75*
G03X-20636Y-13709I0J-160D01*
G74*
G01*
X-20636Y-14589D01*
G75*
G03X-20476Y-14749I160J0D01*
G74*
G01*
G75*
G03X-20316Y-14589I0J160D01*
G74*
G01*
X-20316Y-13709D01*
G37*
G36*
G01X-19666Y-13709D02*
G75*
G03X-19826Y-13549I-160J0D01*
G74*
G01*
G75*
G03X-19986Y-13709I0J-160D01*
G74*
G01*
X-19986Y-14589D01*
G75*
G03X-19826Y-14749I160J0D01*
G74*
G01*
G75*
G03X-19666Y-14589I0J160D01*
G74*
G01*
X-19666Y-13709D01*
G37*
G36*
G01X-19016Y-13709D02*
G75*
G03X-19176Y-13549I-160J0D01*
G74*
G01*
G75*
G03X-19336Y-13709I0J-160D01*
G74*
G01*
X-19336Y-14589D01*
G75*
G03X-19176Y-14749I160J0D01*
G74*
G01*
G75*
G03X-19016Y-14589I0J160D01*
G74*
G01*
X-19016Y-13709D01*
G37*
G36*
G01X-139Y-12884D02*
X-689Y-12884D01*
X-689Y-13584D01*
X-139Y-13584D01*
X-139Y-12884D01*
G37*
G36*
G01X1761Y-12884D02*
X1211Y-12884D01*
X1211Y-13584D01*
X1761Y-13584D01*
X1761Y-12884D01*
G37*
G36*
G01X-6766Y-12873D02*
X-7467Y-12873D01*
X-7467Y-13423D01*
X-6766Y-13423D01*
X-6766Y-12873D01*
G37*
G36*
G01X-5612Y-12848D02*
X-6462Y-12848D01*
X-6462Y-13398D01*
X-5612Y-13398D01*
X-5612Y-12848D01*
G37*
G36*
G01X-4426Y-12848D02*
X-5276Y-12848D01*
X-5276Y-13398D01*
X-4426Y-13398D01*
X-4426Y-12848D01*
G37*
G36*
G01X-30113Y-12837D02*
X-30963Y-12837D01*
X-30963Y-13387D01*
X-30113Y-13387D01*
X-30113Y-12837D01*
G37*
G36*
G01X7992Y-12199D02*
X6742Y-12199D01*
X6742Y-13199D01*
X7992Y-13199D01*
X7992Y-12199D01*
G37*
G36*
G01X20256Y-12199D02*
X19006Y-12199D01*
X19006Y-13199D01*
X20256Y-13199D01*
X20256Y-12199D01*
G37*
G36*
G01X35419Y-11765D02*
X34819Y-11765D01*
X34767Y-11770D01*
X34716Y-11783D01*
X34669Y-11805D01*
X34626Y-11835D01*
X34589Y-11872D01*
X34559Y-11915D01*
X34537Y-11962D01*
X34523Y-12013D01*
X34519Y-12065D01*
X34519Y-12865D01*
X34523Y-12917D01*
X34537Y-12968D01*
X34559Y-13015D01*
X34589Y-13058D01*
X34626Y-13095D01*
X34669Y-13125D01*
X34716Y-13147D01*
X34767Y-13161D01*
X34819Y-13165D01*
X35419Y-13165D01*
X35471Y-13161D01*
X35521Y-13147D01*
X35569Y-13125D01*
X35612Y-13095D01*
X35649Y-13058D01*
X35679Y-13015D01*
X35701Y-12968D01*
X35714Y-12917D01*
X35719Y-12865D01*
X35719Y-12065D01*
X35714Y-12013D01*
X35701Y-11962D01*
X35679Y-11915D01*
X35649Y-11872D01*
X35612Y-11835D01*
X35569Y-11805D01*
X35521Y-11783D01*
X35471Y-11770D01*
X35419Y-11765D01*
G37*
G36*
G01X-8866Y-11923D02*
X-9567Y-11923D01*
X-9567Y-12473D01*
X-8866Y-12473D01*
X-8866Y-11923D01*
G37*
G36*
G01X-25376Y-11874D02*
X-25926Y-11874D01*
X-25926Y-12724D01*
X-25376Y-12724D01*
X-25376Y-11874D01*
G37*
G36*
G01X-24026Y-11874D02*
X-24576Y-11874D01*
X-24576Y-12724D01*
X-24026Y-12724D01*
X-24026Y-11874D01*
G37*
G36*
G01X-5612Y-11498D02*
X-6462Y-11498D01*
X-6462Y-12048D01*
X-5612Y-12048D01*
X-5612Y-11498D01*
G37*
G36*
G01X-4426Y-11498D02*
X-5276Y-11498D01*
X-5276Y-12048D01*
X-4426Y-12048D01*
X-4426Y-11498D01*
G37*
G36*
G01X-30113Y-11487D02*
X-30963Y-11487D01*
X-30963Y-12037D01*
X-30113Y-12037D01*
X-30113Y-11487D01*
G37*
G36*
G01X-6766Y-10973D02*
X-7467Y-10973D01*
X-7467Y-11523D01*
X-6766Y-11523D01*
X-6766Y-10973D01*
G37*
G36*
G01X811Y-10784D02*
X261Y-10784D01*
X261Y-11484D01*
X811Y-11484D01*
X811Y-10784D01*
G37*
G36*
G01X7992Y-10699D02*
X6742Y-10699D01*
X6742Y-11699D01*
X7992Y-11699D01*
X7992Y-10699D01*
G37*
G36*
G01X20256Y-10699D02*
X19006Y-10699D01*
X19006Y-11699D01*
X20256Y-11699D01*
X20256Y-10699D01*
G37*
G36*
G01X26607Y-9625D02*
X26057Y-9625D01*
X26057Y-10325D01*
X26607Y-10325D01*
X26607Y-9625D01*
G37*
G36*
G01X-25351Y-9729D02*
X-25901Y-9729D01*
X-25901Y-10579D01*
X-25351Y-10579D01*
X-25351Y-9729D01*
G37*
G36*
G01X-24001Y-9729D02*
X-24551Y-9729D01*
X-24551Y-10579D01*
X-24001Y-10579D01*
X-24001Y-9729D01*
G37*
G36*
G01X-8242Y-9425D02*
X-8867Y-9425D01*
X-8867Y-10275D01*
X-8242Y-10275D01*
X-8242Y-9425D01*
G37*
G36*
G01X-6817Y-9425D02*
X-7442Y-9425D01*
X-7442Y-10275D01*
X-6817Y-10275D01*
X-6817Y-9425D01*
G37*
G36*
G01X7992Y-9199D02*
X6742Y-9199D01*
X6742Y-10199D01*
X7992Y-10199D01*
X7992Y-9199D01*
G37*
G36*
G01X20256Y-9199D02*
X19006Y-9199D01*
X19006Y-10199D01*
X20256Y-10199D01*
X20256Y-9199D01*
G37*
G36*
G01X24457Y-9000D02*
X23607Y-9000D01*
X23607Y-9625D01*
X24457Y-9625D01*
X24457Y-9000D01*
G37*
G36*
G01X-25326Y-8463D02*
X-25951Y-8463D01*
X-25951Y-9313D01*
X-25326Y-9313D01*
X-25326Y-8463D01*
G37*
G36*
G01X-23901Y-8463D02*
X-24526Y-8463D01*
X-24526Y-9313D01*
X-23901Y-9313D01*
X-23901Y-8463D01*
G37*
G36*
G01X24457Y-7575D02*
X23607Y-7575D01*
X23607Y-8200D01*
X24457Y-8200D01*
X24457Y-7575D01*
G37*
G36*
G01X25657Y-7525D02*
X25107Y-7525D01*
X25107Y-8225D01*
X25657Y-8225D01*
X25657Y-7525D01*
G37*
G36*
G01X27557Y-7525D02*
X27007Y-7525D01*
X27007Y-8225D01*
X27557Y-8225D01*
X27557Y-7525D01*
G37*
G36*
G01X7992Y-7349D02*
X6742Y-7349D01*
X6742Y-8349D01*
X7992Y-8349D01*
X7992Y-7349D01*
G37*
G36*
G01X20256Y-7349D02*
X19006Y-7349D01*
X19006Y-8349D01*
X20256Y-8349D01*
X20256Y-7349D01*
G37*
G36*
G01X-30911Y-7634D02*
G75*
G03X-30751Y-7474I0J160D01*
G74*
G01*
G75*
G03X-30911Y-7314I-160J0D01*
G74*
G01*
X-31791Y-7314D01*
G75*
G03X-31951Y-7474I0J-160D01*
G74*
G01*
G75*
G03X-31791Y-7634I160J0D01*
G74*
G01*
X-30911Y-7634D01*
G37*
G36*
G01X-25211Y-7634D02*
G75*
G03X-25051Y-7474I0J160D01*
G74*
G01*
G75*
G03X-25211Y-7314I-160J0D01*
G74*
G01*
X-26091Y-7314D01*
G75*
G03X-26251Y-7474I0J-160D01*
G74*
G01*
G75*
G03X-26091Y-7634I160J0D01*
G74*
G01*
X-25211Y-7634D01*
G37*
G36*
G01X-32558Y-7149D02*
X-33408Y-7149D01*
X-33408Y-7774D01*
X-32558Y-7774D01*
X-32558Y-7149D01*
G37*
G36*
G01X-5908Y-7024D02*
X-7158Y-7024D01*
X-7158Y-8024D01*
X-5908Y-8024D01*
X-5908Y-7024D01*
G37*
G36*
G01X6356Y-7024D02*
X5106Y-7024D01*
X5106Y-8024D01*
X6356Y-8024D01*
X6356Y-7024D01*
G37*
G36*
G01X26182Y-6320D02*
X25632Y-6320D01*
X25632Y-7170D01*
X26182Y-7170D01*
X26182Y-6320D01*
G37*
G36*
G01X27532Y-6320D02*
X26982Y-6320D01*
X26982Y-7170D01*
X27532Y-7170D01*
X27532Y-6320D01*
G37*
G36*
G01X-30911Y-6984D02*
G75*
G03X-30751Y-6824I0J160D01*
G74*
G01*
G75*
G03X-30911Y-6664I-160J0D01*
G74*
G01*
X-31791Y-6664D01*
G75*
G03X-31951Y-6824I0J-160D01*
G74*
G01*
G75*
G03X-31791Y-6984I160J0D01*
G74*
G01*
X-30911Y-6984D01*
G37*
G36*
G01X-25211Y-6984D02*
G75*
G03X-25051Y-6824I0J160D01*
G74*
G01*
G75*
G03X-25211Y-6664I-160J0D01*
G74*
G01*
X-26091Y-6664D01*
G75*
G03X-26251Y-6824I0J-160D01*
G74*
G01*
G75*
G03X-26091Y-6984I160J0D01*
G74*
G01*
X-25211Y-6984D01*
G37*
G36*
G01X7992Y-5849D02*
X6742Y-5849D01*
X6742Y-6849D01*
X7992Y-6849D01*
X7992Y-5849D01*
G37*
G36*
G01X20256Y-5849D02*
X19006Y-5849D01*
X19006Y-6849D01*
X20256Y-6849D01*
X20256Y-5849D01*
G37*
G36*
G01X-30911Y-6334D02*
G75*
G03X-30751Y-6174I0J160D01*
G74*
G01*
G75*
G03X-30911Y-6014I-160J0D01*
G74*
G01*
X-31791Y-6014D01*
G75*
G03X-31951Y-6174I0J-160D01*
G74*
G01*
G75*
G03X-31791Y-6334I160J0D01*
G74*
G01*
X-30911Y-6334D01*
G37*
G36*
G01X-25211Y-6334D02*
G75*
G03X-25051Y-6174I0J160D01*
G74*
G01*
G75*
G03X-25211Y-6014I-160J0D01*
G74*
G01*
X-26091Y-6014D01*
G75*
G03X-26251Y-6174I0J-160D01*
G74*
G01*
G75*
G03X-26091Y-6334I160J0D01*
G74*
G01*
X-25211Y-6334D01*
G37*
G36*
G01X-32558Y-5724D02*
X-33408Y-5724D01*
X-33408Y-6349D01*
X-32558Y-6349D01*
X-32558Y-5724D01*
G37*
G36*
G01X-5908Y-5524D02*
X-7158Y-5524D01*
X-7158Y-6524D01*
X-5908Y-6524D01*
X-5908Y-5524D01*
G37*
G36*
G01X6356Y-5524D02*
X5106Y-5524D01*
X5106Y-6524D01*
X6356Y-6524D01*
X6356Y-5524D01*
G37*
G36*
G01X-30911Y-5684D02*
G75*
G03X-30751Y-5524I0J160D01*
G74*
G01*
G75*
G03X-30911Y-5364I-160J0D01*
G74*
G01*
X-31791Y-5364D01*
G75*
G03X-31951Y-5524I0J-160D01*
G74*
G01*
G75*
G03X-31791Y-5684I160J0D01*
G74*
G01*
X-30911Y-5684D01*
G37*
G36*
G01X-25211Y-5684D02*
G75*
G03X-25051Y-5524I0J160D01*
G74*
G01*
G75*
G03X-25211Y-5364I-160J0D01*
G74*
G01*
X-26091Y-5364D01*
G75*
G03X-26251Y-5524I0J-160D01*
G74*
G01*
G75*
G03X-26091Y-5684I160J0D01*
G74*
G01*
X-25211Y-5684D01*
G37*
G36*
G01X26182Y-5122D02*
X25632Y-5122D01*
X25632Y-5972D01*
X26182Y-5972D01*
X26182Y-5122D01*
G37*
G36*
G01X27532Y-5122D02*
X26982Y-5122D01*
X26982Y-5972D01*
X27532Y-5972D01*
X27532Y-5122D01*
G37*
G36*
G01X7992Y-4349D02*
X6742Y-4349D01*
X6742Y-5349D01*
X7992Y-5349D01*
X7992Y-4349D01*
G37*
G36*
G01X20256Y-4349D02*
X19006Y-4349D01*
X19006Y-5349D01*
X20256Y-5349D01*
X20256Y-4349D01*
G37*
G36*
G01X-5908Y-4024D02*
X-7158Y-4024D01*
X-7158Y-5024D01*
X-5908Y-5024D01*
X-5908Y-4024D01*
G37*
G36*
G01X6356Y-4024D02*
X5106Y-4024D01*
X5106Y-5024D01*
X6356Y-5024D01*
X6356Y-4024D01*
G37*
G36*
G01X25974Y-3174D02*
X25274Y-3174D01*
X25274Y-3724D01*
X25974Y-3724D01*
X25974Y-3174D01*
G37*
G36*
G01X7992Y-2849D02*
X6742Y-2849D01*
X6742Y-3849D01*
X7992Y-3849D01*
X7992Y-2849D01*
G37*
G36*
G01X20256Y-2849D02*
X19006Y-2849D01*
X19006Y-3849D01*
X20256Y-3849D01*
X20256Y-2849D01*
G37*
G36*
G01X27196Y-2649D02*
X26346Y-2649D01*
X26346Y-3199D01*
X27196Y-3199D01*
X27196Y-2649D01*
G37*
G36*
G01X28425Y-2649D02*
X27575Y-2649D01*
X27575Y-3199D01*
X28425Y-3199D01*
X28425Y-2649D01*
G37*
G36*
G01X-5908Y-2524D02*
X-7158Y-2524D01*
X-7158Y-3524D01*
X-5908Y-3524D01*
X-5908Y-2524D01*
G37*
G36*
G01X6356Y-2524D02*
X5106Y-2524D01*
X5106Y-3524D01*
X6356Y-3524D01*
X6356Y-2524D01*
G37*
G36*
G01X23874Y-2224D02*
X23174Y-2224D01*
X23174Y-2774D01*
X23874Y-2774D01*
X23874Y-2224D01*
G37*
G36*
G01X27196Y-1299D02*
X26346Y-1299D01*
X26346Y-1849D01*
X27196Y-1849D01*
X27196Y-1299D01*
G37*
G36*
G01X28425Y-1299D02*
X27575Y-1299D01*
X27575Y-1849D01*
X28425Y-1849D01*
X28425Y-1299D01*
G37*
G36*
G01X7992Y-1349D02*
X6742Y-1349D01*
X6742Y-2349D01*
X7992Y-2349D01*
X7992Y-1349D01*
G37*
G36*
G01X20256Y-1349D02*
X19006Y-1349D01*
X19006Y-2349D01*
X20256Y-2349D01*
X20256Y-1349D01*
G37*
G36*
G01X25974Y-1274D02*
X25274Y-1274D01*
X25274Y-1824D01*
X25974Y-1824D01*
X25974Y-1274D01*
G37*
G36*
G01X-25086Y-1459D02*
G75*
G03X-24926Y-1299I0J160D01*
G74*
G01*
G75*
G03X-25086Y-1139I-160J0D01*
G74*
G01*
X-26266Y-1139D01*
G75*
G03X-26426Y-1299I0J-160D01*
G74*
G01*
G75*
G03X-26266Y-1459I160J0D01*
G74*
G01*
X-25086Y-1459D01*
G37*
G36*
G01X-32274Y-1099D02*
X-35524Y-1099D01*
X-35524Y-3249D01*
X-32274Y-3249D01*
X-32274Y-1099D01*
G37*
G36*
G01X-5908Y-1024D02*
X-7158Y-1024D01*
X-7158Y-2024D01*
X-5908Y-2024D01*
X-5908Y-1024D01*
G37*
G36*
G01X6356Y-1024D02*
X5106Y-1024D01*
X5106Y-2024D01*
X6356Y-2024D01*
X6356Y-1024D01*
G37*
G36*
G01X-25086Y-809D02*
G75*
G03X-24926Y-649I0J160D01*
G74*
G01*
G75*
G03X-25086Y-489I-160J0D01*
G74*
G01*
X-26266Y-489D01*
G75*
G03X-26426Y-649I0J-160D01*
G74*
G01*
G75*
G03X-26266Y-809I160J0D01*
G74*
G01*
X-25086Y-809D01*
G37*
G36*
G01X24499Y173D02*
X23874Y173D01*
X23874Y-677D01*
X24499Y-677D01*
X24499Y173D01*
G37*
G36*
G01X25924Y173D02*
X25299Y173D01*
X25299Y-677D01*
X25924Y-677D01*
X25924Y173D01*
G37*
G36*
G01X-25086Y-159D02*
G75*
G03X-24926Y1I0J160D01*
G74*
G01*
G75*
G03X-25086Y161I-160J0D01*
G74*
G01*
X-26266Y161D01*
G75*
G03X-26426Y1I0J-160D01*
G74*
G01*
G75*
G03X-26266Y-159I160J0D01*
G74*
G01*
X-25086Y-159D01*
G37*
G36*
G01X-25086Y491D02*
G75*
G03X-24926Y651I0J160D01*
G74*
G01*
G75*
G03X-25086Y811I-160J0D01*
G74*
G01*
X-26266Y811D01*
G75*
G03X-26426Y651I0J-160D01*
G74*
G01*
G75*
G03X-26266Y491I160J0D01*
G74*
G01*
X-25086Y491D01*
G37*
G36*
G01X-5908Y826D02*
X-7158Y826D01*
X-7158Y-174D01*
X-5908Y-174D01*
X-5908Y826D01*
G37*
G36*
G01X6356Y826D02*
X5106Y826D01*
X5106Y-174D01*
X6356Y-174D01*
X6356Y826D01*
G37*
G36*
G01X-25086Y1141D02*
G75*
G03X-24926Y1301I0J160D01*
G74*
G01*
G75*
G03X-25086Y1461I-160J0D01*
G74*
G01*
X-26266Y1461D01*
G75*
G03X-26426Y1301I0J-160D01*
G74*
G01*
G75*
G03X-26266Y1141I160J0D01*
G74*
G01*
X-25086Y1141D01*
G37*
G36*
G01X-22176Y1776D02*
X-22726Y1776D01*
X-22726Y1459D01*
X-23276Y1459D01*
X-23276Y1776D01*
X-23826Y1776D01*
X-23826Y826D01*
X-22176Y826D01*
X-22176Y1776D01*
G37*
G36*
G01X-5908Y2326D02*
X-7158Y2326D01*
X-7158Y1326D01*
X-5908Y1326D01*
X-5908Y2326D01*
G37*
G36*
G01X6356Y2326D02*
X5106Y2326D01*
X5106Y1326D01*
X6356Y1326D01*
X6356Y2326D01*
G37*
G36*
G01X7992Y2351D02*
X6742Y2351D01*
X6742Y1351D01*
X7992Y1351D01*
X7992Y2351D01*
G37*
G36*
G01X20256Y2351D02*
X19006Y2351D01*
X19006Y1351D01*
X20256Y1351D01*
X20256Y2351D01*
G37*
G36*
G01X-29123Y3351D02*
X-29973Y3351D01*
X-29973Y2726D01*
X-29123Y2726D01*
X-29123Y3351D01*
G37*
G36*
G01X-5908Y3826D02*
X-7158Y3826D01*
X-7158Y2826D01*
X-5908Y2826D01*
X-5908Y3826D01*
G37*
G36*
G01X6356Y3826D02*
X5106Y3826D01*
X5106Y2826D01*
X6356Y2826D01*
X6356Y3826D01*
G37*
G36*
G01X7992Y3851D02*
X6742Y3851D01*
X6742Y2851D01*
X7992Y2851D01*
X7992Y3851D01*
G37*
G36*
G01X20256Y3851D02*
X19006Y3851D01*
X19006Y2851D01*
X20256Y2851D01*
X20256Y3851D01*
G37*
G36*
G01X-22176Y4576D02*
X-23826Y4576D01*
X-23826Y3626D01*
X-23276Y3626D01*
X-23276Y3943D01*
X-22726Y3943D01*
X-22726Y3626D01*
X-22176Y3626D01*
X-22176Y4576D01*
G37*
G36*
G01X-35699Y4751D02*
X-36699Y4751D01*
X-36699Y2601D01*
X-35699Y2601D01*
X-35699Y4751D01*
G37*
G36*
G01X-33399Y4751D02*
X-34399Y4751D01*
X-34399Y2601D01*
X-33399Y2601D01*
X-33399Y4751D01*
G37*
G36*
G01X-31099Y4751D02*
X-32099Y4751D01*
X-32099Y2601D01*
X-31099Y2601D01*
X-31099Y4751D01*
G37*
G36*
G01X-29123Y4776D02*
X-29973Y4776D01*
X-29973Y4151D01*
X-29123Y4151D01*
X-29123Y4776D01*
G37*
G36*
G01X-5908Y5326D02*
X-7158Y5326D01*
X-7158Y4326D01*
X-5908Y4326D01*
X-5908Y5326D01*
G37*
G36*
G01X6356Y5326D02*
X5106Y5326D01*
X5106Y4326D01*
X6356Y4326D01*
X6356Y5326D01*
G37*
G36*
G01X7992Y5351D02*
X6742Y5351D01*
X6742Y4351D01*
X7992Y4351D01*
X7992Y5351D01*
G37*
G36*
G01X20256Y5351D02*
X19006Y5351D01*
X19006Y4351D01*
X20256Y4351D01*
X20256Y5351D01*
G37*
G36*
G01X25158Y6513D02*
X24608Y6513D01*
X24608Y5663D01*
X25158Y5663D01*
X25158Y6513D01*
G37*
G36*
G01X26508Y6513D02*
X25958Y6513D01*
X25958Y5663D01*
X26508Y5663D01*
X26508Y6513D01*
G37*
G36*
G01X-35874Y6176D02*
X-36499Y6176D01*
X-36499Y5326D01*
X-35874Y5326D01*
X-35874Y6176D01*
G37*
G36*
G01X-34449Y6176D02*
X-35074Y6176D01*
X-35074Y5326D01*
X-34449Y5326D01*
X-34449Y6176D01*
G37*
G36*
G01X-5908Y6826D02*
X-7158Y6826D01*
X-7158Y5826D01*
X-5908Y5826D01*
X-5908Y6826D01*
G37*
G36*
G01X6356Y6826D02*
X5106Y6826D01*
X5106Y5826D01*
X6356Y5826D01*
X6356Y6826D01*
G37*
G36*
G01X7992Y6851D02*
X6742Y6851D01*
X6742Y5851D01*
X7992Y5851D01*
X7992Y6851D01*
G37*
G36*
G01X20256Y6851D02*
X19006Y6851D01*
X19006Y5851D01*
X20256Y5851D01*
X20256Y6851D01*
G37*
G36*
G01X25158Y7613D02*
X24608Y7613D01*
X24608Y6763D01*
X25158Y6763D01*
X25158Y7613D01*
G37*
G36*
G01X26508Y7613D02*
X25958Y7613D01*
X25958Y6763D01*
X26508Y6763D01*
X26508Y7613D01*
G37*
G36*
G01X27884Y8538D02*
X27034Y8538D01*
X27034Y7913D01*
X27884Y7913D01*
X27884Y8538D01*
G37*
G36*
G01X7992Y8351D02*
X6742Y8351D01*
X6742Y7351D01*
X7992Y7351D01*
X7992Y8351D01*
G37*
G36*
G01X20256Y8351D02*
X19006Y8351D01*
X19006Y7351D01*
X20256Y7351D01*
X20256Y8351D01*
G37*
G36*
G01X24633Y8563D02*
X24083Y8563D01*
X24083Y7863D01*
X24633Y7863D01*
X24633Y8563D01*
G37*
G36*
G01X26533Y8563D02*
X25983Y8563D01*
X25983Y7863D01*
X26533Y7863D01*
X26533Y8563D01*
G37*
G36*
G01X27884Y9963D02*
X27034Y9963D01*
X27034Y9338D01*
X27884Y9338D01*
X27884Y9963D01*
G37*
G36*
G01X-22995Y9205D02*
X-23845Y9205D01*
X-23845Y8655D01*
X-22995Y8655D01*
X-22995Y9205D01*
G37*
G36*
G01X-5908Y9801D02*
X-7158Y9801D01*
X-7158Y8801D01*
X-5908Y8801D01*
X-5908Y9801D01*
G37*
G36*
G01X6356Y9801D02*
X5106Y9801D01*
X5106Y8801D01*
X6356Y8801D01*
X6356Y9801D01*
G37*
G36*
G01X7992Y10201D02*
X6742Y10201D01*
X6742Y9201D01*
X7992Y9201D01*
X7992Y10201D01*
G37*
G36*
G01X20256Y10201D02*
X19006Y10201D01*
X19006Y9201D01*
X20256Y9201D01*
X20256Y10201D01*
G37*
G36*
G01X25583Y10663D02*
X25033Y10663D01*
X25033Y9963D01*
X25583Y9963D01*
X25583Y10663D01*
G37*
G36*
G01X-22995Y10555D02*
X-23845Y10555D01*
X-23845Y10005D01*
X-22995Y10005D01*
X-22995Y10555D01*
G37*
G36*
G01X-15829Y11151D02*
X-16454Y11151D01*
X-16454Y10301D01*
X-15829Y10301D01*
X-15829Y11151D01*
G37*
G36*
G01X-14404Y11151D02*
X-15029Y11151D01*
X-15029Y10301D01*
X-14404Y10301D01*
X-14404Y11151D01*
G37*
G36*
G01X-5908Y11301D02*
X-7158Y11301D01*
X-7158Y10301D01*
X-5908Y10301D01*
X-5908Y11301D01*
G37*
G36*
G01X6356Y11301D02*
X5106Y11301D01*
X5106Y10301D01*
X6356Y10301D01*
X6356Y11301D01*
G37*
G36*
G01X7992Y11701D02*
X6742Y11701D01*
X6742Y10701D01*
X7992Y10701D01*
X7992Y11701D01*
G37*
G36*
G01X20256Y11701D02*
X19006Y11701D01*
X19006Y10701D01*
X20256Y10701D01*
X20256Y11701D01*
G37*
G36*
G01X-5908Y12801D02*
X-7158Y12801D01*
X-7158Y11801D01*
X-5908Y11801D01*
X-5908Y12801D01*
G37*
G36*
G01X6356Y12801D02*
X5106Y12801D01*
X5106Y11801D01*
X6356Y11801D01*
X6356Y12801D01*
G37*
G36*
G01X7992Y13201D02*
X6742Y13201D01*
X6742Y12201D01*
X7992Y12201D01*
X7992Y13201D01*
G37*
G36*
G01X20256Y13201D02*
X19006Y13201D01*
X19006Y12201D01*
X20256Y12201D01*
X20256Y13201D01*
G37*
G36*
G01X-28124Y14130D02*
X-29224Y14130D01*
X-29224Y11680D01*
X-28124Y11680D01*
X-28124Y14130D01*
G37*
G36*
G01X-26143Y14130D02*
X-27243Y14130D01*
X-27243Y11680D01*
X-26143Y11680D01*
X-26143Y14130D01*
G37*
G36*
G01X-24136Y14130D02*
X-25236Y14130D01*
X-25236Y11680D01*
X-24136Y11680D01*
X-24136Y14130D01*
G37*
G36*
G01X-22155Y14130D02*
X-23255Y14130D01*
X-23255Y11680D01*
X-22155Y11680D01*
X-22155Y14130D01*
G37*
G36*
G01X-20123Y14130D02*
X-21223Y14130D01*
X-21223Y11680D01*
X-20123Y11680D01*
X-20123Y14130D01*
G37*
G36*
G01X-18142Y14130D02*
X-19242Y14130D01*
X-19242Y11680D01*
X-18142Y11680D01*
X-18142Y14130D01*
G37*
G36*
G01X-16161Y14130D02*
X-17261Y14130D01*
X-17261Y11680D01*
X-16161Y11680D01*
X-16161Y14130D01*
G37*
G36*
G01X-14154Y14130D02*
X-15254Y14130D01*
X-15254Y11680D01*
X-14154Y11680D01*
X-14154Y14130D01*
G37*
G36*
G01X-5908Y14301D02*
X-7158Y14301D01*
X-7158Y13301D01*
X-5908Y13301D01*
X-5908Y14301D01*
G37*
G36*
G01X6356Y14301D02*
X5106Y14301D01*
X5106Y13301D01*
X6356Y13301D01*
X6356Y14301D01*
G37*
G36*
G01X7992Y14701D02*
X6742Y14701D01*
X6742Y13701D01*
X7992Y13701D01*
X7992Y14701D01*
G37*
G36*
G01X20256Y14701D02*
X19006Y14701D01*
X19006Y13701D01*
X20256Y13701D01*
X20256Y14701D01*
G37*
G36*
G01X-5908Y15801D02*
X-7158Y15801D01*
X-7158Y14801D01*
X-5908Y14801D01*
X-5908Y15801D01*
G37*
G36*
G01X6356Y15801D02*
X5106Y15801D01*
X5106Y14801D01*
X6356Y14801D01*
X6356Y15801D01*
G37*
G36*
G01X7992Y16201D02*
X6742Y16201D01*
X6742Y15201D01*
X7992Y15201D01*
X7992Y16201D01*
G37*
G36*
G01X20256Y16201D02*
X19006Y16201D01*
X19006Y15201D01*
X20256Y15201D01*
X20256Y16201D01*
G37*
G36*
G01X-11421Y16224D02*
X-13871Y16224D01*
X-13871Y15124D01*
X-11421Y15124D01*
X-11421Y16224D01*
G37*
G36*
G01X35199Y16496D02*
X34149Y16496D01*
X34149Y14946D01*
X35199Y14946D01*
X35199Y16496D01*
G37*
G36*
G01X36649Y16496D02*
X35599Y16496D01*
X35599Y14946D01*
X36649Y14946D01*
X36649Y16496D01*
G37*
G36*
G01X-11421Y18206D02*
X-13871Y18206D01*
X-13871Y17106D01*
X-11421Y17106D01*
X-11421Y18206D01*
G37*
G36*
G01X10142Y18891D02*
X9592Y18891D01*
X9592Y18191D01*
X10142Y18191D01*
X10142Y18891D01*
G37*
G36*
G01X7926Y19516D02*
X7076Y19516D01*
X7076Y18891D01*
X7926Y18891D01*
X7926Y19516D01*
G37*
G36*
G01X5163Y19536D02*
X4313Y19536D01*
X4313Y18911D01*
X5163Y18911D01*
X5163Y19536D01*
G37*
G36*
G01X1752Y19561D02*
X1202Y19561D01*
X1202Y18861D01*
X1752Y18861D01*
X1752Y19561D01*
G37*
G36*
G01X3652Y19561D02*
X3102Y19561D01*
X3102Y18861D01*
X3652Y18861D01*
X3652Y19561D01*
G37*
G36*
G01X-11421Y20187D02*
X-13871Y20187D01*
X-13871Y19087D01*
X-11421Y19087D01*
X-11421Y20187D01*
G37*
G36*
G01X35199Y20246D02*
X34149Y20246D01*
X34149Y18696D01*
X35199Y18696D01*
X35199Y20246D01*
G37*
G36*
G01X36649Y20246D02*
X35599Y20246D01*
X35599Y18696D01*
X36649Y18696D01*
X36649Y20246D01*
G37*
G36*
G01X7926Y20941D02*
X7076Y20941D01*
X7076Y20316D01*
X7926Y20316D01*
X7926Y20941D01*
G37*
G36*
G01X5163Y20961D02*
X4313Y20961D01*
X4313Y20336D01*
X5163Y20336D01*
X5163Y20961D01*
G37*
G36*
G01X9192Y20991D02*
X8642Y20991D01*
X8642Y20291D01*
X9192Y20291D01*
X9192Y20991D01*
G37*
G36*
G01X11092Y20991D02*
X10542Y20991D01*
X10542Y20291D01*
X11092Y20291D01*
X11092Y20991D01*
G37*
G36*
G01X2702Y21661D02*
X2152Y21661D01*
X2152Y20961D01*
X2702Y20961D01*
X2702Y21661D01*
G37*
G36*
G01X9708Y22268D02*
X9158Y22268D01*
X9158Y21418D01*
X9708Y21418D01*
X9708Y22268D01*
G37*
G36*
G01X11058Y22268D02*
X10508Y22268D01*
X10508Y21418D01*
X11058Y21418D01*
X11058Y22268D01*
G37*
G36*
G01X-11421Y22219D02*
X-13871Y22219D01*
X-13871Y21119D01*
X-11421Y21119D01*
X-11421Y22219D01*
G37*
G36*
G01X2399Y22872D02*
X1849Y22872D01*
X1849Y22022D01*
X2399Y22022D01*
X2399Y22872D01*
G37*
G36*
G01X3749Y22872D02*
X3199Y22872D01*
X3199Y22022D01*
X3749Y22022D01*
X3749Y22872D01*
G37*
G36*
G01X9708Y23467D02*
X9158Y23467D01*
X9158Y22617D01*
X9708Y22617D01*
X9708Y23467D01*
G37*
G36*
G01X11058Y23467D02*
X10508Y23467D01*
X10508Y22617D01*
X11058Y22617D01*
X11058Y23467D01*
G37*
G36*
G01X2399Y24094D02*
X1849Y24094D01*
X1849Y23244D01*
X2399Y23244D01*
X2399Y24094D01*
G37*
G36*
G01X3749Y24094D02*
X3199Y24094D01*
X3199Y23244D01*
X3749Y23244D01*
X3749Y24094D01*
G37*
G36*
G01X-11421Y24200D02*
X-13871Y24200D01*
X-13871Y23100D01*
X-11421Y23100D01*
X-11421Y24200D01*
G37*
G36*
G01X-11421Y26232D02*
X-13871Y26232D01*
X-13871Y25132D01*
X-11421Y25132D01*
X-11421Y26232D01*
G37*
G36*
G01X23744Y27699D02*
X22194Y27699D01*
X22194Y26649D01*
X23744Y26649D01*
X23744Y27699D01*
G37*
G36*
G01X27494Y27699D02*
X25944Y27699D01*
X25944Y26649D01*
X27494Y26649D01*
X27494Y27699D01*
G37*
G36*
G01X-10076Y28101D02*
X-10926Y28101D01*
X-10926Y27551D01*
X-10076Y27551D01*
X-10076Y28101D01*
G37*
G36*
G01X23744Y29149D02*
X22194Y29149D01*
X22194Y28099D01*
X23744Y28099D01*
X23744Y29149D01*
G37*
G36*
G01X27494Y29149D02*
X25944Y29149D01*
X25944Y28099D01*
X27494Y28099D01*
X27494Y29149D01*
G37*
G36*
G01X-10076Y29451D02*
X-10926Y29451D01*
X-10926Y28901D01*
X-10076Y28901D01*
X-10076Y29451D01*
G37*
G36*
G01X-28124Y29676D02*
X-29224Y29676D01*
X-29224Y27226D01*
X-28124Y27226D01*
X-28124Y29676D01*
G37*
G36*
G01X-26143Y29676D02*
X-27243Y29676D01*
X-27243Y27226D01*
X-26143Y27226D01*
X-26143Y29676D01*
G37*
G36*
G01X-24111Y29676D02*
X-25211Y29676D01*
X-25211Y27226D01*
X-24111Y27226D01*
X-24111Y29676D01*
G37*
G36*
G01X-22130Y29676D02*
X-23230Y29676D01*
X-23230Y27226D01*
X-22130Y27226D01*
X-22130Y29676D01*
G37*
G36*
G01X-20123Y29676D02*
X-21223Y29676D01*
X-21223Y27226D01*
X-20123Y27226D01*
X-20123Y29676D01*
G37*
G36*
G01X-18116Y29701D02*
X-19216Y29701D01*
X-19216Y27251D01*
X-18116Y27251D01*
X-18116Y29701D01*
G37*
G36*
G01X-16135Y29701D02*
X-17235Y29701D01*
X-17235Y27251D01*
X-16135Y27251D01*
X-16135Y29701D01*
G37*
G36*
G01X-14129Y29701D02*
X-15229Y29701D01*
X-15229Y27251D01*
X-14129Y27251D01*
X-14129Y29701D01*
G37*
G54D179*
X75000Y750D02*
X75000Y57000D01*
G75*
G03X72000Y60000I-3000J0D01*
G74*
G01*
X750Y60000D01*
X750Y-60000D02*
X72000Y-60000D01*
G75*
G03X75000Y-57000I0J3000D01*
G74*
G01*
X75000Y-750D01*
X-750Y60000D02*
X-72000Y60000D01*
G75*
G03X-75000Y57000I0J-3000D01*
G74*
G01*
X-75000Y750D01*
X-75000Y-750D02*
X-75000Y-57000D01*
G75*
G03X-72000Y-60000I3000J0D01*
G74*
G01*
X-750Y-60000D01*
M02*
