%TF.GenerationSoftware,Altium Limited,Altium Designer,20.1.8 (145)*%
G04 Layer_Physical_Order=2*
G04 Layer_Color=36540*
%FSLAX43Y43*%
%MOMM*%
%TF.SameCoordinates,D169B7AB-BDD6-48C1-BF66-756871F3EBFE*%
%TF.FilePolarity,Positive*%
%TF.FileFunction,Copper,L2,Inr,Signal*%
%TF.Part,Single*%
G01*
G75*
%TA.AperFunction,Conductor*%
%ADD10C,0.127*%
%ADD12C,0.152*%
%TA.AperFunction,ComponentPad*%
%ADD48O,1.900X1.100*%
%ADD49O,2.200X1.100*%
%ADD50C,0.700*%
%ADD51C,1.500*%
G04:AMPARAMS|DCode=52|XSize=1.5mm|YSize=1.5mm|CornerRadius=0.15mm|HoleSize=0mm|Usage=FLASHONLY|Rotation=0.000|XOffset=0mm|YOffset=0mm|HoleType=Round|Shape=RoundedRectangle|*
%AMROUNDEDRECTD52*
21,1,1.500,1.200,0,0,0.0*
21,1,1.200,1.500,0,0,0.0*
1,1,0.300,0.600,-0.600*
1,1,0.300,-0.600,-0.600*
1,1,0.300,-0.600,0.600*
1,1,0.300,0.600,0.600*
%
%ADD52ROUNDEDRECTD52*%
G04:AMPARAMS|DCode=53|XSize=1.5mm|YSize=1.5mm|CornerRadius=0.188mm|HoleSize=0mm|Usage=FLASHONLY|Rotation=0.000|XOffset=0mm|YOffset=0mm|HoleType=Round|Shape=RoundedRectangle|*
%AMROUNDEDRECTD53*
21,1,1.500,1.125,0,0,0.0*
21,1,1.125,1.500,0,0,0.0*
1,1,0.375,0.563,-0.563*
1,1,0.375,-0.563,-0.563*
1,1,0.375,-0.563,0.563*
1,1,0.375,0.563,0.563*
%
%ADD53ROUNDEDRECTD53*%
%TA.AperFunction,ViaPad*%
%ADD54C,0.660*%
%ADD55C,0.760*%
%ADD56C,3.200*%
%ADD57C,1.300*%
%TA.AperFunction,Conductor*%
%ADD58C,0.508*%
%ADD59C,0.203*%
G36*
X1060314Y1079796D02*
X1060938Y1079714D01*
X1061545Y1079551D01*
X1062126Y1079311D01*
X1062670Y1078996D01*
X1063169Y1078614D01*
X1063614Y1078169D01*
X1063996Y1077670D01*
X1064311Y1077126D01*
X1064551Y1076545D01*
X1064714Y1075938D01*
X1064796Y1075314D01*
X1064796Y1075000D01*
Y1058355D01*
X1064644Y1058273D01*
X1064636Y1058278D01*
X1064458Y1058314D01*
X1064279Y1058278D01*
X1064128Y1058177D01*
X1064027Y1058026D01*
X1063992Y1057848D01*
X1064023Y1057688D01*
X1063800Y1057465D01*
X1063758Y1057402D01*
X1063743Y1057328D01*
Y1056820D01*
X1063758Y1056746D01*
X1063800Y1056683D01*
X1064288Y1056194D01*
Y1052020D01*
X1064136Y1051974D01*
X1064130Y1051983D01*
X1063979Y1052084D01*
X1063801Y1052119D01*
X1063622Y1052084D01*
X1063471Y1051983D01*
X1063370Y1051831D01*
X1063335Y1051653D01*
X1063370Y1051475D01*
X1063471Y1051324D01*
X1063622Y1051223D01*
X1063801Y1051187D01*
X1063979Y1051223D01*
X1064130Y1051324D01*
X1064136Y1051332D01*
X1064288Y1051286D01*
Y1018091D01*
X1061895D01*
X1061805Y1018227D01*
X1061653Y1018328D01*
X1061475Y1018363D01*
X1061297Y1018328D01*
X1061146Y1018227D01*
X1061045Y1018075D01*
X1061009Y1017897D01*
X1061045Y1017719D01*
X1061146Y1017568D01*
X1061297Y1017467D01*
X1061475Y1017431D01*
X1061653Y1017467D01*
X1061805Y1017568D01*
X1061895Y1017703D01*
X1064408D01*
X1064542Y1017588D01*
Y1016248D01*
X1062192D01*
X1062102Y1016383D01*
X1061950Y1016484D01*
X1061772Y1016519D01*
X1061594Y1016484D01*
X1061443Y1016383D01*
X1061342Y1016232D01*
X1061306Y1016053D01*
X1061342Y1015875D01*
X1061443Y1015724D01*
X1061594Y1015623D01*
X1061772Y1015587D01*
X1061950Y1015623D01*
X1062102Y1015724D01*
X1062192Y1015859D01*
X1064662D01*
X1064796Y1015744D01*
Y1001000D01*
Y1000922D01*
X1064766Y1000768D01*
X1064705Y1000623D01*
X1064618Y1000492D01*
X1064507Y1000382D01*
X1064377Y1000294D01*
X1064232Y1000234D01*
X1064078Y1000204D01*
X1063630D01*
X1063580Y1000348D01*
X1063620Y1000445D01*
Y1006212D01*
X1063580Y1006309D01*
X1063482Y1006349D01*
X1047175D01*
X1047077Y1006309D01*
X1047037Y1006212D01*
Y1000445D01*
X1047077Y1000348D01*
X1047027Y1000204D01*
X1031494D01*
X1031430Y1000356D01*
X1031794Y1000720D01*
X1031868Y1000734D01*
X1032019Y1000836D01*
X1032120Y1000987D01*
X1032156Y1001165D01*
X1032120Y1001343D01*
X1032019Y1001494D01*
X1031868Y1001595D01*
X1031690Y1001631D01*
X1031511Y1001595D01*
X1031360Y1001494D01*
X1031259Y1001343D01*
X1031245Y1001269D01*
X1030853Y1000877D01*
X1001249D01*
X1001030Y1001096D01*
Y1030325D01*
X1001072Y1030388D01*
X1001107Y1030566D01*
X1001072Y1030745D01*
X1000971Y1030896D01*
X1000820Y1030997D01*
X1000641Y1031032D01*
X1000463Y1030997D01*
X1000356Y1030926D01*
X1000215Y1030984D01*
X1000204Y1030993D01*
Y1075000D01*
X1000204Y1075314D01*
X1000286Y1075938D01*
X1000449Y1076545D01*
X1000689Y1077126D01*
X1001004Y1077670D01*
X1001386Y1078169D01*
X1001831Y1078614D01*
X1002330Y1078996D01*
X1002874Y1079311D01*
X1003455Y1079551D01*
X1004062Y1079714D01*
X1004686Y1079796D01*
X1005000Y1079796D01*
X1022095D01*
X1022182Y1079644D01*
X1022160Y1079607D01*
X1021524D01*
X1021524Y1079607D01*
X1021444Y1079591D01*
X1021377Y1079547D01*
X1021377Y1079547D01*
X1021288Y1079457D01*
X1021243Y1079390D01*
X1021227Y1079311D01*
X1021227Y1079311D01*
Y1067772D01*
X1020686Y1067509D01*
X1019349Y1066755D01*
X1018059Y1065921D01*
X1016823Y1065011D01*
X1015643Y1064028D01*
X1014525Y1062975D01*
X1013472Y1061857D01*
X1012489Y1060677D01*
X1011579Y1059441D01*
X1010745Y1058151D01*
X1009991Y1056814D01*
X1009319Y1055433D01*
X1008838Y1054271D01*
X1008815Y1054268D01*
X1008636Y1054194D01*
X1008482Y1054076D01*
X1008364Y1053922D01*
X1008290Y1053743D01*
X1008265Y1053551D01*
X1008290Y1053358D01*
X1008364Y1053179D01*
X1008419Y1053108D01*
X1008223Y1052540D01*
X1008026Y1051836D01*
X1008022Y1051830D01*
X1008018Y1051810D01*
X1008010Y1051791D01*
X1007985Y1051663D01*
X1007816Y1051598D01*
X1007742Y1051648D01*
X1007563Y1051683D01*
X1007385Y1051648D01*
X1007234Y1051547D01*
X1007133Y1051396D01*
X1007097Y1051217D01*
X1007133Y1051039D01*
X1007234Y1050888D01*
X1007385Y1050787D01*
X1007563Y1050751D01*
X1007619Y1050762D01*
X1007741Y1050631D01*
X1007633Y1050239D01*
X1007631Y1050214D01*
X1007496Y1049582D01*
X1007265Y1048064D01*
X1007126Y1046535D01*
X1007079Y1045000D01*
X1007126Y1043465D01*
X1007265Y1041936D01*
X1007496Y1040418D01*
X1007818Y1038916D01*
X1008230Y1037437D01*
X1008731Y1035986D01*
X1009319Y1034567D01*
X1009991Y1033186D01*
X1010596Y1032114D01*
Y1031989D01*
X1005444Y1026837D01*
X1005300Y1026866D01*
X1005122Y1026830D01*
X1004971Y1026729D01*
X1004870Y1026578D01*
X1004834Y1026400D01*
X1004870Y1026222D01*
X1004971Y1026071D01*
X1005122Y1025969D01*
X1005300Y1025934D01*
X1005478Y1025969D01*
X1005629Y1026071D01*
X1005730Y1026222D01*
X1005766Y1026400D01*
X1005737Y1026544D01*
X1010950Y1031757D01*
X1010950Y1031757D01*
X1010952Y1031760D01*
X1011077Y1031777D01*
X1011127Y1031767D01*
X1011589Y1031032D01*
X1011592Y1031030D01*
X1011593Y1031026D01*
X1012405Y1029882D01*
X1012408Y1029879D01*
X1012409Y1029875D01*
X1013284Y1028779D01*
X1013288Y1028777D01*
X1013289Y1028773D01*
X1014224Y1027727D01*
X1014228Y1027725D01*
X1014229Y1027721D01*
X1015221Y1026729D01*
X1015225Y1026728D01*
X1015227Y1026724D01*
X1016273Y1025789D01*
X1016277Y1025788D01*
X1016279Y1025784D01*
X1017375Y1024909D01*
X1017379Y1024908D01*
X1017382Y1024905D01*
X1018526Y1024093D01*
X1018530Y1024092D01*
X1018532Y1024089D01*
X1019720Y1023342D01*
X1019724Y1023342D01*
X1019727Y1023338D01*
X1020480Y1022922D01*
X1020490Y1022908D01*
X1020468Y1022800D01*
X1020504Y1022622D01*
X1020605Y1022471D01*
X1020756Y1022370D01*
X1020934Y1022334D01*
X1021113Y1022370D01*
X1021264Y1022471D01*
X1021307Y1022490D01*
X1022225Y1022048D01*
X1022229Y1022047D01*
X1022232Y1022044D01*
X1022865Y1021782D01*
X1022835Y1021630D01*
X1022694Y1021602D01*
X1022543Y1021501D01*
X1022442Y1021350D01*
X1022407Y1021171D01*
X1022442Y1020993D01*
X1022543Y1020842D01*
X1022694Y1020741D01*
X1022873Y1020705D01*
X1023051Y1020741D01*
X1023202Y1020842D01*
X1023303Y1020993D01*
X1023339Y1021171D01*
X1023303Y1021350D01*
X1023223Y1021469D01*
X1023310Y1021598D01*
X1023528Y1021508D01*
X1023532D01*
X1023536Y1021505D01*
X1024860Y1021042D01*
X1024864Y1021042D01*
X1024867Y1021039D01*
X1026215Y1020651D01*
X1026219Y1020651D01*
X1026223Y1020649D01*
X1027590Y1020337D01*
X1027594Y1020337D01*
X1027598Y1020335D01*
X1028981Y1020100D01*
X1028985Y1020101D01*
X1028989Y1020099D01*
X1030383Y1019942D01*
X1030386Y1019943D01*
X1030390Y1019941D01*
X1031791Y1019863D01*
X1031795Y1019864D01*
X1031799Y1019863D01*
X1033201D01*
X1033205Y1019864D01*
X1033209Y1019863D01*
X1034610Y1019941D01*
X1034614Y1019943D01*
X1034617Y1019942D01*
X1036011Y1020099D01*
X1036015Y1020101D01*
X1036019Y1020100D01*
X1036394Y1020164D01*
X1036518Y1020076D01*
X1037448Y1014556D01*
Y1012518D01*
X1037403Y1012451D01*
X1037367Y1012272D01*
X1037403Y1012094D01*
X1037504Y1011943D01*
X1037655Y1011842D01*
X1037833Y1011806D01*
X1038011Y1011842D01*
X1038163Y1011943D01*
X1038264Y1012094D01*
X1038299Y1012272D01*
X1038264Y1012451D01*
X1038225Y1012509D01*
Y1014588D01*
X1038218Y1014620D01*
X1038219Y1014653D01*
X1037266Y1020312D01*
X1037402Y1020335D01*
X1037406Y1020337D01*
X1037410Y1020337D01*
X1037701Y1020403D01*
X1037727Y1020398D01*
X1037787Y1020310D01*
X1037938Y1020208D01*
X1038116Y1020173D01*
X1038294Y1020208D01*
X1038446Y1020310D01*
X1038547Y1020461D01*
X1038582Y1020639D01*
X1038616Y1020633D01*
X1038667Y1020624D01*
X1038668Y1020624D01*
X1038669Y1020624D01*
X1038777Y1020649D01*
X1038781Y1020651D01*
X1038785Y1020651D01*
X1040133Y1021039D01*
X1040136Y1021042D01*
X1040140Y1021042D01*
X1041464Y1021505D01*
X1041468Y1021508D01*
X1041472D01*
X1042768Y1022044D01*
X1042771Y1022047D01*
X1042775Y1022048D01*
X1044039Y1022656D01*
X1044042Y1022659D01*
X1044046Y1022660D01*
X1045273Y1023338D01*
X1045276Y1023342D01*
X1045280Y1023342D01*
X1046468Y1024089D01*
X1046470Y1024092D01*
X1046474Y1024093D01*
X1047618Y1024905D01*
X1047621Y1024908D01*
X1047625Y1024909D01*
X1048721Y1025784D01*
X1048723Y1025788D01*
X1048727Y1025789D01*
X1049773Y1026724D01*
X1049775Y1026728D01*
X1049779Y1026729D01*
X1050771Y1027721D01*
X1050772Y1027725D01*
X1050776Y1027727D01*
X1051711Y1028773D01*
X1051712Y1028777D01*
X1051716Y1028779D01*
X1051989Y1029122D01*
X1051992Y1029125D01*
X1051993Y1029126D01*
X1052022Y1029178D01*
X1052200Y1029142D01*
X1052379Y1029178D01*
X1052530Y1029279D01*
X1052631Y1029430D01*
X1052666Y1029609D01*
X1052631Y1029787D01*
X1052591Y1029847D01*
X1052599Y1029887D01*
X1053407Y1031026D01*
X1053408Y1031030D01*
X1053411Y1031032D01*
X1054158Y1032220D01*
X1054158Y1032224D01*
X1054162Y1032227D01*
X1054840Y1033454D01*
X1054841Y1033458D01*
X1054844Y1033461D01*
X1055179Y1034157D01*
X1055274Y1034145D01*
X1055330Y1034120D01*
X1055362Y1033960D01*
X1055463Y1033809D01*
X1055614Y1033708D01*
X1055792Y1033673D01*
X1055970Y1033708D01*
X1056122Y1033809D01*
X1056223Y1033960D01*
X1056258Y1034139D01*
X1056223Y1034317D01*
X1056122Y1034468D01*
X1055970Y1034569D01*
X1055792Y1034605D01*
X1055614Y1034569D01*
X1055514Y1034503D01*
X1055408Y1034596D01*
X1055456Y1034732D01*
X1055992Y1036028D01*
Y1036032D01*
X1055995Y1036036D01*
X1056458Y1037360D01*
X1056458Y1037364D01*
X1056461Y1037367D01*
X1056849Y1038715D01*
X1056849Y1038719D01*
X1056851Y1038723D01*
X1057163Y1040090D01*
X1057163Y1040094D01*
X1057165Y1040098D01*
X1057400Y1041481D01*
X1057399Y1041485D01*
X1057401Y1041489D01*
X1057558Y1042883D01*
X1057557Y1042886D01*
X1057559Y1042890D01*
X1057637Y1044291D01*
X1057636Y1044295D01*
X1057637Y1044299D01*
X1057637Y1045000D01*
X1057637Y1045701D01*
X1057636Y1045705D01*
X1057637Y1045709D01*
X1057559Y1047110D01*
X1057557Y1047114D01*
X1057558Y1047117D01*
X1057401Y1048511D01*
X1057399Y1048515D01*
X1057400Y1048519D01*
X1057177Y1049830D01*
X1057152Y1049870D01*
X1057130Y1049912D01*
X1057133Y1049977D01*
X1057236Y1050046D01*
X1057337Y1050197D01*
X1057372Y1050375D01*
X1057337Y1050554D01*
X1057236Y1050705D01*
X1057085Y1050806D01*
X1056912Y1050840D01*
X1056919Y1050886D01*
X1056929Y1050937D01*
X1056928Y1050938D01*
X1056928Y1050939D01*
X1056851Y1051277D01*
X1056849Y1051281D01*
X1056849Y1051285D01*
X1056461Y1052633D01*
X1056458Y1052636D01*
X1056458Y1052640D01*
X1055995Y1053964D01*
X1055992Y1053968D01*
Y1053972D01*
X1055456Y1055268D01*
X1055453Y1055271D01*
X1055452Y1055275D01*
X1054844Y1056539D01*
X1054841Y1056542D01*
X1054840Y1056546D01*
X1054162Y1057773D01*
X1054158Y1057776D01*
X1054158Y1057780D01*
X1053411Y1058968D01*
X1053408Y1058970D01*
X1053407Y1058974D01*
X1052595Y1060118D01*
X1052592Y1060121D01*
X1052591Y1060125D01*
X1051716Y1061221D01*
X1051712Y1061223D01*
X1051711Y1061227D01*
X1050909Y1062124D01*
X1050898Y1062165D01*
X1050914Y1062188D01*
X1050949Y1062366D01*
X1050914Y1062545D01*
X1050813Y1062696D01*
X1050662Y1062797D01*
X1050484Y1062832D01*
X1050305Y1062797D01*
X1050252Y1062798D01*
X1049779Y1063271D01*
X1049775Y1063272D01*
X1049773Y1063276D01*
X1048852Y1064099D01*
X1048923Y1064241D01*
X1049020Y1064221D01*
X1049198Y1064257D01*
X1049349Y1064358D01*
X1049450Y1064509D01*
X1049486Y1064687D01*
X1049450Y1064866D01*
X1049349Y1065017D01*
X1049198Y1065118D01*
X1049020Y1065153D01*
X1048841Y1065118D01*
X1048690Y1065017D01*
X1048589Y1064866D01*
X1048554Y1064687D01*
X1048587Y1064518D01*
X1048579Y1064506D01*
X1048441Y1064440D01*
X1047625Y1065091D01*
X1047621Y1065092D01*
X1047618Y1065095D01*
X1046474Y1065907D01*
X1046470Y1065908D01*
X1046468Y1065911D01*
X1045280Y1066658D01*
X1045276Y1066658D01*
X1045273Y1066662D01*
X1044046Y1067340D01*
X1044042Y1067341D01*
X1044039Y1067344D01*
X1042775Y1067952D01*
X1042771Y1067953D01*
X1042768Y1067956D01*
X1041472Y1068492D01*
X1041468D01*
X1041464Y1068495D01*
X1040140Y1068958D01*
X1040136Y1068958D01*
X1040133Y1068961D01*
X1038785Y1069349D01*
X1038781Y1069349D01*
X1038777Y1069351D01*
X1037410Y1069663D01*
X1037406Y1069663D01*
X1037402Y1069665D01*
X1036019Y1069900D01*
X1036015Y1069899D01*
X1036012Y1069901D01*
X1034618Y1070058D01*
X1034614Y1070057D01*
X1034610Y1070059D01*
X1033209Y1070137D01*
X1033205Y1070136D01*
X1033201Y1070137D01*
X1032500D01*
X1031799Y1070137D01*
X1031795Y1070136D01*
X1031791Y1070137D01*
X1030390Y1070059D01*
X1030386Y1070057D01*
X1030383Y1070058D01*
X1028989Y1069901D01*
X1028985Y1069899D01*
X1028981Y1069900D01*
X1027598Y1069665D01*
X1027594Y1069663D01*
X1027590Y1069663D01*
X1026223Y1069351D01*
X1026219Y1069349D01*
X1026215Y1069349D01*
X1024867Y1068961D01*
X1024864Y1068958D01*
X1024860Y1068958D01*
X1023536Y1068495D01*
X1023532Y1068492D01*
X1023528D01*
X1022232Y1067956D01*
X1022229Y1067953D01*
X1022225Y1067952D01*
X1021771Y1067734D01*
X1021642Y1067815D01*
Y1079193D01*
X1022289D01*
X1022371Y1079071D01*
X1022522Y1078969D01*
X1022700Y1078934D01*
X1022878Y1078969D01*
X1023029Y1079071D01*
X1023130Y1079222D01*
X1023166Y1079400D01*
X1023130Y1079578D01*
X1023087Y1079644D01*
X1023168Y1079796D01*
X1060000D01*
X1060314Y1079796D01*
D02*
G37*
G36*
X1032500Y1070000D02*
X1033201D01*
X1034602Y1069921D01*
X1035996Y1069764D01*
X1037379Y1069529D01*
X1038747Y1069217D01*
X1040095Y1068829D01*
X1041419Y1068365D01*
X1042715Y1067829D01*
X1043979Y1067220D01*
X1045207Y1066541D01*
X1046395Y1065795D01*
X1047539Y1064983D01*
X1048636Y1064108D01*
X1049682Y1063174D01*
X1050155Y1062701D01*
X1050154Y1062696D01*
X1050053Y1062545D01*
X1050018Y1062366D01*
X1050053Y1062188D01*
X1050154Y1062037D01*
X1050305Y1061936D01*
X1050484Y1061901D01*
X1050662Y1061936D01*
X1050807Y1062033D01*
X1051609Y1061136D01*
X1052483Y1060039D01*
X1053295Y1058895D01*
X1054041Y1057707D01*
X1054720Y1056479D01*
X1055329Y1055215D01*
X1055865Y1053919D01*
X1056329Y1052595D01*
X1056717Y1051247D01*
X1056794Y1050908D01*
X1056729Y1050807D01*
X1056671Y1050804D01*
X1056601Y1050833D01*
X1056500Y1050984D01*
X1056349Y1051085D01*
X1056171Y1051121D01*
X1055992Y1051085D01*
X1055841Y1050984D01*
X1055740Y1050833D01*
X1055705Y1050655D01*
X1055740Y1050476D01*
X1055841Y1050325D01*
X1055992Y1050224D01*
X1056171Y1050189D01*
X1056341Y1050223D01*
X1056406Y1050226D01*
X1056476Y1050197D01*
X1056577Y1050046D01*
X1056728Y1049945D01*
X1056906Y1049909D01*
X1056916Y1049911D01*
X1057042Y1049807D01*
X1057264Y1048496D01*
X1057421Y1047102D01*
X1057500Y1045701D01*
X1057500Y1045000D01*
X1057500Y1044299D01*
X1057421Y1042898D01*
X1057264Y1041504D01*
X1057029Y1040121D01*
X1056717Y1038753D01*
X1056329Y1037405D01*
X1055865Y1036081D01*
X1055329Y1034785D01*
X1054720Y1033521D01*
X1054041Y1032293D01*
X1053295Y1031105D01*
X1052487Y1029967D01*
X1052379Y1030039D01*
X1052200Y1030074D01*
X1052022Y1030039D01*
X1051871Y1029938D01*
X1051770Y1029787D01*
X1051734Y1029609D01*
X1051770Y1029430D01*
X1051871Y1029279D01*
X1051882Y1029207D01*
X1051608Y1028864D01*
X1050674Y1027818D01*
X1049682Y1026826D01*
X1048636Y1025892D01*
X1047539Y1025017D01*
X1046395Y1024205D01*
X1045207Y1023459D01*
X1043979Y1022780D01*
X1042715Y1022171D01*
X1041419Y1021635D01*
X1040095Y1021171D01*
X1038747Y1020783D01*
X1038638Y1020758D01*
X1038547Y1020817D01*
X1038446Y1020968D01*
X1038294Y1021069D01*
X1038116Y1021105D01*
X1037938Y1021069D01*
X1037787Y1020968D01*
X1037686Y1020817D01*
X1037650Y1020639D01*
X1037670Y1020537D01*
X1037379Y1020471D01*
X1035996Y1020236D01*
X1034602Y1020079D01*
X1033201Y1020000D01*
X1031799D01*
X1030398Y1020079D01*
X1029004Y1020236D01*
X1027621Y1020471D01*
X1026253Y1020783D01*
X1024905Y1021171D01*
X1023581Y1021635D01*
X1022285Y1022171D01*
X1021367Y1022613D01*
X1021365Y1022622D01*
X1021400Y1022800D01*
X1021365Y1022979D01*
X1021264Y1023130D01*
X1021113Y1023231D01*
X1020934Y1023266D01*
X1020756Y1023231D01*
X1020605Y1023130D01*
X1020546Y1023042D01*
X1019793Y1023459D01*
X1018605Y1024205D01*
X1017461Y1025017D01*
X1016364Y1025892D01*
X1015318Y1026826D01*
X1014326Y1027818D01*
X1013392Y1028864D01*
X1012517Y1029961D01*
X1011705Y1031105D01*
X1011039Y1032165D01*
X1010984Y1032278D01*
X1010923Y1032388D01*
X1010362Y1033381D01*
X1009701Y1034739D01*
X1009123Y1036134D01*
X1008631Y1037562D01*
X1008225Y1039017D01*
X1007908Y1040493D01*
X1007683Y1041976D01*
X1007679Y1042005D01*
X1007547Y1043458D01*
X1007543Y1043533D01*
X1007500Y1044956D01*
Y1045044D01*
X1007543Y1046467D01*
X1007547Y1046542D01*
X1007679Y1047995D01*
X1007683Y1048024D01*
X1007908Y1049507D01*
X1008044Y1050140D01*
X1008044Y1050140D01*
X1008038Y1050149D01*
X1008277Y1051019D01*
X1008279Y1051020D01*
X1008281Y1051025D01*
X1008283Y1051040D01*
X1008290Y1051073D01*
X1008303Y1051142D01*
X1008412Y1051687D01*
X1008421Y1051692D01*
X1008421D01*
X1008623Y1052415D01*
X1008854Y1053085D01*
X1008971Y1053092D01*
X1009008Y1053085D01*
X1009186Y1053120D01*
X1009337Y1053221D01*
X1009438Y1053372D01*
X1009474Y1053551D01*
X1009438Y1053729D01*
X1009337Y1053880D01*
X1009267Y1053927D01*
X1009191Y1054000D01*
X1009220Y1054099D01*
X1009701Y1055261D01*
X1010362Y1056619D01*
X1011104Y1057934D01*
X1011924Y1059202D01*
X1012813Y1060410D01*
X1012832Y1060434D01*
X1013766Y1061554D01*
X1013816Y1061610D01*
X1014791Y1062646D01*
X1014854Y1062709D01*
X1015890Y1063684D01*
X1015946Y1063734D01*
X1017066Y1064668D01*
X1017090Y1064687D01*
X1018298Y1065576D01*
X1019566Y1066396D01*
X1020881Y1067138D01*
X1021529Y1067453D01*
Y1067453D01*
X1021534Y1067467D01*
X1022285Y1067829D01*
X1023581Y1068365D01*
X1024905Y1068829D01*
X1026253Y1069217D01*
X1027621Y1069529D01*
X1029004Y1069764D01*
X1030398Y1069921D01*
X1031799Y1070000D01*
X1032500Y1070000D01*
D02*
G37*
%LPC*%
G36*
X1047000Y1079420D02*
X1046766Y1079373D01*
X1046567Y1079241D01*
X1046435Y1079042D01*
X1046388Y1078808D01*
X1046435Y1078574D01*
X1046567Y1078375D01*
X1046766Y1078243D01*
X1047000Y1078196D01*
X1047234Y1078243D01*
X1047433Y1078375D01*
X1047565Y1078574D01*
X1047612Y1078808D01*
X1047565Y1079042D01*
X1047433Y1079241D01*
X1047234Y1079373D01*
X1047000Y1079420D01*
D02*
G37*
G36*
X1032500Y1077466D02*
X1032322Y1077430D01*
X1032171Y1077329D01*
X1032070Y1077178D01*
X1032034Y1077000D01*
X1032070Y1076822D01*
X1032171Y1076671D01*
X1032322Y1076569D01*
X1032500Y1076534D01*
X1032678Y1076569D01*
X1032829Y1076671D01*
X1032930Y1076822D01*
X1032966Y1077000D01*
X1032930Y1077178D01*
X1032829Y1077329D01*
X1032678Y1077430D01*
X1032500Y1077466D01*
D02*
G37*
G36*
X1047000Y1077620D02*
X1046766Y1077573D01*
X1046567Y1077441D01*
X1046435Y1077242D01*
X1046388Y1077008D01*
X1046435Y1076774D01*
X1046567Y1076575D01*
X1046766Y1076443D01*
X1047000Y1076396D01*
X1047234Y1076443D01*
X1047433Y1076575D01*
X1047565Y1076774D01*
X1047612Y1077008D01*
X1047565Y1077242D01*
X1047433Y1077441D01*
X1047234Y1077573D01*
X1047000Y1077620D01*
D02*
G37*
G36*
X1031408Y1076747D02*
X1031229Y1076711D01*
X1031078Y1076610D01*
X1030977Y1076459D01*
X1030942Y1076281D01*
X1030977Y1076103D01*
X1031078Y1075951D01*
X1031229Y1075850D01*
X1031408Y1075815D01*
X1031586Y1075850D01*
X1031737Y1075951D01*
X1031838Y1076103D01*
X1031874Y1076281D01*
X1031838Y1076459D01*
X1031737Y1076610D01*
X1031586Y1076711D01*
X1031408Y1076747D01*
D02*
G37*
G36*
X1035699Y1075898D02*
X1035520Y1075863D01*
X1035369Y1075762D01*
X1035268Y1075611D01*
X1035233Y1075432D01*
X1035268Y1075254D01*
X1035369Y1075103D01*
X1035520Y1075002D01*
X1035699Y1074966D01*
X1035877Y1075002D01*
X1036028Y1075103D01*
X1036129Y1075254D01*
X1036165Y1075432D01*
X1036129Y1075611D01*
X1036028Y1075762D01*
X1035877Y1075863D01*
X1035699Y1075898D01*
D02*
G37*
G36*
X1037692Y1074912D02*
X1037514Y1074876D01*
X1037363Y1074775D01*
X1037262Y1074624D01*
X1037226Y1074446D01*
X1037262Y1074267D01*
X1037363Y1074116D01*
X1037514Y1074015D01*
X1037692Y1073980D01*
X1037870Y1074015D01*
X1038022Y1074116D01*
X1038123Y1074267D01*
X1038158Y1074446D01*
X1038123Y1074624D01*
X1038022Y1074775D01*
X1037870Y1074876D01*
X1037692Y1074912D01*
D02*
G37*
G36*
X1040549Y1073535D02*
X1040370Y1073499D01*
X1040219Y1073398D01*
X1040118Y1073247D01*
X1040083Y1073069D01*
X1040118Y1072891D01*
X1040219Y1072739D01*
X1040370Y1072638D01*
X1040549Y1072603D01*
X1040727Y1072638D01*
X1040878Y1072739D01*
X1040979Y1072891D01*
X1041015Y1073069D01*
X1040979Y1073247D01*
X1040878Y1073398D01*
X1040727Y1073499D01*
X1040549Y1073535D01*
D02*
G37*
G36*
X1025775Y1072440D02*
X1025596Y1072405D01*
X1025445Y1072304D01*
X1025344Y1072152D01*
X1025309Y1071974D01*
X1025344Y1071796D01*
X1025445Y1071645D01*
X1025596Y1071544D01*
X1025775Y1071508D01*
X1025953Y1071544D01*
X1026104Y1071645D01*
X1026205Y1071796D01*
X1026240Y1071974D01*
X1026205Y1072152D01*
X1026104Y1072304D01*
X1025953Y1072405D01*
X1025775Y1072440D01*
D02*
G37*
G36*
X1028728Y1072302D02*
X1028550Y1072267D01*
X1028399Y1072166D01*
X1028298Y1072015D01*
X1028262Y1071836D01*
X1028298Y1071658D01*
X1028399Y1071507D01*
X1028550Y1071406D01*
X1028728Y1071370D01*
X1028907Y1071406D01*
X1029058Y1071507D01*
X1029159Y1071658D01*
X1029194Y1071836D01*
X1029159Y1072015D01*
X1029058Y1072166D01*
X1028907Y1072267D01*
X1028728Y1072302D01*
D02*
G37*
G36*
X1022752Y1072247D02*
X1022574Y1072212D01*
X1022423Y1072111D01*
X1022322Y1071960D01*
X1022286Y1071781D01*
X1022322Y1071603D01*
X1022423Y1071452D01*
X1022574Y1071351D01*
X1022752Y1071315D01*
X1022931Y1071351D01*
X1023082Y1071452D01*
X1023183Y1071603D01*
X1023218Y1071781D01*
X1023183Y1071960D01*
X1023082Y1072111D01*
X1022931Y1072212D01*
X1022752Y1072247D01*
D02*
G37*
G36*
X1043176Y1071891D02*
X1042998Y1071855D01*
X1042847Y1071754D01*
X1042746Y1071603D01*
X1042710Y1071425D01*
X1042746Y1071246D01*
X1042847Y1071095D01*
X1042998Y1070994D01*
X1043176Y1070959D01*
X1043355Y1070994D01*
X1043506Y1071095D01*
X1043607Y1071246D01*
X1043642Y1071425D01*
X1043607Y1071603D01*
X1043506Y1071754D01*
X1043355Y1071855D01*
X1043176Y1071891D01*
D02*
G37*
G36*
X1018463Y1071866D02*
X1018284Y1071831D01*
X1018133Y1071730D01*
X1018032Y1071578D01*
X1017997Y1071400D01*
X1018032Y1071222D01*
X1018133Y1071071D01*
X1018284Y1070970D01*
X1018463Y1070934D01*
X1018641Y1070970D01*
X1018792Y1071071D01*
X1018893Y1071222D01*
X1018929Y1071400D01*
X1018893Y1071578D01*
X1018792Y1071730D01*
X1018641Y1071831D01*
X1018463Y1071866D01*
D02*
G37*
G36*
X1019721Y1071666D02*
X1019543Y1071630D01*
X1019392Y1071529D01*
X1019291Y1071378D01*
X1019256Y1071200D01*
X1019291Y1071021D01*
X1019392Y1070870D01*
X1019543Y1070769D01*
X1019721Y1070734D01*
X1019900Y1070769D01*
X1020051Y1070870D01*
X1020152Y1071021D01*
X1020187Y1071200D01*
X1020152Y1071378D01*
X1020051Y1071529D01*
X1019900Y1071630D01*
X1019721Y1071666D01*
D02*
G37*
G36*
X1016284Y1071416D02*
X1016106Y1071381D01*
X1015955Y1071280D01*
X1015854Y1071129D01*
X1015819Y1070950D01*
X1015854Y1070772D01*
X1015955Y1070621D01*
X1016106Y1070520D01*
X1016284Y1070484D01*
X1016463Y1070520D01*
X1016614Y1070621D01*
X1016715Y1070772D01*
X1016750Y1070950D01*
X1016715Y1071129D01*
X1016614Y1071280D01*
X1016463Y1071381D01*
X1016284Y1071416D01*
D02*
G37*
G36*
X1014102Y1070788D02*
X1013924Y1070753D01*
X1013773Y1070652D01*
X1013672Y1070500D01*
X1013636Y1070322D01*
X1013672Y1070144D01*
X1013773Y1069993D01*
X1013924Y1069892D01*
X1014102Y1069856D01*
X1014281Y1069892D01*
X1014432Y1069993D01*
X1014533Y1070144D01*
X1014568Y1070322D01*
X1014533Y1070500D01*
X1014432Y1070652D01*
X1014281Y1070753D01*
X1014102Y1070788D01*
D02*
G37*
G36*
X1044687Y1070452D02*
X1044508Y1070417D01*
X1044357Y1070316D01*
X1044256Y1070165D01*
X1044221Y1069986D01*
X1044256Y1069808D01*
X1044357Y1069657D01*
X1044508Y1069556D01*
X1044687Y1069521D01*
X1044865Y1069556D01*
X1045016Y1069657D01*
X1045117Y1069808D01*
X1045153Y1069986D01*
X1045117Y1070165D01*
X1045016Y1070316D01*
X1044865Y1070417D01*
X1044687Y1070452D01*
D02*
G37*
G36*
X1045223Y1069394D02*
X1045044Y1069358D01*
X1044893Y1069257D01*
X1044792Y1069106D01*
X1044757Y1068928D01*
X1044792Y1068750D01*
X1044893Y1068598D01*
X1045044Y1068497D01*
X1045223Y1068462D01*
X1045401Y1068497D01*
X1045552Y1068598D01*
X1045653Y1068750D01*
X1045689Y1068928D01*
X1045653Y1069106D01*
X1045552Y1069257D01*
X1045401Y1069358D01*
X1045223Y1069394D01*
D02*
G37*
G36*
X1011088Y1069247D02*
X1010910Y1069211D01*
X1010758Y1069110D01*
X1010657Y1068959D01*
X1010622Y1068781D01*
X1010657Y1068602D01*
X1010758Y1068451D01*
X1010910Y1068350D01*
X1011088Y1068315D01*
X1011266Y1068350D01*
X1011417Y1068451D01*
X1011518Y1068602D01*
X1011554Y1068781D01*
X1011518Y1068959D01*
X1011417Y1069110D01*
X1011266Y1069211D01*
X1011088Y1069247D01*
D02*
G37*
G36*
X1047263Y1067353D02*
X1047084Y1067317D01*
X1046933Y1067216D01*
X1046832Y1067065D01*
X1046797Y1066887D01*
X1046832Y1066708D01*
X1046933Y1066557D01*
X1047084Y1066456D01*
X1047263Y1066421D01*
X1047441Y1066456D01*
X1047592Y1066557D01*
X1047693Y1066708D01*
X1047729Y1066887D01*
X1047693Y1067065D01*
X1047592Y1067216D01*
X1047441Y1067317D01*
X1047263Y1067353D01*
D02*
G37*
G36*
X1063811Y1062611D02*
X1063577Y1062565D01*
X1063378Y1062432D01*
X1063246Y1062234D01*
X1063199Y1062000D01*
X1063246Y1061766D01*
X1063378Y1061567D01*
X1063577Y1061434D01*
X1063811Y1061388D01*
X1064045Y1061434D01*
X1064244Y1061567D01*
X1064376Y1061766D01*
X1064423Y1062000D01*
X1064376Y1062234D01*
X1064244Y1062432D01*
X1064045Y1062565D01*
X1063811Y1062611D01*
D02*
G37*
G36*
X1062011D02*
X1061777Y1062565D01*
X1061578Y1062432D01*
X1061446Y1062234D01*
X1061399Y1062000D01*
X1061446Y1061766D01*
X1061578Y1061567D01*
X1061777Y1061434D01*
X1062011Y1061388D01*
X1062245Y1061434D01*
X1062444Y1061567D01*
X1062576Y1061766D01*
X1062623Y1062000D01*
X1062576Y1062234D01*
X1062444Y1062432D01*
X1062245Y1062565D01*
X1062011Y1062611D01*
D02*
G37*
G36*
X1002526Y1056673D02*
X1002348Y1056637D01*
X1002197Y1056536D01*
X1002096Y1056385D01*
X1002061Y1056207D01*
X1002096Y1056028D01*
X1002197Y1055877D01*
X1002348Y1055776D01*
X1002526Y1055741D01*
X1002705Y1055776D01*
X1002856Y1055877D01*
X1002957Y1056028D01*
X1002992Y1056207D01*
X1002957Y1056385D01*
X1002856Y1056536D01*
X1002705Y1056637D01*
X1002526Y1056673D01*
D02*
G37*
G36*
X1062782Y1053384D02*
X1062604Y1053348D01*
X1062453Y1053247D01*
X1062351Y1053096D01*
X1062316Y1052918D01*
X1062351Y1052740D01*
X1062453Y1052588D01*
X1062604Y1052487D01*
X1062782Y1052452D01*
X1062960Y1052487D01*
X1063111Y1052588D01*
X1063213Y1052740D01*
X1063248Y1052918D01*
X1063213Y1053096D01*
X1063111Y1053247D01*
X1062960Y1053348D01*
X1062782Y1053384D01*
D02*
G37*
G36*
X1006357Y1049140D02*
X1006179Y1049105D01*
X1006027Y1049004D01*
X1005926Y1048853D01*
X1005891Y1048674D01*
X1005926Y1048496D01*
X1006027Y1048345D01*
X1006179Y1048244D01*
X1006357Y1048208D01*
X1006535Y1048244D01*
X1006686Y1048345D01*
X1006787Y1048496D01*
X1006823Y1048674D01*
X1006787Y1048853D01*
X1006686Y1049004D01*
X1006535Y1049105D01*
X1006357Y1049140D01*
D02*
G37*
G36*
X1063629Y1048738D02*
X1063450Y1048702D01*
X1063299Y1048601D01*
X1063198Y1048450D01*
X1063163Y1048272D01*
X1063198Y1048093D01*
X1063299Y1047942D01*
X1063450Y1047841D01*
X1063629Y1047806D01*
X1063807Y1047841D01*
X1063958Y1047942D01*
X1064059Y1048093D01*
X1064094Y1048272D01*
X1064059Y1048450D01*
X1063958Y1048601D01*
X1063807Y1048702D01*
X1063629Y1048738D01*
D02*
G37*
G36*
X1060232Y1047405D02*
X1060054Y1047370D01*
X1059903Y1047269D01*
X1059802Y1047118D01*
X1059766Y1046939D01*
X1059802Y1046761D01*
X1059903Y1046610D01*
X1060054Y1046509D01*
X1060232Y1046473D01*
X1060411Y1046509D01*
X1060562Y1046610D01*
X1060663Y1046761D01*
X1060698Y1046939D01*
X1060663Y1047118D01*
X1060562Y1047269D01*
X1060411Y1047370D01*
X1060232Y1047405D01*
D02*
G37*
G36*
X1063081Y1046534D02*
X1062903Y1046498D01*
X1062752Y1046397D01*
X1062651Y1046246D01*
X1062615Y1046068D01*
X1062651Y1045890D01*
X1062752Y1045738D01*
X1062903Y1045637D01*
X1063081Y1045602D01*
X1063260Y1045637D01*
X1063411Y1045738D01*
X1063512Y1045890D01*
X1063547Y1046068D01*
X1063512Y1046246D01*
X1063411Y1046397D01*
X1063260Y1046498D01*
X1063081Y1046534D01*
D02*
G37*
G36*
X1062382Y1044422D02*
X1062203Y1044387D01*
X1062052Y1044286D01*
X1061951Y1044135D01*
X1061916Y1043957D01*
X1061951Y1043778D01*
X1062052Y1043627D01*
X1062203Y1043526D01*
X1062382Y1043491D01*
X1062560Y1043526D01*
X1062711Y1043627D01*
X1062812Y1043778D01*
X1062848Y1043957D01*
X1062812Y1044135D01*
X1062711Y1044286D01*
X1062560Y1044387D01*
X1062382Y1044422D01*
D02*
G37*
G36*
X1061629Y1043429D02*
X1061451Y1043394D01*
X1061299Y1043293D01*
X1061198Y1043141D01*
X1061163Y1042963D01*
X1061198Y1042785D01*
X1061299Y1042634D01*
X1061451Y1042533D01*
X1061629Y1042497D01*
X1061807Y1042533D01*
X1061958Y1042634D01*
X1062059Y1042785D01*
X1062095Y1042963D01*
X1062059Y1043141D01*
X1061958Y1043293D01*
X1061807Y1043394D01*
X1061629Y1043429D01*
D02*
G37*
G36*
X1005503Y1043104D02*
X1005325Y1043069D01*
X1005174Y1042968D01*
X1005073Y1042816D01*
X1005037Y1042638D01*
X1005073Y1042460D01*
X1005174Y1042309D01*
X1005325Y1042208D01*
X1005503Y1042172D01*
X1005681Y1042208D01*
X1005833Y1042309D01*
X1005934Y1042460D01*
X1005969Y1042638D01*
X1005934Y1042816D01*
X1005833Y1042968D01*
X1005681Y1043069D01*
X1005503Y1043104D01*
D02*
G37*
G36*
X1004277Y1041500D02*
X1004099Y1041464D01*
X1003948Y1041363D01*
X1003847Y1041212D01*
X1003811Y1041034D01*
X1003847Y1040855D01*
X1003948Y1040704D01*
X1004099Y1040603D01*
X1004277Y1040568D01*
X1004456Y1040603D01*
X1004607Y1040704D01*
X1004708Y1040855D01*
X1004743Y1041034D01*
X1004708Y1041212D01*
X1004607Y1041363D01*
X1004456Y1041464D01*
X1004277Y1041500D01*
D02*
G37*
G36*
X1005136Y1040563D02*
X1004957Y1040528D01*
X1004806Y1040427D01*
X1004705Y1040276D01*
X1004670Y1040098D01*
X1004705Y1039919D01*
X1004806Y1039768D01*
X1004957Y1039667D01*
X1005136Y1039632D01*
X1005314Y1039667D01*
X1005465Y1039768D01*
X1005566Y1039919D01*
X1005602Y1040098D01*
X1005566Y1040276D01*
X1005465Y1040427D01*
X1005314Y1040528D01*
X1005136Y1040563D01*
D02*
G37*
G36*
X1060567Y1040517D02*
X1060389Y1040482D01*
X1060238Y1040380D01*
X1060136Y1040229D01*
X1060101Y1040051D01*
X1060136Y1039873D01*
X1060238Y1039722D01*
X1060389Y1039620D01*
X1060567Y1039585D01*
X1060745Y1039620D01*
X1060896Y1039722D01*
X1060997Y1039873D01*
X1061033Y1040051D01*
X1060997Y1040229D01*
X1060896Y1040380D01*
X1060745Y1040482D01*
X1060567Y1040517D01*
D02*
G37*
G36*
X1004167Y1038402D02*
X1003989Y1038366D01*
X1003838Y1038265D01*
X1003737Y1038114D01*
X1003701Y1037936D01*
X1003737Y1037758D01*
X1003838Y1037606D01*
X1003989Y1037505D01*
X1004167Y1037470D01*
X1004346Y1037505D01*
X1004497Y1037606D01*
X1004598Y1037758D01*
X1004633Y1037936D01*
X1004598Y1038114D01*
X1004497Y1038265D01*
X1004346Y1038366D01*
X1004167Y1038402D01*
D02*
G37*
G36*
X1059223Y1037803D02*
X1059045Y1037768D01*
X1058894Y1037667D01*
X1058793Y1037516D01*
X1058757Y1037337D01*
X1058793Y1037159D01*
X1058894Y1037008D01*
X1059045Y1036907D01*
X1059223Y1036871D01*
X1059401Y1036907D01*
X1059552Y1037008D01*
X1059654Y1037159D01*
X1059689Y1037337D01*
X1059654Y1037516D01*
X1059552Y1037667D01*
X1059401Y1037768D01*
X1059223Y1037803D01*
D02*
G37*
G36*
X1057627Y1035314D02*
X1057448Y1035279D01*
X1057297Y1035178D01*
X1057196Y1035026D01*
X1057161Y1034848D01*
X1057196Y1034670D01*
X1057297Y1034519D01*
X1057448Y1034418D01*
X1057627Y1034382D01*
X1057805Y1034418D01*
X1057956Y1034519D01*
X1058057Y1034670D01*
X1058093Y1034848D01*
X1058057Y1035026D01*
X1057956Y1035178D01*
X1057805Y1035279D01*
X1057627Y1035314D01*
D02*
G37*
G36*
X1004403Y1035240D02*
X1004225Y1035204D01*
X1004074Y1035103D01*
X1003973Y1034952D01*
X1003937Y1034774D01*
X1003973Y1034595D01*
X1004074Y1034444D01*
X1004225Y1034343D01*
X1004403Y1034308D01*
X1004582Y1034343D01*
X1004733Y1034444D01*
X1004834Y1034595D01*
X1004869Y1034774D01*
X1004834Y1034952D01*
X1004733Y1035103D01*
X1004582Y1035204D01*
X1004403Y1035240D01*
D02*
G37*
G36*
X1055917Y1033276D02*
X1055739Y1033240D01*
X1055588Y1033139D01*
X1055487Y1032988D01*
X1055451Y1032810D01*
X1055487Y1032631D01*
X1055588Y1032480D01*
X1055739Y1032379D01*
X1055917Y1032344D01*
X1056095Y1032379D01*
X1056247Y1032480D01*
X1056348Y1032631D01*
X1056383Y1032810D01*
X1056348Y1032988D01*
X1056247Y1033139D01*
X1056095Y1033240D01*
X1055917Y1033276D01*
D02*
G37*
G36*
X1004546Y1033020D02*
X1004367Y1032984D01*
X1004216Y1032883D01*
X1004115Y1032732D01*
X1004080Y1032554D01*
X1004115Y1032376D01*
X1004216Y1032224D01*
X1004367Y1032123D01*
X1004546Y1032088D01*
X1004724Y1032123D01*
X1004875Y1032224D01*
X1004976Y1032376D01*
X1005011Y1032554D01*
X1004976Y1032732D01*
X1004875Y1032883D01*
X1004724Y1032984D01*
X1004546Y1033020D01*
D02*
G37*
G36*
X1005393Y1029816D02*
X1005215Y1029781D01*
X1005064Y1029679D01*
X1004963Y1029528D01*
X1004927Y1029350D01*
X1004963Y1029172D01*
X1005064Y1029021D01*
X1005215Y1028920D01*
X1005393Y1028884D01*
X1005572Y1028920D01*
X1005723Y1029021D01*
X1005824Y1029172D01*
X1005859Y1029350D01*
X1005824Y1029528D01*
X1005723Y1029679D01*
X1005572Y1029781D01*
X1005393Y1029816D01*
D02*
G37*
G36*
X1005362Y1028509D02*
X1005184Y1028473D01*
X1005033Y1028372D01*
X1004932Y1028221D01*
X1004897Y1028043D01*
X1004932Y1027864D01*
X1005033Y1027713D01*
X1005184Y1027612D01*
X1005362Y1027577D01*
X1005541Y1027612D01*
X1005692Y1027713D01*
X1005793Y1027864D01*
X1005828Y1028043D01*
X1005793Y1028221D01*
X1005692Y1028372D01*
X1005541Y1028473D01*
X1005362Y1028509D01*
D02*
G37*
G36*
X1002756Y1027219D02*
X1002578Y1027183D01*
X1002427Y1027082D01*
X1002326Y1026931D01*
X1002296Y1026780D01*
X1002201Y1026644D01*
X1002023Y1026608D01*
X1001872Y1026507D01*
X1001771Y1026356D01*
X1001735Y1026178D01*
X1001771Y1026000D01*
X1001872Y1025848D01*
X1002023Y1025747D01*
X1002201Y1025712D01*
X1002379Y1025747D01*
X1002531Y1025848D01*
X1002682Y1025858D01*
X1002785Y1025747D01*
X1002767Y1025656D01*
X1002803Y1025478D01*
X1002847Y1025412D01*
X1002902Y1025325D01*
X1002808Y1025217D01*
X1002770Y1025192D01*
X1002669Y1025041D01*
X1002634Y1024862D01*
X1002669Y1024684D01*
X1002734Y1024587D01*
X1002770Y1024533D01*
X1002701Y1024396D01*
X1002677Y1024379D01*
X1002576Y1024228D01*
X1002540Y1024049D01*
X1002540Y1024049D01*
X1002540Y1024049D01*
X1002537Y1024035D01*
X1002418Y1023884D01*
X1002333Y1023867D01*
X1002182Y1023766D01*
X1002081Y1023615D01*
X1002046Y1023437D01*
X1002081Y1023259D01*
X1002182Y1023108D01*
X1002333Y1023007D01*
X1002512Y1022971D01*
X1002690Y1023007D01*
X1002841Y1023108D01*
X1002949Y1023010D01*
X1002935Y1022990D01*
X1002903Y1022826D01*
X1002896Y1022809D01*
X1002765Y1022709D01*
X1002672Y1022728D01*
X1002493Y1022693D01*
X1002342Y1022591D01*
X1002241Y1022440D01*
X1002206Y1022262D01*
X1002241Y1022084D01*
X1002268Y1022043D01*
X1002330Y1021924D01*
X1002229Y1021848D01*
X1002182Y1021816D01*
X1002081Y1021665D01*
X1002046Y1021487D01*
X1002081Y1021309D01*
X1002182Y1021158D01*
X1002333Y1021057D01*
X1002512Y1021021D01*
X1002690Y1021057D01*
X1002841Y1021158D01*
X1002942Y1021309D01*
X1002978Y1021487D01*
X1002966Y1021546D01*
X1003234Y1021814D01*
X1003732D01*
X1003807Y1021829D01*
X1003870Y1021871D01*
X1004303Y1022304D01*
X1004303Y1022304D01*
X1004345Y1022367D01*
X1004360Y1022441D01*
X1004360Y1022441D01*
Y1023249D01*
X1004357Y1023261D01*
X1004433Y1023410D01*
X1004456Y1023432D01*
X1004516Y1023444D01*
X1004668Y1023545D01*
X1004769Y1023696D01*
X1004804Y1023875D01*
X1004769Y1024053D01*
X1004668Y1024204D01*
X1004516Y1024305D01*
X1004338Y1024341D01*
X1004160Y1024305D01*
X1004129Y1024285D01*
X1003977Y1024366D01*
Y1024539D01*
X1003977Y1024539D01*
X1003962Y1024613D01*
X1003920Y1024676D01*
X1003920Y1024676D01*
X1003817Y1024779D01*
Y1025229D01*
X1003891Y1025303D01*
X1003891Y1025303D01*
X1003933Y1025366D01*
X1003948Y1025441D01*
X1003948Y1025441D01*
Y1025872D01*
X1003933Y1025946D01*
X1003891Y1026009D01*
X1003586Y1026314D01*
X1003523Y1026356D01*
X1003449Y1026371D01*
X1003234D01*
X1003152Y1026523D01*
X1003187Y1026574D01*
X1003222Y1026753D01*
X1003187Y1026931D01*
X1003086Y1027082D01*
X1002934Y1027183D01*
X1002756Y1027219D01*
D02*
G37*
G36*
X1013446Y1020634D02*
X1013267Y1020599D01*
X1013116Y1020498D01*
X1013015Y1020346D01*
X1012980Y1020168D01*
X1013015Y1019990D01*
X1013116Y1019839D01*
X1013267Y1019738D01*
X1013446Y1019702D01*
X1013624Y1019738D01*
X1013775Y1019839D01*
X1013876Y1019990D01*
X1013912Y1020168D01*
X1013876Y1020346D01*
X1013775Y1020498D01*
X1013624Y1020599D01*
X1013446Y1020634D01*
D02*
G37*
G36*
X1025223Y1020089D02*
X1025045Y1020053D01*
X1024894Y1019952D01*
X1024793Y1019801D01*
X1024757Y1019623D01*
X1024793Y1019444D01*
X1024894Y1019293D01*
X1025045Y1019192D01*
X1025223Y1019157D01*
X1025401Y1019192D01*
X1025553Y1019293D01*
X1025654Y1019444D01*
X1025689Y1019623D01*
X1025654Y1019801D01*
X1025553Y1019952D01*
X1025401Y1020053D01*
X1025223Y1020089D01*
D02*
G37*
G36*
X1040620Y1019611D02*
X1040442Y1019576D01*
X1040291Y1019475D01*
X1040190Y1019323D01*
X1040154Y1019145D01*
X1040190Y1018967D01*
X1040291Y1018816D01*
X1040442Y1018715D01*
X1040620Y1018679D01*
X1040798Y1018715D01*
X1040950Y1018816D01*
X1041051Y1018967D01*
X1041086Y1019145D01*
X1041051Y1019323D01*
X1040950Y1019475D01*
X1040798Y1019576D01*
X1040620Y1019611D01*
D02*
G37*
G36*
X1027794Y1018778D02*
X1027616Y1018742D01*
X1027465Y1018641D01*
X1027364Y1018490D01*
X1027328Y1018312D01*
X1027364Y1018133D01*
X1027465Y1017982D01*
X1027616Y1017881D01*
X1027794Y1017846D01*
X1027972Y1017881D01*
X1028124Y1017982D01*
X1028225Y1018133D01*
X1028260Y1018312D01*
X1028225Y1018490D01*
X1028124Y1018641D01*
X1027972Y1018742D01*
X1027794Y1018778D01*
D02*
G37*
G36*
X1007851Y1018692D02*
X1007672Y1018656D01*
X1007521Y1018555D01*
X1007420Y1018404D01*
X1007385Y1018226D01*
X1007420Y1018048D01*
X1007521Y1017897D01*
X1007672Y1017796D01*
X1007851Y1017760D01*
X1008029Y1017796D01*
X1008180Y1017897D01*
X1008270Y1018032D01*
X1012973D01*
X1012982Y1017985D01*
X1013083Y1017834D01*
X1013234Y1017733D01*
X1013413Y1017697D01*
X1013591Y1017733D01*
X1013742Y1017834D01*
X1013843Y1017985D01*
X1013879Y1018163D01*
X1013843Y1018341D01*
X1013742Y1018493D01*
X1013591Y1018594D01*
X1013413Y1018629D01*
X1013234Y1018594D01*
X1013083Y1018493D01*
X1013035Y1018420D01*
X1008270D01*
X1008180Y1018555D01*
X1008029Y1018656D01*
X1007851Y1018692D01*
D02*
G37*
G36*
X1028871Y1017904D02*
X1028693Y1017868D01*
X1028542Y1017767D01*
X1028441Y1017616D01*
X1028405Y1017438D01*
X1028441Y1017260D01*
X1028542Y1017108D01*
X1028693Y1017007D01*
X1028871Y1016972D01*
X1029050Y1017007D01*
X1029201Y1017108D01*
X1029302Y1017260D01*
X1029337Y1017438D01*
X1029302Y1017616D01*
X1029201Y1017767D01*
X1029050Y1017868D01*
X1028871Y1017904D01*
D02*
G37*
G36*
X1033495Y1016983D02*
X1033316Y1016948D01*
X1033165Y1016847D01*
X1033064Y1016696D01*
X1033029Y1016517D01*
X1033064Y1016339D01*
X1033165Y1016188D01*
X1033316Y1016087D01*
X1033495Y1016051D01*
X1033673Y1016087D01*
X1033824Y1016188D01*
X1033925Y1016339D01*
X1033961Y1016517D01*
X1033925Y1016696D01*
X1033824Y1016847D01*
X1033673Y1016948D01*
X1033495Y1016983D01*
D02*
G37*
G36*
X1034537Y1016337D02*
X1034359Y1016302D01*
X1034207Y1016201D01*
X1034106Y1016049D01*
X1034071Y1015871D01*
X1034106Y1015693D01*
X1034207Y1015542D01*
X1034359Y1015441D01*
X1034537Y1015405D01*
X1034715Y1015441D01*
X1034866Y1015542D01*
X1034967Y1015693D01*
X1035003Y1015871D01*
X1034967Y1016049D01*
X1034866Y1016201D01*
X1034715Y1016302D01*
X1034537Y1016337D01*
D02*
G37*
G36*
X1045516Y1016233D02*
X1045337Y1016197D01*
X1045186Y1016096D01*
X1045085Y1015945D01*
X1045050Y1015767D01*
X1045085Y1015588D01*
X1045186Y1015437D01*
X1045337Y1015336D01*
X1045516Y1015301D01*
X1045694Y1015336D01*
X1045845Y1015437D01*
X1045946Y1015588D01*
X1045982Y1015767D01*
X1045946Y1015945D01*
X1045845Y1016096D01*
X1045694Y1016197D01*
X1045516Y1016233D01*
D02*
G37*
G36*
X1036661Y1015857D02*
X1036483Y1015821D01*
X1036332Y1015720D01*
X1036231Y1015569D01*
X1036195Y1015391D01*
X1036231Y1015213D01*
X1036332Y1015062D01*
X1036483Y1014961D01*
X1036661Y1014925D01*
X1036840Y1014961D01*
X1036991Y1015062D01*
X1037092Y1015213D01*
X1037127Y1015391D01*
X1037092Y1015569D01*
X1036991Y1015720D01*
X1036840Y1015821D01*
X1036661Y1015857D01*
D02*
G37*
G36*
X1042172Y1015698D02*
X1041994Y1015662D01*
X1041843Y1015561D01*
X1041742Y1015410D01*
X1041706Y1015232D01*
X1041742Y1015054D01*
X1041843Y1014902D01*
X1041994Y1014801D01*
X1042172Y1014766D01*
X1042351Y1014801D01*
X1042502Y1014902D01*
X1042603Y1015054D01*
X1042638Y1015232D01*
X1042603Y1015410D01*
X1042502Y1015561D01*
X1042351Y1015662D01*
X1042172Y1015698D01*
D02*
G37*
G36*
X1038862Y1015535D02*
X1038684Y1015499D01*
X1038533Y1015398D01*
X1038432Y1015247D01*
X1038396Y1015069D01*
X1038432Y1014890D01*
X1038533Y1014739D01*
X1038684Y1014638D01*
X1038862Y1014603D01*
X1039040Y1014638D01*
X1039192Y1014739D01*
X1039293Y1014890D01*
X1039328Y1015069D01*
X1039293Y1015247D01*
X1039192Y1015398D01*
X1039040Y1015499D01*
X1038862Y1015535D01*
D02*
G37*
G36*
X1022500Y1014166D02*
X1022322Y1014130D01*
X1022171Y1014029D01*
X1022070Y1013878D01*
X1022034Y1013700D01*
X1022070Y1013522D01*
X1022171Y1013371D01*
X1022322Y1013270D01*
X1022500Y1013234D01*
X1022678Y1013270D01*
X1022829Y1013371D01*
X1022930Y1013522D01*
X1022966Y1013700D01*
X1022930Y1013878D01*
X1022829Y1014029D01*
X1022678Y1014130D01*
X1022500Y1014166D01*
D02*
G37*
G36*
X1009637Y1011995D02*
X1009459Y1011959D01*
X1009308Y1011858D01*
X1009207Y1011707D01*
X1009171Y1011529D01*
X1009203Y1011369D01*
X1008604Y1010770D01*
X1008270D01*
X1008180Y1010906D01*
X1008029Y1011007D01*
X1007851Y1011042D01*
X1007672Y1011007D01*
X1007521Y1010906D01*
X1007420Y1010754D01*
X1007249Y1010674D01*
X1007144Y1010695D01*
X1006966Y1010659D01*
X1006815Y1010558D01*
X1006714Y1010407D01*
X1006678Y1010229D01*
X1006714Y1010051D01*
X1006815Y1009899D01*
X1006966Y1009798D01*
X1007144Y1009763D01*
X1007323Y1009798D01*
X1007474Y1009899D01*
X1007485Y1009917D01*
X1007498Y1009918D01*
X1007561Y1009876D01*
X1007635Y1009861D01*
X1008066D01*
X1008141Y1009876D01*
X1008203Y1009918D01*
X1008413Y1010128D01*
X1008790D01*
X1008864Y1010143D01*
X1008927Y1010185D01*
X1008973Y1010231D01*
X1009510D01*
X1009600Y1010096D01*
X1009751Y1009995D01*
X1009929Y1009959D01*
X1010108Y1009995D01*
X1010259Y1010096D01*
X1010360Y1010247D01*
X1010395Y1010425D01*
X1010360Y1010603D01*
X1010259Y1010755D01*
X1010108Y1010856D01*
X1009929Y1010891D01*
X1009751Y1010856D01*
X1009600Y1010755D01*
X1009510Y1010619D01*
X1009202D01*
X1009143Y1010760D01*
X1009478Y1011094D01*
X1009637Y1011063D01*
X1009815Y1011098D01*
X1009967Y1011199D01*
X1010068Y1011350D01*
X1010103Y1011529D01*
X1010068Y1011707D01*
X1009967Y1011858D01*
X1009815Y1011959D01*
X1009637Y1011995D01*
D02*
G37*
G36*
X1044329Y1010603D02*
X1044151Y1010567D01*
X1043999Y1010466D01*
X1043898Y1010315D01*
X1043863Y1010137D01*
X1043820Y1010085D01*
X1042580D01*
X1042505Y1010070D01*
X1042442Y1010028D01*
X1042442Y1010028D01*
X1038951Y1006537D01*
X1038909Y1006474D01*
X1038894Y1006399D01*
Y1002442D01*
X1030297D01*
X1030297Y1002442D01*
X1030223Y1002427D01*
X1030160Y1002385D01*
X1030160Y1002385D01*
X1029937Y1002161D01*
X1029895Y1002099D01*
X1029880Y1002024D01*
Y1001767D01*
X1023484D01*
Y1003912D01*
X1023484Y1003912D01*
X1023469Y1003986D01*
X1023427Y1004049D01*
X1023427Y1004049D01*
X1023204Y1004272D01*
X1023141Y1004314D01*
X1023067Y1004329D01*
X1020854D01*
X1020769Y1004454D01*
X1020773Y1004482D01*
X1020807Y1004656D01*
X1020772Y1004834D01*
X1020671Y1004985D01*
X1020520Y1005086D01*
X1020342Y1005121D01*
X1020163Y1005086D01*
X1020012Y1004985D01*
X1019953Y1004896D01*
X1019342D01*
X1019145Y1005093D01*
X1019082Y1005135D01*
X1019008Y1005150D01*
X1018174D01*
X1018099Y1005135D01*
X1018036Y1005093D01*
X1018036Y1005093D01*
X1017866Y1004923D01*
X1017492D01*
X1017418Y1004908D01*
X1017355Y1004866D01*
X1017222Y1004733D01*
X1014684D01*
X1014594Y1004869D01*
X1014443Y1004970D01*
X1014264Y1005005D01*
X1014086Y1004970D01*
X1013935Y1004869D01*
X1013834Y1004717D01*
X1013798Y1004539D01*
X1013834Y1004361D01*
X1013935Y1004210D01*
X1014086Y1004109D01*
X1014264Y1004073D01*
X1014443Y1004109D01*
X1014594Y1004210D01*
X1014684Y1004345D01*
X1017149D01*
X1017246Y1004227D01*
X1017242Y1004208D01*
X1017278Y1004030D01*
X1017379Y1003879D01*
X1017530Y1003778D01*
X1017708Y1003742D01*
X1017886Y1003778D01*
X1018038Y1003879D01*
X1018147D01*
X1018165Y1003852D01*
X1018316Y1003751D01*
X1018495Y1003715D01*
X1018673Y1003751D01*
X1018824Y1003852D01*
X1018841Y1003877D01*
X1018992Y1003892D01*
X1019360Y1003524D01*
X1019360Y1003524D01*
X1019423Y1003481D01*
X1019498Y1003467D01*
X1019929D01*
X1020003Y1003481D01*
X1020066Y1003524D01*
X1020230Y1003687D01*
X1022842D01*
Y1001542D01*
X1022856Y1001468D01*
X1022898Y1001405D01*
X1023122Y1001181D01*
X1023122Y1001181D01*
X1023185Y1001139D01*
X1023259Y1001125D01*
X1023259Y1001125D01*
X1030105D01*
X1030179Y1001139D01*
X1030242Y1001181D01*
X1030465Y1001405D01*
X1030465Y1001405D01*
X1030507Y1001468D01*
X1030522Y1001542D01*
X1030522Y1001542D01*
Y1001799D01*
X1039119D01*
X1039194Y1001814D01*
X1039257Y1001856D01*
X1039480Y1002079D01*
X1039480Y1002079D01*
X1039522Y1002142D01*
X1039537Y1002217D01*
X1039537Y1002217D01*
Y1006214D01*
X1042765Y1009442D01*
X1043767D01*
X1043864Y1009324D01*
X1043863Y1009321D01*
X1043898Y1009143D01*
X1043999Y1008992D01*
X1044151Y1008891D01*
X1044329Y1008855D01*
X1044507Y1008891D01*
X1044658Y1008992D01*
X1044759Y1009143D01*
X1044795Y1009321D01*
X1044759Y1009499D01*
X1044658Y1009651D01*
X1044655Y1009653D01*
Y1009805D01*
X1044658Y1009807D01*
X1044759Y1009959D01*
X1044795Y1010137D01*
X1044759Y1010315D01*
X1044658Y1010466D01*
X1044507Y1010567D01*
X1044329Y1010603D01*
D02*
G37*
G36*
X1010437Y1008723D02*
X1010259Y1008688D01*
X1010108Y1008586D01*
X1010007Y1008435D01*
X1009971Y1008257D01*
X1010007Y1008079D01*
X1010108Y1007927D01*
X1010243Y1007837D01*
Y1007241D01*
X1010118Y1007157D01*
X1010017Y1007006D01*
X1009981Y1006828D01*
X1010017Y1006649D01*
X1010118Y1006498D01*
X1010269Y1006397D01*
X1010447Y1006362D01*
X1010625Y1006397D01*
X1010777Y1006498D01*
X1010878Y1006649D01*
X1010913Y1006828D01*
X1010878Y1007006D01*
X1010777Y1007157D01*
X1010632Y1007254D01*
Y1007837D01*
X1010767Y1007927D01*
X1010868Y1008079D01*
X1010903Y1008257D01*
X1010868Y1008435D01*
X1010767Y1008586D01*
X1010616Y1008688D01*
X1010437Y1008723D01*
D02*
G37*
G36*
X1045150Y1007550D02*
X1044921Y1007519D01*
X1044708Y1007431D01*
X1044525Y1007291D01*
X1044384Y1007107D01*
X1044296Y1006894D01*
X1044266Y1006665D01*
X1044296Y1006436D01*
X1044384Y1006223D01*
X1044525Y1006040D01*
X1044708Y1005899D01*
X1044921Y1005811D01*
X1045150Y1005780D01*
X1045379Y1005811D01*
X1045592Y1005899D01*
X1045776Y1006040D01*
X1045916Y1006223D01*
X1046005Y1006436D01*
X1046035Y1006665D01*
X1046005Y1006894D01*
X1045916Y1007107D01*
X1045776Y1007291D01*
X1045592Y1007431D01*
X1045379Y1007519D01*
X1045150Y1007550D01*
D02*
G37*
G36*
X1042610D02*
X1042381Y1007519D01*
X1042168Y1007431D01*
X1041984Y1007291D01*
X1041844Y1007107D01*
X1041756Y1006894D01*
X1041725Y1006665D01*
X1041756Y1006436D01*
X1041844Y1006223D01*
X1041984Y1006040D01*
X1042168Y1005899D01*
X1042381Y1005811D01*
X1042610Y1005780D01*
X1042839Y1005811D01*
X1043052Y1005899D01*
X1043235Y1006040D01*
X1043376Y1006223D01*
X1043464Y1006436D01*
X1043495Y1006665D01*
X1043464Y1006894D01*
X1043376Y1007107D01*
X1043235Y1007291D01*
X1043052Y1007431D01*
X1042839Y1007519D01*
X1042610Y1007550D01*
D02*
G37*
G36*
X1005082Y1006082D02*
X1004903Y1006047D01*
X1004752Y1005946D01*
X1004651Y1005795D01*
X1004616Y1005616D01*
X1004651Y1005438D01*
X1004752Y1005287D01*
X1004887Y1005197D01*
Y1004817D01*
X1004752Y1004727D01*
X1004651Y1004576D01*
X1004616Y1004398D01*
X1004651Y1004219D01*
X1004752Y1004068D01*
X1004903Y1003967D01*
X1005082Y1003932D01*
X1005260Y1003967D01*
X1005411Y1004068D01*
X1005512Y1004219D01*
X1005547Y1004398D01*
X1005512Y1004576D01*
X1005411Y1004727D01*
X1005276Y1004817D01*
Y1005197D01*
X1005411Y1005287D01*
X1005512Y1005438D01*
X1005547Y1005616D01*
X1005512Y1005795D01*
X1005411Y1005946D01*
X1005260Y1006047D01*
X1005082Y1006082D01*
D02*
G37*
G36*
X1043210Y1005007D02*
X1042010D01*
X1041902Y1004986D01*
X1041810Y1004925D01*
X1041749Y1004833D01*
X1041728Y1004725D01*
Y1003525D01*
X1041749Y1003417D01*
X1041810Y1003325D01*
X1041902Y1003264D01*
X1042010Y1003243D01*
X1043210D01*
X1043318Y1003264D01*
X1043410Y1003325D01*
X1043471Y1003417D01*
X1043492Y1003525D01*
Y1004725D01*
X1043471Y1004833D01*
X1043410Y1004925D01*
X1043318Y1004986D01*
X1043210Y1005007D01*
D02*
G37*
G36*
X1013658Y1003387D02*
X1012533D01*
X1012410Y1003362D01*
X1012306Y1003293D01*
X1012236Y1003189D01*
X1012212Y1003066D01*
Y1001941D01*
X1012236Y1001818D01*
X1012306Y1001714D01*
X1012410Y1001645D01*
X1012533Y1001620D01*
X1013658D01*
X1013780Y1001645D01*
X1013884Y1001714D01*
X1013954Y1001818D01*
X1013978Y1001941D01*
Y1003066D01*
X1013954Y1003189D01*
X1013884Y1003293D01*
X1013780Y1003362D01*
X1013658Y1003387D01*
D02*
G37*
G36*
X1018175Y1003388D02*
X1017946Y1003358D01*
X1017733Y1003270D01*
X1017550Y1003129D01*
X1017409Y1002946D01*
X1017321Y1002732D01*
X1017291Y1002503D01*
X1017321Y1002275D01*
X1017409Y1002061D01*
X1017550Y1001878D01*
X1017733Y1001737D01*
X1017946Y1001649D01*
X1018175Y1001619D01*
X1018404Y1001649D01*
X1018617Y1001737D01*
X1018801Y1001878D01*
X1018941Y1002061D01*
X1019030Y1002275D01*
X1019060Y1002503D01*
X1019030Y1002732D01*
X1018941Y1002946D01*
X1018801Y1003129D01*
X1018617Y1003270D01*
X1018404Y1003358D01*
X1018175Y1003388D01*
D02*
G37*
G36*
X1015635D02*
X1015406Y1003358D01*
X1015193Y1003270D01*
X1015010Y1003129D01*
X1014869Y1002946D01*
X1014781Y1002732D01*
X1014751Y1002503D01*
X1014781Y1002275D01*
X1014869Y1002061D01*
X1015010Y1001878D01*
X1015193Y1001737D01*
X1015406Y1001649D01*
X1015635Y1001619D01*
X1015864Y1001649D01*
X1016078Y1001737D01*
X1016261Y1001878D01*
X1016401Y1002061D01*
X1016490Y1002275D01*
X1016520Y1002503D01*
X1016490Y1002732D01*
X1016401Y1002946D01*
X1016261Y1003129D01*
X1016078Y1003270D01*
X1015864Y1003358D01*
X1015635Y1003388D01*
D02*
G37*
G36*
X1045150Y1002470D02*
X1044921Y1002439D01*
X1044708Y1002351D01*
X1044525Y1002211D01*
X1044384Y1002027D01*
X1044296Y1001814D01*
X1044266Y1001585D01*
X1044296Y1001356D01*
X1044384Y1001143D01*
X1044525Y1000960D01*
X1044708Y1000819D01*
X1044921Y1000731D01*
X1045150Y1000701D01*
X1045379Y1000731D01*
X1045592Y1000819D01*
X1045776Y1000960D01*
X1045916Y1001143D01*
X1046005Y1001356D01*
X1046035Y1001585D01*
X1046005Y1001814D01*
X1045916Y1002027D01*
X1045776Y1002211D01*
X1045592Y1002351D01*
X1045379Y1002439D01*
X1045150Y1002470D01*
D02*
G37*
G36*
X1042610D02*
X1042381Y1002439D01*
X1042168Y1002351D01*
X1041984Y1002211D01*
X1041844Y1002027D01*
X1041756Y1001814D01*
X1041725Y1001585D01*
X1041756Y1001356D01*
X1041844Y1001143D01*
X1041984Y1000960D01*
X1042168Y1000819D01*
X1042381Y1000731D01*
X1042610Y1000701D01*
X1042839Y1000731D01*
X1043052Y1000819D01*
X1043235Y1000960D01*
X1043376Y1001143D01*
X1043464Y1001356D01*
X1043495Y1001585D01*
X1043464Y1001814D01*
X1043376Y1002027D01*
X1043235Y1002211D01*
X1043052Y1002351D01*
X1042839Y1002439D01*
X1042610Y1002470D01*
D02*
G37*
G36*
X1029603Y1066080D02*
X1029425Y1066045D01*
X1029273Y1065944D01*
X1029172Y1065793D01*
X1029137Y1065615D01*
X1029172Y1065436D01*
X1029273Y1065285D01*
X1029425Y1065184D01*
X1029603Y1065149D01*
X1029781Y1065184D01*
X1029932Y1065285D01*
X1030033Y1065436D01*
X1030069Y1065615D01*
X1030033Y1065793D01*
X1029932Y1065944D01*
X1029781Y1066045D01*
X1029603Y1066080D01*
D02*
G37*
G36*
X1031781Y1066054D02*
X1031603Y1066019D01*
X1031452Y1065918D01*
X1031351Y1065767D01*
X1031315Y1065588D01*
X1031351Y1065410D01*
X1031452Y1065259D01*
X1031603Y1065158D01*
X1031781Y1065122D01*
X1031959Y1065158D01*
X1032110Y1065259D01*
X1032212Y1065410D01*
X1032247Y1065588D01*
X1032212Y1065767D01*
X1032110Y1065918D01*
X1031959Y1066019D01*
X1031781Y1066054D01*
D02*
G37*
G36*
X1039545Y1064948D02*
X1039347Y1064909D01*
X1039179Y1064797D01*
X1039067Y1064629D01*
X1039028Y1064431D01*
X1039067Y1064233D01*
X1039179Y1064066D01*
X1039347Y1063953D01*
X1039545Y1063914D01*
X1039743Y1063953D01*
X1039910Y1064066D01*
X1040022Y1064233D01*
X1040062Y1064431D01*
X1040022Y1064629D01*
X1039910Y1064797D01*
X1039743Y1064909D01*
X1039545Y1064948D01*
D02*
G37*
G36*
X1038361D02*
X1038163Y1064909D01*
X1037995Y1064797D01*
X1037883Y1064629D01*
X1037844Y1064431D01*
X1037883Y1064233D01*
X1037995Y1064066D01*
X1038163Y1063953D01*
X1038361Y1063914D01*
X1038559Y1063953D01*
X1038726Y1064066D01*
X1038838Y1064233D01*
X1038878Y1064431D01*
X1038838Y1064629D01*
X1038726Y1064797D01*
X1038559Y1064909D01*
X1038361Y1064948D01*
D02*
G37*
G36*
X1022100Y1063479D02*
X1021922Y1063444D01*
X1021771Y1063343D01*
X1021669Y1063192D01*
X1021634Y1063013D01*
X1021669Y1062835D01*
X1021771Y1062684D01*
X1021922Y1062583D01*
X1022100Y1062547D01*
X1022278Y1062583D01*
X1022430Y1062684D01*
X1022530Y1062835D01*
X1022566Y1063013D01*
X1022530Y1063192D01*
X1022430Y1063343D01*
X1022278Y1063444D01*
X1022100Y1063479D01*
D02*
G37*
G36*
X1042900Y1063479D02*
X1042722Y1063444D01*
X1042571Y1063343D01*
X1042469Y1063192D01*
X1042434Y1063013D01*
X1042469Y1062835D01*
X1042571Y1062684D01*
X1042722Y1062583D01*
X1042900Y1062547D01*
X1043078Y1062583D01*
X1043229Y1062684D01*
X1043330Y1062835D01*
X1043366Y1063013D01*
X1043330Y1063192D01*
X1043229Y1063343D01*
X1043078Y1063444D01*
X1042900Y1063479D01*
D02*
G37*
G36*
X1028487Y1062468D02*
X1028289Y1062429D01*
X1028121Y1062317D01*
X1028009Y1062149D01*
X1027970Y1061952D01*
X1028009Y1061754D01*
X1028121Y1061586D01*
X1028289Y1061474D01*
X1028487Y1061435D01*
X1028685Y1061474D01*
X1028852Y1061586D01*
X1028964Y1061754D01*
X1029004Y1061952D01*
X1028964Y1062149D01*
X1028852Y1062317D01*
X1028685Y1062429D01*
X1028487Y1062468D01*
D02*
G37*
G36*
X1027303D02*
X1027105Y1062429D01*
X1026937Y1062317D01*
X1026825Y1062149D01*
X1026786Y1061952D01*
X1026825Y1061754D01*
X1026937Y1061586D01*
X1027105Y1061474D01*
X1027303Y1061435D01*
X1027500Y1061474D01*
X1027668Y1061586D01*
X1027780Y1061754D01*
X1027820Y1061952D01*
X1027780Y1062149D01*
X1027668Y1062317D01*
X1027500Y1062429D01*
X1027303Y1062468D01*
D02*
G37*
G36*
X1020471Y1061911D02*
X1020293Y1061875D01*
X1020142Y1061774D01*
X1020041Y1061623D01*
X1020005Y1061445D01*
X1020041Y1061267D01*
X1020142Y1061115D01*
X1020293Y1061014D01*
X1020471Y1060979D01*
X1020650Y1061014D01*
X1020801Y1061115D01*
X1020902Y1061267D01*
X1020937Y1061445D01*
X1020902Y1061623D01*
X1020801Y1061774D01*
X1020650Y1061875D01*
X1020471Y1061911D01*
D02*
G37*
G36*
X1031537Y1060983D02*
X1031339Y1060943D01*
X1031172Y1060831D01*
X1031059Y1060663D01*
X1031020Y1060466D01*
X1031059Y1060268D01*
X1031172Y1060100D01*
X1031339Y1059988D01*
X1031537Y1059949D01*
X1031735Y1059988D01*
X1031903Y1060100D01*
X1032015Y1060268D01*
X1032054Y1060466D01*
X1032015Y1060663D01*
X1031903Y1060831D01*
X1031735Y1060943D01*
X1031537Y1060983D01*
D02*
G37*
G36*
X1046600Y1060466D02*
X1046422Y1060431D01*
X1046271Y1060329D01*
X1046170Y1060178D01*
X1046134Y1060000D01*
X1046170Y1059822D01*
X1046271Y1059671D01*
X1046422Y1059570D01*
X1046600Y1059534D01*
X1046778Y1059570D01*
X1046930Y1059671D01*
X1047031Y1059822D01*
X1047066Y1060000D01*
X1047031Y1060178D01*
X1046930Y1060329D01*
X1046778Y1060431D01*
X1046600Y1060466D01*
D02*
G37*
G36*
X1051649Y1060427D02*
X1051470Y1060391D01*
X1051319Y1060290D01*
X1051218Y1060139D01*
X1051183Y1059961D01*
X1051218Y1059782D01*
X1051319Y1059631D01*
X1051470Y1059530D01*
X1051649Y1059495D01*
X1051827Y1059530D01*
X1051978Y1059631D01*
X1052079Y1059782D01*
X1052115Y1059961D01*
X1052079Y1060139D01*
X1051978Y1060290D01*
X1051827Y1060391D01*
X1051649Y1060427D01*
D02*
G37*
G36*
X1017034Y1060401D02*
X1016856Y1060366D01*
X1016705Y1060265D01*
X1016604Y1060114D01*
X1016568Y1059935D01*
X1016604Y1059757D01*
X1016705Y1059606D01*
X1016856Y1059505D01*
X1017034Y1059469D01*
X1017213Y1059505D01*
X1017364Y1059606D01*
X1017465Y1059757D01*
X1017500Y1059935D01*
X1017465Y1060114D01*
X1017364Y1060265D01*
X1017213Y1060366D01*
X1017034Y1060401D01*
D02*
G37*
G36*
X1028176Y1060076D02*
X1027998Y1060041D01*
X1027847Y1059940D01*
X1027746Y1059788D01*
X1027710Y1059610D01*
X1027746Y1059432D01*
X1027847Y1059281D01*
X1027998Y1059180D01*
X1028176Y1059144D01*
X1028355Y1059180D01*
X1028506Y1059281D01*
X1028607Y1059432D01*
X1028642Y1059610D01*
X1028607Y1059788D01*
X1028506Y1059940D01*
X1028355Y1060041D01*
X1028176Y1060076D01*
D02*
G37*
G36*
X1032869Y1060983D02*
X1032671Y1060943D01*
X1032504Y1060831D01*
X1032391Y1060663D01*
X1032352Y1060466D01*
X1032391Y1060268D01*
X1032504Y1060100D01*
X1032671Y1059988D01*
X1032869Y1059949D01*
X1032897Y1059954D01*
X1032947Y1059835D01*
X1032946Y1059834D01*
X1032844Y1059683D01*
X1032809Y1059504D01*
X1032844Y1059326D01*
X1032946Y1059175D01*
X1033097Y1059074D01*
X1033275Y1059038D01*
X1033453Y1059074D01*
X1033604Y1059175D01*
X1033705Y1059326D01*
X1033741Y1059504D01*
X1033705Y1059683D01*
X1033604Y1059834D01*
X1033453Y1059935D01*
X1033275Y1059970D01*
X1033266Y1059969D01*
X1033217Y1060088D01*
X1033234Y1060100D01*
X1033347Y1060268D01*
X1033386Y1060466D01*
X1033347Y1060663D01*
X1033234Y1060831D01*
X1033067Y1060943D01*
X1032869Y1060983D01*
D02*
G37*
G36*
X1026171Y1059880D02*
X1025992Y1059844D01*
X1025841Y1059743D01*
X1025740Y1059592D01*
X1025705Y1059414D01*
X1025740Y1059235D01*
X1025841Y1059084D01*
X1025992Y1058983D01*
X1026171Y1058948D01*
X1026349Y1058983D01*
X1026500Y1059084D01*
X1026601Y1059235D01*
X1026636Y1059414D01*
X1026601Y1059592D01*
X1026500Y1059743D01*
X1026349Y1059844D01*
X1026171Y1059880D01*
D02*
G37*
G36*
X1024673Y1059476D02*
X1024495Y1059440D01*
X1024344Y1059339D01*
X1024243Y1059188D01*
X1024207Y1059010D01*
X1024243Y1058832D01*
X1024344Y1058680D01*
X1024495Y1058579D01*
X1024673Y1058544D01*
X1024851Y1058579D01*
X1025003Y1058680D01*
X1025104Y1058832D01*
X1025139Y1059010D01*
X1025104Y1059188D01*
X1025003Y1059339D01*
X1024851Y1059440D01*
X1024673Y1059476D01*
D02*
G37*
G36*
X1015006Y1059134D02*
X1014828Y1059098D01*
X1014677Y1058997D01*
X1014576Y1058846D01*
X1014540Y1058668D01*
X1014576Y1058489D01*
X1014677Y1058338D01*
X1014828Y1058237D01*
X1015006Y1058202D01*
X1015184Y1058237D01*
X1015336Y1058338D01*
X1015437Y1058489D01*
X1015472Y1058668D01*
X1015437Y1058846D01*
X1015336Y1058997D01*
X1015184Y1059098D01*
X1015006Y1059134D01*
D02*
G37*
G36*
X1046700Y1058991D02*
X1046522Y1058956D01*
X1046370Y1058854D01*
X1046270Y1058703D01*
X1046234Y1058525D01*
X1046270Y1058347D01*
X1046370Y1058196D01*
X1046522Y1058095D01*
X1046700Y1058059D01*
X1046878Y1058095D01*
X1047030Y1058196D01*
X1047130Y1058347D01*
X1047166Y1058525D01*
X1047130Y1058703D01*
X1047030Y1058854D01*
X1046878Y1058956D01*
X1046700Y1058991D01*
D02*
G37*
G36*
X1043700Y1058942D02*
X1043522Y1058907D01*
X1043370Y1058806D01*
X1043270Y1058654D01*
X1043234Y1058476D01*
X1043270Y1058298D01*
X1043370Y1058147D01*
X1043522Y1058046D01*
X1043700Y1058010D01*
X1043878Y1058046D01*
X1044030Y1058147D01*
X1044130Y1058298D01*
X1044166Y1058476D01*
X1044130Y1058654D01*
X1044030Y1058806D01*
X1043878Y1058907D01*
X1043700Y1058942D01*
D02*
G37*
G36*
X1038115D02*
X1037936Y1058907D01*
X1037785Y1058806D01*
X1037684Y1058654D01*
X1037649Y1058476D01*
X1037684Y1058298D01*
X1037785Y1058147D01*
X1037936Y1058046D01*
X1038115Y1058010D01*
X1038293Y1058046D01*
X1038444Y1058147D01*
X1038545Y1058298D01*
X1038581Y1058476D01*
X1038545Y1058654D01*
X1038444Y1058806D01*
X1038293Y1058907D01*
X1038115Y1058942D01*
D02*
G37*
G36*
X1023116Y1058855D02*
X1022938Y1058820D01*
X1022787Y1058719D01*
X1022686Y1058568D01*
X1022650Y1058389D01*
X1022686Y1058211D01*
X1022787Y1058060D01*
X1022938Y1057959D01*
X1023116Y1057923D01*
X1023294Y1057959D01*
X1023446Y1058060D01*
X1023547Y1058211D01*
X1023582Y1058389D01*
X1023547Y1058568D01*
X1023446Y1058719D01*
X1023294Y1058820D01*
X1023116Y1058855D01*
D02*
G37*
G36*
X1051954Y1058850D02*
X1051776Y1058814D01*
X1051625Y1058713D01*
X1051523Y1058562D01*
X1051488Y1058384D01*
X1051523Y1058205D01*
X1051625Y1058054D01*
X1051776Y1057953D01*
X1051954Y1057918D01*
X1052132Y1057953D01*
X1052283Y1058054D01*
X1052384Y1058205D01*
X1052420Y1058384D01*
X1052384Y1058562D01*
X1052283Y1058713D01*
X1052132Y1058814D01*
X1051954Y1058850D01*
D02*
G37*
G36*
X1037075Y1058816D02*
X1036897Y1058781D01*
X1036746Y1058680D01*
X1036645Y1058528D01*
X1036609Y1058350D01*
X1036645Y1058172D01*
X1036746Y1058021D01*
X1036897Y1057920D01*
X1037075Y1057884D01*
X1037253Y1057920D01*
X1037405Y1058021D01*
X1037505Y1058172D01*
X1037541Y1058350D01*
X1037505Y1058528D01*
X1037405Y1058680D01*
X1037253Y1058781D01*
X1037075Y1058816D01*
D02*
G37*
G36*
X1018300D02*
X1018122Y1058781D01*
X1017971Y1058680D01*
X1017870Y1058528D01*
X1017834Y1058350D01*
X1017870Y1058172D01*
X1017971Y1058021D01*
X1018122Y1057920D01*
X1018300Y1057884D01*
X1018478Y1057920D01*
X1018629Y1058021D01*
X1018730Y1058172D01*
X1018766Y1058350D01*
X1018730Y1058528D01*
X1018629Y1058680D01*
X1018478Y1058781D01*
X1018300Y1058816D01*
D02*
G37*
G36*
X1019800D02*
X1019622Y1058781D01*
X1019471Y1058680D01*
X1019370Y1058528D01*
X1019334Y1058350D01*
X1019370Y1058172D01*
X1019471Y1058021D01*
X1019622Y1057920D01*
X1019800Y1057884D01*
X1019978Y1057920D01*
X1020129Y1058021D01*
X1020204Y1058131D01*
X1020221Y1058137D01*
X1020336Y1058135D01*
X1020345Y1058131D01*
X1020422Y1058016D01*
X1020573Y1057915D01*
X1020751Y1057879D01*
X1020930Y1057915D01*
X1021081Y1058016D01*
X1021182Y1058167D01*
X1021217Y1058345D01*
X1021182Y1058524D01*
X1021081Y1058675D01*
X1020930Y1058776D01*
X1020751Y1058811D01*
X1020573Y1058776D01*
X1020422Y1058675D01*
X1020348Y1058564D01*
X1020331Y1058559D01*
X1020216Y1058561D01*
X1020207Y1058564D01*
X1020129Y1058680D01*
X1019978Y1058781D01*
X1019800Y1058816D01*
D02*
G37*
G36*
X1045200Y1058792D02*
X1045022Y1058756D01*
X1044870Y1058655D01*
X1044770Y1058504D01*
X1044734Y1058326D01*
X1044770Y1058147D01*
X1044870Y1057996D01*
X1045022Y1057895D01*
X1045200Y1057860D01*
X1045378Y1057895D01*
X1045530Y1057996D01*
X1045630Y1058147D01*
X1045666Y1058326D01*
X1045630Y1058504D01*
X1045530Y1058655D01*
X1045378Y1058756D01*
X1045200Y1058792D01*
D02*
G37*
G36*
X1013741Y1058601D02*
X1013563Y1058565D01*
X1013412Y1058464D01*
X1013311Y1058313D01*
X1013275Y1058135D01*
X1013311Y1057957D01*
X1013412Y1057805D01*
X1013563Y1057704D01*
X1013741Y1057669D01*
X1013920Y1057704D01*
X1014071Y1057805D01*
X1014172Y1057957D01*
X1014207Y1058135D01*
X1014172Y1058313D01*
X1014071Y1058464D01*
X1013920Y1058565D01*
X1013741Y1058601D01*
D02*
G37*
G36*
X1033275Y1058241D02*
X1033097Y1058206D01*
X1032946Y1058104D01*
X1032845Y1057953D01*
X1032809Y1057775D01*
X1032845Y1057597D01*
X1032946Y1057446D01*
X1033097Y1057345D01*
X1033275Y1057309D01*
X1033453Y1057345D01*
X1033604Y1057446D01*
X1033706Y1057597D01*
X1033741Y1057775D01*
X1033706Y1057953D01*
X1033604Y1058104D01*
X1033453Y1058206D01*
X1033275Y1058241D01*
D02*
G37*
G36*
X1012486Y1057972D02*
X1012308Y1057937D01*
X1012157Y1057836D01*
X1012056Y1057684D01*
X1012020Y1057506D01*
X1012056Y1057328D01*
X1012157Y1057177D01*
X1012308Y1057076D01*
X1012486Y1057040D01*
X1012664Y1057076D01*
X1012816Y1057177D01*
X1012917Y1057328D01*
X1012952Y1057506D01*
X1012917Y1057684D01*
X1012816Y1057836D01*
X1012664Y1057937D01*
X1012486Y1057972D01*
D02*
G37*
G36*
X1031996Y1057791D02*
X1031818Y1057755D01*
X1031667Y1057655D01*
X1031566Y1057503D01*
X1031530Y1057325D01*
X1031566Y1057147D01*
X1031667Y1056996D01*
X1031818Y1056895D01*
X1031996Y1056859D01*
X1032175Y1056895D01*
X1032326Y1056996D01*
X1032427Y1057147D01*
X1032462Y1057325D01*
X1032427Y1057503D01*
X1032326Y1057655D01*
X1032175Y1057755D01*
X1031996Y1057791D01*
D02*
G37*
G36*
X1051920Y1057601D02*
X1051742Y1057566D01*
X1051591Y1057465D01*
X1051490Y1057313D01*
X1051454Y1057135D01*
X1051490Y1056957D01*
X1051591Y1056806D01*
X1051742Y1056705D01*
X1051920Y1056669D01*
X1052099Y1056705D01*
X1052250Y1056806D01*
X1052351Y1056957D01*
X1052386Y1057135D01*
X1052351Y1057313D01*
X1052250Y1057465D01*
X1052099Y1057566D01*
X1051920Y1057601D01*
D02*
G37*
G36*
X1029100Y1057466D02*
X1028922Y1057431D01*
X1028771Y1057329D01*
X1028670Y1057178D01*
X1028634Y1057000D01*
X1028670Y1056822D01*
X1028771Y1056671D01*
X1028922Y1056570D01*
X1029100Y1056534D01*
X1029278Y1056570D01*
X1029429Y1056671D01*
X1029531Y1056822D01*
X1029566Y1057000D01*
X1029531Y1057178D01*
X1029429Y1057329D01*
X1029278Y1057431D01*
X1029100Y1057466D01*
D02*
G37*
G36*
X1026100D02*
X1025922Y1057431D01*
X1025771Y1057329D01*
X1025670Y1057178D01*
X1025634Y1057000D01*
X1025670Y1056822D01*
X1025771Y1056671D01*
X1025922Y1056570D01*
X1026100Y1056534D01*
X1026278Y1056570D01*
X1026430Y1056671D01*
X1026531Y1056822D01*
X1026566Y1057000D01*
X1026531Y1057178D01*
X1026430Y1057329D01*
X1026278Y1057431D01*
X1026100Y1057466D01*
D02*
G37*
G36*
X1027600Y1057466D02*
X1027422Y1057431D01*
X1027271Y1057329D01*
X1027170Y1057178D01*
X1027134Y1057000D01*
X1027170Y1056822D01*
X1027271Y1056671D01*
X1027422Y1056570D01*
X1027600Y1056534D01*
X1027778Y1056570D01*
X1027929Y1056671D01*
X1028031Y1056822D01*
X1028066Y1057000D01*
X1028031Y1057178D01*
X1027929Y1057329D01*
X1027778Y1057431D01*
X1027600Y1057466D01*
D02*
G37*
G36*
X1024600D02*
X1024422Y1057431D01*
X1024271Y1057329D01*
X1024170Y1057178D01*
X1024134Y1057000D01*
X1024170Y1056822D01*
X1024271Y1056671D01*
X1024422Y1056570D01*
X1024600Y1056534D01*
X1024778Y1056570D01*
X1024929Y1056671D01*
X1025031Y1056822D01*
X1025066Y1057000D01*
X1025031Y1057178D01*
X1024929Y1057329D01*
X1024778Y1057431D01*
X1024600Y1057466D01*
D02*
G37*
G36*
X1048940Y1056404D02*
X1033660D01*
X1033582Y1056388D01*
X1033582Y1056388D01*
X1033509Y1056358D01*
X1033509Y1056358D01*
X1033478Y1056338D01*
X1032590D01*
X1032548Y1056366D01*
X1032370Y1056401D01*
X1032191Y1056366D01*
X1032149Y1056338D01*
X1031522D01*
X1031491Y1056358D01*
X1031418Y1056388D01*
X1031418Y1056388D01*
X1031340Y1056404D01*
X1016060D01*
X1015982Y1056388D01*
X1015982Y1056388D01*
X1015909Y1056358D01*
X1015909Y1056358D01*
X1015878Y1056338D01*
X1015763D01*
Y1056222D01*
X1015742Y1056191D01*
X1015712Y1056118D01*
X1015696Y1056040D01*
Y1045960D01*
X1015712Y1045882D01*
X1015742Y1045809D01*
X1015763Y1045778D01*
Y1045662D01*
X1015763Y1045662D01*
X1015882Y1045660D01*
X1015909Y1045642D01*
X1015982Y1045612D01*
X1016060Y1045596D01*
X1016761D01*
X1017054Y1045567D01*
X1017901Y1045399D01*
X1018727Y1045148D01*
X1019525Y1044818D01*
X1019978Y1044576D01*
X1019979Y1044505D01*
X1019967Y1044438D01*
X1019913Y1044402D01*
X1019913Y1044402D01*
X1019851Y1044340D01*
X1019806Y1044273D01*
X1019790Y1044193D01*
X1019790Y1044193D01*
Y1044153D01*
X1019668Y1044071D01*
X1019567Y1043920D01*
X1019532Y1043742D01*
X1019567Y1043563D01*
X1019668Y1043412D01*
X1019819Y1043311D01*
X1019998Y1043276D01*
X1020176Y1043311D01*
X1020327Y1043412D01*
X1020330Y1043417D01*
X1020465Y1043390D01*
X1020469Y1043372D01*
X1020570Y1043220D01*
X1020721Y1043119D01*
X1020899Y1043084D01*
X1021078Y1043119D01*
X1021229Y1043220D01*
X1021330Y1043372D01*
X1021352Y1043482D01*
X1021488Y1043534D01*
X1021672Y1043383D01*
X1022283Y1042772D01*
X1022831Y1042105D01*
X1023311Y1041387D01*
X1023718Y1040625D01*
X1024048Y1039827D01*
X1024299Y1039001D01*
X1024467Y1038154D01*
X1024496Y1037867D01*
Y1032060D01*
X1024511Y1031982D01*
X1024542Y1031909D01*
X1024562Y1031877D01*
Y1031763D01*
X1024677D01*
X1024708Y1031742D01*
X1024782Y1031712D01*
X1024860Y1031696D01*
X1040139D01*
X1040217Y1031712D01*
X1040252Y1031726D01*
X1040388Y1031694D01*
X1040430Y1031631D01*
X1040815Y1031245D01*
X1040878Y1031203D01*
X1040953Y1031188D01*
X1040953Y1031188D01*
X1043000D01*
Y1030179D01*
X1042865Y1030088D01*
X1042841Y1030052D01*
X1042688D01*
X1042642Y1030121D01*
X1042491Y1030222D01*
X1042313Y1030257D01*
X1042135Y1030222D01*
X1041984Y1030121D01*
X1041882Y1029969D01*
X1041847Y1029791D01*
X1041882Y1029613D01*
X1041984Y1029462D01*
X1042135Y1029361D01*
X1042313Y1029325D01*
X1042491Y1029361D01*
X1042642Y1029462D01*
X1042667Y1029498D01*
X1042819D01*
X1042865Y1029429D01*
X1043016Y1029328D01*
X1043194Y1029293D01*
X1043373Y1029328D01*
X1043524Y1029429D01*
X1043625Y1029581D01*
X1043660Y1029759D01*
X1043625Y1029937D01*
X1043524Y1030088D01*
X1043389Y1030179D01*
Y1031308D01*
X1043387Y1031315D01*
X1043475Y1031442D01*
X1045976D01*
X1046044Y1031315D01*
X1046020Y1031278D01*
X1045984Y1031100D01*
X1046020Y1030922D01*
X1046120Y1030771D01*
X1046272Y1030670D01*
X1046450Y1030634D01*
X1046628Y1030670D01*
X1046779Y1030771D01*
X1046880Y1030922D01*
X1046916Y1031100D01*
X1046880Y1031278D01*
X1046779Y1031429D01*
X1046680Y1031496D01*
X1046677Y1031602D01*
X1046777Y1031696D01*
X1048741D01*
X1048819Y1031712D01*
X1048892Y1031742D01*
X1048923Y1031762D01*
X1049320D01*
X1049284Y1042362D01*
X1049382Y1042443D01*
X1049425Y1042434D01*
X1049603Y1042470D01*
X1049755Y1042571D01*
X1049855Y1042722D01*
X1049891Y1042900D01*
X1049855Y1043078D01*
X1049755Y1043229D01*
X1049632Y1043311D01*
Y1043636D01*
X1049632Y1043636D01*
X1049616Y1043716D01*
X1049685Y1043842D01*
X1049703D01*
X1049792Y1043860D01*
X1049867Y1043910D01*
X1049876Y1043919D01*
X1050050Y1043884D01*
X1050228Y1043920D01*
X1050380Y1044021D01*
X1050480Y1044172D01*
X1050516Y1044350D01*
X1050480Y1044528D01*
X1050380Y1044680D01*
X1050228Y1044781D01*
X1050050Y1044816D01*
X1049872Y1044781D01*
X1049721Y1044680D01*
X1049620Y1044528D01*
X1049584Y1044350D01*
X1049550Y1044308D01*
X1049277D01*
X1049272Y1045843D01*
X1049288Y1045882D01*
X1049288Y1045882D01*
X1049304Y1045960D01*
Y1056000D01*
Y1056040D01*
X1049288Y1056118D01*
X1049288Y1056118D01*
X1049258Y1056191D01*
X1049258Y1056191D01*
X1049237Y1056223D01*
X1049236Y1056338D01*
X1049122D01*
X1049091Y1056358D01*
X1049018Y1056388D01*
X1049018Y1056388D01*
X1048940Y1056404D01*
D02*
G37*
G36*
X1010659Y1056118D02*
X1010481Y1056083D01*
X1010330Y1055982D01*
X1010229Y1055831D01*
X1010193Y1055652D01*
X1010229Y1055474D01*
X1010330Y1055323D01*
X1010481Y1055222D01*
X1010659Y1055186D01*
X1010838Y1055222D01*
X1010989Y1055323D01*
X1011090Y1055474D01*
X1011125Y1055652D01*
X1011090Y1055831D01*
X1010989Y1055982D01*
X1010838Y1056083D01*
X1010659Y1056118D01*
D02*
G37*
G36*
X1050263Y1055724D02*
X1050085Y1055688D01*
X1049934Y1055587D01*
X1049833Y1055436D01*
X1049797Y1055258D01*
X1049833Y1055079D01*
X1049934Y1054928D01*
X1050085Y1054827D01*
X1050263Y1054792D01*
X1050442Y1054827D01*
X1050593Y1054928D01*
X1050694Y1055079D01*
X1050729Y1055258D01*
X1050694Y1055436D01*
X1050593Y1055587D01*
X1050442Y1055688D01*
X1050263Y1055724D01*
D02*
G37*
G36*
X1052453Y1055198D02*
X1052275Y1055162D01*
X1052124Y1055061D01*
X1052023Y1054910D01*
X1051987Y1054732D01*
X1052023Y1054554D01*
X1052124Y1054402D01*
X1052275Y1054301D01*
X1052453Y1054266D01*
X1052632Y1054301D01*
X1052783Y1054402D01*
X1052884Y1054554D01*
X1052919Y1054732D01*
X1052884Y1054910D01*
X1052783Y1055061D01*
X1052632Y1055162D01*
X1052453Y1055198D01*
D02*
G37*
G36*
X1050062Y1054658D02*
X1049884Y1054623D01*
X1049733Y1054522D01*
X1049632Y1054371D01*
X1049596Y1054193D01*
X1049632Y1054014D01*
X1049733Y1053863D01*
X1049884Y1053762D01*
X1050062Y1053727D01*
X1050240Y1053762D01*
X1050392Y1053863D01*
X1050493Y1054014D01*
X1050528Y1054193D01*
X1050493Y1054371D01*
X1050392Y1054522D01*
X1050240Y1054623D01*
X1050062Y1054658D01*
D02*
G37*
G36*
X1052289Y1053872D02*
X1052110Y1053837D01*
X1051959Y1053736D01*
X1051858Y1053584D01*
X1051823Y1053406D01*
X1051858Y1053228D01*
X1051959Y1053077D01*
X1052110Y1052976D01*
X1052289Y1052940D01*
X1052467Y1052976D01*
X1052618Y1053077D01*
X1052719Y1053228D01*
X1052755Y1053406D01*
X1052719Y1053584D01*
X1052618Y1053736D01*
X1052467Y1053837D01*
X1052289Y1053872D01*
D02*
G37*
G36*
X1052238Y1052385D02*
X1052060Y1052350D01*
X1051909Y1052249D01*
X1051808Y1052098D01*
X1051772Y1051920D01*
X1051808Y1051741D01*
X1051909Y1051590D01*
X1052060Y1051489D01*
X1052093Y1051409D01*
X1052054Y1051350D01*
X1052019Y1051172D01*
X1052054Y1050994D01*
X1052155Y1050843D01*
X1052306Y1050742D01*
X1052485Y1050706D01*
X1052663Y1050742D01*
X1052814Y1050843D01*
X1052915Y1050994D01*
X1052951Y1051172D01*
X1052915Y1051350D01*
X1052814Y1051502D01*
X1052663Y1051603D01*
X1052630Y1051683D01*
X1052669Y1051741D01*
X1052704Y1051920D01*
X1052669Y1052098D01*
X1052568Y1052249D01*
X1052417Y1052350D01*
X1052238Y1052385D01*
D02*
G37*
G36*
X1011518Y1050157D02*
X1011340Y1050122D01*
X1011189Y1050021D01*
X1011088Y1049870D01*
X1011052Y1049692D01*
X1011088Y1049513D01*
X1011189Y1049362D01*
X1011340Y1049261D01*
X1011518Y1049226D01*
X1011696Y1049261D01*
X1011848Y1049362D01*
X1011949Y1049513D01*
X1011984Y1049692D01*
X1011949Y1049870D01*
X1011848Y1050021D01*
X1011696Y1050122D01*
X1011518Y1050157D01*
D02*
G37*
G36*
X1052892Y1050118D02*
X1052714Y1050083D01*
X1052563Y1049981D01*
X1052462Y1049830D01*
X1052426Y1049652D01*
X1052462Y1049474D01*
X1052563Y1049323D01*
X1052634Y1049275D01*
X1052710Y1049213D01*
X1052666Y1049112D01*
X1052624Y1049049D01*
X1052589Y1048871D01*
X1052624Y1048693D01*
X1052725Y1048542D01*
X1052876Y1048441D01*
X1053055Y1048405D01*
X1053233Y1048441D01*
X1053384Y1048542D01*
X1053485Y1048693D01*
X1053521Y1048871D01*
X1053485Y1049049D01*
X1053384Y1049201D01*
X1053313Y1049248D01*
X1053237Y1049310D01*
X1053281Y1049411D01*
X1053323Y1049474D01*
X1053358Y1049652D01*
X1053323Y1049830D01*
X1053222Y1049981D01*
X1053070Y1050083D01*
X1052892Y1050118D01*
D02*
G37*
G36*
X1011889Y1049026D02*
X1011711Y1048990D01*
X1011560Y1048889D01*
X1011459Y1048738D01*
X1011423Y1048560D01*
X1011459Y1048382D01*
X1011560Y1048230D01*
X1011711Y1048129D01*
X1011889Y1048094D01*
X1012068Y1048129D01*
X1012219Y1048230D01*
X1012320Y1048382D01*
X1012355Y1048560D01*
X1012320Y1048738D01*
X1012219Y1048889D01*
X1012068Y1048990D01*
X1011889Y1049026D01*
D02*
G37*
G36*
X1051965Y1048646D02*
X1051767Y1048606D01*
X1051599Y1048494D01*
X1051487Y1048327D01*
X1051448Y1048129D01*
X1051487Y1047931D01*
X1051599Y1047763D01*
X1051767Y1047651D01*
X1051965Y1047612D01*
X1052162Y1047651D01*
X1052330Y1047763D01*
X1052442Y1047931D01*
X1052482Y1048129D01*
X1052442Y1048327D01*
X1052330Y1048494D01*
X1052162Y1048606D01*
X1051965Y1048646D01*
D02*
G37*
G36*
X1050290Y1046006D02*
X1050112Y1045970D01*
X1049961Y1045869D01*
X1049860Y1045718D01*
X1049824Y1045540D01*
X1049860Y1045361D01*
X1049961Y1045210D01*
X1050112Y1045109D01*
X1050290Y1045074D01*
X1050469Y1045109D01*
X1050620Y1045210D01*
X1050721Y1045361D01*
X1050756Y1045540D01*
X1050721Y1045718D01*
X1050620Y1045869D01*
X1050469Y1045970D01*
X1050290Y1046006D01*
D02*
G37*
G36*
X1051689Y1045752D02*
X1051492Y1045713D01*
X1051324Y1045601D01*
X1051212Y1045433D01*
X1051172Y1045235D01*
X1051212Y1045037D01*
X1051324Y1044870D01*
X1051492Y1044758D01*
X1051689Y1044718D01*
X1051887Y1044758D01*
X1052055Y1044870D01*
X1052167Y1045037D01*
X1052206Y1045235D01*
X1052167Y1045433D01*
X1052055Y1045601D01*
X1051887Y1045713D01*
X1051689Y1045752D01*
D02*
G37*
G36*
X1011700Y1045466D02*
X1011522Y1045430D01*
X1011371Y1045329D01*
X1011270Y1045178D01*
X1011234Y1045000D01*
X1011270Y1044822D01*
X1011371Y1044671D01*
X1011522Y1044570D01*
X1011700Y1044534D01*
X1011878Y1044570D01*
X1012029Y1044671D01*
X1012130Y1044822D01*
X1012166Y1045000D01*
X1012130Y1045178D01*
X1012029Y1045329D01*
X1011878Y1045430D01*
X1011700Y1045466D01*
D02*
G37*
G36*
X1011646Y1043855D02*
X1011468Y1043819D01*
X1011317Y1043718D01*
X1011216Y1043567D01*
X1011180Y1043389D01*
X1011216Y1043210D01*
X1011317Y1043059D01*
X1011342Y1043042D01*
X1011365Y1042895D01*
X1011291Y1042784D01*
X1011256Y1042605D01*
X1011291Y1042427D01*
X1011392Y1042276D01*
X1011543Y1042175D01*
X1011722Y1042139D01*
X1011900Y1042175D01*
X1012051Y1042276D01*
X1012152Y1042427D01*
X1012188Y1042605D01*
X1012152Y1042784D01*
X1012051Y1042935D01*
X1012026Y1042952D01*
X1012003Y1043099D01*
X1012077Y1043210D01*
X1012112Y1043389D01*
X1012077Y1043567D01*
X1011976Y1043718D01*
X1011824Y1043819D01*
X1011646Y1043855D01*
D02*
G37*
G36*
X1053126Y1042348D02*
X1052948Y1042312D01*
X1052797Y1042211D01*
X1052696Y1042060D01*
X1052661Y1041882D01*
X1052696Y1041704D01*
X1052797Y1041552D01*
X1052948Y1041451D01*
X1053126Y1041416D01*
X1053305Y1041451D01*
X1053456Y1041552D01*
X1053557Y1041704D01*
X1053592Y1041882D01*
X1053557Y1042060D01*
X1053456Y1042211D01*
X1053305Y1042312D01*
X1053126Y1042348D01*
D02*
G37*
G36*
X1014007Y1042078D02*
X1013809Y1042039D01*
X1013642Y1041927D01*
X1013529Y1041759D01*
X1013490Y1041561D01*
X1013529Y1041363D01*
X1013642Y1041196D01*
X1013809Y1041084D01*
X1014007Y1041044D01*
X1014205Y1041084D01*
X1014373Y1041196D01*
X1014485Y1041363D01*
X1014524Y1041561D01*
X1014485Y1041759D01*
X1014373Y1041927D01*
X1014205Y1042039D01*
X1014007Y1042078D01*
D02*
G37*
G36*
X1052959Y1041119D02*
X1052781Y1041083D01*
X1052630Y1040983D01*
X1052529Y1040831D01*
X1052493Y1040653D01*
X1052529Y1040475D01*
X1052630Y1040324D01*
X1052781Y1040223D01*
X1052959Y1040187D01*
X1053138Y1040223D01*
X1053289Y1040324D01*
X1053390Y1040475D01*
X1053425Y1040653D01*
X1053390Y1040831D01*
X1053289Y1040983D01*
X1053138Y1041083D01*
X1052959Y1041119D01*
D02*
G37*
G36*
X1050171Y1041175D02*
X1049973Y1041135D01*
X1049805Y1041023D01*
X1049693Y1040856D01*
X1049654Y1040658D01*
X1049693Y1040460D01*
X1049805Y1040292D01*
X1049973Y1040180D01*
X1050171Y1040141D01*
X1050369Y1040180D01*
X1050536Y1040292D01*
X1050648Y1040460D01*
X1050688Y1040658D01*
X1050648Y1040856D01*
X1050536Y1041023D01*
X1050369Y1041135D01*
X1050171Y1041175D01*
D02*
G37*
G36*
X1008646Y1040829D02*
X1008468Y1040794D01*
X1008317Y1040693D01*
X1008216Y1040542D01*
X1008180Y1040363D01*
X1008216Y1040185D01*
X1008317Y1040034D01*
X1008468Y1039933D01*
X1008646Y1039897D01*
X1008825Y1039933D01*
X1008976Y1040034D01*
X1009077Y1040185D01*
X1009112Y1040363D01*
X1009077Y1040542D01*
X1008976Y1040693D01*
X1008825Y1040794D01*
X1008646Y1040829D01*
D02*
G37*
G36*
X1009552Y1039957D02*
X1009374Y1039921D01*
X1009223Y1039820D01*
X1009122Y1039669D01*
X1009086Y1039491D01*
X1009122Y1039312D01*
X1009223Y1039161D01*
X1009374Y1039060D01*
X1009552Y1039025D01*
X1009730Y1039060D01*
X1009882Y1039161D01*
X1009983Y1039312D01*
X1010018Y1039491D01*
X1009983Y1039669D01*
X1009882Y1039820D01*
X1009730Y1039921D01*
X1009552Y1039957D01*
D02*
G37*
G36*
X1017869Y1039248D02*
X1017671Y1039209D01*
X1017504Y1039097D01*
X1017392Y1038929D01*
X1017352Y1038731D01*
X1017392Y1038534D01*
X1017504Y1038366D01*
X1017671Y1038254D01*
X1017869Y1038214D01*
X1018067Y1038254D01*
X1018235Y1038366D01*
X1018347Y1038534D01*
X1018386Y1038731D01*
X1018347Y1038929D01*
X1018235Y1039097D01*
X1018067Y1039209D01*
X1017869Y1039248D01*
D02*
G37*
G36*
X1016685D02*
X1016487Y1039209D01*
X1016320Y1039097D01*
X1016207Y1038929D01*
X1016168Y1038731D01*
X1016207Y1038534D01*
X1016320Y1038366D01*
X1016487Y1038254D01*
X1016685Y1038214D01*
X1016883Y1038254D01*
X1017051Y1038366D01*
X1017163Y1038534D01*
X1017202Y1038731D01*
X1017163Y1038929D01*
X1017051Y1039097D01*
X1016883Y1039209D01*
X1016685Y1039248D01*
D02*
G37*
G36*
X1013172Y1037472D02*
X1012994Y1037437D01*
X1012842Y1037336D01*
X1012741Y1037184D01*
X1012706Y1037006D01*
X1012741Y1036828D01*
X1012842Y1036677D01*
X1012994Y1036576D01*
X1013007Y1036573D01*
X1013025Y1036546D01*
X1013093Y1036501D01*
X1013172Y1036485D01*
X1013251Y1036501D01*
X1013318Y1036546D01*
X1013337Y1036573D01*
X1013350Y1036576D01*
X1013501Y1036677D01*
X1013602Y1036828D01*
X1013638Y1037006D01*
X1013602Y1037184D01*
X1013501Y1037336D01*
X1013350Y1037437D01*
X1013172Y1037472D01*
D02*
G37*
G36*
X1051421Y1036550D02*
X1051242Y1036515D01*
X1051091Y1036414D01*
X1050990Y1036263D01*
X1050955Y1036084D01*
X1050990Y1035906D01*
X1051091Y1035755D01*
X1051242Y1035654D01*
X1051421Y1035618D01*
X1051599Y1035654D01*
X1051750Y1035755D01*
X1051851Y1035906D01*
X1051887Y1036084D01*
X1051851Y1036263D01*
X1051750Y1036414D01*
X1051599Y1036515D01*
X1051421Y1036550D01*
D02*
G37*
G36*
X1014376Y1035025D02*
X1014198Y1034990D01*
X1014047Y1034889D01*
X1013946Y1034738D01*
X1013910Y1034559D01*
X1013946Y1034381D01*
X1014047Y1034230D01*
X1014198Y1034129D01*
X1014376Y1034093D01*
X1014555Y1034129D01*
X1014706Y1034230D01*
X1014807Y1034381D01*
X1014842Y1034559D01*
X1014807Y1034738D01*
X1014706Y1034889D01*
X1014555Y1034990D01*
X1014376Y1035025D01*
D02*
G37*
G36*
X1020447Y1034968D02*
X1020249Y1034928D01*
X1020081Y1034816D01*
X1019969Y1034649D01*
X1019930Y1034451D01*
X1019969Y1034253D01*
X1020081Y1034085D01*
X1020249Y1033973D01*
X1020447Y1033934D01*
X1020645Y1033973D01*
X1020812Y1034085D01*
X1020924Y1034253D01*
X1020964Y1034451D01*
X1020924Y1034649D01*
X1020812Y1034816D01*
X1020645Y1034928D01*
X1020447Y1034968D01*
D02*
G37*
G36*
X1019263D02*
X1019065Y1034928D01*
X1018897Y1034816D01*
X1018785Y1034649D01*
X1018746Y1034451D01*
X1018785Y1034253D01*
X1018897Y1034085D01*
X1019065Y1033973D01*
X1019263Y1033934D01*
X1019460Y1033973D01*
X1019628Y1034085D01*
X1019740Y1034253D01*
X1019779Y1034451D01*
X1019740Y1034649D01*
X1019628Y1034816D01*
X1019460Y1034928D01*
X1019263Y1034968D01*
D02*
G37*
G36*
X1015558Y1032229D02*
X1015379Y1032194D01*
X1015228Y1032093D01*
X1015127Y1031942D01*
X1015092Y1031763D01*
X1015127Y1031585D01*
X1015228Y1031434D01*
X1015379Y1031333D01*
X1015558Y1031297D01*
X1015736Y1031333D01*
X1015887Y1031434D01*
X1015988Y1031585D01*
X1016024Y1031763D01*
X1015988Y1031942D01*
X1015887Y1032093D01*
X1015736Y1032194D01*
X1015558Y1032229D01*
D02*
G37*
G36*
X1031650Y1031566D02*
X1031472Y1031531D01*
X1031321Y1031429D01*
X1031219Y1031278D01*
X1031184Y1031100D01*
X1031219Y1030922D01*
X1031321Y1030771D01*
X1031472Y1030670D01*
X1031650Y1030634D01*
X1031828Y1030670D01*
X1031979Y1030771D01*
X1032080Y1030922D01*
X1032116Y1031100D01*
X1032080Y1031278D01*
X1031979Y1031429D01*
X1031828Y1031531D01*
X1031650Y1031566D01*
D02*
G37*
G36*
X1030150D02*
X1029972Y1031531D01*
X1029821Y1031429D01*
X1029719Y1031278D01*
X1029684Y1031100D01*
X1029719Y1030922D01*
X1029821Y1030771D01*
X1029972Y1030670D01*
X1030150Y1030634D01*
X1030328Y1030670D01*
X1030479Y1030771D01*
X1030580Y1030922D01*
X1030616Y1031100D01*
X1030580Y1031278D01*
X1030479Y1031429D01*
X1030328Y1031531D01*
X1030150Y1031566D01*
D02*
G37*
G36*
X1025650D02*
X1025472Y1031531D01*
X1025321Y1031429D01*
X1025219Y1031278D01*
X1025184Y1031100D01*
X1025219Y1030922D01*
X1025321Y1030771D01*
X1025472Y1030670D01*
X1025650Y1030634D01*
X1025828Y1030670D01*
X1025979Y1030771D01*
X1026080Y1030922D01*
X1026116Y1031100D01*
X1026080Y1031278D01*
X1025979Y1031429D01*
X1025828Y1031531D01*
X1025650Y1031566D01*
D02*
G37*
G36*
X1047950Y1031528D02*
X1047772Y1031492D01*
X1047621Y1031391D01*
X1047520Y1031240D01*
X1047484Y1031062D01*
X1047520Y1030884D01*
X1047621Y1030733D01*
X1047772Y1030631D01*
X1047950Y1030596D01*
X1048128Y1030631D01*
X1048280Y1030733D01*
X1048380Y1030884D01*
X1048416Y1031062D01*
X1048380Y1031240D01*
X1048280Y1031391D01*
X1048128Y1031492D01*
X1047950Y1031528D01*
D02*
G37*
G36*
X1040815Y1030964D02*
X1040637Y1030928D01*
X1040485Y1030827D01*
X1040385Y1030676D01*
X1040349Y1030498D01*
X1040385Y1030319D01*
X1040485Y1030168D01*
X1040637Y1030067D01*
X1040704Y1030054D01*
X1040813Y1030019D01*
X1040796Y1029916D01*
X1040781Y1029839D01*
X1040816Y1029661D01*
X1040917Y1029510D01*
X1041068Y1029409D01*
X1041247Y1029373D01*
X1041425Y1029409D01*
X1041576Y1029510D01*
X1041677Y1029661D01*
X1041713Y1029839D01*
X1041677Y1030018D01*
X1041576Y1030169D01*
X1041425Y1030270D01*
X1041358Y1030283D01*
X1041249Y1030318D01*
X1041266Y1030421D01*
X1041281Y1030498D01*
X1041245Y1030676D01*
X1041145Y1030827D01*
X1040993Y1030928D01*
X1040815Y1030964D01*
D02*
G37*
G36*
X1036350Y1030266D02*
X1036172Y1030230D01*
X1036021Y1030130D01*
X1035920Y1029978D01*
X1035884Y1029800D01*
X1035920Y1029622D01*
X1036021Y1029471D01*
X1036172Y1029370D01*
X1036350Y1029334D01*
X1036528Y1029370D01*
X1036680Y1029471D01*
X1036781Y1029622D01*
X1036816Y1029800D01*
X1036781Y1029978D01*
X1036680Y1030130D01*
X1036528Y1030230D01*
X1036350Y1030266D01*
D02*
G37*
G36*
X1028650D02*
X1028472Y1030230D01*
X1028321Y1030130D01*
X1028219Y1029978D01*
X1028184Y1029800D01*
X1028219Y1029622D01*
X1028321Y1029471D01*
X1028472Y1029370D01*
X1028650Y1029334D01*
X1028828Y1029370D01*
X1028979Y1029471D01*
X1029080Y1029622D01*
X1029116Y1029800D01*
X1029080Y1029978D01*
X1028979Y1030130D01*
X1028828Y1030230D01*
X1028650Y1030266D01*
D02*
G37*
G36*
X1026200D02*
X1026022Y1030230D01*
X1025871Y1030130D01*
X1025770Y1029978D01*
X1025734Y1029800D01*
X1025770Y1029622D01*
X1025871Y1029471D01*
X1026022Y1029370D01*
X1026200Y1029334D01*
X1026378Y1029370D01*
X1026530Y1029471D01*
X1026630Y1029622D01*
X1026666Y1029800D01*
X1026630Y1029978D01*
X1026530Y1030130D01*
X1026378Y1030230D01*
X1026200Y1030266D01*
D02*
G37*
G36*
X1044711Y1030238D02*
X1044533Y1030202D01*
X1044382Y1030101D01*
X1044281Y1029950D01*
X1044245Y1029772D01*
X1044281Y1029594D01*
X1044382Y1029442D01*
X1044533Y1029341D01*
X1044711Y1029306D01*
X1044890Y1029341D01*
X1045041Y1029442D01*
X1045142Y1029594D01*
X1045177Y1029772D01*
X1045142Y1029950D01*
X1045041Y1030101D01*
X1044890Y1030202D01*
X1044711Y1030238D01*
D02*
G37*
G36*
X1016531Y1030045D02*
X1016352Y1030009D01*
X1016201Y1029908D01*
X1016100Y1029757D01*
X1016065Y1029579D01*
X1016100Y1029400D01*
X1016201Y1029249D01*
X1016352Y1029148D01*
X1016531Y1029113D01*
X1016709Y1029148D01*
X1016860Y1029249D01*
X1016961Y1029400D01*
X1016997Y1029579D01*
X1016961Y1029757D01*
X1016860Y1029908D01*
X1016709Y1030009D01*
X1016531Y1030045D01*
D02*
G37*
G36*
X1046543Y1029965D02*
X1046365Y1029930D01*
X1046214Y1029829D01*
X1046113Y1029678D01*
X1046077Y1029500D01*
X1046113Y1029321D01*
X1046214Y1029170D01*
X1046365Y1029069D01*
X1046543Y1029034D01*
X1046722Y1029069D01*
X1046873Y1029170D01*
X1046974Y1029321D01*
X1047009Y1029500D01*
X1046974Y1029678D01*
X1046873Y1029829D01*
X1046722Y1029930D01*
X1046543Y1029965D01*
D02*
G37*
G36*
X1045411Y1029424D02*
X1045233Y1029388D01*
X1045081Y1029287D01*
X1044980Y1029136D01*
X1044945Y1028958D01*
X1044980Y1028779D01*
X1045081Y1028628D01*
X1045233Y1028527D01*
X1045411Y1028492D01*
X1045589Y1028527D01*
X1045740Y1028628D01*
X1045841Y1028779D01*
X1045877Y1028958D01*
X1045841Y1029136D01*
X1045740Y1029287D01*
X1045589Y1029388D01*
X1045411Y1029424D01*
D02*
G37*
G36*
X1032503Y1029385D02*
X1032325Y1029349D01*
X1032173Y1029249D01*
X1032073Y1029097D01*
X1032037Y1028919D01*
X1032073Y1028741D01*
X1032173Y1028589D01*
X1032325Y1028489D01*
X1032503Y1028453D01*
X1032681Y1028489D01*
X1032833Y1028589D01*
X1032933Y1028741D01*
X1032969Y1028919D01*
X1032933Y1029097D01*
X1032833Y1029249D01*
X1032681Y1029349D01*
X1032503Y1029385D01*
D02*
G37*
G36*
X1036271Y1029066D02*
X1036092Y1029031D01*
X1035941Y1028929D01*
X1035840Y1028778D01*
X1035805Y1028600D01*
X1035840Y1028422D01*
X1035941Y1028271D01*
X1036092Y1028170D01*
X1036271Y1028134D01*
X1036449Y1028170D01*
X1036600Y1028271D01*
X1036701Y1028422D01*
X1036737Y1028600D01*
X1036701Y1028778D01*
X1036600Y1028929D01*
X1036449Y1029031D01*
X1036271Y1029066D01*
D02*
G37*
G36*
X1034494Y1028940D02*
X1034315Y1028905D01*
X1034164Y1028803D01*
X1034063Y1028652D01*
X1034028Y1028474D01*
X1034063Y1028296D01*
X1034164Y1028145D01*
X1034315Y1028044D01*
X1034494Y1028008D01*
X1034672Y1028044D01*
X1034823Y1028145D01*
X1034924Y1028296D01*
X1034960Y1028474D01*
X1034924Y1028652D01*
X1034823Y1028803D01*
X1034672Y1028905D01*
X1034494Y1028940D01*
D02*
G37*
G36*
X1049980Y1028586D02*
X1049802Y1028550D01*
X1049651Y1028449D01*
X1049549Y1028298D01*
X1049514Y1028120D01*
X1049549Y1027942D01*
X1049651Y1027790D01*
X1049802Y1027689D01*
X1049980Y1027654D01*
X1050158Y1027689D01*
X1050309Y1027790D01*
X1050410Y1027942D01*
X1050446Y1028120D01*
X1050410Y1028298D01*
X1050309Y1028449D01*
X1050158Y1028550D01*
X1049980Y1028586D01*
D02*
G37*
G36*
X1038233Y1029503D02*
X1038055Y1029468D01*
X1037904Y1029367D01*
X1037803Y1029216D01*
X1037767Y1029037D01*
X1037803Y1028859D01*
X1037904Y1028708D01*
X1037966Y1028666D01*
X1037939Y1028569D01*
X1037924Y1028542D01*
X1037754Y1028508D01*
X1037603Y1028407D01*
X1037502Y1028255D01*
X1037466Y1028077D01*
X1037502Y1027899D01*
X1037603Y1027748D01*
X1037754Y1027647D01*
X1037932Y1027611D01*
X1038111Y1027647D01*
X1038262Y1027748D01*
X1038363Y1027899D01*
X1038398Y1028077D01*
X1038363Y1028255D01*
X1038262Y1028407D01*
X1038199Y1028448D01*
X1038226Y1028546D01*
X1038242Y1028573D01*
X1038411Y1028607D01*
X1038563Y1028708D01*
X1038664Y1028859D01*
X1038699Y1029037D01*
X1038664Y1029216D01*
X1038563Y1029367D01*
X1038411Y1029468D01*
X1038233Y1029503D01*
D02*
G37*
G36*
X1017780Y1027924D02*
X1017602Y1027888D01*
X1017451Y1027787D01*
X1017350Y1027636D01*
X1017314Y1027458D01*
X1017350Y1027279D01*
X1017451Y1027128D01*
X1017602Y1027027D01*
X1017780Y1026992D01*
X1017958Y1027027D01*
X1018110Y1027128D01*
X1018211Y1027279D01*
X1018246Y1027458D01*
X1018211Y1027636D01*
X1018110Y1027787D01*
X1017958Y1027888D01*
X1017780Y1027924D01*
D02*
G37*
G36*
X1035629Y1027504D02*
X1035451Y1027469D01*
X1035299Y1027368D01*
X1035198Y1027217D01*
X1035163Y1027038D01*
X1035198Y1026860D01*
X1035299Y1026709D01*
X1035451Y1026608D01*
X1035629Y1026572D01*
X1035807Y1026608D01*
X1035958Y1026709D01*
X1036059Y1026860D01*
X1036095Y1027038D01*
X1036059Y1027217D01*
X1035958Y1027368D01*
X1035807Y1027469D01*
X1035629Y1027504D01*
D02*
G37*
G36*
X1022100Y1027453D02*
X1021922Y1027417D01*
X1021771Y1027316D01*
X1021669Y1027165D01*
X1021634Y1026987D01*
X1021669Y1026808D01*
X1021771Y1026657D01*
X1021922Y1026556D01*
X1022100Y1026521D01*
X1022278Y1026556D01*
X1022430Y1026657D01*
X1022530Y1026808D01*
X1022566Y1026987D01*
X1022530Y1027165D01*
X1022430Y1027316D01*
X1022278Y1027417D01*
X1022100Y1027453D01*
D02*
G37*
G36*
X1047670Y1027387D02*
X1047491Y1027352D01*
X1047340Y1027251D01*
X1047239Y1027100D01*
X1047204Y1026921D01*
X1047239Y1026743D01*
X1047340Y1026592D01*
X1047491Y1026491D01*
X1047670Y1026455D01*
X1047848Y1026491D01*
X1047999Y1026592D01*
X1048100Y1026743D01*
X1048136Y1026921D01*
X1048100Y1027100D01*
X1047999Y1027251D01*
X1047848Y1027352D01*
X1047670Y1027387D01*
D02*
G37*
G36*
X1042306Y1027377D02*
X1042127Y1027341D01*
X1041976Y1027240D01*
X1041875Y1027089D01*
X1041840Y1026911D01*
X1041875Y1026733D01*
X1041976Y1026581D01*
X1042127Y1026480D01*
X1042306Y1026445D01*
X1042484Y1026480D01*
X1042635Y1026581D01*
X1042736Y1026733D01*
X1042772Y1026911D01*
X1042736Y1027089D01*
X1042635Y1027240D01*
X1042484Y1027341D01*
X1042306Y1027377D01*
D02*
G37*
G36*
X1033208Y1027254D02*
X1033011Y1027214D01*
X1032843Y1027102D01*
X1032731Y1026935D01*
X1032692Y1026737D01*
X1032731Y1026539D01*
X1032843Y1026371D01*
X1033011Y1026259D01*
X1033208Y1026220D01*
X1033406Y1026259D01*
X1033574Y1026371D01*
X1033686Y1026539D01*
X1033725Y1026737D01*
X1033686Y1026935D01*
X1033574Y1027102D01*
X1033406Y1027214D01*
X1033208Y1027254D01*
D02*
G37*
G36*
X1031958D02*
X1031761Y1027214D01*
X1031593Y1027102D01*
X1031481Y1026935D01*
X1031442Y1026737D01*
X1031481Y1026539D01*
X1031593Y1026371D01*
X1031761Y1026259D01*
X1031958Y1026220D01*
X1032156Y1026259D01*
X1032324Y1026371D01*
X1032436Y1026539D01*
X1032475Y1026737D01*
X1032436Y1026935D01*
X1032324Y1027102D01*
X1032156Y1027214D01*
X1031958Y1027254D01*
D02*
G37*
G36*
X1030708D02*
X1030511Y1027214D01*
X1030343Y1027102D01*
X1030231Y1026935D01*
X1030192Y1026737D01*
X1030231Y1026539D01*
X1030343Y1026371D01*
X1030511Y1026259D01*
X1030708Y1026220D01*
X1030906Y1026259D01*
X1031074Y1026371D01*
X1031186Y1026539D01*
X1031225Y1026737D01*
X1031186Y1026935D01*
X1031074Y1027102D01*
X1030906Y1027214D01*
X1030708Y1027254D01*
D02*
G37*
G36*
X1029458D02*
X1029261Y1027214D01*
X1029093Y1027102D01*
X1028981Y1026935D01*
X1028942Y1026737D01*
X1028981Y1026539D01*
X1029093Y1026371D01*
X1029261Y1026259D01*
X1029458Y1026220D01*
X1029656Y1026259D01*
X1029824Y1026371D01*
X1029936Y1026539D01*
X1029975Y1026737D01*
X1029936Y1026935D01*
X1029824Y1027102D01*
X1029656Y1027214D01*
X1029458Y1027254D01*
D02*
G37*
G36*
X1028208D02*
X1028011Y1027214D01*
X1027843Y1027102D01*
X1027731Y1026935D01*
X1027692Y1026737D01*
X1027731Y1026539D01*
X1027843Y1026371D01*
X1028011Y1026259D01*
X1028208Y1026220D01*
X1028406Y1026259D01*
X1028574Y1026371D01*
X1028686Y1026539D01*
X1028725Y1026737D01*
X1028686Y1026935D01*
X1028574Y1027102D01*
X1028406Y1027214D01*
X1028208Y1027254D01*
D02*
G37*
G36*
X1026958D02*
X1026761Y1027214D01*
X1026593Y1027102D01*
X1026481Y1026935D01*
X1026442Y1026737D01*
X1026481Y1026539D01*
X1026593Y1026371D01*
X1026761Y1026259D01*
X1026958Y1026220D01*
X1027156Y1026259D01*
X1027324Y1026371D01*
X1027436Y1026539D01*
X1027475Y1026737D01*
X1027436Y1026935D01*
X1027324Y1027102D01*
X1027156Y1027214D01*
X1026958Y1027254D01*
D02*
G37*
G36*
X1045306Y1026481D02*
X1045127Y1026446D01*
X1044976Y1026344D01*
X1044875Y1026193D01*
X1044840Y1026015D01*
X1044875Y1025837D01*
X1044976Y1025686D01*
X1045127Y1025585D01*
X1045306Y1025549D01*
X1045484Y1025585D01*
X1045635Y1025686D01*
X1045736Y1025837D01*
X1045771Y1026015D01*
X1045736Y1026193D01*
X1045635Y1026344D01*
X1045484Y1026446D01*
X1045306Y1026481D01*
D02*
G37*
G36*
X1041925Y1026142D02*
X1041747Y1026106D01*
X1041595Y1026005D01*
X1041495Y1025854D01*
X1041459Y1025676D01*
X1041495Y1025498D01*
X1041595Y1025346D01*
X1041747Y1025245D01*
X1041925Y1025210D01*
X1042103Y1025245D01*
X1042255Y1025346D01*
X1042355Y1025498D01*
X1042391Y1025676D01*
X1042355Y1025854D01*
X1042255Y1026005D01*
X1042103Y1026106D01*
X1041925Y1026142D01*
D02*
G37*
G36*
X1043263Y1026049D02*
X1043084Y1026014D01*
X1042933Y1025913D01*
X1042832Y1025762D01*
X1042797Y1025583D01*
X1042832Y1025405D01*
X1042933Y1025254D01*
X1043084Y1025153D01*
X1043263Y1025117D01*
X1043441Y1025153D01*
X1043592Y1025254D01*
X1043693Y1025405D01*
X1043729Y1025583D01*
X1043693Y1025762D01*
X1043592Y1025913D01*
X1043441Y1026014D01*
X1043263Y1026049D01*
D02*
G37*
G36*
X1040152Y1026000D02*
X1039974Y1025965D01*
X1039823Y1025864D01*
X1039722Y1025713D01*
X1039687Y1025534D01*
X1039722Y1025356D01*
X1039823Y1025205D01*
X1039974Y1025104D01*
X1040152Y1025068D01*
X1040331Y1025104D01*
X1040482Y1025205D01*
X1040583Y1025356D01*
X1040618Y1025534D01*
X1040583Y1025713D01*
X1040482Y1025864D01*
X1040331Y1025965D01*
X1040152Y1026000D01*
D02*
G37*
G36*
X1033208Y1026070D02*
X1033011Y1026030D01*
X1032843Y1025918D01*
X1032731Y1025751D01*
X1032692Y1025553D01*
X1032731Y1025355D01*
X1032843Y1025187D01*
X1033011Y1025075D01*
X1033208Y1025036D01*
X1033406Y1025075D01*
X1033574Y1025187D01*
X1033686Y1025355D01*
X1033725Y1025553D01*
X1033686Y1025751D01*
X1033574Y1025918D01*
X1033406Y1026030D01*
X1033208Y1026070D01*
D02*
G37*
G36*
X1031958D02*
X1031761Y1026030D01*
X1031593Y1025918D01*
X1031481Y1025751D01*
X1031442Y1025553D01*
X1031481Y1025355D01*
X1031593Y1025187D01*
X1031761Y1025075D01*
X1031958Y1025036D01*
X1032156Y1025075D01*
X1032324Y1025187D01*
X1032436Y1025355D01*
X1032475Y1025553D01*
X1032436Y1025751D01*
X1032324Y1025918D01*
X1032156Y1026030D01*
X1031958Y1026070D01*
D02*
G37*
G36*
X1030708D02*
X1030511Y1026030D01*
X1030343Y1025918D01*
X1030231Y1025751D01*
X1030192Y1025553D01*
X1030231Y1025355D01*
X1030343Y1025187D01*
X1030511Y1025075D01*
X1030708Y1025036D01*
X1030906Y1025075D01*
X1031074Y1025187D01*
X1031186Y1025355D01*
X1031225Y1025553D01*
X1031186Y1025751D01*
X1031074Y1025918D01*
X1030906Y1026030D01*
X1030708Y1026070D01*
D02*
G37*
G36*
X1029458D02*
X1029261Y1026030D01*
X1029093Y1025918D01*
X1028981Y1025751D01*
X1028942Y1025553D01*
X1028981Y1025355D01*
X1029093Y1025187D01*
X1029261Y1025075D01*
X1029458Y1025036D01*
X1029656Y1025075D01*
X1029824Y1025187D01*
X1029936Y1025355D01*
X1029975Y1025553D01*
X1029936Y1025751D01*
X1029824Y1025918D01*
X1029656Y1026030D01*
X1029458Y1026070D01*
D02*
G37*
G36*
X1028208D02*
X1028011Y1026030D01*
X1027843Y1025918D01*
X1027731Y1025751D01*
X1027692Y1025553D01*
X1027731Y1025355D01*
X1027843Y1025187D01*
X1028011Y1025075D01*
X1028208Y1025036D01*
X1028406Y1025075D01*
X1028574Y1025187D01*
X1028686Y1025355D01*
X1028725Y1025553D01*
X1028686Y1025751D01*
X1028574Y1025918D01*
X1028406Y1026030D01*
X1028208Y1026070D01*
D02*
G37*
G36*
X1026958D02*
X1026761Y1026030D01*
X1026593Y1025918D01*
X1026481Y1025751D01*
X1026442Y1025553D01*
X1026481Y1025355D01*
X1026593Y1025187D01*
X1026761Y1025075D01*
X1026958Y1025036D01*
X1027156Y1025075D01*
X1027324Y1025187D01*
X1027436Y1025355D01*
X1027475Y1025553D01*
X1027436Y1025751D01*
X1027324Y1025918D01*
X1027156Y1026030D01*
X1026958Y1026070D01*
D02*
G37*
G36*
X1019303Y1025901D02*
X1019125Y1025865D01*
X1018974Y1025764D01*
X1018873Y1025613D01*
X1018837Y1025435D01*
X1018873Y1025256D01*
X1018974Y1025105D01*
X1019125Y1025004D01*
X1019303Y1024969D01*
X1019481Y1025004D01*
X1019633Y1025105D01*
X1019734Y1025256D01*
X1019769Y1025435D01*
X1019734Y1025613D01*
X1019633Y1025764D01*
X1019481Y1025865D01*
X1019303Y1025901D01*
D02*
G37*
G36*
X1039099Y1025618D02*
X1038921Y1025583D01*
X1038770Y1025482D01*
X1038669Y1025331D01*
X1038633Y1025152D01*
X1038669Y1024974D01*
X1038770Y1024823D01*
X1038921Y1024722D01*
X1039099Y1024686D01*
X1039278Y1024722D01*
X1039429Y1024823D01*
X1039530Y1024974D01*
X1039565Y1025152D01*
X1039530Y1025331D01*
X1039429Y1025482D01*
X1039278Y1025583D01*
X1039099Y1025618D01*
D02*
G37*
G36*
X1033208Y1024885D02*
X1033011Y1024846D01*
X1032843Y1024734D01*
X1032731Y1024566D01*
X1032692Y1024369D01*
X1032731Y1024171D01*
X1032843Y1024003D01*
X1033011Y1023891D01*
X1033208Y1023852D01*
X1033406Y1023891D01*
X1033574Y1024003D01*
X1033686Y1024171D01*
X1033725Y1024369D01*
X1033686Y1024566D01*
X1033574Y1024734D01*
X1033406Y1024846D01*
X1033208Y1024885D01*
D02*
G37*
G36*
X1031958D02*
X1031761Y1024846D01*
X1031593Y1024734D01*
X1031481Y1024566D01*
X1031442Y1024369D01*
X1031481Y1024171D01*
X1031593Y1024003D01*
X1031761Y1023891D01*
X1031958Y1023852D01*
X1032156Y1023891D01*
X1032324Y1024003D01*
X1032436Y1024171D01*
X1032475Y1024369D01*
X1032436Y1024566D01*
X1032324Y1024734D01*
X1032156Y1024846D01*
X1031958Y1024885D01*
D02*
G37*
G36*
X1030708D02*
X1030511Y1024846D01*
X1030343Y1024734D01*
X1030231Y1024566D01*
X1030192Y1024369D01*
X1030231Y1024171D01*
X1030343Y1024003D01*
X1030511Y1023891D01*
X1030708Y1023852D01*
X1030906Y1023891D01*
X1031074Y1024003D01*
X1031186Y1024171D01*
X1031225Y1024369D01*
X1031186Y1024566D01*
X1031074Y1024734D01*
X1030906Y1024846D01*
X1030708Y1024885D01*
D02*
G37*
G36*
X1037755Y1024618D02*
X1037576Y1024583D01*
X1037425Y1024481D01*
X1037324Y1024330D01*
X1037289Y1024152D01*
X1037324Y1023974D01*
X1037425Y1023823D01*
X1037576Y1023722D01*
X1037755Y1023686D01*
X1037933Y1023722D01*
X1038084Y1023823D01*
X1038185Y1023974D01*
X1038221Y1024152D01*
X1038185Y1024330D01*
X1038084Y1024481D01*
X1037933Y1024583D01*
X1037755Y1024618D01*
D02*
G37*
G36*
X1039089Y1024266D02*
X1038911Y1024231D01*
X1038760Y1024130D01*
X1038659Y1023979D01*
X1038623Y1023800D01*
X1038659Y1023622D01*
X1038760Y1023471D01*
X1038911Y1023370D01*
X1039089Y1023334D01*
X1039267Y1023370D01*
X1039419Y1023471D01*
X1039520Y1023622D01*
X1039555Y1023800D01*
X1039520Y1023979D01*
X1039419Y1024130D01*
X1039267Y1024231D01*
X1039089Y1024266D01*
D02*
G37*
G36*
X1022221Y1023456D02*
X1022043Y1023420D01*
X1021892Y1023319D01*
X1021791Y1023168D01*
X1021756Y1022990D01*
X1021791Y1022811D01*
X1021892Y1022660D01*
X1022043Y1022559D01*
X1022221Y1022524D01*
X1022400Y1022559D01*
X1022551Y1022660D01*
X1022652Y1022811D01*
X1022687Y1022990D01*
X1022652Y1023168D01*
X1022551Y1023319D01*
X1022400Y1023420D01*
X1022221Y1023456D01*
D02*
G37*
%LPD*%
D10*
X1008893Y1010425D02*
X1009929D01*
X1008066Y1010056D02*
X1008333Y1010322D01*
X1008790D01*
X1008893Y1010425D01*
X1007635Y1010056D02*
X1008066D01*
X1007144Y1010229D02*
X1007227Y1010147D01*
X1007544D01*
X1007635Y1010056D01*
X1008685Y1010576D02*
X1009637Y1011529D01*
X1007851Y1010576D02*
X1008685D01*
X1010437Y1006837D02*
Y1008257D01*
Y1006837D02*
X1010447Y1006828D01*
X1039089Y1002322D02*
Y1006399D01*
X1042580Y1009890D02*
X1043988D01*
X1039089Y1006399D02*
X1042580Y1009890D01*
X1043988D02*
X1044234Y1010137D01*
X1044329D01*
X1039343Y1002217D02*
Y1006294D01*
X1042685Y1009636D02*
X1044013D01*
X1039343Y1006294D02*
X1042685Y1009636D01*
X1039119Y1001993D02*
X1039343Y1002217D01*
X1030402Y1001993D02*
X1039119D01*
X1030074Y1002024D02*
X1030297Y1002247D01*
X1039014D01*
X1039089Y1002322D01*
X1030074Y1001647D02*
Y1002024D01*
X1030328Y1001542D02*
Y1001919D01*
X1030402Y1001993D01*
X1030000Y1001573D02*
X1030074Y1001647D01*
X1017303Y1004539D02*
X1017492Y1004729D01*
X1014264Y1004539D02*
X1017303D01*
X1013350Y1018226D02*
X1013413Y1018163D01*
X1007851Y1018226D02*
X1013350D01*
X1023259Y1001319D02*
X1030105D01*
X1030328Y1001542D01*
X1023364Y1001573D02*
X1030000D01*
X1023036Y1001542D02*
X1023259Y1001319D01*
X1023036Y1001542D02*
Y1003807D01*
X1023290Y1001647D02*
Y1003912D01*
Y1001647D02*
X1023364Y1001573D01*
X1019760Y1004135D02*
X1023067D01*
X1023290Y1003912D01*
X1020149Y1003881D02*
X1022961D01*
X1023036Y1003807D01*
X1019713Y1004181D02*
X1019760Y1004135D01*
X1044328Y1009321D02*
X1044329D01*
X1044013Y1009636D02*
X1044328Y1009321D01*
X1018977Y1004181D02*
X1019498Y1003661D01*
X1019929D01*
X1020149Y1003881D01*
X1017947Y1004729D02*
X1018174Y1004956D01*
X1017492Y1004729D02*
X1017947D01*
X1018174Y1004956D02*
X1019008D01*
X1020295Y1004702D02*
X1020342Y1004656D01*
X1019262Y1004702D02*
X1020295D01*
X1019008Y1004956D02*
X1019262Y1004702D01*
X1061475Y1017897D02*
X1064408D01*
X1064483Y1017971D01*
Y1056275D01*
X1061772Y1016053D02*
X1064662D01*
X1064736Y1016128D01*
Y1056695D01*
X1064458Y1056974D02*
X1064736Y1056695D01*
X1064458Y1056974D02*
Y1057036D01*
X1063937Y1056820D02*
X1064483Y1056275D01*
X1063937Y1056820D02*
Y1057328D01*
X1064458Y1057848D01*
X1019419Y1004181D02*
X1019713D01*
X1018898Y1004702D02*
X1019419Y1004181D01*
X1018495D02*
X1018977D01*
X1018279Y1004702D02*
X1018898D01*
X1005082Y1004398D02*
Y1005616D01*
X1040953Y1031382D02*
X1043120D01*
X1043194Y1031308D01*
Y1029759D02*
Y1031308D01*
X1040567Y1031768D02*
X1040953Y1031382D01*
X1038900Y1043737D02*
X1038974Y1043663D01*
X1038900Y1043737D02*
Y1045250D01*
X1038974Y1043663D02*
X1040598D01*
X1040821Y1043439D01*
Y1031873D02*
Y1043439D01*
X1037924Y1043409D02*
X1040493D01*
X1040567Y1031768D02*
Y1043334D01*
X1040493Y1043409D02*
X1040567Y1043334D01*
X1004165Y1022441D02*
Y1023249D01*
X1003154Y1022008D02*
X1003732D01*
X1004165Y1022441D01*
X1003100Y1024862D02*
X1003526Y1024436D01*
Y1023888D02*
Y1024436D01*
Y1023888D02*
X1004165Y1023249D01*
X1002633Y1021487D02*
X1003154Y1022008D01*
X1003259Y1023437D02*
X1003366Y1023330D01*
X1002512Y1023437D02*
X1003259D01*
X1003366Y1022812D02*
Y1023330D01*
X1003006Y1024049D02*
X1003911Y1023144D01*
Y1022546D02*
Y1023144D01*
X1003006Y1024049D02*
X1003006D01*
X1017786Y1004208D02*
X1018279Y1004702D01*
X1017708Y1004208D02*
X1017786D01*
X1002842Y1026408D02*
Y1026666D01*
X1002756Y1026753D02*
X1002842Y1026666D01*
Y1026408D02*
X1003073Y1026177D01*
X1003782Y1024005D02*
X1003864Y1023924D01*
X1003622Y1024699D02*
X1003782Y1024539D01*
Y1024005D02*
Y1024539D01*
X1003622Y1025310D02*
X1003754Y1025441D01*
X1003622Y1024699D02*
Y1025310D01*
X1003754Y1025441D02*
Y1025872D01*
X1003449Y1026177D02*
X1003578Y1026047D01*
X1003754Y1025872D01*
X1003864Y1023924D02*
X1004289D01*
X1004338Y1023875D01*
X1003073Y1026177D02*
X1003449D01*
X1037850Y1042850D02*
Y1043334D01*
X1037924Y1043409D01*
X1040821Y1031873D02*
X1041058Y1031636D01*
X1046421D02*
X1046450Y1031608D01*
X1041058Y1031636D02*
X1046421D01*
X1046450Y1031100D02*
Y1031608D01*
X1002512Y1021487D02*
X1002633D01*
X1002672Y1022262D02*
X1003627D01*
X1003911Y1022546D01*
X1002201Y1026178D02*
X1002712D01*
X1003233Y1025656D02*
X1003233D01*
X1002712Y1026178D02*
X1003233Y1025656D01*
D12*
X1008650Y1053155D02*
G03*
X1008213Y1051751I24676J-8437D01*
G01*
X1007833Y1050184D02*
G03*
X1010803Y1032171I24667J-5184D01*
G01*
X1008077Y1051076D02*
G03*
X1008086Y1051114I-514J142D01*
G01*
X1021434Y1067647D02*
G03*
X1008988Y1054083I11066J-22647D01*
G01*
Y1054083D02*
G03*
X1008650Y1053155I20J-533D01*
G01*
X1008213Y1051751D02*
X1008213Y1051751D01*
X1008086Y1051114D02*
X1008213Y1051751D01*
X1007833Y1050184D02*
X1008077Y1051076D01*
X1007833Y1050184D02*
Y1050184D01*
X1021434Y1067647D02*
Y1079311D01*
X1021524Y1079400D01*
X1022700D01*
X1010803Y1031903D02*
Y1032171D01*
X1005300Y1026400D02*
X1010803Y1031903D01*
X1031776Y1048454D02*
Y1051514D01*
Y1048454D02*
X1032311Y1047919D01*
X1020060Y1044255D02*
X1026011D01*
X1019998Y1043742D02*
Y1044193D01*
X1020060Y1044255D01*
X1026100Y1044345D02*
Y1045250D01*
X1026011Y1044255D02*
X1026100Y1044345D01*
X1031776Y1051514D02*
X1033166Y1052904D01*
X1032370Y1055935D02*
X1033092D01*
X1033166Y1055861D01*
Y1052904D02*
Y1055861D01*
X1046584Y1043770D02*
X1049291D01*
X1046450Y1043636D02*
X1046584Y1043770D01*
X1046450Y1042850D02*
Y1043636D01*
X1049291Y1043770D02*
X1049425Y1043636D01*
Y1042900D02*
Y1043636D01*
X1013172Y1036692D02*
Y1037006D01*
X1025650Y1042891D02*
X1025650Y1042891D01*
D48*
X1029710Y1011484D02*
D03*
X1035310D02*
D03*
D49*
X1032510Y1009334D02*
D03*
D50*
X1063811Y1062000D02*
D03*
X1062011D02*
D03*
X1047000Y1078808D02*
D03*
Y1077008D02*
D03*
D51*
X1045150Y1006665D02*
D03*
Y1004125D02*
D03*
Y1001585D02*
D03*
X1042610D02*
D03*
Y1006665D02*
D03*
X1015635Y1002503D02*
D03*
X1018175D02*
D03*
X1020715D02*
D03*
D52*
X1042610Y1004125D02*
D03*
D53*
X1013095Y1002503D02*
D03*
D54*
X1009929Y1010425D02*
D03*
X1009637Y1011529D02*
D03*
X1010437Y1008257D02*
D03*
X1010447Y1006828D02*
D03*
X1007144Y1010229D02*
D03*
X1007851Y1010576D02*
D03*
X1031690Y1001165D02*
D03*
X1014264Y1004539D02*
D03*
X1014415Y1007533D02*
D03*
X1013413Y1018163D02*
D03*
X1007851Y1018226D02*
D03*
X1061475Y1017897D02*
D03*
X1064458Y1057036D02*
D03*
X1061772Y1016053D02*
D03*
X1019713Y1004181D02*
D03*
X1005082Y1004398D02*
D03*
Y1005616D02*
D03*
X1040152Y1025534D02*
D03*
X1050290Y1045540D02*
D03*
X1053058Y1042977D02*
D03*
X1015013Y1044137D02*
D03*
X1046543Y1029500D02*
D03*
X1041247Y1029839D02*
D03*
X1045411Y1028958D02*
D03*
X1040815Y1030498D02*
D03*
X1043194Y1029759D02*
D03*
X1061629Y1042963D02*
D03*
X1032311Y1047919D02*
D03*
X1032032Y1052554D02*
D03*
X1045200Y1058326D02*
D03*
X1050062Y1054193D02*
D03*
X1050263Y1055258D02*
D03*
X1052959Y1040653D02*
D03*
X1053126Y1041882D02*
D03*
X1051999Y1042671D02*
D03*
X1044711Y1029772D02*
D03*
X1019998Y1043742D02*
D03*
X1024673Y1059010D02*
D03*
X1028176Y1059610D02*
D03*
X1026171Y1059414D02*
D03*
X1019800Y1058350D02*
D03*
X1020899Y1043550D02*
D03*
X1011518Y1049692D02*
D03*
X1018300Y1058350D02*
D03*
X1023116Y1058389D02*
D03*
X1022212Y1043694D02*
D03*
X1037932Y1028077D02*
D03*
X1020342Y1004656D02*
D03*
X1018495Y1004181D02*
D03*
X1017708Y1004208D02*
D03*
X1005136Y1040098D02*
D03*
X1034494Y1028474D02*
D03*
X1042306Y1026911D02*
D03*
X1038233Y1029037D02*
D03*
X1004167Y1037936D02*
D03*
X1038116Y1020639D02*
D03*
X1042313Y1029791D02*
D03*
X1064458Y1057848D02*
D03*
X1020751Y1058345D02*
D03*
X1044329Y1010137D02*
D03*
Y1009321D02*
D03*
X1031650Y1031100D02*
D03*
X1047950Y1031062D02*
D03*
X1030150Y1031100D02*
D03*
X1035629Y1027038D02*
D03*
X1032503Y1028919D02*
D03*
X1041925Y1025676D02*
D03*
X1037755Y1024152D02*
D03*
X1046600Y1060000D02*
D03*
X1022500Y1013700D02*
D03*
X1005300Y1026400D02*
D03*
X1022700Y1079400D02*
D03*
X1038862Y1015069D02*
D03*
X1025650Y1031100D02*
D03*
X1036271Y1028600D02*
D03*
X1040620Y1019145D02*
D03*
X1038200Y1063100D02*
D03*
X1029603Y1065615D02*
D03*
X1032370Y1055935D02*
D03*
X1047950Y1042850D02*
D03*
X1029100Y1045250D02*
D03*
X1037833Y1012272D02*
D03*
X1039089Y1023800D02*
D03*
X1039099Y1025152D02*
D03*
X1043700Y1058476D02*
D03*
X1033275Y1059504D02*
D03*
X1002526Y1056207D02*
D03*
X1013446Y1020168D02*
D03*
X1014376Y1034559D02*
D03*
X1060232Y1046939D02*
D03*
X1051421Y1036084D02*
D03*
X1013172Y1037006D02*
D03*
X1027150Y1042850D02*
D03*
X1011722Y1042605D02*
D03*
X1011646Y1043389D02*
D03*
X1052238Y1051920D02*
D03*
X1050050Y1044350D02*
D03*
X1049425Y1042900D02*
D03*
X1052289Y1053406D02*
D03*
X1052485Y1051172D02*
D03*
X1052892Y1049652D02*
D03*
X1053055Y1048871D02*
D03*
X1011889Y1048560D02*
D03*
X1046450Y1031100D02*
D03*
X1056171Y1050655D02*
D03*
X1056906Y1050375D02*
D03*
X1062782Y1052918D02*
D03*
X1032627Y1054054D02*
D03*
X1032500Y1050862D02*
D03*
X1031996Y1057325D02*
D03*
X1037075Y1058350D02*
D03*
X1033275Y1057775D02*
D03*
X1031781Y1065588D02*
D03*
X1046700Y1058525D02*
D03*
X1029100Y1057000D02*
D03*
X1038115Y1058476D02*
D03*
X1026100Y1057000D02*
D03*
X1027600Y1057000D02*
D03*
X1024600D02*
D03*
X1020471Y1061445D02*
D03*
X1023925Y1043375D02*
D03*
X1026200Y1029800D02*
D03*
X1028650D02*
D03*
X1036350D02*
D03*
X1009552Y1039491D02*
D03*
X1008646Y1040363D02*
D03*
X1003366Y1022812D02*
D03*
X1003006Y1024049D02*
D03*
X1003233Y1025656D02*
D03*
X1026100Y1045250D02*
D03*
X1004338Y1023875D02*
D03*
X1002201Y1026178D02*
D03*
X1002756Y1026753D02*
D03*
X1003100Y1024862D02*
D03*
X1002512Y1021487D02*
D03*
X1002672Y1022262D02*
D03*
X1002512Y1023437D02*
D03*
X1043700Y1045250D02*
D03*
X1045200D02*
D03*
X1046700D02*
D03*
X1048200D02*
D03*
X1046450Y1042850D02*
D03*
X1044950D02*
D03*
X1043450D02*
D03*
X1041950D02*
D03*
X1040400Y1045250D02*
D03*
X1038900D02*
D03*
X1037400D02*
D03*
X1035900D02*
D03*
X1039350Y1042850D02*
D03*
X1037850D02*
D03*
X1036350D02*
D03*
X1034850D02*
D03*
X1033350D02*
D03*
X1031650D02*
D03*
X1030150D02*
D03*
X1028650D02*
D03*
X1025650Y1042891D02*
D03*
X1030600Y1045250D02*
D03*
X1027600D02*
D03*
X1019800D02*
D03*
X1000641Y1030566D02*
D03*
X1032650Y1064361D02*
D03*
X1027249Y1060528D02*
D03*
X1021874Y1034150D02*
D03*
X1022100Y1063013D02*
D03*
X1011700Y1045000D02*
D03*
X1022100Y1026987D02*
D03*
X1042900Y1063013D02*
D03*
X1005503Y1042638D02*
D03*
X1051920Y1057135D02*
D03*
X1051954Y1058384D02*
D03*
X1020934Y1022800D02*
D03*
X1022221Y1022990D02*
D03*
X1055917Y1032810D02*
D03*
X1055792Y1034139D02*
D03*
X1012486Y1057506D02*
D03*
X1013741Y1058135D02*
D03*
X1020170Y1040257D02*
D03*
X1031408Y1076281D02*
D03*
X1036661Y1015391D02*
D03*
X1028871Y1017438D02*
D03*
X1027794Y1018312D02*
D03*
X1018463Y1071400D02*
D03*
X1028728Y1071836D02*
D03*
X1025775Y1071974D02*
D03*
X1022752Y1071781D02*
D03*
X1019721Y1071200D02*
D03*
X1016284Y1070950D02*
D03*
X1014102Y1070322D02*
D03*
X1011088Y1068781D02*
D03*
X1017034Y1059935D02*
D03*
X1004403Y1034774D02*
D03*
X1015006Y1058668D02*
D03*
X1010659Y1055652D02*
D03*
X1009008Y1053551D02*
D03*
X1007563Y1051217D02*
D03*
X1006357Y1048674D02*
D03*
X1004277Y1041034D02*
D03*
X1004546Y1032554D02*
D03*
X1005393Y1029350D02*
D03*
X1005362Y1028043D02*
D03*
X1043263Y1025583D02*
D03*
X1044687Y1069986D02*
D03*
X1045223Y1068928D02*
D03*
X1015558Y1031763D02*
D03*
X1016531Y1029579D02*
D03*
X1017780Y1027458D02*
D03*
X1019303Y1025435D02*
D03*
X1022873Y1021171D02*
D03*
X1025223Y1019623D02*
D03*
X1033495Y1016517D02*
D03*
X1034537Y1015871D02*
D03*
X1042172Y1015232D02*
D03*
X1045516Y1015767D02*
D03*
X1062382Y1043957D02*
D03*
X1045306Y1026015D02*
D03*
X1047670Y1026921D02*
D03*
X1049980Y1028120D02*
D03*
X1052200Y1029609D02*
D03*
X1057627Y1034848D02*
D03*
X1059223Y1037337D02*
D03*
X1060567Y1040051D02*
D03*
X1063081Y1046068D02*
D03*
X1063629Y1048272D02*
D03*
X1063801Y1051653D02*
D03*
X1040549Y1073069D02*
D03*
X1052453Y1054732D02*
D03*
X1051649Y1059961D02*
D03*
X1050484Y1062366D02*
D03*
X1049020Y1064687D02*
D03*
X1047263Y1066887D02*
D03*
X1043176Y1071425D02*
D03*
X1037692Y1074446D02*
D03*
X1032500Y1077000D02*
D03*
X1035699Y1075432D02*
D03*
D55*
X1010251Y1005649D02*
D03*
X1010920Y1002436D02*
D03*
X1011817Y1002437D02*
D03*
X1008040Y1005672D02*
D03*
X1002772Y1001530D02*
D03*
X1050171Y1040658D02*
D03*
X1051689Y1045235D02*
D03*
X1062399Y1058713D02*
D03*
X1060565Y1063713D02*
D03*
X1045115Y1075718D02*
D03*
X1048722Y1075610D02*
D03*
X1020403Y1010175D02*
D03*
X1021588D02*
D03*
X1005964Y1022749D02*
D03*
X1005897Y1020841D02*
D03*
X1027085Y1009513D02*
D03*
X1028100D02*
D03*
Y1012477D02*
D03*
X1029289Y1006329D02*
D03*
X1026587Y1002405D02*
D03*
X1027449Y1006329D02*
D03*
X1028369D02*
D03*
X1006400Y1011400D02*
D03*
X1007584D02*
D03*
X1024746Y1002405D02*
D03*
X1025666D02*
D03*
X1062600Y1028700D02*
D03*
X1063784D02*
D03*
X1059600Y1023000D02*
D03*
X1060784D02*
D03*
X1044491Y1014424D02*
D03*
X1045449Y1014445D02*
D03*
X1012167Y1007216D02*
D03*
X1004900Y1001516D02*
D03*
Y1002450D02*
D03*
X1038361Y1064431D02*
D03*
X1015200Y1076925D02*
D03*
X1030708Y1024369D02*
D03*
X1031958D02*
D03*
X1033208D02*
D03*
X1027085Y1011542D02*
D03*
Y1012477D02*
D03*
X1028100Y1011542D02*
D03*
X1033208Y1025553D02*
D03*
Y1026737D02*
D03*
X1031958Y1025553D02*
D03*
Y1026737D02*
D03*
X1041251Y1012355D02*
D03*
X1040067D02*
D03*
X1037432Y1005397D02*
D03*
Y1004212D02*
D03*
X1028100Y1010528D02*
D03*
X1027085D02*
D03*
X1014678Y1008259D02*
D03*
X1017654Y1006751D02*
D03*
X1004497Y1011350D02*
D03*
Y1010165D02*
D03*
X1004326Y1018171D02*
D03*
X1003294Y1019322D02*
D03*
X1001464Y1029529D02*
D03*
X1005964Y1023653D02*
D03*
X1026958Y1026737D02*
D03*
Y1025553D02*
D03*
X1028208Y1026737D02*
D03*
Y1025553D02*
D03*
X1029458Y1026737D02*
D03*
Y1025553D02*
D03*
X1030708Y1026737D02*
D03*
Y1025553D02*
D03*
X1014007Y1041561D02*
D03*
X1019263Y1034451D02*
D03*
X1020447D02*
D03*
X1016685Y1038731D02*
D03*
X1017869D02*
D03*
X1051965Y1048129D02*
D03*
X1028487Y1061952D02*
D03*
X1027303D02*
D03*
X1031537Y1060466D02*
D03*
X1032869D02*
D03*
X1039545Y1064431D02*
D03*
D56*
X1060000Y1075000D02*
D03*
X1005000D02*
D03*
D57*
X1032500Y1045000D02*
D03*
D58*
X1001088Y1000489D02*
X1031013D01*
X1031690Y1001165D01*
X1000641Y1000935D02*
X1001088Y1000489D01*
X1000641Y1000935D02*
Y1030566D01*
X1037836Y1012275D02*
Y1014588D01*
X1037833Y1012272D02*
X1037836Y1012275D01*
X1036695Y1021362D02*
X1037836Y1014588D01*
D59*
X1027719Y1044281D02*
X1028787D01*
X1027600Y1044400D02*
X1027719Y1044281D01*
X1027600Y1044400D02*
Y1045250D01*
X1044950Y1042850D02*
Y1043825D01*
X1045200Y1044075D01*
Y1045250D01*
Y1044075D02*
X1045200Y1044075D01*
X1049978Y1044350D02*
X1050050D01*
X1049703Y1044075D02*
X1049978Y1044350D01*
X1045200Y1044075D02*
X1049703D01*
X1037281Y1044026D02*
X1037400Y1044145D01*
Y1045250D01*
X1033573Y1044026D02*
X1037281D01*
X1029041D02*
X1033573D01*
X1028787Y1044281D02*
X1029041Y1044026D01*
X1033573D02*
Y1045418D01*
X1028650Y1043951D02*
X1028650Y1043951D01*
X1023925Y1043375D02*
X1024501Y1043951D01*
X1028650Y1043696D02*
Y1043951D01*
X1024501Y1043951D02*
X1028650D01*
X1028650Y1042850D02*
Y1043696D01*
X1036231D01*
X1036350Y1042850D02*
Y1043577D01*
X1036231Y1043696D02*
X1036350Y1043577D01*
X1033198Y1045792D02*
X1033573Y1045418D01*
X1032500Y1050862D02*
X1033198Y1050163D01*
Y1045792D02*
Y1050163D01*
%TF.MD5,fe54dc01c258c4d49c6a8ff9b2748b42*%
M02*
