M48
;Layer_Color=9474304
;FILE_FORMAT=2:4
INCH,LZ
;TYPE=PLATED
T1F00S00C0.0157
T2F00S00C0.0197
T4F00S00C0.0315
T5F00S00C0.0394
T6F00S00C0.1181
%
T01
X414252Y405358
X413378Y404772
X412468Y4043
X411538Y403943
X410733Y403773
X410207Y403809
X410357Y404296
X410359Y40543
X410706Y405417
X411304Y405422
X411579Y405101
X412025Y405315
X411988Y405945
X412579Y40593
X40977Y405708
X40994Y405449
X408753Y405133
X408635Y404755
X407981Y404961
X408012Y405433
X407281Y404911
X406497Y405086
X407728Y404346
X408565Y403209
X40909Y403071
X409094Y403603
X409509Y403754
X409693Y401238
X408707Y401826
X409001Y399633
X408134Y39976
X407298Y399949
X406888Y400204
X408596Y398532
X410304Y399698
X41162Y399908
X411153Y397692
Y397371
X418021Y400021
X417904Y400747
X405067Y400566
X404643Y40091
X403631Y401426
X402706Y402036
X402449Y402752
X401943Y402677
X4013Y403714
X400701Y404511
X400209Y405346
X399826Y406206
X403799Y405945
X404016Y405433
X40498
X405571Y405945
X406161
X402402Y404325
X402559Y399095
X401709Y395534
X401462Y395347
X400982
X400672Y395358
X399317Y395488
X399376Y396666
X397814Y396389
X39781Y396952
X39761Y397805
X397495Y39824
X396792Y397865
X396513Y397728
X395701Y395912
Y395432
X396792Y400876
X398981Y400852
X398994Y401641
X39469Y40216
X394753Y402465
X395026Y402682
X39469Y402928
X394884Y403169
X394921Y403489
X394974Y403802
X394567Y404007
X394786Y404233
X395787Y404095
X395812Y404741
X395824Y405256
X393953Y405735
X395409Y4031
X406177Y394159
X406161Y410571
X405571
X40498
X40439
X403799Y410587
X40312Y410778
X402446Y410903
X401929Y410846
X401574Y410922
X401496Y411516
X401642Y40955
X402313Y407146
X399361Y407307
X398887Y40827
X397461Y409248
X397105Y409592
X395723Y409487
X395385Y409856
X395867Y410487
X395341Y408636
X395434Y407391
X39549Y406517
X398316Y410475
X398286Y410783
X398307Y411417
X398382Y412819
X398235Y413264
X396679Y413865
X396204Y412864
X397247Y414784
X397897Y415611
X398617Y416341
X399111Y416589
X399609Y416798
X400407Y417297
X400905Y416673
X401496
X401871Y416671
X402802Y416689
X403415Y416933
X404004Y417092
X404429Y417531
X404794Y417169
X404567Y416142
X403976Y416142
X403386Y416142
X405157Y416142
X405355Y419533
X406213Y419523
X402402Y418509
X40176Y417892
X401465Y421732
X40097Y421811
X400112Y421634
X399253Y421387
X398066Y42078
X394695Y415829
X399611Y411078
X403976Y411516
X404567
X405157
X405748
X406422Y412566
X406496Y413725
X406312Y414391
X406546Y414982
X406445Y415723
X406298Y41627
X406801Y416447
X406801Y417128
X408297Y416673
X408707Y416723
X40874Y418543
X410591Y418509
X410905Y416723
X411496Y416664
X412087Y416742
X412047Y417323
X414035Y417307
X414155Y416687
X414142Y416195
X414352Y415249
X414287Y414727
X414267Y414142
X414364Y413847
X414524Y413249
X414588Y412941
X415815Y413644
X416105Y413534
X417414Y412181
X418536Y411838
X418751Y412705
X418819Y414037
X418418Y414535
X419078Y416156
Y416476
X418261Y411007
X417964Y410615
X417546Y409469
X417017Y4084
X416388Y407421
X415666Y407141
X415715Y406618
X413945Y407907
X414551Y409706
X414617Y41019
X41459Y410621
X414173Y410501
X413159Y410591
X412579Y410571
X411988
X411398
X410807
X410217
X409193
X408602
X408012
X407421
X406831
X407835Y411516
X408425
X409016
X409606
X410905
X411496
X412087
X412677
X4135Y41163
X413406Y411161
X41341Y415036
X413489Y415456
X413576Y418255
X413Y419168
X412308Y420034
X411505Y420838
X411294Y421255
X410699Y421821
X406555Y41904
X406496Y424016
X407755Y423399
X40854Y42301
X409665Y422468
X406066Y423733
X405011Y421983
X403848Y422037
X402658Y421961
X402638Y424961
T02
X418813Y405
X418346
X417632Y402756
X417165
X411594Y399388
X411217Y399379
X409941Y398565
X409475
X408438Y395825
Y395359
X406775Y403295
Y403761
Y404227
X406283
Y403761
Y403295
X405791
Y403761
Y404227
X405299
Y403761
X404807
Y404227
X404314
Y403761
X404364Y398613
Y398245
X404764
Y398613
Y397845
Y397446
X404364
Y397845
X404507Y396192
X40487
X405232
X404168Y394648
X403806
X403443
X4022Y397707
X401734
X400651Y396359
X39948Y396952
X398491Y396542
X397737Y395925
X396866Y395934
X398Y39466
X398353Y39466
X39563Y394665
Y394298
X394792Y394303
X395471Y397703
Y398169
X39622Y398189
X396687
X395404Y400855
X394997Y401308
X396023Y401906
X396049Y402657
Y403013
X394277Y405326
X401284Y407264
X401751
X400736Y408949
X40027
X399215Y410063
X40445Y418091
X404916
X406117Y417506
X406641
X408803Y419067
X40927
X417545Y418785
X418267Y416816
X414159Y412649
X414051Y41151
X413453Y409708
X412883Y423469
X411463Y423511
X399685Y423986
T04
X401856Y394686
X400856
X399856
X398856
T05
X411476Y396325
Y395325
Y394325
X410476
Y395325
Y396325
X406496Y411417
T06
X417323Y423228
X395669
M30
