%TF.GenerationSoftware,Altium Limited,Altium Designer,20.1.8 (145)*%
G04 Layer_Color=0*
%FSLAX43Y43*%
%MOMM*%
%TF.SameCoordinates,D169B7AB-BDD6-48C1-BF66-756871F3EBFE*%
%TF.FilePolarity,Positive*%
%TF.FileFunction,Profile,NP*%
%TF.Part,Single*%
G01*
G75*
%TA.AperFunction,Profile*%
%ADD145C,0.025*%
G36*
X1024900Y1031900D02*
X1024860D01*
X1024786Y1031930D01*
X1024730Y1031987D01*
X1024699Y1032060D01*
Y1032100D01*
D01*
Y1042100D01*
Y1042140D01*
X1024730Y1042213D01*
X1024786Y1042270D01*
X1024860Y1042300D01*
X1024900D01*
D01*
X1040099D01*
X1040139D01*
X1040213Y1042270D01*
X1040269Y1042213D01*
X1040300Y1042140D01*
Y1042100D01*
D01*
Y1032100D01*
Y1032060D01*
X1040269Y1031987D01*
X1040213Y1031930D01*
X1040139Y1031900D01*
X1040099D01*
D01*
X1024900D01*
D02*
G37*
G36*
X1041101Y1032100D02*
Y1032060D01*
X1041131Y1031987D01*
X1041188Y1031930D01*
X1041261Y1031900D01*
X1041301D01*
D01*
X1048701D01*
X1048741D01*
X1048814Y1031930D01*
X1048870Y1031987D01*
X1048901Y1032060D01*
Y1032100D01*
D01*
Y1042100D01*
Y1042140D01*
X1048870Y1042213D01*
X1048814Y1042270D01*
X1048741Y1042300D01*
X1048701D01*
D01*
X1041301D01*
X1041261D01*
X1041188Y1042270D01*
X1041131Y1042213D01*
X1041101Y1042140D01*
Y1042100D01*
D01*
Y1032100D01*
D02*
G37*
G36*
X1016100Y1045800D02*
X1016060D01*
X1015987Y1045830D01*
X1015930Y1045887D01*
X1015900Y1045960D01*
Y1046000D01*
D01*
Y1056000D01*
Y1056040D01*
X1015930Y1056113D01*
X1015987Y1056170D01*
X1016060Y1056200D01*
X1016100D01*
D01*
X1031300D01*
X1031340D01*
X1031413Y1056170D01*
X1031470Y1056113D01*
X1031500Y1056040D01*
Y1056000D01*
D01*
Y1046000D01*
Y1045960D01*
X1031470Y1045887D01*
X1031413Y1045830D01*
X1031340Y1045800D01*
X1031300D01*
D01*
X1016100D01*
D02*
G37*
G36*
X1033500Y1046000D02*
Y1056000D01*
Y1056040D01*
X1033530Y1056113D01*
X1033587Y1056170D01*
X1033660Y1056200D01*
X1033700D01*
D01*
X1048900D01*
X1048940D01*
X1049013Y1056170D01*
X1049070Y1056113D01*
X1049100Y1056040D01*
Y1056000D01*
D01*
Y1046000D01*
Y1045960D01*
X1049070Y1045887D01*
X1049013Y1045830D01*
X1048940Y1045800D01*
X1048900D01*
D01*
X1033700D01*
X1033660D01*
X1033587Y1045830D01*
X1033530Y1045887D01*
X1033500Y1045960D01*
Y1046000D01*
D01*
D02*
G37*
D145*
X1001000Y1000000D02*
G02*
X1000000Y1001000I0J1000D01*
G01*
Y1075000D01*
X1000000D01*
D02*
G02*
X1005000Y1080000I5000J0D01*
G01*
X1060000D01*
Y1080000D01*
D02*
G02*
X1065000Y1075000I0J-5000D01*
G01*
Y1001000D01*
D02*
G02*
X1064000Y1000000I-1000J0D01*
G01*
X1001000D01*
%TF.MD5,7b0856eda47fa0f310530c816abdde8d*%
M02*
