%TF.GenerationSoftware,Altium Limited,Altium Designer,20.1.8 (145)*%
G04 Layer_Color=16711935*
%FSLAX43Y43*%
%MOMM*%
%TF.SameCoordinates,D169B7AB-BDD6-48C1-BF66-756871F3EBFE*%
%TF.FilePolarity,Negative*%
%TF.FileFunction,Soldermask,Bot*%
%TF.Part,Single*%
G01*
G75*
%TA.AperFunction,ComponentPad*%
%ADD51C,1.500*%
G04:AMPARAMS|DCode=52|XSize=1.5mm|YSize=1.5mm|CornerRadius=0.15mm|HoleSize=0mm|Usage=FLASHONLY|Rotation=0.000|XOffset=0mm|YOffset=0mm|HoleType=Round|Shape=RoundedRectangle|*
%AMROUNDEDRECTD52*
21,1,1.500,1.200,0,0,0.0*
21,1,1.200,1.500,0,0,0.0*
1,1,0.300,0.600,-0.600*
1,1,0.300,-0.600,-0.600*
1,1,0.300,-0.600,0.600*
1,1,0.300,0.600,0.600*
%
%ADD52ROUNDEDRECTD52*%
%TA.AperFunction,SMDPad,CuDef*%
G04:AMPARAMS|DCode=78|XSize=1.4mm|YSize=1.2mm|CornerRadius=0.3mm|HoleSize=0mm|Usage=FLASHONLY|Rotation=180.000|XOffset=0mm|YOffset=0mm|HoleType=Round|Shape=RoundedRectangle|*
%AMROUNDEDRECTD78*
21,1,1.400,0.600,0,0,180.0*
21,1,0.800,1.200,0,0,180.0*
1,1,0.600,-0.400,0.300*
1,1,0.600,0.400,0.300*
1,1,0.600,0.400,-0.300*
1,1,0.600,-0.400,-0.300*
%
%ADD78ROUNDEDRECTD78*%
G04:AMPARAMS|DCode=79|XSize=1.4mm|YSize=2mm|CornerRadius=0.35mm|HoleSize=0mm|Usage=FLASHONLY|Rotation=180.000|XOffset=0mm|YOffset=0mm|HoleType=Round|Shape=RoundedRectangle|*
%AMROUNDEDRECTD79*
21,1,1.400,1.300,0,0,180.0*
21,1,0.700,2.000,0,0,180.0*
1,1,0.700,-0.350,0.650*
1,1,0.700,0.350,0.650*
1,1,0.700,0.350,-0.650*
1,1,0.700,-0.350,-0.650*
%
%ADD79ROUNDEDRECTD79*%
G04:AMPARAMS|DCode=88|XSize=1.25mm|YSize=2.45mm|CornerRadius=0.081mm|HoleSize=0mm|Usage=FLASHONLY|Rotation=270.000|XOffset=0mm|YOffset=0mm|HoleType=Round|Shape=RoundedRectangle|*
%AMROUNDEDRECTD88*
21,1,1.250,2.289,0,0,270.0*
21,1,1.089,2.450,0,0,270.0*
1,1,0.161,-1.145,-0.545*
1,1,0.161,-1.145,0.545*
1,1,0.161,1.145,0.545*
1,1,0.161,1.145,-0.545*
%
%ADD88ROUNDEDRECTD88*%
G04:AMPARAMS|DCode=89|XSize=1.25mm|YSize=2.45mm|CornerRadius=0.081mm|HoleSize=0mm|Usage=FLASHONLY|Rotation=180.000|XOffset=0mm|YOffset=0mm|HoleType=Round|Shape=RoundedRectangle|*
%AMROUNDEDRECTD89*
21,1,1.250,2.289,0,0,180.0*
21,1,1.089,2.450,0,0,180.0*
1,1,0.161,-0.545,1.145*
1,1,0.161,0.545,1.145*
1,1,0.161,0.545,-1.145*
1,1,0.161,-0.545,-1.145*
%
%ADD89ROUNDEDRECTD89*%
G04:AMPARAMS|DCode=90|XSize=1.8mm|YSize=1.1mm|CornerRadius=0.08mm|HoleSize=0mm|Usage=FLASHONLY|Rotation=90.000|XOffset=0mm|YOffset=0mm|HoleType=Round|Shape=RoundedRectangle|*
%AMROUNDEDRECTD90*
21,1,1.800,0.941,0,0,90.0*
21,1,1.641,1.100,0,0,90.0*
1,1,0.160,0.470,0.820*
1,1,0.160,0.470,-0.820*
1,1,0.160,-0.470,-0.820*
1,1,0.160,-0.470,0.820*
%
%ADD90ROUNDEDRECTD90*%
%ADD91O,1.300X0.550*%
G04:AMPARAMS|DCode=92|XSize=3.4mm|YSize=2.3mm|CornerRadius=0.086mm|HoleSize=0mm|Usage=FLASHONLY|Rotation=90.000|XOffset=0mm|YOffset=0mm|HoleType=Round|Shape=RoundedRectangle|*
%AMROUNDEDRECTD92*
21,1,3.400,2.128,0,0,90.0*
21,1,3.229,2.300,0,0,90.0*
1,1,0.172,1.064,1.614*
1,1,0.172,1.064,-1.614*
1,1,0.172,-1.064,-1.614*
1,1,0.172,-1.064,1.614*
%
%ADD92ROUNDEDRECTD92*%
G04:AMPARAMS|DCode=93|XSize=1.15mm|YSize=2.3mm|CornerRadius=0.08mm|HoleSize=0mm|Usage=FLASHONLY|Rotation=90.000|XOffset=0mm|YOffset=0mm|HoleType=Round|Shape=RoundedRectangle|*
%AMROUNDEDRECTD93*
21,1,1.150,2.140,0,0,90.0*
21,1,0.990,2.300,0,0,90.0*
1,1,0.160,1.070,0.495*
1,1,0.160,1.070,-0.495*
1,1,0.160,-1.070,-0.495*
1,1,0.160,-1.070,0.495*
%
%ADD93ROUNDEDRECTD93*%
G04:AMPARAMS|DCode=94|XSize=1mm|YSize=0.75mm|CornerRadius=0.078mm|HoleSize=0mm|Usage=FLASHONLY|Rotation=180.000|XOffset=0mm|YOffset=0mm|HoleType=Round|Shape=RoundedRectangle|*
%AMROUNDEDRECTD94*
21,1,1.000,0.594,0,0,180.0*
21,1,0.844,0.750,0,0,180.0*
1,1,0.156,-0.422,0.297*
1,1,0.156,0.422,0.297*
1,1,0.156,0.422,-0.297*
1,1,0.156,-0.422,-0.297*
%
%ADD94ROUNDEDRECTD94*%
G04:AMPARAMS|DCode=95|XSize=1mm|YSize=0.75mm|CornerRadius=0.078mm|HoleSize=0mm|Usage=FLASHONLY|Rotation=270.000|XOffset=0mm|YOffset=0mm|HoleType=Round|Shape=RoundedRectangle|*
%AMROUNDEDRECTD95*
21,1,1.000,0.594,0,0,270.0*
21,1,0.844,0.750,0,0,270.0*
1,1,0.156,-0.297,-0.422*
1,1,0.156,-0.297,0.422*
1,1,0.156,0.297,0.422*
1,1,0.156,0.297,-0.422*
%
%ADD95ROUNDEDRECTD95*%
%ADD96O,1.350X0.550*%
%ADD97O,0.550X1.350*%
G04:AMPARAMS|DCode=98|XSize=0.7mm|YSize=0.85mm|CornerRadius=0.078mm|HoleSize=0mm|Usage=FLASHONLY|Rotation=270.000|XOffset=0mm|YOffset=0mm|HoleType=Round|Shape=RoundedRectangle|*
%AMROUNDEDRECTD98*
21,1,0.700,0.695,0,0,270.0*
21,1,0.545,0.850,0,0,270.0*
1,1,0.156,-0.347,-0.272*
1,1,0.156,-0.347,0.272*
1,1,0.156,0.347,0.272*
1,1,0.156,0.347,-0.272*
%
%ADD98ROUNDEDRECTD98*%
G04:AMPARAMS|DCode=99|XSize=0.7mm|YSize=0.85mm|CornerRadius=0.078mm|HoleSize=0mm|Usage=FLASHONLY|Rotation=180.000|XOffset=0mm|YOffset=0mm|HoleType=Round|Shape=RoundedRectangle|*
%AMROUNDEDRECTD99*
21,1,0.700,0.695,0,0,180.0*
21,1,0.545,0.850,0,0,180.0*
1,1,0.156,-0.272,0.347*
1,1,0.156,0.272,0.347*
1,1,0.156,0.272,-0.347*
1,1,0.156,-0.272,-0.347*
%
%ADD99ROUNDEDRECTD99*%
G04:AMPARAMS|DCode=100|XSize=0.53mm|YSize=1.58mm|CornerRadius=0.153mm|HoleSize=0mm|Usage=FLASHONLY|Rotation=180.000|XOffset=0mm|YOffset=0mm|HoleType=Round|Shape=RoundedRectangle|*
%AMROUNDEDRECTD100*
21,1,0.530,1.275,0,0,180.0*
21,1,0.225,1.580,0,0,180.0*
1,1,0.305,-0.113,0.638*
1,1,0.305,0.113,0.638*
1,1,0.305,0.113,-0.638*
1,1,0.305,-0.113,-0.638*
%
%ADD100ROUNDEDRECTD100*%
G04:AMPARAMS|DCode=101|XSize=1mm|YSize=0.65mm|CornerRadius=0.078mm|HoleSize=0mm|Usage=FLASHONLY|Rotation=0.000|XOffset=0mm|YOffset=0mm|HoleType=Round|Shape=RoundedRectangle|*
%AMROUNDEDRECTD101*
21,1,1.000,0.495,0,0,0.0*
21,1,0.845,0.650,0,0,0.0*
1,1,0.155,0.422,-0.248*
1,1,0.155,-0.422,-0.248*
1,1,0.155,-0.422,0.248*
1,1,0.155,0.422,0.248*
%
%ADD101ROUNDEDRECTD101*%
G04:AMPARAMS|DCode=102|XSize=1mm|YSize=0.65mm|CornerRadius=0.078mm|HoleSize=0mm|Usage=FLASHONLY|Rotation=90.000|XOffset=0mm|YOffset=0mm|HoleType=Round|Shape=RoundedRectangle|*
%AMROUNDEDRECTD102*
21,1,1.000,0.495,0,0,90.0*
21,1,0.845,0.650,0,0,90.0*
1,1,0.155,0.248,0.422*
1,1,0.155,0.248,-0.422*
1,1,0.155,-0.248,-0.422*
1,1,0.155,-0.248,0.422*
%
%ADD102ROUNDEDRECTD102*%
G04:AMPARAMS|DCode=103|XSize=1.15mm|YSize=1.511mm|CornerRadius=0.08mm|HoleSize=0mm|Usage=FLASHONLY|Rotation=180.000|XOffset=0mm|YOffset=0mm|HoleType=Round|Shape=RoundedRectangle|*
%AMROUNDEDRECTD103*
21,1,1.150,1.351,0,0,180.0*
21,1,0.990,1.511,0,0,180.0*
1,1,0.160,-0.495,0.676*
1,1,0.160,0.495,0.676*
1,1,0.160,0.495,-0.676*
1,1,0.160,-0.495,-0.676*
%
%ADD103ROUNDEDRECTD103*%
G04:AMPARAMS|DCode=104|XSize=1.5mm|YSize=1.15mm|CornerRadius=0.055mm|HoleSize=0mm|Usage=FLASHONLY|Rotation=270.000|XOffset=0mm|YOffset=0mm|HoleType=Round|Shape=RoundedRectangle|*
%AMROUNDEDRECTD104*
21,1,1.500,1.040,0,0,270.0*
21,1,1.390,1.150,0,0,270.0*
1,1,0.111,-0.520,-0.695*
1,1,0.111,-0.520,0.695*
1,1,0.111,0.520,0.695*
1,1,0.111,0.520,-0.695*
%
%ADD104ROUNDEDRECTD104*%
G04:AMPARAMS|DCode=105|XSize=1.5mm|YSize=1.15mm|CornerRadius=0.055mm|HoleSize=0mm|Usage=FLASHONLY|Rotation=0.000|XOffset=0mm|YOffset=0mm|HoleType=Round|Shape=RoundedRectangle|*
%AMROUNDEDRECTD105*
21,1,1.500,1.040,0,0,0.0*
21,1,1.390,1.150,0,0,0.0*
1,1,0.111,0.695,-0.520*
1,1,0.111,-0.695,-0.520*
1,1,0.111,-0.695,0.520*
1,1,0.111,0.695,0.520*
%
%ADD105ROUNDEDRECTD105*%
%TA.AperFunction,ComponentPad*%
%ADD106O,2.050X1.250*%
%ADD107O,2.350X1.250*%
%ADD108C,0.850*%
G04:AMPARAMS|DCode=109|XSize=1.65mm|YSize=1.65mm|CornerRadius=0.263mm|HoleSize=0mm|Usage=FLASHONLY|Rotation=0.000|XOffset=0mm|YOffset=0mm|HoleType=Round|Shape=RoundedRectangle|*
%AMROUNDEDRECTD109*
21,1,1.650,1.125,0,0,0.0*
21,1,1.125,1.650,0,0,0.0*
1,1,0.525,0.563,-0.563*
1,1,0.525,-0.563,-0.563*
1,1,0.525,-0.563,0.563*
1,1,0.525,0.563,0.563*
%
%ADD109ROUNDEDRECTD109*%
%ADD110C,1.650*%
%TA.AperFunction,ViaPad*%
%ADD111C,3.350*%
%ADD112C,1.000*%
D51*
X1045150Y1006665D02*
D03*
Y1004125D02*
D03*
Y1001585D02*
D03*
X1042610D02*
D03*
Y1006665D02*
D03*
D52*
Y1004125D02*
D03*
D78*
X1017200Y1076925D02*
D03*
D79*
X1023300D02*
D03*
D88*
X1062975Y1009056D02*
D03*
Y1011037D02*
D03*
Y1013069D02*
D03*
Y1015050D02*
D03*
Y1017057D02*
D03*
X1063000Y1019063D02*
D03*
Y1021044D02*
D03*
X1047579Y1023026D02*
D03*
Y1019038D02*
D03*
Y1017057D02*
D03*
Y1015025D02*
D03*
Y1013043D02*
D03*
Y1011037D02*
D03*
X1063000Y1023051D02*
D03*
X1047579Y1021019D02*
D03*
Y1009056D02*
D03*
D89*
X1060281Y1025008D02*
D03*
X1058249D02*
D03*
X1056268D02*
D03*
X1054236D02*
D03*
X1052255D02*
D03*
X1050273D02*
D03*
D90*
X1037833Y1010500D02*
D03*
X1040633D02*
D03*
D91*
X1003548Y1002407D02*
D03*
Y1003057D02*
D03*
Y1003707D02*
D03*
Y1004357D02*
D03*
Y1005007D02*
D03*
Y1005657D02*
D03*
Y1006307D02*
D03*
Y1006957D02*
D03*
Y1007607D02*
D03*
Y1008257D02*
D03*
X1009148Y1002407D02*
D03*
Y1003057D02*
D03*
Y1003707D02*
D03*
Y1004357D02*
D03*
Y1005007D02*
D03*
Y1005657D02*
D03*
Y1006307D02*
D03*
Y1006957D02*
D03*
Y1007607D02*
D03*
Y1008257D02*
D03*
D92*
X1028375Y1003800D02*
D03*
D93*
X1034225Y1001500D02*
D03*
Y1003800D02*
D03*
Y1006100D02*
D03*
D94*
X1001466Y1028499D02*
D03*
Y1027049D02*
D03*
X1037048Y1064531D02*
D03*
Y1063081D02*
D03*
X1013997Y1044137D02*
D03*
Y1042687D02*
D03*
X1025974Y1061978D02*
D03*
Y1060528D02*
D03*
X1032650Y1063125D02*
D03*
Y1061675D02*
D03*
X1037833Y1008250D02*
D03*
Y1006800D02*
D03*
X1036825Y1002950D02*
D03*
Y1001500D02*
D03*
X1022604Y1011230D02*
D03*
Y1012680D02*
D03*
X1044950Y1023026D02*
D03*
Y1021576D02*
D03*
X1001641Y1001937D02*
D03*
Y1003387D02*
D03*
D95*
X1019104Y1005774D02*
D03*
X1017654D02*
D03*
X1051999Y1041647D02*
D03*
X1050549D02*
D03*
X1020424Y1032881D02*
D03*
X1021874D02*
D03*
X1051608Y1044052D02*
D03*
X1053058D02*
D03*
X1019265Y1040257D02*
D03*
X1017815D02*
D03*
X1011542Y1001421D02*
D03*
X1010092D02*
D03*
X1025492Y1003400D02*
D03*
X1024042D02*
D03*
X1001847Y1010793D02*
D03*
X1003297D02*
D03*
Y1018159D02*
D03*
X1001847D02*
D03*
D96*
X1013404Y1007218D02*
D03*
Y1007868D02*
D03*
Y1008518D02*
D03*
Y1009168D02*
D03*
Y1009818D02*
D03*
Y1010468D02*
D03*
Y1011118D02*
D03*
Y1011768D02*
D03*
Y1012418D02*
D03*
Y1013068D02*
D03*
Y1013718D02*
D03*
Y1014368D02*
D03*
X1019104Y1007218D02*
D03*
Y1007868D02*
D03*
Y1008518D02*
D03*
Y1009168D02*
D03*
Y1009818D02*
D03*
Y1010468D02*
D03*
Y1011118D02*
D03*
Y1011768D02*
D03*
Y1012418D02*
D03*
Y1013068D02*
D03*
Y1013718D02*
D03*
Y1014368D02*
D03*
X1001847Y1012653D02*
D03*
Y1013303D02*
D03*
Y1013953D02*
D03*
Y1014603D02*
D03*
Y1015253D02*
D03*
Y1015903D02*
D03*
Y1016553D02*
D03*
X1007547Y1012653D02*
D03*
Y1013303D02*
D03*
Y1013953D02*
D03*
Y1014603D02*
D03*
Y1015253D02*
D03*
Y1015903D02*
D03*
Y1016553D02*
D03*
X1007166Y1025387D02*
D03*
Y1024737D02*
D03*
Y1024087D02*
D03*
Y1023437D02*
D03*
Y1022787D02*
D03*
Y1022137D02*
D03*
Y1021487D02*
D03*
Y1020837D02*
D03*
X1001466Y1025387D02*
D03*
Y1024737D02*
D03*
Y1024087D02*
D03*
Y1023437D02*
D03*
Y1022787D02*
D03*
Y1022137D02*
D03*
Y1021487D02*
D03*
Y1020837D02*
D03*
D97*
X1025992Y1005530D02*
D03*
X1025342D02*
D03*
X1024692D02*
D03*
X1024042D02*
D03*
X1025992Y1011230D02*
D03*
X1025342D02*
D03*
X1024692D02*
D03*
X1024042D02*
D03*
D98*
X1039148Y1060831D02*
D03*
X1037048Y1061781D02*
D03*
Y1059881D02*
D03*
X1052959Y1038981D02*
D03*
X1050859Y1039931D02*
D03*
Y1038031D02*
D03*
X1011897Y1046270D02*
D03*
X1013997Y1045320D02*
D03*
Y1047220D02*
D03*
X1022100Y1061478D02*
D03*
X1024200Y1060528D02*
D03*
Y1062428D02*
D03*
X1050958Y1046460D02*
D03*
X1053058Y1045510D02*
D03*
Y1047410D02*
D03*
X1021365Y1038037D02*
D03*
X1019265Y1038987D02*
D03*
Y1037087D02*
D03*
D99*
X1020924Y1029164D02*
D03*
X1021874Y1031264D02*
D03*
X1019974D02*
D03*
X1030000Y1061025D02*
D03*
X1030950Y1063125D02*
D03*
X1029050D02*
D03*
D100*
X1033160Y1011234D02*
D03*
X1033810D02*
D03*
X1031860D02*
D03*
X1031210D02*
D03*
X1032510D02*
D03*
D101*
X1020975Y1007868D02*
D03*
Y1009268D02*
D03*
X1021207Y1011230D02*
D03*
Y1012630D02*
D03*
X1041075Y1022333D02*
D03*
Y1023733D02*
D03*
X1001650Y1004357D02*
D03*
Y1005757D02*
D03*
X1042451Y1022333D02*
D03*
Y1023733D02*
D03*
D102*
X1064025Y1027200D02*
D03*
X1062625D02*
D03*
X1016185Y1005387D02*
D03*
X1014785D02*
D03*
X1020527Y1006169D02*
D03*
X1021927D02*
D03*
D103*
X1038900Y1044918D02*
D03*
X1037400D02*
D03*
X1035900D02*
D03*
X1034400D02*
D03*
X1040400D02*
D03*
X1038900Y1057082D02*
D03*
X1035900D02*
D03*
X1037400D02*
D03*
X1034400D02*
D03*
X1040400D02*
D03*
X1029100Y1044918D02*
D03*
X1027600D02*
D03*
X1026100D02*
D03*
X1024600D02*
D03*
X1030600D02*
D03*
X1029100Y1057082D02*
D03*
X1026100D02*
D03*
X1027600D02*
D03*
X1024600D02*
D03*
X1030600D02*
D03*
X1046501Y1031018D02*
D03*
X1045001D02*
D03*
X1043501D02*
D03*
X1042001D02*
D03*
X1048001D02*
D03*
X1046501Y1043182D02*
D03*
X1043501D02*
D03*
X1045001D02*
D03*
X1042001D02*
D03*
X1048001D02*
D03*
X1046700Y1044918D02*
D03*
X1045200D02*
D03*
X1043700D02*
D03*
X1042200D02*
D03*
X1048200D02*
D03*
X1046700Y1057082D02*
D03*
X1043700D02*
D03*
X1045200D02*
D03*
X1042200D02*
D03*
X1048200D02*
D03*
X1037850Y1031018D02*
D03*
X1036350D02*
D03*
X1034850D02*
D03*
X1033350D02*
D03*
X1039350D02*
D03*
X1037850Y1043182D02*
D03*
X1034850D02*
D03*
X1036350D02*
D03*
X1033350D02*
D03*
X1039350D02*
D03*
X1030150Y1031018D02*
D03*
X1028650D02*
D03*
X1027150D02*
D03*
X1025650D02*
D03*
X1031650D02*
D03*
X1030150Y1043182D02*
D03*
X1027150D02*
D03*
X1028650D02*
D03*
X1025650D02*
D03*
X1031650D02*
D03*
X1021300Y1044918D02*
D03*
X1019800D02*
D03*
X1018300D02*
D03*
X1016800D02*
D03*
X1022800D02*
D03*
X1021300Y1057082D02*
D03*
X1018300D02*
D03*
X1019800D02*
D03*
X1016800D02*
D03*
X1022800D02*
D03*
D104*
X1062186Y1060200D02*
D03*
X1063636D02*
D03*
Y1063800D02*
D03*
X1062186D02*
D03*
D105*
X1048800Y1077183D02*
D03*
Y1078633D02*
D03*
X1045200D02*
D03*
Y1077183D02*
D03*
D106*
X1029710Y1011484D02*
D03*
X1035310D02*
D03*
D107*
X1032510Y1009334D02*
D03*
D108*
X1063811Y1062000D02*
D03*
X1062011D02*
D03*
X1047000Y1078808D02*
D03*
Y1077008D02*
D03*
D109*
X1013095Y1002503D02*
D03*
D110*
X1015635D02*
D03*
X1018175D02*
D03*
X1020715D02*
D03*
D111*
X1060000Y1075000D02*
D03*
X1005000D02*
D03*
D112*
X1032500Y1045000D02*
D03*
%TF.MD5,64d5c59a4ba4e07e3d7af85dabc4b831*%
M02*
