%TF.GenerationSoftware,Altium Limited,Altium Designer,20.1.8 (145)*%
G04 Layer_Color=16711935*
%FSLAX44Y44*%
%MOMM*%
%TF.SameCoordinates,136F3CA4-168E-489F-BF15-BD865E51D291*%
%TF.FilePolarity,Negative*%
%TF.FileFunction,Soldermask,Bot*%
%TF.Part,Single*%
G01*
G75*
%TA.AperFunction,ComponentPad*%
%ADD55C,1.5000*%
G04:AMPARAMS|DCode=56|XSize=1.5mm|YSize=1.5mm|CornerRadius=0.15mm|HoleSize=0mm|Usage=FLASHONLY|Rotation=180.000|XOffset=0mm|YOffset=0mm|HoleType=Round|Shape=RoundedRectangle|*
%AMROUNDEDRECTD56*
21,1,1.5000,1.2000,0,0,180.0*
21,1,1.2000,1.5000,0,0,180.0*
1,1,0.3000,-0.6000,0.6000*
1,1,0.3000,0.6000,0.6000*
1,1,0.3000,0.6000,-0.6000*
1,1,0.3000,-0.6000,-0.6000*
%
%ADD56ROUNDEDRECTD56*%
%TA.AperFunction,SMDPad,CuDef*%
G04:AMPARAMS|DCode=92|XSize=2.25mm|YSize=1.15mm|CornerRadius=0.125mm|HoleSize=0mm|Usage=FLASHONLY|Rotation=90.000|XOffset=0mm|YOffset=0mm|HoleType=Round|Shape=RoundedRectangle|*
%AMROUNDEDRECTD92*
21,1,2.2500,0.9000,0,0,90.0*
21,1,2.0000,1.1500,0,0,90.0*
1,1,0.2500,0.4500,1.0000*
1,1,0.2500,0.4500,-1.0000*
1,1,0.2500,-0.4500,-1.0000*
1,1,0.2500,-0.4500,1.0000*
%
%ADD92ROUNDEDRECTD92*%
G04:AMPARAMS|DCode=93|XSize=2.25mm|YSize=1.15mm|CornerRadius=0.125mm|HoleSize=0mm|Usage=FLASHONLY|Rotation=180.000|XOffset=0mm|YOffset=0mm|HoleType=Round|Shape=RoundedRectangle|*
%AMROUNDEDRECTD93*
21,1,2.2500,0.9000,0,0,180.0*
21,1,2.0000,1.1500,0,0,180.0*
1,1,0.2500,-1.0000,0.4500*
1,1,0.2500,1.0000,0.4500*
1,1,0.2500,1.0000,-0.4500*
1,1,0.2500,-1.0000,-0.4500*
%
%ADD93ROUNDEDRECTD93*%
G04:AMPARAMS|DCode=94|XSize=1.15mm|YSize=1.4mm|CornerRadius=0.08mm|HoleSize=0mm|Usage=FLASHONLY|Rotation=180.000|XOffset=0mm|YOffset=0mm|HoleType=Round|Shape=RoundedRectangle|*
%AMROUNDEDRECTD94*
21,1,1.1500,1.2400,0,0,180.0*
21,1,0.9900,1.4000,0,0,180.0*
1,1,0.1600,-0.4950,0.6200*
1,1,0.1600,0.4950,0.6200*
1,1,0.1600,0.4950,-0.6200*
1,1,0.1600,-0.4950,-0.6200*
%
%ADD94ROUNDEDRECTD94*%
G04:AMPARAMS|DCode=95|XSize=1mm|YSize=0.75mm|CornerRadius=0.078mm|HoleSize=0mm|Usage=FLASHONLY|Rotation=0.000|XOffset=0mm|YOffset=0mm|HoleType=Round|Shape=RoundedRectangle|*
%AMROUNDEDRECTD95*
21,1,1.0000,0.5940,0,0,0.0*
21,1,0.8440,0.7500,0,0,0.0*
1,1,0.1560,0.4220,-0.2970*
1,1,0.1560,-0.4220,-0.2970*
1,1,0.1560,-0.4220,0.2970*
1,1,0.1560,0.4220,0.2970*
%
%ADD95ROUNDEDRECTD95*%
G04:AMPARAMS|DCode=96|XSize=1mm|YSize=0.75mm|CornerRadius=0.078mm|HoleSize=0mm|Usage=FLASHONLY|Rotation=270.000|XOffset=0mm|YOffset=0mm|HoleType=Round|Shape=RoundedRectangle|*
%AMROUNDEDRECTD96*
21,1,1.0000,0.5940,0,0,270.0*
21,1,0.8440,0.7500,0,0,270.0*
1,1,0.1560,-0.2970,-0.4220*
1,1,0.1560,-0.2970,0.4220*
1,1,0.1560,0.2970,0.4220*
1,1,0.1560,0.2970,-0.4220*
%
%ADD96ROUNDEDRECTD96*%
%ADD97O,1.3500X0.5500*%
%ADD98O,1.3000X0.5500*%
G04:AMPARAMS|DCode=99|XSize=1.8mm|YSize=1.1mm|CornerRadius=0.0798mm|HoleSize=0mm|Usage=FLASHONLY|Rotation=270.000|XOffset=0mm|YOffset=0mm|HoleType=Round|Shape=RoundedRectangle|*
%AMROUNDEDRECTD99*
21,1,1.8000,0.9405,0,0,270.0*
21,1,1.6405,1.1000,0,0,270.0*
1,1,0.1595,-0.4703,-0.8203*
1,1,0.1595,-0.4703,0.8203*
1,1,0.1595,0.4703,0.8203*
1,1,0.1595,0.4703,-0.8203*
%
%ADD99ROUNDEDRECTD99*%
G04:AMPARAMS|DCode=100|XSize=1.15mm|YSize=2.3mm|CornerRadius=0.08mm|HoleSize=0mm|Usage=FLASHONLY|Rotation=0.000|XOffset=0mm|YOffset=0mm|HoleType=Round|Shape=RoundedRectangle|*
%AMROUNDEDRECTD100*
21,1,1.1500,2.1400,0,0,0.0*
21,1,0.9900,2.3000,0,0,0.0*
1,1,0.1600,0.4950,-1.0700*
1,1,0.1600,-0.4950,-1.0700*
1,1,0.1600,-0.4950,1.0700*
1,1,0.1600,0.4950,1.0700*
%
%ADD100ROUNDEDRECTD100*%
G04:AMPARAMS|DCode=101|XSize=3.4mm|YSize=2.3mm|CornerRadius=0.0858mm|HoleSize=0mm|Usage=FLASHONLY|Rotation=0.000|XOffset=0mm|YOffset=0mm|HoleType=Round|Shape=RoundedRectangle|*
%AMROUNDEDRECTD101*
21,1,3.4000,2.1285,0,0,0.0*
21,1,3.2285,2.3000,0,0,0.0*
1,1,0.1715,1.6143,-1.0642*
1,1,0.1715,-1.6143,-1.0642*
1,1,0.1715,-1.6143,1.0642*
1,1,0.1715,1.6143,1.0642*
%
%ADD101ROUNDEDRECTD101*%
G04:AMPARAMS|DCode=102|XSize=0.7mm|YSize=0.85mm|CornerRadius=0.0778mm|HoleSize=0mm|Usage=FLASHONLY|Rotation=0.000|XOffset=0mm|YOffset=0mm|HoleType=Round|Shape=RoundedRectangle|*
%AMROUNDEDRECTD102*
21,1,0.7000,0.6945,0,0,0.0*
21,1,0.5445,0.8500,0,0,0.0*
1,1,0.1555,0.2723,-0.3473*
1,1,0.1555,-0.2723,-0.3473*
1,1,0.1555,-0.2723,0.3473*
1,1,0.1555,0.2723,0.3473*
%
%ADD102ROUNDEDRECTD102*%
G04:AMPARAMS|DCode=103|XSize=0.7mm|YSize=0.85mm|CornerRadius=0.0778mm|HoleSize=0mm|Usage=FLASHONLY|Rotation=90.000|XOffset=0mm|YOffset=0mm|HoleType=Round|Shape=RoundedRectangle|*
%AMROUNDEDRECTD103*
21,1,0.7000,0.6945,0,0,90.0*
21,1,0.5445,0.8500,0,0,90.0*
1,1,0.1555,0.3473,0.2723*
1,1,0.1555,0.3473,-0.2723*
1,1,0.1555,-0.3473,-0.2723*
1,1,0.1555,-0.3473,0.2723*
%
%ADD103ROUNDEDRECTD103*%
G04:AMPARAMS|DCode=104|XSize=1.25mm|YSize=2.45mm|CornerRadius=0.0805mm|HoleSize=0mm|Usage=FLASHONLY|Rotation=270.000|XOffset=0mm|YOffset=0mm|HoleType=Round|Shape=RoundedRectangle|*
%AMROUNDEDRECTD104*
21,1,1.2500,2.2890,0,0,270.0*
21,1,1.0890,2.4500,0,0,270.0*
1,1,0.1610,-1.1445,-0.5445*
1,1,0.1610,-1.1445,0.5445*
1,1,0.1610,1.1445,0.5445*
1,1,0.1610,1.1445,-0.5445*
%
%ADD104ROUNDEDRECTD104*%
G04:AMPARAMS|DCode=105|XSize=1.25mm|YSize=2.45mm|CornerRadius=0.0805mm|HoleSize=0mm|Usage=FLASHONLY|Rotation=180.000|XOffset=0mm|YOffset=0mm|HoleType=Round|Shape=RoundedRectangle|*
%AMROUNDEDRECTD105*
21,1,1.2500,2.2890,0,0,180.0*
21,1,1.0890,2.4500,0,0,180.0*
1,1,0.1610,-0.5445,1.1445*
1,1,0.1610,0.5445,1.1445*
1,1,0.1610,0.5445,-1.1445*
1,1,0.1610,-0.5445,-1.1445*
%
%ADD105ROUNDEDRECTD105*%
G04:AMPARAMS|DCode=106|XSize=0.53mm|YSize=1.58mm|CornerRadius=0.1525mm|HoleSize=0mm|Usage=FLASHONLY|Rotation=180.000|XOffset=0mm|YOffset=0mm|HoleType=Round|Shape=RoundedRectangle|*
%AMROUNDEDRECTD106*
21,1,0.5300,1.2750,0,0,180.0*
21,1,0.2250,1.5800,0,0,180.0*
1,1,0.3050,-0.1125,0.6375*
1,1,0.3050,0.1125,0.6375*
1,1,0.3050,0.1125,-0.6375*
1,1,0.3050,-0.1125,-0.6375*
%
%ADD106ROUNDEDRECTD106*%
G04:AMPARAMS|DCode=107|XSize=1mm|YSize=0.65mm|CornerRadius=0.0775mm|HoleSize=0mm|Usage=FLASHONLY|Rotation=270.000|XOffset=0mm|YOffset=0mm|HoleType=Round|Shape=RoundedRectangle|*
%AMROUNDEDRECTD107*
21,1,1.0000,0.4950,0,0,270.0*
21,1,0.8450,0.6500,0,0,270.0*
1,1,0.1550,-0.2475,-0.4225*
1,1,0.1550,-0.2475,0.4225*
1,1,0.1550,0.2475,0.4225*
1,1,0.1550,0.2475,-0.4225*
%
%ADD107ROUNDEDRECTD107*%
G04:AMPARAMS|DCode=108|XSize=1mm|YSize=0.65mm|CornerRadius=0.0775mm|HoleSize=0mm|Usage=FLASHONLY|Rotation=180.000|XOffset=0mm|YOffset=0mm|HoleType=Round|Shape=RoundedRectangle|*
%AMROUNDEDRECTD108*
21,1,1.0000,0.4950,0,0,180.0*
21,1,0.8450,0.6500,0,0,180.0*
1,1,0.1550,-0.4225,0.2475*
1,1,0.1550,0.4225,0.2475*
1,1,0.1550,0.4225,-0.2475*
1,1,0.1550,-0.4225,-0.2475*
%
%ADD108ROUNDEDRECTD108*%
%TA.AperFunction,ViaPad*%
%ADD109C,5.0000*%
%TA.AperFunction,ComponentPad*%
%ADD110O,2.3500X1.2500*%
%ADD111O,2.0500X1.2500*%
G04:AMPARAMS|DCode=112|XSize=1.65mm|YSize=1.65mm|CornerRadius=0.2625mm|HoleSize=0mm|Usage=FLASHONLY|Rotation=270.000|XOffset=0mm|YOffset=0mm|HoleType=Round|Shape=RoundedRectangle|*
%AMROUNDEDRECTD112*
21,1,1.6500,1.1250,0,0,270.0*
21,1,1.1250,1.6500,0,0,270.0*
1,1,0.5250,-0.5625,-0.5625*
1,1,0.5250,-0.5625,0.5625*
1,1,0.5250,0.5625,0.5625*
1,1,0.5250,0.5625,-0.5625*
%
%ADD112ROUNDEDRECTD112*%
%ADD113C,1.6500*%
G36*
X-165881Y-264559D02*
Y-294559D01*
X-142881D01*
Y-264559D01*
X-165881D01*
D02*
G37*
D55*
X102900Y-435400D02*
D03*
Y-384600D02*
D03*
X77500D02*
D03*
Y-410000D02*
D03*
Y-435400D02*
D03*
D56*
X102900Y-410000D02*
D03*
D92*
X262148Y97990D02*
D03*
Y181990D02*
D03*
X217148Y97990D02*
D03*
Y181990D02*
D03*
D93*
X97994Y217058D02*
D03*
X181994D02*
D03*
X97994Y262058D02*
D03*
X181994D02*
D03*
D94*
X63500Y-1320D02*
D03*
X48500D02*
D03*
X33500D02*
D03*
X18500D02*
D03*
X78500D02*
D03*
X63500Y121320D02*
D03*
X33500D02*
D03*
X48500D02*
D03*
X18500D02*
D03*
X78500D02*
D03*
X-18500D02*
D03*
X-78500D02*
D03*
X-48500D02*
D03*
X-63500D02*
D03*
X-33500D02*
D03*
X-18500Y-1320D02*
D03*
X-78500D02*
D03*
X-63500D02*
D03*
X-48500D02*
D03*
X-33500D02*
D03*
X142000Y-140320D02*
D03*
X127000D02*
D03*
X112000D02*
D03*
X97000D02*
D03*
X157000D02*
D03*
X142000Y-17680D02*
D03*
X112000D02*
D03*
X127000D02*
D03*
X97000D02*
D03*
X157000D02*
D03*
X157000Y121320D02*
D03*
X97000D02*
D03*
X127000D02*
D03*
X112000D02*
D03*
X142000D02*
D03*
X157000Y-1320D02*
D03*
X97000D02*
D03*
X112000D02*
D03*
X127000D02*
D03*
X142000D02*
D03*
X54250Y-140320D02*
D03*
X39250D02*
D03*
X24250D02*
D03*
X9250D02*
D03*
X69250D02*
D03*
X54250Y-17680D02*
D03*
X24250D02*
D03*
X39250D02*
D03*
X9250D02*
D03*
X69250D02*
D03*
X-9250D02*
D03*
X-69250D02*
D03*
X-39250D02*
D03*
X-54250D02*
D03*
X-24250D02*
D03*
X-9250Y-140320D02*
D03*
X-69250D02*
D03*
X-54250D02*
D03*
X-39250D02*
D03*
X-24250D02*
D03*
X-112000Y-1320D02*
D03*
X-127000D02*
D03*
X-142000D02*
D03*
X-157000D02*
D03*
X-97000D02*
D03*
X-112000Y121320D02*
D03*
X-142000D02*
D03*
X-127000D02*
D03*
X-157000D02*
D03*
X-97000D02*
D03*
D95*
X-288838Y163030D02*
D03*
Y177530D02*
D03*
X-289324Y-167746D02*
D03*
Y-182246D02*
D03*
X-204732Y-363344D02*
D03*
Y-348843D02*
D03*
D96*
X-59971Y-419914D02*
D03*
X-74471D02*
D03*
X-111381Y-325492D02*
D03*
X-125881D02*
D03*
X-225570Y-435021D02*
D03*
X-240070D02*
D03*
X-91471Y-419914D02*
D03*
X-105971D02*
D03*
X74790Y-261112D02*
D03*
X89290D02*
D03*
X-274570Y-332578D02*
D03*
X-289070D02*
D03*
X-274062Y-267762D02*
D03*
X-288562D02*
D03*
X-288081Y-435021D02*
D03*
X-273581D02*
D03*
D97*
X-232324Y-196130D02*
D03*
Y-202630D02*
D03*
Y-209130D02*
D03*
Y-215630D02*
D03*
Y-222130D02*
D03*
Y-228630D02*
D03*
Y-235130D02*
D03*
Y-241630D02*
D03*
X-289324Y-196130D02*
D03*
Y-202630D02*
D03*
Y-209130D02*
D03*
Y-215630D02*
D03*
Y-222130D02*
D03*
Y-228630D02*
D03*
Y-235130D02*
D03*
Y-241630D02*
D03*
X-182881Y-315309D02*
D03*
Y-308809D02*
D03*
Y-302309D02*
D03*
Y-295809D02*
D03*
Y-289309D02*
D03*
Y-282809D02*
D03*
Y-276309D02*
D03*
Y-269809D02*
D03*
Y-263309D02*
D03*
Y-256809D02*
D03*
Y-250309D02*
D03*
Y-243809D02*
D03*
X-125881Y-315309D02*
D03*
Y-308809D02*
D03*
Y-302309D02*
D03*
Y-295809D02*
D03*
Y-289309D02*
D03*
Y-282809D02*
D03*
Y-276309D02*
D03*
Y-269809D02*
D03*
Y-263309D02*
D03*
Y-256809D02*
D03*
Y-250309D02*
D03*
Y-243809D02*
D03*
X-288562Y-318769D02*
D03*
Y-312269D02*
D03*
Y-305769D02*
D03*
Y-299269D02*
D03*
Y-292769D02*
D03*
Y-286269D02*
D03*
Y-279769D02*
D03*
X-231562Y-318769D02*
D03*
Y-312269D02*
D03*
Y-305769D02*
D03*
Y-299269D02*
D03*
Y-292769D02*
D03*
Y-286269D02*
D03*
Y-279769D02*
D03*
D98*
X-222894Y-355231D02*
D03*
Y-361731D02*
D03*
Y-368231D02*
D03*
Y-374731D02*
D03*
Y-381231D02*
D03*
Y-387731D02*
D03*
Y-394231D02*
D03*
Y-400731D02*
D03*
Y-407231D02*
D03*
Y-413731D02*
D03*
X-278894Y-355231D02*
D03*
Y-361731D02*
D03*
Y-368231D02*
D03*
Y-374731D02*
D03*
Y-381231D02*
D03*
Y-387731D02*
D03*
Y-394231D02*
D03*
Y-400731D02*
D03*
Y-407231D02*
D03*
Y-413731D02*
D03*
D99*
X-15000Y-305000D02*
D03*
X13000D02*
D03*
D100*
X-59971Y-400937D02*
D03*
X-82971D02*
D03*
X-105971D02*
D03*
D101*
X-82971Y-342437D02*
D03*
D102*
X102903Y182834D02*
D03*
X93403Y161834D02*
D03*
X112403D02*
D03*
X204592Y-50153D02*
D03*
X214092Y-29153D02*
D03*
X195092D02*
D03*
X-121994Y-167155D02*
D03*
X-112494Y-146155D02*
D03*
X-131494D02*
D03*
X-193137Y52554D02*
D03*
X-202637Y31554D02*
D03*
X-183636D02*
D03*
X-25000Y160250D02*
D03*
X-15500Y181250D02*
D03*
X-34500D02*
D03*
D103*
X-99760Y178173D02*
D03*
X-78760Y168673D02*
D03*
Y187673D02*
D03*
X182609Y23682D02*
D03*
X203609Y14182D02*
D03*
Y33182D02*
D03*
X-97380Y-69630D02*
D03*
X-118380Y-60130D02*
D03*
Y-79130D02*
D03*
D104*
X283750Y-361730D02*
D03*
Y-341918D02*
D03*
Y-321598D02*
D03*
Y-301786D02*
D03*
Y-281720D02*
D03*
X284004Y-261654D02*
D03*
Y-241842D02*
D03*
X129794Y-222030D02*
D03*
Y-261908D02*
D03*
Y-281720D02*
D03*
Y-302040D02*
D03*
Y-321852D02*
D03*
Y-341918D02*
D03*
X284004Y-221776D02*
D03*
X129794Y-242096D02*
D03*
Y-361730D02*
D03*
D105*
X256810Y-202202D02*
D03*
X236490D02*
D03*
X216678D02*
D03*
X196358D02*
D03*
X176546D02*
D03*
X156734D02*
D03*
D106*
X0Y-331750D02*
D03*
X-13000D02*
D03*
X-6500D02*
D03*
X13000D02*
D03*
X6500D02*
D03*
D107*
X-100377Y-308809D02*
D03*
X-114377D02*
D03*
X75318Y-304800D02*
D03*
X61318D02*
D03*
X103290Y-291338D02*
D03*
X89290D02*
D03*
X-249879Y-435021D02*
D03*
X-263879D02*
D03*
X93403Y151581D02*
D03*
X107403D02*
D03*
X205624Y-19464D02*
D03*
X191624D02*
D03*
X-117494Y-135362D02*
D03*
X-131494D02*
D03*
X-181322Y21896D02*
D03*
X-195322D02*
D03*
X-20500Y192715D02*
D03*
X-34500D02*
D03*
D108*
X276860Y-194000D02*
D03*
Y-180000D02*
D03*
X-67462Y173673D02*
D03*
Y187673D02*
D03*
X215883Y19182D02*
D03*
Y33182D02*
D03*
X-129713Y-65130D02*
D03*
Y-79130D02*
D03*
X-204732Y-340505D02*
D03*
Y-326505D02*
D03*
D109*
X0Y-405000D02*
D03*
X255000Y255000D02*
D03*
X-255000D02*
D03*
D110*
X0Y-350750D02*
D03*
D111*
X28000Y-329250D02*
D03*
X-28000D02*
D03*
D112*
X-150023Y-356980D02*
D03*
D113*
Y-382380D02*
D03*
Y-407780D02*
D03*
Y-433180D02*
D03*
X-175424Y-356980D02*
D03*
Y-382380D02*
D03*
Y-407780D02*
D03*
Y-433180D02*
D03*
%TF.MD5,aa67d73280ddfbf371e3b352188e9827*%
M02*
