M48
;Layer_Color=9474304
;FILE_FORMAT=2:4
INCH,LZ
;TYPE=PLATED
T1F00S00C0.0079
T2F00S00C0.0118
T3F00S00C0.0157
T5F00S00C0.0315
T6F00S00C0.0394
T7F00S00C0.0492
T8F00S00C0.1969
%
T01
X002146Y-01471
X002236Y-01446
X002682
X002592Y-01471
X002684Y-010763
X001612Y-010786
X000459Y-010521
X002077Y-009369
X003858Y-010599
X00448Y-010555
X004519Y-011307
X004527Y-011633
X004424Y-007663
X003932Y-007717
X005311Y-00731
X005018Y-006834
X006171Y-006854
X006993Y-006296
X007764Y-005641
X008314Y-005503
X008435Y-007204
X006181Y-005389
X005591
X004409
X003392Y-005444
X003316Y-005659
X003091Y-005624
X001973Y-005908
X001545Y-005884
X000955Y-006072
X000221Y-006074
X-000955Y-005387
X-001545Y-005884
X-00213Y-006072
X-002441Y-005884
X-002726Y-006072
Y-005387
X-006576Y-005921
X-007071Y-005625
X-006046Y-006715
X-005421Y-007461
X-004345Y-008346
X-004169Y-008644
X-003979Y-008938
X-003573Y-009308
X-001764Y-010003
X-000722Y-010319
X-000468Y-010708
X-001991Y-011292
X-006441Y-01252
Y-012936
X-007863Y-012191
Y-011775
X-009985Y-009836
X-010491
X-01072Y-008315
X-011045Y-008489
X-011225Y-006061
Y-005832
X-01132Y-005625
X-01141Y-005415
X-010622
X-010625Y-005186
Y-005643
Y-005871
X-010265Y-006227
X-009506Y-006412
X-009566Y-005977
X-010389Y-01677
X-00445Y-017152
X-00436Y-01738
X-003894Y-01731
X-003984Y-0171
X-006784Y-005042
X-007007Y-005091
X-006938Y-004873
X-006685Y-002976
X-007224
X-007939
X-008045Y-002675
X-008115Y-002458
X-008309Y-00169
X-008245Y-001384
X-008425Y-000956
X-007893Y-001682
X-010416Y-001557
X-010325Y-000632
X-010151Y-000354
X-009848Y00156
X-00957Y002034
X-009053Y00176
X-00839Y001223
X-008073Y003139
X-008596Y003827
X-009308Y003573
X-009127Y002965
X-010988Y003869
X-01091Y004084
X-01117Y004412
X-011099Y004738
X-007821Y004887
X-007513Y00502
X-006852Y005598
X-006437Y005796
X-006181Y004639
X-004409Y00518
Y005596
X-003694Y005257
X-00271Y00517
X-0025Y004639
X-001909
X-003091
X-00069Y00516
X-000258Y005271
Y004856
X-002103Y008214
X-002323Y008154
X-002503Y010037
X-001414Y010059
X-003645Y009881
X-003972Y009955
X-005878Y009407
X-006944Y008888
X-007965Y008248
X-007778Y007644
X-006214Y-000526
X-005986
X-005985Y-000941
X-005591Y-00042
X-005Y000086
X-004409
X-003819
X-003537Y-000729
X-003309Y-000714
X-003061
X-002726Y-000834
X-0025Y000086
X-001909
X-001319
X-001545Y-000834
X-000955
X-000364
X-010377Y-002684
X-010215Y-003819
X-00997Y-004863
X-01072Y-004863
X000364Y-000834
X000955
X001545
X002136
X002726
X003819
X004409
X004409Y000086
X003836
X005
X005591
X00701Y0
X006642Y-000389
X006911Y-001845
X007001Y-002055
Y-002539
X007091Y-002863
X006911Y-00354
X00674Y-0039
X007004Y-004167
X008717Y-004442
X009418Y-003805
X009689Y-003623
X010372Y-001829
X010699Y-000654
X010897Y000428
X01117Y00157
X011126Y002774
X010663Y003058
X008898Y003595
X008083Y003599
X007731Y00348
X007843Y00277
X008238Y002677
X00814Y001876
X0087Y001612
X009221Y001876
X007131Y001681
X006911Y00295
X008199Y004223
X007578Y004921
X007612Y005531
X007132Y006421
X006546Y007271
X006207Y007803
X006181Y005174
X005Y004639
X003819
X001909Y005126
X001319
X001091Y005156
X001089Y005385
X000068Y004543
X-000049Y004199
X000021Y003751
X0Y003425
X0Y002318
X-000177Y001269
X000014Y000645
X-00021Y-000191
X000267
X000728Y000086
X001319
X0025
X002465Y008112
X002033Y008804
X002909Y010316
X003945Y009765
X004493Y00911
X004817Y009155
X010462Y00527
X010968
X001847Y010748
X000774Y011065
X-0004Y01146
X-000787Y011252
T02
X-006628Y-011706
X-006278
X-005878
X-005528
Y-011356
Y-011006
Y-010656
Y-010306
X-005878
X-006278
X-006628
Y-010656
Y-011006
Y-011356
T03
X001962Y-012038
Y-011632
X010805Y-00827
X011181
X011548
X01131Y-007638
X-004557Y-007016
X-004025Y-005754
X-00366Y-012158
X-00407Y-012815
X-002354Y-012338
X-001962
X-00157
X-001178
Y-011932
X-00157
X-001962
X-002354
X-001288Y-013505
X-000902
Y-013897
X-001288
X-002361Y-017062
X-002932Y-01691
X-003267
X-003601
X-00327Y-016532
X-00888Y-01676
X-011342
X-01056Y-015265
X-01025Y-01527
X-01081Y-01346
X-009117Y-01283
X-0077Y-012855
X-00763Y-012414
X-00676
X-00806Y-014629
X-00872Y-009513
Y-008489
X-00957Y-008745
X-01079Y-01018
X-011361Y-010169
X-011391Y-007473
Y-006317
X-007978Y00091
X-008147Y002069
X-005Y005216
Y006119
X-003101Y006288
X-003663Y007346
X-001396Y005482
X-010632Y006009
X-011372Y0061
X-010995Y006989
X-004661Y-00201
X008055Y-002317
X008371Y-000766
X008016Y00027
X011121Y003858
X010318Y006487
X004531Y006845
X003325Y006371
X-000237Y007145
X006494Y010317
X003858Y0111
T05
X-006906Y-017054
X-005906
Y-016054
Y-015054
Y-014054
X-006906
Y-015054
Y-016054
T06
X003051Y-017142
X004051
Y-016142
Y-015142
X003051
Y-016142
T07
X0Y-008011
T08
X0Y-015945
X-010039Y010039
X010039
M30
