%TF.GenerationSoftware,Altium Limited,Altium Designer,20.1.8 (145)*%
G04 Layer_Color=32768*
%FSLAX44Y44*%
%MOMM*%
%TF.SameCoordinates,136F3CA4-168E-489F-BF15-BD865E51D291*%
%TF.FilePolarity,Negative*%
%TF.FileFunction,Soldermask,Top*%
%TF.Part,Single*%
G01*
G75*
%TA.AperFunction,ComponentPad*%
%ADD55C,1.5000*%
G04:AMPARAMS|DCode=56|XSize=1.5mm|YSize=1.5mm|CornerRadius=0.15mm|HoleSize=0mm|Usage=FLASHONLY|Rotation=180.000|XOffset=0mm|YOffset=0mm|HoleType=Round|Shape=RoundedRectangle|*
%AMROUNDEDRECTD56*
21,1,1.5000,1.2000,0,0,180.0*
21,1,1.2000,1.5000,0,0,180.0*
1,1,0.3000,-0.6000,0.6000*
1,1,0.3000,0.6000,0.6000*
1,1,0.3000,0.6000,-0.6000*
1,1,0.3000,-0.6000,-0.6000*
%
%ADD56ROUNDEDRECTD56*%
%TA.AperFunction,ViaPad*%
%ADD109C,5.0000*%
%TA.AperFunction,ComponentPad*%
%ADD110O,2.3500X1.2500*%
%ADD111O,2.0500X1.2500*%
G04:AMPARAMS|DCode=112|XSize=1.65mm|YSize=1.65mm|CornerRadius=0.2625mm|HoleSize=0mm|Usage=FLASHONLY|Rotation=270.000|XOffset=0mm|YOffset=0mm|HoleType=Round|Shape=RoundedRectangle|*
%AMROUNDEDRECTD112*
21,1,1.6500,1.1250,0,0,270.0*
21,1,1.1250,1.6500,0,0,270.0*
1,1,0.5250,-0.5625,-0.5625*
1,1,0.5250,-0.5625,0.5625*
1,1,0.5250,0.5625,0.5625*
1,1,0.5250,0.5625,-0.5625*
%
%ADD112ROUNDEDRECTD112*%
%ADD113C,1.6500*%
%TA.AperFunction,SMDPad,CuDef*%
G04:AMPARAMS|DCode=114|XSize=0.95mm|YSize=0.95mm|CornerRadius=0.079mm|HoleSize=0mm|Usage=FLASHONLY|Rotation=270.000|XOffset=0mm|YOffset=0mm|HoleType=Round|Shape=RoundedRectangle|*
%AMROUNDEDRECTD114*
21,1,0.9500,0.7920,0,0,270.0*
21,1,0.7920,0.9500,0,0,270.0*
1,1,0.1580,-0.3960,-0.3960*
1,1,0.1580,-0.3960,0.3960*
1,1,0.1580,0.3960,0.3960*
1,1,0.1580,0.3960,-0.3960*
%
%ADD114ROUNDEDRECTD114*%
G04:AMPARAMS|DCode=115|XSize=0.95mm|YSize=0.8mm|CornerRadius=0.0535mm|HoleSize=0mm|Usage=FLASHONLY|Rotation=270.000|XOffset=0mm|YOffset=0mm|HoleType=Round|Shape=RoundedRectangle|*
%AMROUNDEDRECTD115*
21,1,0.9500,0.6930,0,0,270.0*
21,1,0.8430,0.8000,0,0,270.0*
1,1,0.1070,-0.3465,-0.4215*
1,1,0.1070,-0.3465,0.4215*
1,1,0.1070,0.3465,0.4215*
1,1,0.1070,0.3465,-0.4215*
%
%ADD115ROUNDEDRECTD115*%
G04:AMPARAMS|DCode=116|XSize=0.95mm|YSize=0.8mm|CornerRadius=0.0535mm|HoleSize=0mm|Usage=FLASHONLY|Rotation=0.000|XOffset=0mm|YOffset=0mm|HoleType=Round|Shape=RoundedRectangle|*
%AMROUNDEDRECTD116*
21,1,0.9500,0.6930,0,0,0.0*
21,1,0.8430,0.8000,0,0,0.0*
1,1,0.1070,0.4215,-0.3465*
1,1,0.1070,-0.4215,-0.3465*
1,1,0.1070,-0.4215,0.3465*
1,1,0.1070,0.4215,0.3465*
%
%ADD116ROUNDEDRECTD116*%
G04:AMPARAMS|DCode=117|XSize=0.95mm|YSize=0.8mm|CornerRadius=0.0535mm|HoleSize=0mm|Usage=FLASHONLY|Rotation=354.000|XOffset=0mm|YOffset=0mm|HoleType=Round|Shape=RoundedRectangle|*
%AMROUNDEDRECTD117*
21,1,0.9500,0.6930,0,0,354.0*
21,1,0.8430,0.8000,0,0,354.0*
1,1,0.1070,0.3830,-0.3887*
1,1,0.1070,-0.4554,-0.3005*
1,1,0.1070,-0.3830,0.3887*
1,1,0.1070,0.4554,0.3005*
%
%ADD117ROUNDEDRECTD117*%
G04:AMPARAMS|DCode=118|XSize=0.95mm|YSize=0.8mm|CornerRadius=0.0535mm|HoleSize=0mm|Usage=FLASHONLY|Rotation=348.000|XOffset=0mm|YOffset=0mm|HoleType=Round|Shape=RoundedRectangle|*
%AMROUNDEDRECTD118*
21,1,0.9500,0.6930,0,0,348.0*
21,1,0.8430,0.8000,0,0,348.0*
1,1,0.1070,0.3403,-0.4266*
1,1,0.1070,-0.4843,-0.2513*
1,1,0.1070,-0.3403,0.4266*
1,1,0.1070,0.4843,0.2513*
%
%ADD118ROUNDEDRECTD118*%
G04:AMPARAMS|DCode=119|XSize=0.95mm|YSize=0.8mm|CornerRadius=0.0535mm|HoleSize=0mm|Usage=FLASHONLY|Rotation=342.000|XOffset=0mm|YOffset=0mm|HoleType=Round|Shape=RoundedRectangle|*
%AMROUNDEDRECTD119*
21,1,0.9500,0.6930,0,0,342.0*
21,1,0.8430,0.8000,0,0,342.0*
1,1,0.1070,0.2938,-0.4598*
1,1,0.1070,-0.5080,-0.1993*
1,1,0.1070,-0.2938,0.4598*
1,1,0.1070,0.5080,0.1993*
%
%ADD119ROUNDEDRECTD119*%
G04:AMPARAMS|DCode=120|XSize=0.95mm|YSize=0.8mm|CornerRadius=0.0535mm|HoleSize=0mm|Usage=FLASHONLY|Rotation=336.000|XOffset=0mm|YOffset=0mm|HoleType=Round|Shape=RoundedRectangle|*
%AMROUNDEDRECTD120*
21,1,0.9500,0.6930,0,0,336.0*
21,1,0.8430,0.8000,0,0,336.0*
1,1,0.1070,0.2441,-0.4880*
1,1,0.1070,-0.5260,-0.1451*
1,1,0.1070,-0.2441,0.4880*
1,1,0.1070,0.5260,0.1451*
%
%ADD120ROUNDEDRECTD120*%
G04:AMPARAMS|DCode=121|XSize=0.95mm|YSize=0.8mm|CornerRadius=0.0535mm|HoleSize=0mm|Usage=FLASHONLY|Rotation=330.000|XOffset=0mm|YOffset=0mm|HoleType=Round|Shape=RoundedRectangle|*
%AMROUNDEDRECTD121*
21,1,0.9500,0.6930,0,0,330.0*
21,1,0.8430,0.8000,0,0,330.0*
1,1,0.1070,0.1918,-0.5108*
1,1,0.1070,-0.5383,-0.0893*
1,1,0.1070,-0.1918,0.5108*
1,1,0.1070,0.5383,0.0893*
%
%ADD121ROUNDEDRECTD121*%
G04:AMPARAMS|DCode=122|XSize=0.95mm|YSize=0.8mm|CornerRadius=0.0535mm|HoleSize=0mm|Usage=FLASHONLY|Rotation=329.996|XOffset=0mm|YOffset=0mm|HoleType=Round|Shape=RoundedRectangle|*
%AMROUNDEDRECTD122*
21,1,0.9500,0.6930,0,0,330.0*
21,1,0.8430,0.8000,0,0,330.0*
1,1,0.1070,0.1918,-0.5108*
1,1,0.1070,-0.5383,-0.0893*
1,1,0.1070,-0.1918,0.5108*
1,1,0.1070,0.5383,0.0893*
%
%ADD122ROUNDEDRECTD122*%
G04:AMPARAMS|DCode=123|XSize=0.95mm|YSize=0.8mm|CornerRadius=0.0535mm|HoleSize=0mm|Usage=FLASHONLY|Rotation=324.000|XOffset=0mm|YOffset=0mm|HoleType=Round|Shape=RoundedRectangle|*
%AMROUNDEDRECTD123*
21,1,0.9500,0.6930,0,0,324.0*
21,1,0.8430,0.8000,0,0,324.0*
1,1,0.1070,0.1373,-0.5281*
1,1,0.1070,-0.5447,-0.0326*
1,1,0.1070,-0.1373,0.5281*
1,1,0.1070,0.5447,0.0326*
%
%ADD123ROUNDEDRECTD123*%
G04:AMPARAMS|DCode=124|XSize=0.95mm|YSize=0.8mm|CornerRadius=0.0535mm|HoleSize=0mm|Usage=FLASHONLY|Rotation=318.000|XOffset=0mm|YOffset=0mm|HoleType=Round|Shape=RoundedRectangle|*
%AMROUNDEDRECTD124*
21,1,0.9500,0.6930,0,0,318.0*
21,1,0.8430,0.8000,0,0,318.0*
1,1,0.1070,0.0814,-0.5395*
1,1,0.1070,-0.5451,0.0245*
1,1,0.1070,-0.0814,0.5395*
1,1,0.1070,0.5451,-0.0245*
%
%ADD124ROUNDEDRECTD124*%
G04:AMPARAMS|DCode=125|XSize=0.95mm|YSize=0.8mm|CornerRadius=0.0535mm|HoleSize=0mm|Usage=FLASHONLY|Rotation=312.000|XOffset=0mm|YOffset=0mm|HoleType=Round|Shape=RoundedRectangle|*
%AMROUNDEDRECTD125*
21,1,0.9500,0.6930,0,0,312.0*
21,1,0.8430,0.8000,0,0,312.0*
1,1,0.1070,0.0245,-0.5451*
1,1,0.1070,-0.5395,0.0814*
1,1,0.1070,-0.0245,0.5451*
1,1,0.1070,0.5395,-0.0814*
%
%ADD125ROUNDEDRECTD125*%
G04:AMPARAMS|DCode=126|XSize=0.95mm|YSize=0.8mm|CornerRadius=0.0535mm|HoleSize=0mm|Usage=FLASHONLY|Rotation=306.000|XOffset=0mm|YOffset=0mm|HoleType=Round|Shape=RoundedRectangle|*
%AMROUNDEDRECTD126*
21,1,0.9500,0.6930,0,0,306.0*
21,1,0.8430,0.8000,0,0,306.0*
1,1,0.1070,-0.0326,-0.5447*
1,1,0.1070,-0.5281,0.1373*
1,1,0.1070,0.0326,0.5447*
1,1,0.1070,0.5281,-0.1373*
%
%ADD126ROUNDEDRECTD126*%
G04:AMPARAMS|DCode=127|XSize=0.95mm|YSize=0.8mm|CornerRadius=0.0535mm|HoleSize=0mm|Usage=FLASHONLY|Rotation=300.000|XOffset=0mm|YOffset=0mm|HoleType=Round|Shape=RoundedRectangle|*
%AMROUNDEDRECTD127*
21,1,0.9500,0.6930,0,0,300.0*
21,1,0.8430,0.8000,0,0,300.0*
1,1,0.1070,-0.0893,-0.5383*
1,1,0.1070,-0.5108,0.1918*
1,1,0.1070,0.0893,0.5383*
1,1,0.1070,0.5108,-0.1918*
%
%ADD127ROUNDEDRECTD127*%
G04:AMPARAMS|DCode=128|XSize=0.95mm|YSize=0.8mm|CornerRadius=0.0535mm|HoleSize=0mm|Usage=FLASHONLY|Rotation=294.000|XOffset=0mm|YOffset=0mm|HoleType=Round|Shape=RoundedRectangle|*
%AMROUNDEDRECTD128*
21,1,0.9500,0.6930,0,0,294.0*
21,1,0.8430,0.8000,0,0,294.0*
1,1,0.1070,-0.1451,-0.5260*
1,1,0.1070,-0.4880,0.2441*
1,1,0.1070,0.1451,0.5260*
1,1,0.1070,0.4880,-0.2441*
%
%ADD128ROUNDEDRECTD128*%
G04:AMPARAMS|DCode=129|XSize=0.95mm|YSize=0.8mm|CornerRadius=0.0535mm|HoleSize=0mm|Usage=FLASHONLY|Rotation=288.000|XOffset=0mm|YOffset=0mm|HoleType=Round|Shape=RoundedRectangle|*
%AMROUNDEDRECTD129*
21,1,0.9500,0.6930,0,0,288.0*
21,1,0.8430,0.8000,0,0,288.0*
1,1,0.1070,-0.1993,-0.5080*
1,1,0.1070,-0.4598,0.2938*
1,1,0.1070,0.1993,0.5080*
1,1,0.1070,0.4598,-0.2938*
%
%ADD129ROUNDEDRECTD129*%
G04:AMPARAMS|DCode=130|XSize=0.95mm|YSize=0.8mm|CornerRadius=0.0535mm|HoleSize=0mm|Usage=FLASHONLY|Rotation=282.000|XOffset=0mm|YOffset=0mm|HoleType=Round|Shape=RoundedRectangle|*
%AMROUNDEDRECTD130*
21,1,0.9500,0.6930,0,0,282.0*
21,1,0.8430,0.8000,0,0,282.0*
1,1,0.1070,-0.2513,-0.4843*
1,1,0.1070,-0.4266,0.3403*
1,1,0.1070,0.2513,0.4843*
1,1,0.1070,0.4266,-0.3403*
%
%ADD130ROUNDEDRECTD130*%
G04:AMPARAMS|DCode=131|XSize=0.95mm|YSize=0.8mm|CornerRadius=0.0535mm|HoleSize=0mm|Usage=FLASHONLY|Rotation=276.000|XOffset=0mm|YOffset=0mm|HoleType=Round|Shape=RoundedRectangle|*
%AMROUNDEDRECTD131*
21,1,0.9500,0.6930,0,0,276.0*
21,1,0.8430,0.8000,0,0,276.0*
1,1,0.1070,-0.3005,-0.4554*
1,1,0.1070,-0.3887,0.3830*
1,1,0.1070,0.3005,0.4554*
1,1,0.1070,0.3887,-0.3830*
%
%ADD131ROUNDEDRECTD131*%
G04:AMPARAMS|DCode=132|XSize=0.95mm|YSize=0.8mm|CornerRadius=0.0535mm|HoleSize=0mm|Usage=FLASHONLY|Rotation=264.000|XOffset=0mm|YOffset=0mm|HoleType=Round|Shape=RoundedRectangle|*
%AMROUNDEDRECTD132*
21,1,0.9500,0.6930,0,0,264.0*
21,1,0.8430,0.8000,0,0,264.0*
1,1,0.1070,-0.3887,-0.3830*
1,1,0.1070,-0.3005,0.4554*
1,1,0.1070,0.3887,0.3830*
1,1,0.1070,0.3005,-0.4554*
%
%ADD132ROUNDEDRECTD132*%
G04:AMPARAMS|DCode=133|XSize=0.95mm|YSize=0.8mm|CornerRadius=0.0535mm|HoleSize=0mm|Usage=FLASHONLY|Rotation=258.000|XOffset=0mm|YOffset=0mm|HoleType=Round|Shape=RoundedRectangle|*
%AMROUNDEDRECTD133*
21,1,0.9500,0.6930,0,0,258.0*
21,1,0.8430,0.8000,0,0,258.0*
1,1,0.1070,-0.4266,-0.3403*
1,1,0.1070,-0.2513,0.4843*
1,1,0.1070,0.4266,0.3403*
1,1,0.1070,0.2513,-0.4843*
%
%ADD133ROUNDEDRECTD133*%
G04:AMPARAMS|DCode=134|XSize=0.95mm|YSize=0.8mm|CornerRadius=0.0535mm|HoleSize=0mm|Usage=FLASHONLY|Rotation=252.000|XOffset=0mm|YOffset=0mm|HoleType=Round|Shape=RoundedRectangle|*
%AMROUNDEDRECTD134*
21,1,0.9500,0.6930,0,0,252.0*
21,1,0.8430,0.8000,0,0,252.0*
1,1,0.1070,-0.4598,-0.2938*
1,1,0.1070,-0.1993,0.5080*
1,1,0.1070,0.4598,0.2938*
1,1,0.1070,0.1993,-0.5080*
%
%ADD134ROUNDEDRECTD134*%
G04:AMPARAMS|DCode=135|XSize=0.95mm|YSize=0.8mm|CornerRadius=0.0535mm|HoleSize=0mm|Usage=FLASHONLY|Rotation=245.984|XOffset=0mm|YOffset=0mm|HoleType=Round|Shape=RoundedRectangle|*
%AMROUNDEDRECTD135*
21,1,0.9500,0.6930,0,0,246.0*
21,1,0.8430,0.8000,0,0,246.0*
1,1,0.1070,-0.4880,-0.2440*
1,1,0.1070,-0.1450,0.5260*
1,1,0.1070,0.4880,0.2440*
1,1,0.1070,0.1450,-0.5260*
%
%ADD135ROUNDEDRECTD135*%
G04:AMPARAMS|DCode=136|XSize=0.95mm|YSize=0.8mm|CornerRadius=0.0535mm|HoleSize=0mm|Usage=FLASHONLY|Rotation=240.000|XOffset=0mm|YOffset=0mm|HoleType=Round|Shape=RoundedRectangle|*
%AMROUNDEDRECTD136*
21,1,0.9500,0.6930,0,0,240.0*
21,1,0.8430,0.8000,0,0,240.0*
1,1,0.1070,-0.5108,-0.1918*
1,1,0.1070,-0.0893,0.5383*
1,1,0.1070,0.5108,0.1918*
1,1,0.1070,0.0893,-0.5383*
%
%ADD136ROUNDEDRECTD136*%
G04:AMPARAMS|DCode=137|XSize=0.95mm|YSize=0.8mm|CornerRadius=0.0535mm|HoleSize=0mm|Usage=FLASHONLY|Rotation=240.000|XOffset=0mm|YOffset=0mm|HoleType=Round|Shape=RoundedRectangle|*
%AMROUNDEDRECTD137*
21,1,0.9500,0.6930,0,0,240.0*
21,1,0.8430,0.8000,0,0,240.0*
1,1,0.1070,-0.5108,-0.1918*
1,1,0.1070,-0.0893,0.5383*
1,1,0.1070,0.5108,0.1918*
1,1,0.1070,0.0893,-0.5383*
%
%ADD137ROUNDEDRECTD137*%
G04:AMPARAMS|DCode=138|XSize=0.95mm|YSize=0.8mm|CornerRadius=0.0535mm|HoleSize=0mm|Usage=FLASHONLY|Rotation=234.000|XOffset=0mm|YOffset=0mm|HoleType=Round|Shape=RoundedRectangle|*
%AMROUNDEDRECTD138*
21,1,0.9500,0.6930,0,0,234.0*
21,1,0.8430,0.8000,0,0,234.0*
1,1,0.1070,-0.5281,-0.1373*
1,1,0.1070,-0.0326,0.5447*
1,1,0.1070,0.5281,0.1373*
1,1,0.1070,0.0326,-0.5447*
%
%ADD138ROUNDEDRECTD138*%
G04:AMPARAMS|DCode=139|XSize=0.95mm|YSize=0.8mm|CornerRadius=0.0535mm|HoleSize=0mm|Usage=FLASHONLY|Rotation=228.000|XOffset=0mm|YOffset=0mm|HoleType=Round|Shape=RoundedRectangle|*
%AMROUNDEDRECTD139*
21,1,0.9500,0.6930,0,0,228.0*
21,1,0.8430,0.8000,0,0,228.0*
1,1,0.1070,-0.5395,-0.0814*
1,1,0.1070,0.0245,0.5451*
1,1,0.1070,0.5395,0.0814*
1,1,0.1070,-0.0245,-0.5451*
%
%ADD139ROUNDEDRECTD139*%
G04:AMPARAMS|DCode=140|XSize=0.95mm|YSize=0.8mm|CornerRadius=0.0535mm|HoleSize=0mm|Usage=FLASHONLY|Rotation=222.000|XOffset=0mm|YOffset=0mm|HoleType=Round|Shape=RoundedRectangle|*
%AMROUNDEDRECTD140*
21,1,0.9500,0.6930,0,0,222.0*
21,1,0.8430,0.8000,0,0,222.0*
1,1,0.1070,-0.5451,-0.0245*
1,1,0.1070,0.0814,0.5395*
1,1,0.1070,0.5451,0.0245*
1,1,0.1070,-0.0814,-0.5395*
%
%ADD140ROUNDEDRECTD140*%
G04:AMPARAMS|DCode=141|XSize=0.95mm|YSize=0.8mm|CornerRadius=0.0535mm|HoleSize=0mm|Usage=FLASHONLY|Rotation=216.000|XOffset=0mm|YOffset=0mm|HoleType=Round|Shape=RoundedRectangle|*
%AMROUNDEDRECTD141*
21,1,0.9500,0.6930,0,0,216.0*
21,1,0.8430,0.8000,0,0,216.0*
1,1,0.1070,-0.5447,0.0326*
1,1,0.1070,0.1373,0.5281*
1,1,0.1070,0.5447,-0.0326*
1,1,0.1070,-0.1373,-0.5281*
%
%ADD141ROUNDEDRECTD141*%
G04:AMPARAMS|DCode=142|XSize=0.95mm|YSize=0.8mm|CornerRadius=0.0535mm|HoleSize=0mm|Usage=FLASHONLY|Rotation=210.000|XOffset=0mm|YOffset=0mm|HoleType=Round|Shape=RoundedRectangle|*
%AMROUNDEDRECTD142*
21,1,0.9500,0.6930,0,0,210.0*
21,1,0.8430,0.8000,0,0,210.0*
1,1,0.1070,-0.5383,0.0893*
1,1,0.1070,0.1918,0.5108*
1,1,0.1070,0.5383,-0.0893*
1,1,0.1070,-0.1918,-0.5108*
%
%ADD142ROUNDEDRECTD142*%
G04:AMPARAMS|DCode=143|XSize=0.95mm|YSize=0.8mm|CornerRadius=0.0535mm|HoleSize=0mm|Usage=FLASHONLY|Rotation=204.000|XOffset=0mm|YOffset=0mm|HoleType=Round|Shape=RoundedRectangle|*
%AMROUNDEDRECTD143*
21,1,0.9500,0.6930,0,0,204.0*
21,1,0.8430,0.8000,0,0,204.0*
1,1,0.1070,-0.5260,0.1451*
1,1,0.1070,0.2441,0.4880*
1,1,0.1070,0.5260,-0.1451*
1,1,0.1070,-0.2441,-0.4880*
%
%ADD143ROUNDEDRECTD143*%
G04:AMPARAMS|DCode=144|XSize=0.95mm|YSize=0.8mm|CornerRadius=0.0535mm|HoleSize=0mm|Usage=FLASHONLY|Rotation=198.000|XOffset=0mm|YOffset=0mm|HoleType=Round|Shape=RoundedRectangle|*
%AMROUNDEDRECTD144*
21,1,0.9500,0.6930,0,0,198.0*
21,1,0.8430,0.8000,0,0,198.0*
1,1,0.1070,-0.5080,0.1993*
1,1,0.1070,0.2938,0.4598*
1,1,0.1070,0.5080,-0.1993*
1,1,0.1070,-0.2938,-0.4598*
%
%ADD144ROUNDEDRECTD144*%
G04:AMPARAMS|DCode=145|XSize=0.95mm|YSize=0.8mm|CornerRadius=0.0535mm|HoleSize=0mm|Usage=FLASHONLY|Rotation=191.972|XOffset=0mm|YOffset=0mm|HoleType=Round|Shape=RoundedRectangle|*
%AMROUNDEDRECTD145*
21,1,0.9500,0.6930,0,0,192.0*
21,1,0.8430,0.8000,0,0,192.0*
1,1,0.1070,-0.4842,0.2515*
1,1,0.1070,0.3404,0.4264*
1,1,0.1070,0.4842,-0.2515*
1,1,0.1070,-0.3404,-0.4264*
%
%ADD145ROUNDEDRECTD145*%
G04:AMPARAMS|DCode=146|XSize=0.95mm|YSize=0.8mm|CornerRadius=0.0535mm|HoleSize=0mm|Usage=FLASHONLY|Rotation=186.000|XOffset=0mm|YOffset=0mm|HoleType=Round|Shape=RoundedRectangle|*
%AMROUNDEDRECTD146*
21,1,0.9500,0.6930,0,0,186.0*
21,1,0.8430,0.8000,0,0,186.0*
1,1,0.1070,-0.4554,0.3005*
1,1,0.1070,0.3830,0.3887*
1,1,0.1070,0.4554,-0.3005*
1,1,0.1070,-0.3830,-0.3887*
%
%ADD146ROUNDEDRECTD146*%
D55*
X102900Y-435400D02*
D03*
Y-384600D02*
D03*
X77500D02*
D03*
Y-410000D02*
D03*
Y-435400D02*
D03*
D56*
X102900Y-410000D02*
D03*
D109*
X0Y-405000D02*
D03*
X255000Y255000D02*
D03*
X-255000D02*
D03*
D110*
X0Y-350750D02*
D03*
D111*
X28000Y-329250D02*
D03*
X-28000D02*
D03*
D112*
X-150023Y-356980D02*
D03*
D113*
Y-382380D02*
D03*
Y-407780D02*
D03*
Y-433180D02*
D03*
X-175424Y-356980D02*
D03*
Y-382380D02*
D03*
Y-407780D02*
D03*
Y-433180D02*
D03*
D114*
X-270052Y162530D02*
D03*
Y177530D02*
D03*
D115*
X256000Y0D02*
D03*
X231000D02*
D03*
X245000D02*
D03*
X270000D02*
D03*
X-231000D02*
D03*
X-245000D02*
D03*
X-270000D02*
D03*
X-256000D02*
D03*
D116*
X0Y256000D02*
D03*
Y270000D02*
D03*
Y245000D02*
D03*
Y231000D02*
D03*
Y-231000D02*
D03*
Y-245000D02*
D03*
Y-270000D02*
D03*
Y-256000D02*
D03*
X-1524Y38720D02*
D03*
Y52720D02*
D03*
X1524Y80040D02*
D03*
Y66040D02*
D03*
D117*
X26759Y254597D02*
D03*
X28223Y268521D02*
D03*
X-26759Y-254598D02*
D03*
X-28223Y-268521D02*
D03*
D118*
X56136Y264100D02*
D03*
X53225Y250406D02*
D03*
X-56136Y-264100D02*
D03*
X-53225Y-250406D02*
D03*
D119*
X79108Y243470D02*
D03*
X83435Y256785D02*
D03*
X-79108Y-243470D02*
D03*
X-83435Y-256785D02*
D03*
D120*
X109819Y246657D02*
D03*
X104125Y233868D02*
D03*
X-109819Y-246657D02*
D03*
X-104125Y-233868D02*
D03*
D121*
X128000Y221702D02*
D03*
X135000Y233827D02*
D03*
X-115500Y-200052D02*
D03*
X-122500Y-212176D02*
D03*
X-135000Y-233827D02*
D03*
X-128000Y-221702D02*
D03*
D122*
X122513Y212169D02*
D03*
X115513Y200045D02*
D03*
D123*
X150473Y207108D02*
D03*
X158702Y218435D02*
D03*
X-150473Y-207108D02*
D03*
X-158702Y-218435D02*
D03*
D124*
X180665Y200649D02*
D03*
X171297Y190245D02*
D03*
X-180665Y-200649D02*
D03*
X-171297Y-190245D02*
D03*
D125*
X190245Y171297D02*
D03*
X200649Y180665D02*
D03*
X-190245Y-171297D02*
D03*
X-200649Y-180665D02*
D03*
D126*
X218435Y158702D02*
D03*
X207108Y150473D02*
D03*
X-218435Y-158702D02*
D03*
X-207108Y-150473D02*
D03*
D127*
X221702Y128000D02*
D03*
X233827Y135000D02*
D03*
X212176Y122500D02*
D03*
X200052Y115500D02*
D03*
X-200052Y-115500D02*
D03*
X-212176Y-122500D02*
D03*
X-233827Y-135000D02*
D03*
X-221702Y-128000D02*
D03*
D128*
X233868Y104125D02*
D03*
X246657Y109819D02*
D03*
X-233868Y-104125D02*
D03*
X-246657Y-109819D02*
D03*
D129*
X256785Y83435D02*
D03*
X243470Y79108D02*
D03*
X-256785Y-83435D02*
D03*
X-243470Y-79108D02*
D03*
D130*
X250406Y53225D02*
D03*
X264100Y56136D02*
D03*
X-250406Y-53225D02*
D03*
X-264100Y-56136D02*
D03*
D131*
X268521Y28223D02*
D03*
X254598Y26759D02*
D03*
X-268521Y-28223D02*
D03*
X-254598Y-26759D02*
D03*
D132*
X254598D02*
D03*
X268521Y-28223D02*
D03*
X-254598Y26759D02*
D03*
X-268521Y28223D02*
D03*
D133*
X264100Y-56136D02*
D03*
X250406Y-53225D02*
D03*
X-264100Y56136D02*
D03*
X-250406Y53225D02*
D03*
D134*
X243470Y-79108D02*
D03*
X256785Y-83435D02*
D03*
X-243470Y79108D02*
D03*
X-256787Y83429D02*
D03*
D135*
X246656Y-109822D02*
D03*
X233868Y-104124D02*
D03*
X-246657Y109819D02*
D03*
X-233868Y104125D02*
D03*
D136*
X200052Y-115500D02*
D03*
X212176Y-122500D02*
D03*
X-200052Y115500D02*
D03*
X-212176Y122500D02*
D03*
X-233827Y135000D02*
D03*
X-221702Y128000D02*
D03*
D137*
X233827Y-135000D02*
D03*
X221702Y-128000D02*
D03*
D138*
X207108Y-150473D02*
D03*
X218435Y-158702D02*
D03*
X-207108Y150473D02*
D03*
X-218435Y158702D02*
D03*
D139*
X200649Y-180665D02*
D03*
X190245Y-171297D02*
D03*
X-200649Y180665D02*
D03*
X-190245Y171297D02*
D03*
D140*
X171297Y-190245D02*
D03*
X180665Y-200649D02*
D03*
X-171297Y190245D02*
D03*
X-180665Y200649D02*
D03*
D141*
X158702Y-218435D02*
D03*
X150473Y-207108D02*
D03*
X-158702Y218435D02*
D03*
X-150473Y207108D02*
D03*
D142*
X115500Y-200052D02*
D03*
X122500Y-212176D02*
D03*
X135000Y-233827D02*
D03*
X128000Y-221702D02*
D03*
X-128000Y221702D02*
D03*
X-135000Y233827D02*
D03*
X-122500Y212176D02*
D03*
X-115500Y200052D02*
D03*
D143*
X104125Y-233868D02*
D03*
X109819Y-246657D02*
D03*
X-104125Y233868D02*
D03*
X-109819Y246657D02*
D03*
D144*
X83435Y-256785D02*
D03*
X79108Y-243470D02*
D03*
X-83435Y256785D02*
D03*
X-79108Y243470D02*
D03*
D145*
X53225Y-250406D02*
D03*
X56130Y-264101D02*
D03*
X-53225Y250406D02*
D03*
X-56136Y264100D02*
D03*
D146*
X28223Y-268521D02*
D03*
X26759Y-254598D02*
D03*
X-28223Y268521D02*
D03*
X-26759Y254598D02*
D03*
%TF.MD5,3a5218aa7f7b9fa564af683cbcb44dde*%
M02*
