%TF.GenerationSoftware,Altium Limited,Altium Designer,20.1.8 (145)*%
G04 Layer_Physical_Order=3*
G04 Layer_Color=16440176*
%FSLAX44Y44*%
%MOMM*%
%TF.SameCoordinates,136F3CA4-168E-489F-BF15-BD865E51D291*%
%TF.FilePolarity,Positive*%
%TF.FileFunction,Copper,L3,Inr,Signal*%
%TF.Part,Single*%
G01*
G75*
%TA.AperFunction,Conductor*%
%ADD10C,0.1270*%
%ADD11C,0.2540*%
%ADD12C,0.1524*%
%ADD47C,0.3048*%
%ADD48C,0.2032*%
%TA.AperFunction,NonConductor*%
%ADD49C,0.2540*%
%TA.AperFunction,ViaPad*%
%ADD50C,5.5000*%
%TA.AperFunction,ComponentPad*%
%ADD51C,0.5600*%
%ADD52O,2.2000X1.1000*%
%ADD53O,1.9000X1.1000*%
G04:AMPARAMS|DCode=54|XSize=1.5mm|YSize=1.5mm|CornerRadius=0.1875mm|HoleSize=0mm|Usage=FLASHONLY|Rotation=270.000|XOffset=0mm|YOffset=0mm|HoleType=Round|Shape=RoundedRectangle|*
%AMROUNDEDRECTD54*
21,1,1.5000,1.1250,0,0,270.0*
21,1,1.1250,1.5000,0,0,270.0*
1,1,0.3750,-0.5625,-0.5625*
1,1,0.3750,-0.5625,0.5625*
1,1,0.3750,0.5625,0.5625*
1,1,0.3750,0.5625,-0.5625*
%
%ADD54ROUNDEDRECTD54*%
%ADD55C,1.5000*%
G04:AMPARAMS|DCode=56|XSize=1.5mm|YSize=1.5mm|CornerRadius=0.15mm|HoleSize=0mm|Usage=FLASHONLY|Rotation=180.000|XOffset=0mm|YOffset=0mm|HoleType=Round|Shape=RoundedRectangle|*
%AMROUNDEDRECTD56*
21,1,1.5000,1.2000,0,0,180.0*
21,1,1.2000,1.5000,0,0,180.0*
1,1,0.3000,-0.6000,0.6000*
1,1,0.3000,0.6000,0.6000*
1,1,0.3000,0.6000,-0.6000*
1,1,0.3000,-0.6000,-0.6000*
%
%ADD56ROUNDEDRECTD56*%
%TA.AperFunction,ViaPad*%
%ADD57C,0.7600*%
%ADD58C,0.4600*%
%ADD59C,1.8000*%
%TA.AperFunction,Conductor*%
%ADD60C,0.2286*%
D10*
X179767Y-4135D02*
X206756Y22854D01*
Y47649D01*
X210891Y23756D02*
Y49362D01*
X180714Y-6421D02*
X210891Y23756D01*
X175540Y74930D02*
X185263Y65207D01*
Y40989D02*
Y65207D01*
X170135Y25861D02*
X185263Y40989D01*
X170135Y7873D02*
Y25861D01*
X144685Y4865D02*
X167127D01*
X170135Y7873D01*
X17135Y130969D02*
X27710D01*
X-59010Y207115D02*
X17135Y130969D01*
X-31157Y144695D02*
X-17526Y131064D01*
X-10688Y124226D01*
Y121621D02*
Y124226D01*
Y121621D02*
X-8265Y119199D01*
X-317D01*
X-82643Y144695D02*
X-31157D01*
X-93816Y133522D02*
X-93816D01*
X-82643Y144695D01*
X-53411Y208629D02*
X-44198D01*
X27662Y136769D01*
X62619Y206052D02*
X62619D01*
X33500Y130208D02*
Y176933D01*
X62619Y206052D01*
X-174071Y-13171D02*
X-161977D01*
X-208088Y20846D02*
X-174071Y-13171D01*
X-213106Y31057D02*
X-208088Y26039D01*
Y20846D02*
Y26039D01*
X-198176Y-23912D02*
X-152011D01*
X-209410Y-35146D02*
X-198176Y-23912D01*
X-200480Y-56794D02*
Y-42725D01*
X-206111Y-62425D02*
X-200480Y-56794D01*
X173736Y111039D02*
Y113555D01*
X196380Y88395D02*
X196380D01*
X173736Y111039D02*
X196380Y88395D01*
X199209Y61044D02*
Y70366D01*
Y61044D02*
X210891Y49362D01*
X175540Y74930D02*
X175540D01*
X31643Y119199D02*
X46787Y134343D01*
X3752Y119199D02*
X31643D01*
X3430Y119521D02*
X3752Y119199D01*
X5Y119521D02*
X3430D01*
X-317Y119199D02*
X5Y119521D01*
X-136191Y-4241D02*
X-103421D01*
X-97000Y2180D01*
X-22692Y-9806D02*
X9682D01*
X18500Y-988D02*
Y2180D01*
X9682Y-9806D02*
X18500Y-988D01*
X133364Y-6527D02*
X137991Y-11153D01*
X163723D02*
X165004Y-9872D01*
X137991Y-11153D02*
X163723D01*
X171196Y-99060D02*
Y-90989D01*
X172272Y-89912D01*
X175540D01*
X-69250Y-154230D02*
Y-136820D01*
X45040Y-146173D02*
X52506Y-138707D01*
X42114Y-154230D02*
X45040Y-151303D01*
Y-146173D01*
X24250Y-154230D02*
X42114D01*
X52506Y-138707D02*
X80217D01*
X-21565Y-134135D02*
X103399D01*
X110287Y-141023D01*
X127456D01*
Y-141000D02*
X137888D01*
X127456Y-173591D02*
Y-141000D01*
X137888D02*
X142000Y-136888D01*
X50115Y-150070D02*
X71276D01*
X78504Y-142842D01*
X265735Y133858D02*
X278577D01*
X-178513Y-56261D02*
X-133350Y-11099D01*
X-178513Y-67055D02*
Y-56261D01*
X-133350Y-11099D02*
X-97965D01*
X-176227Y-57208D02*
X-132403Y-13385D01*
X-176227Y-123785D02*
Y-57208D01*
X-132403Y-13385D02*
X-97019D01*
X-173941Y-120224D02*
Y-58155D01*
X-131457Y-15671D01*
X-96072D01*
X-89826Y-9425D01*
X-29539D01*
X-171655Y-59102D02*
X-130510Y-17957D01*
X-171655Y-73022D02*
Y-59102D01*
X-130510Y-17957D02*
X-95125D01*
X80217Y-138707D02*
X82639Y-141129D01*
Y-141243D02*
Y-141129D01*
Y-141243D02*
X84234Y-142838D01*
Y-143739D02*
Y-142838D01*
X-18003Y-136421D02*
X81163D01*
X83012Y-138270D02*
X86166D01*
X81163Y-136421D02*
X83012Y-138270D01*
X-22537Y-140955D02*
X-18003Y-136421D01*
X-69250Y-136820D02*
X-30098D01*
X-25963Y-140955D01*
X-22537D01*
X-24250Y-136820D02*
X-21565Y-134135D01*
X46787Y134343D02*
X154076D01*
X157000Y131419D01*
X131977Y118691D02*
X168600D01*
X125287Y121955D02*
X128713D01*
X131977Y118691D01*
X121152Y117820D02*
X125287Y121955D01*
X168600Y118691D02*
X173736Y113555D01*
X97000Y117820D02*
X121152D01*
X-283709Y102891D02*
Y112064D01*
Y102891D02*
Y102891D01*
X174180Y-5207D02*
X175394Y-6421D01*
X148848Y-5207D02*
X174180D01*
X175394Y-6421D02*
X180714D01*
X176341Y-4135D02*
X179767D01*
X-245728Y-407780D02*
X-175424D01*
X-263880Y-425932D02*
X-245728Y-407780D01*
X-6553Y123334D02*
Y133890D01*
X-68916Y131236D02*
X-68834Y131318D01*
X-92103Y129387D02*
X-90254Y131236D01*
X-97714Y131572D02*
X-95528Y129387D01*
X-90254Y131236D02*
X-68916D01*
X-95528Y129387D02*
X-92103D01*
X-148823Y-17491D02*
X-141495Y-10163D01*
X-148687Y-11507D02*
X-143713Y-6533D01*
X-149479Y-11507D02*
X-148687D01*
X-143713Y-6533D02*
X-138483D01*
X-136191Y-4241D01*
X-152042Y-13356D02*
X-151328D01*
X-149479Y-11507D01*
X-161977Y-15069D02*
Y-13171D01*
Y-15069D02*
X-157268Y-19777D01*
X-161977Y-13171D02*
Y-11643D01*
X-159982Y-9649D01*
X-159555Y-9221D02*
X-149634D01*
X-157268Y-19777D02*
X-147876D01*
X-169806Y-75438D02*
Y-74871D01*
X-171655Y-73022D02*
X-169806Y-74871D01*
X-201657Y-75585D02*
X-183481D01*
X-204355Y-67952D02*
X-179411D01*
X-178513Y-67055D01*
X-142902Y-14803D02*
X-140287D01*
X-147876Y-19777D02*
X-142902Y-14803D01*
X-153755Y-17491D02*
X-148823D01*
X-157842Y-13404D02*
X-153755Y-17491D01*
X-157842Y-13404D02*
Y-13356D01*
X-112000Y131572D02*
X-97714D01*
X-213984Y-24277D02*
X-213984Y-24277D01*
Y-36420D02*
X-211072Y-39333D01*
X-213984Y-36420D02*
Y-24277D01*
X-87932Y-13997D02*
X-31433D01*
X-89847Y-18527D02*
X-89343Y-18023D01*
Y-15408D01*
X-87932Y-13997D01*
X-84061Y-18132D02*
X-79926Y-22267D01*
X-71238D01*
Y-22267D02*
X-70151Y-21180D01*
X-69250D01*
X-95125Y-17957D02*
X-88879Y-11711D01*
X-30486D01*
X-90773Y-7139D02*
X-28592D01*
X-97019Y-13385D02*
X-90773Y-7139D01*
X-97965Y-11099D02*
X-91720Y-4853D01*
X-27645D01*
X-134297Y-8813D02*
X-98912D01*
X-92666Y-2567D02*
X-38247D01*
X-98912Y-8813D02*
X-92666Y-2567D01*
X-99859Y-6527D02*
X-93613Y-281D01*
X-135244Y-6527D02*
X-99859D01*
X-93613Y-281D02*
X-69985D01*
X-211072Y-42887D02*
X-211036Y-42922D01*
X-211072Y-42887D02*
Y-39333D01*
X-140287Y-14803D02*
X-134297Y-8813D01*
X-149634Y-9221D02*
X-144660Y-4247D01*
X-139430D02*
X-137138Y-1955D01*
X-144660Y-4247D02*
X-139430D01*
X-137138Y-1955D02*
X-116135D01*
X-112000Y2180D01*
X-141495Y-10163D02*
X-138880D01*
X-135244Y-6527D01*
X165004Y-9872D02*
X168712D01*
X-112000Y2180D02*
X-112000D01*
X-67524D02*
X-63500D01*
X-69985Y-281D02*
X-67524Y2180D01*
X97000Y-21180D02*
X100765D01*
X102614Y-19331D02*
X108001D01*
X100765Y-21180D02*
X102614Y-19331D01*
X108001D02*
X110287Y-17045D01*
X113713D01*
X112000Y2180D02*
X116202D01*
X118051Y331D02*
X123001D01*
X116202Y2180D02*
X118051Y331D01*
X123001D02*
X125287Y-1955D01*
X135258D01*
X97434Y2180D02*
X101164D01*
X103013Y331D01*
X108001D01*
X110287Y-1955D01*
X122054D01*
X94775Y-4241D02*
X106108D01*
X108393Y-6527D01*
X120161D01*
X95722Y-1955D02*
X107054D01*
X109340Y-4241D02*
X121108D01*
X107054Y-1955D02*
X109340Y-4241D01*
X122054Y-1955D02*
X124340Y-4241D01*
X-173941Y-120224D02*
X-172092Y-122073D01*
Y-127844D02*
Y-122073D01*
X-172318Y-128071D02*
X-172092Y-127844D01*
X186533Y-56733D02*
Y-45551D01*
X179279Y-38297D02*
X186533Y-45551D01*
X184247Y-59019D02*
X186533Y-56733D01*
X184247Y-68584D02*
Y-59019D01*
X180112Y-72719D02*
X184247Y-68584D01*
Y-55786D02*
Y-46498D01*
X181961Y-58072D02*
X184247Y-55786D01*
X176993Y-39244D02*
X184247Y-46498D01*
X181961Y-54839D02*
Y-47444D01*
X177826Y-58974D02*
X181961Y-54839D01*
X174707Y-40190D02*
X181961Y-47444D01*
X177826Y-64489D02*
Y-58974D01*
X132545Y-8940D02*
X138326Y-14721D01*
X170914D01*
X179279Y-23085D01*
X170135Y-51304D02*
Y-26873D01*
X171033Y-52202D02*
X177826D01*
X170135Y-51304D02*
X171033Y-52202D01*
X175127Y-2921D02*
X176341Y-4135D01*
X177894Y-93406D02*
X179675Y-91625D01*
X177894Y-105853D02*
Y-93406D01*
X179675Y-91625D02*
Y-78129D01*
X175977Y-74431D02*
X179675Y-78129D01*
X175977Y-71006D02*
X178399Y-68584D01*
X179579D01*
X181961Y-66201D01*
X175977Y-74431D02*
Y-71006D01*
X181961Y-66201D02*
Y-58072D01*
X172421Y-43752D02*
X175540Y-46871D01*
X172421Y-43752D02*
Y-25926D01*
X174707Y-40190D02*
Y-24979D01*
X176993Y-39244D02*
Y-24032D01*
X179279Y-38297D02*
Y-23085D01*
X146258Y-7797D02*
X148848Y-5207D01*
X147901Y-2921D02*
X175127D01*
X145311Y-5511D02*
X147901Y-2921D01*
X169968Y-17007D02*
X176993Y-24032D01*
X120141Y-17007D02*
X169968D01*
X119194Y-19293D02*
X169021D01*
X174707Y-24979D01*
X118247Y-21579D02*
X168074D01*
X172421Y-25926D01*
X114685Y-23865D02*
X167127D01*
X170135Y-26873D01*
X142000Y2180D02*
X144685Y4865D01*
X94247Y-14759D02*
X106108D01*
X108393Y-12473D02*
X115607D01*
X106108Y-14759D02*
X108393Y-12473D01*
X95287Y-17045D02*
X107054D01*
X109340Y-14759D02*
X114660D01*
X107054Y-17045D02*
X109340Y-14759D01*
X114660D02*
X119194Y-19293D01*
X69250Y-21180D02*
X69964D01*
X93001Y-19331D02*
X95287Y-17045D01*
X69964Y-21180D02*
X71813Y-19331D01*
X93001D01*
X115607Y-12473D02*
X120141Y-17007D01*
X91961Y-17045D02*
X94247Y-14759D01*
X67537Y-17045D02*
X91961D01*
X63402Y-21180D02*
X67537Y-17045D01*
X54250Y-21180D02*
X63402D01*
X113713Y-17045D02*
X118247Y-21579D01*
X112000Y-21180D02*
X114685Y-23865D01*
X33500Y2180D02*
X57473D01*
X61735Y-2082D01*
X65265D01*
X90767Y-233D02*
X94775Y-4241D01*
X67114Y-233D02*
X90767D01*
X120161Y-6527D02*
X122574Y-8940D01*
X132545D01*
X65265Y-2082D02*
X67114Y-233D01*
X91587Y2180D02*
X95722Y-1955D01*
X63500Y2180D02*
X91587D01*
X137867Y-7797D02*
X146258D01*
X123393Y-6527D02*
X133364D01*
X121108Y-4241D02*
X123393Y-6527D01*
X135258Y-1955D02*
X138814Y-5511D01*
X124340Y-4241D02*
X134311D01*
X137867Y-7797D01*
X138814Y-5511D02*
X145311D01*
X-28592Y-7139D02*
X-23639Y-12092D01*
X15162D02*
X24250Y-21180D01*
X-23639Y-12092D02*
X15162D01*
X-38247Y-2567D02*
X-33500Y2180D01*
X-27645Y-4853D02*
X-22692Y-9806D01*
X2448Y-14378D02*
X9250Y-21180D01*
X-24586Y-14378D02*
X2448D01*
X-29539Y-9425D02*
X-24586Y-14378D01*
X-25533Y-16664D02*
X-13766D01*
X-9250Y-21180D01*
X-30486Y-11711D02*
X-25533Y-16664D01*
X-31433Y-13997D02*
X-24250Y-21180D01*
X-157000Y117820D02*
X-78500D01*
X-283709Y102891D02*
X-279095Y98278D01*
Y98278D01*
X-283709Y102891D02*
X-279095Y98278D01*
X-277115Y103729D02*
Y115545D01*
X-281905Y120334D02*
X-277115Y115545D01*
X-289820Y-137536D02*
X-269790D01*
X-287534Y-142867D02*
X-278254D01*
X-280549Y-215630D02*
X-276113Y-211194D01*
X-272279D01*
X-4500Y103394D02*
X-1243Y106651D01*
X-4500Y32224D02*
Y103394D01*
X-1243Y106651D02*
Y106651D01*
X114795Y-287203D02*
X114885Y-287294D01*
Y-295382D02*
X114976Y-295473D01*
X114885Y-295382D02*
Y-287294D01*
X-269866Y-131737D02*
Y-126162D01*
X-272279Y-123749D02*
X-269866Y-126162D01*
X-272279Y-123749D02*
Y-123527D01*
X-277785Y-143336D02*
X-269866D01*
X-277013Y-149136D02*
X-269866D01*
X-270945Y-158153D02*
X-260722D01*
X-285121Y-148141D02*
X-278008D01*
X-277013Y-149136D01*
X-275157Y-153941D02*
X-270945Y-158153D01*
X-278254Y-142867D02*
X-277785Y-143336D01*
X-285121Y-153941D02*
X-275157D01*
X-199724Y-309658D02*
Y-299084D01*
X-163612Y-328568D02*
Y-318012D01*
X-104027Y-431518D02*
X-101201Y-434344D01*
X-113027Y-435653D02*
X-106365D01*
X-114740Y-431518D02*
X-104027D01*
X-117162Y-433940D02*
X-114740Y-431518D01*
X-111486Y-441452D02*
X-110741D01*
X-117162Y-437365D02*
Y-433940D01*
Y-437365D02*
X-114740Y-439788D01*
X-253700Y-249912D02*
X-253626Y-249837D01*
X-266467Y-249912D02*
X-253700D01*
X-113150Y-439788D02*
X-111486Y-441452D01*
X-114740Y-439788D02*
X-113150D01*
X54517Y-373630D02*
X65834D01*
X56803Y-367284D02*
X68120D01*
X-102343Y-439674D02*
X-98915D01*
X-106365Y-435653D02*
X-102343Y-439674D01*
D11*
X172566Y42702D02*
X181128D01*
X127000Y117820D02*
X127557D01*
X129607Y115770D01*
X170770Y44498D02*
Y112390D01*
X167390Y115770D02*
X170770Y112390D01*
X129607Y115770D02*
X167390D01*
X170770Y44498D02*
X172566Y42702D01*
X143976Y-2590D02*
X146566Y0D01*
X178054D01*
X127000Y2180D02*
X135254D01*
X126853D02*
X127000D01*
X135254D02*
X140024Y-2590D01*
X143976D01*
X-170770Y7610D02*
Y130683D01*
X-168974Y132479D02*
X-127000D01*
X-170770Y130683D02*
X-168974Y132479D01*
X-39250Y-149460D02*
X39250D01*
X-62000D02*
X-39250D01*
X-170770Y7610D02*
X-167390Y4230D01*
X-132767D01*
X-130717Y2180D02*
X-127000D01*
X-132767Y4230D02*
X-130717Y2180D01*
D12*
X-54102Y-154230D02*
X-54064Y-154268D01*
X5608D01*
X-112000Y131572D02*
Y142128D01*
D47*
X48500Y130208D02*
Y130716D01*
Y118179D02*
Y130208D01*
X-39743Y116024D02*
X-35461D01*
Y139244D01*
X1717Y115386D02*
X7367D01*
X-7367D02*
X1717D01*
X-35461Y116024D02*
X-8005D01*
X-7367Y115386D01*
X7367D02*
X8005Y116024D01*
X46345D01*
X48500Y118179D01*
X-41539Y117820D02*
X-39743Y116024D01*
X-48500Y117820D02*
X-41539D01*
X-175424Y-446476D02*
X-62127D01*
X-59971Y-444321D01*
Y-433380D01*
X-294321Y-446476D02*
X-175424D01*
X-296476Y-444321D02*
X-294321Y-446476D01*
X-296476Y-444321D02*
Y-258298D01*
Y-193234D02*
X-293922Y-190679D01*
X-296476Y-258298D02*
Y-193234D01*
X-293922Y-190679D02*
X-290195D01*
X-289324Y-189808D01*
X-296476Y-258298D02*
X-288562D01*
X-175424Y-446476D02*
Y-433180D01*
X-127000Y132479D02*
Y155433D01*
D48*
X-77750Y-18132D02*
X-77750Y-18132D01*
X-72028Y-16664D02*
X-43766D01*
X-77750Y-18132D02*
X-73496D01*
X-72028Y-16664D01*
X-43766D02*
X-39250Y-21180D01*
Y-21180D02*
Y-21180D01*
X282Y16462D02*
Y58590D01*
Y16462D02*
X359Y16385D01*
X0Y58872D02*
X282Y58590D01*
D49*
X-182537Y290765D02*
X-180844Y292458D01*
X-177458D01*
X-175765Y290765D01*
Y289073D01*
X-177458Y287380D01*
X-179151D01*
X-177458D01*
X-175765Y285687D01*
Y283994D01*
X-177458Y282302D01*
X-180844D01*
X-182537Y283994D01*
D50*
X0Y-405000D02*
D03*
X255000Y255000D02*
D03*
X-255000D02*
D03*
D51*
X-168351Y-297339D02*
D03*
X-140411D02*
D03*
X-159461D02*
D03*
X-168351Y-261779D02*
D03*
X-140411D02*
D03*
X-159461D02*
D03*
X-168351Y-279559D02*
D03*
Y-288449D02*
D03*
Y-270669D02*
D03*
X-140411Y-279559D02*
D03*
Y-288449D02*
D03*
Y-270669D02*
D03*
X-149301Y-261779D02*
D03*
Y-297339D02*
D03*
D52*
X0Y-350750D02*
D03*
D53*
X28000Y-329250D02*
D03*
X-28000D02*
D03*
D54*
X-150023Y-356980D02*
D03*
D55*
Y-382380D02*
D03*
Y-407780D02*
D03*
Y-433180D02*
D03*
X-175424Y-356980D02*
D03*
Y-382380D02*
D03*
Y-407780D02*
D03*
Y-433180D02*
D03*
X102900Y-435400D02*
D03*
Y-384600D02*
D03*
X77500D02*
D03*
Y-410000D02*
D03*
Y-435400D02*
D03*
D56*
X102900Y-410000D02*
D03*
D57*
X262068Y164768D02*
D03*
X97994Y281938D02*
D03*
X-202637Y23104D02*
D03*
X212631Y-19464D02*
D03*
X-206931Y52554D02*
D03*
X49844Y-305775D02*
D03*
Y-295457D02*
D03*
X203609Y6862D02*
D03*
X-102224Y-146155D02*
D03*
X-118380Y-51067D02*
D03*
X-78760Y159713D02*
D03*
X-6017Y181483D02*
D03*
X84448Y161834D02*
D03*
X-35461Y139244D02*
D03*
X282468Y97990D02*
D03*
X164940Y262058D02*
D03*
X-288838Y154949D02*
D03*
X-270052Y152624D02*
D03*
X-279268Y177530D02*
D03*
X-115736Y-178218D02*
D03*
X204592Y-58849D02*
D03*
X-91471Y-429514D02*
D03*
X-82971D02*
D03*
X-74471D02*
D03*
X-83058Y-419914D02*
D03*
X115079Y173865D02*
D03*
X-93032Y186594D02*
D03*
X-288562Y-258298D02*
D03*
X-289324Y-189808D02*
D03*
Y-160444D02*
D03*
X-171704Y-315309D02*
D03*
X-204732Y-371570D02*
D03*
X-195580Y-326505D02*
D03*
X-260350Y-387858D02*
D03*
X-268224Y-387731D02*
D03*
X-127000Y155433D02*
D03*
Y132479D02*
D03*
X-193802Y-315309D02*
D03*
X-243078Y-222130D02*
D03*
X-59971Y-433380D02*
D03*
X274457Y-210047D02*
D03*
X293319D02*
D03*
X-92964Y-308809D02*
D03*
X-225552Y-425704D02*
D03*
X-221488Y-215630D02*
D03*
X-32721Y-352980D02*
D03*
X-22911D02*
D03*
X-32721Y-343020D02*
D03*
X-22911D02*
D03*
X284004Y-210047D02*
D03*
X287274Y-194000D02*
D03*
X-103378Y-325492D02*
D03*
X-49832Y-313395D02*
D03*
Y-303077D02*
D03*
X-59792Y-313395D02*
D03*
Y-303077D02*
D03*
X-39872D02*
D03*
Y-313395D02*
D03*
X-29912Y-303077D02*
D03*
Y-313395D02*
D03*
X-288081Y-425704D02*
D03*
X-274570Y-341884D02*
D03*
X-231562Y-325882D02*
D03*
X-274062Y-258572D02*
D03*
X-221488Y-241630D02*
D03*
D58*
X97989Y-269222D02*
D03*
X283712Y39873D02*
D03*
X265735Y133858D02*
D03*
X278577D02*
D03*
X270835Y77661D02*
D03*
X99878Y-196021D02*
D03*
X-163492Y147209D02*
D03*
X-205042Y79736D02*
D03*
X-177984Y-129313D02*
D03*
X209232Y67984D02*
D03*
X192475Y124995D02*
D03*
X134897Y-185669D02*
D03*
X51626Y223618D02*
D03*
X62619Y206052D02*
D03*
X-153566Y-170552D02*
D03*
X-179609Y-142867D02*
D03*
X-190822Y127503D02*
D03*
X-243070Y51666D02*
D03*
X-152011Y-23912D02*
D03*
X276786Y10875D02*
D03*
X127456Y-173591D02*
D03*
X84234Y-143739D02*
D03*
X78504Y-142842D02*
D03*
X50115Y-150070D02*
D03*
X86166Y-138270D02*
D03*
X-24250Y-136820D02*
D03*
X24250Y-154230D02*
D03*
X5608Y-154268D02*
D03*
X-54102Y-154230D02*
D03*
X-69250D02*
D03*
X181128Y42702D02*
D03*
X-263879Y-425958D02*
D03*
X-6553Y133890D02*
D03*
X-183481Y-75585D02*
D03*
X-152042Y-13356D02*
D03*
X-6553Y123334D02*
D03*
X-112000Y131572D02*
D03*
X-93816Y133522D02*
D03*
X-112000Y142128D02*
D03*
X-236429Y90757D02*
D03*
X-68834Y131318D02*
D03*
X27662Y136769D02*
D03*
X27710Y130969D02*
D03*
X-53411Y208629D02*
D03*
X-59010Y207115D02*
D03*
X33500Y130208D02*
D03*
X157000Y131419D02*
D03*
X-17526Y131064D02*
D03*
X196380Y88395D02*
D03*
X97000Y117820D02*
D03*
X-213984Y-24277D02*
D03*
X-213106Y31057D02*
D03*
X-89847Y-18527D02*
D03*
X-84061Y-18132D02*
D03*
X-77750D02*
D03*
X-169806Y-75585D02*
D03*
X-201657D02*
D03*
X-200480Y-42725D02*
D03*
X-209410Y-35146D02*
D03*
X-211036Y-42922D02*
D03*
X-206111Y-62425D02*
D03*
X-204355Y-67952D02*
D03*
X-157842Y-13356D02*
D03*
X220986Y40957D02*
D03*
X206756Y47649D02*
D03*
X-167022Y-150387D02*
D03*
X-137689Y-189512D02*
D03*
X-172318Y-128071D02*
D03*
X-176227Y-123785D02*
D03*
X-97000Y2180D02*
D03*
X-112000D02*
D03*
X-142000Y-10668D02*
D03*
X177894Y-105853D02*
D03*
X180112Y-72719D02*
D03*
X177826Y-64489D02*
D03*
Y-52202D02*
D03*
X175540Y-46871D02*
D03*
X168712Y-9872D02*
D03*
X178054Y0D02*
D03*
X175540Y74930D02*
D03*
X199209Y70366D02*
D03*
X234202Y47649D02*
D03*
X175540Y-89912D02*
D03*
X214244Y-182982D02*
D03*
X171196Y-99060D02*
D03*
X127000Y2180D02*
D03*
X142000D02*
D03*
X112000D02*
D03*
X112000Y-21180D02*
D03*
X97000D02*
D03*
X97434Y2180D02*
D03*
X63500D02*
D03*
X69250Y-21180D02*
D03*
X18500Y2180D02*
D03*
X33500D02*
D03*
X-5339Y-4845D02*
D03*
X6786D02*
D03*
X-157000Y117820D02*
D03*
X-63500Y2180D02*
D03*
X-48500D02*
D03*
X-11875Y-271991D02*
D03*
X-279095Y98278D02*
D03*
X-277115Y103729D02*
D03*
X-50575Y-286825D02*
D03*
X-62000Y-149460D02*
D03*
X-39250D02*
D03*
X52749Y-237974D02*
D03*
X263436Y-46451D02*
D03*
X100207Y248022D02*
D03*
X-35907Y255489D02*
D03*
X181141Y163101D02*
D03*
X-105896Y-219545D02*
D03*
X239213Y-96649D02*
D03*
X221415Y-112817D02*
D03*
X-44801Y-254080D02*
D03*
X-257843Y-9004D02*
D03*
X-241457Y-162865D02*
D03*
X19654Y281064D02*
D03*
X282599Y70460D02*
D03*
X113800Y-268097D02*
D03*
X-149305Y238938D02*
D03*
X68162Y-273381D02*
D03*
X-10165Y291073D02*
D03*
X-253235Y-123511D02*
D03*
X-269790Y-137536D02*
D03*
X-287534Y-142867D02*
D03*
X-289820Y-137536D02*
D03*
X-90757Y-236429D02*
D03*
X157652Y198195D02*
D03*
X166279Y184671D02*
D03*
X-231820Y75323D02*
D03*
X226001Y91310D02*
D03*
X205319Y91414D02*
D03*
X211182Y-139778D02*
D03*
X197198Y-143273D02*
D03*
X112375Y-194639D02*
D03*
X40943Y-273957D02*
D03*
X11668Y-267245D02*
D03*
X-18328Y-262110D02*
D03*
X-101074Y-227016D02*
D03*
X-110358Y-211996D02*
D03*
X-242966Y-151822D02*
D03*
X-259458Y-97008D02*
D03*
X-263578Y-68166D02*
D03*
X-264562Y-39539D02*
D03*
X-262260Y-16041D02*
D03*
X-250132Y39617D02*
D03*
X-229946Y44697D02*
D03*
X-218337Y97210D02*
D03*
X-198655Y124134D02*
D03*
X-174045Y142200D02*
D03*
X-202319Y209508D02*
D03*
X-197570Y194152D02*
D03*
X-176387Y225765D02*
D03*
X-100884Y252868D02*
D03*
X-92586Y250966D02*
D03*
X-63565Y254945D02*
D03*
X-19985Y285802D02*
D03*
X46910Y272999D02*
D03*
X73900Y262029D02*
D03*
X122340Y232530D02*
D03*
X114110Y231393D02*
D03*
X193355Y140481D02*
D03*
X208252Y107257D02*
D03*
X156744Y-174082D02*
D03*
X177612Y-159922D02*
D03*
X246111Y-92017D02*
D03*
X271742Y-16621D02*
D03*
X536Y95273D02*
D03*
X-1243Y106651D02*
D03*
X114795Y-287203D02*
D03*
X114976Y-295473D02*
D03*
X-281905Y120334D02*
D03*
X-283709Y112064D02*
D03*
X-272279Y-123527D02*
D03*
X-269866Y-143336D02*
D03*
Y-149136D02*
D03*
X-260722Y-158153D02*
D03*
X-285121Y-148141D02*
D03*
X-269866Y-131737D02*
D03*
X-199724Y-299084D02*
D03*
X359Y16385D02*
D03*
X39250Y-21180D02*
D03*
X0Y58872D02*
D03*
X-39250Y-21180D02*
D03*
X-285121Y-153941D02*
D03*
X-163612Y-318012D02*
D03*
Y-328568D02*
D03*
X-199724Y-309658D02*
D03*
X-272279Y-211194D02*
D03*
X-101201Y-434344D02*
D03*
X-113027Y-435653D02*
D03*
X-110741Y-441452D02*
D03*
X-69250Y-21180D02*
D03*
X65834Y-373630D02*
D03*
X68120Y-367284D02*
D03*
X56803D02*
D03*
X-253626Y-249837D02*
D03*
X-266467D02*
D03*
X-98915Y-439674D02*
D03*
X54517Y-373630D02*
D03*
X-4500Y32224D02*
D03*
X-127000Y2180D02*
D03*
X-280549Y-215630D02*
D03*
X0Y86985D02*
D03*
X39250Y-149460D02*
D03*
X-63500Y117820D02*
D03*
X24250Y-21180D02*
D03*
X112000Y-136888D02*
D03*
X157000D02*
D03*
X1717Y115386D02*
D03*
X-69250Y-136820D02*
D03*
X-24250Y-21180D02*
D03*
X-9250D02*
D03*
X9250D02*
D03*
X54250D02*
D03*
X142000Y-136888D02*
D03*
X127000Y117820D02*
D03*
X-33500Y2180D02*
D03*
X48500Y130208D02*
D03*
X-48500Y117820D02*
D03*
X-78500D02*
D03*
D59*
X0Y-203484D02*
D03*
D60*
X281750Y0D02*
G03*
X281750Y0I-281750J0D01*
G01*
X291250D02*
G03*
X291250Y0I-291250J0D01*
G01*
X220000D02*
G03*
X220000Y0I-220000J0D01*
G01*
X286500D02*
G03*
X286500Y0I-286500J0D01*
G01*
X224750D02*
G03*
X224750Y0I-224750J0D01*
G01*
X248500D02*
G03*
X248500Y0I-248500J0D01*
G01*
X253250D02*
G03*
X253250Y0I-253250J0D01*
G01*
X277000D02*
G03*
X277000Y0I-277000J0D01*
G01*
X272250D02*
G03*
X272250Y0I-272250J0D01*
G01*
X262750D02*
G03*
X262750Y0I-262750J0D01*
G01*
X229500D02*
G03*
X229500Y0I-229500J0D01*
G01*
X234250D02*
G03*
X234250Y0I-234250J0D01*
G01*
X239000D02*
G03*
X239000Y0I-239000J0D01*
G01*
X243750D02*
G03*
X243750Y0I-243750J0D01*
G01*
X267500D02*
G03*
X267500Y0I-267500J0D01*
G01*
X258000D02*
G03*
X258000Y0I-258000J0D01*
G01*
X214244Y-182982D02*
X214244Y-182982D01*
%TF.MD5,709161e9cbbeae6dff5965b11b7002ce*%
M02*
