%TF.GenerationSoftware,Altium Limited,Altium Designer,20.1.8 (145)*%
G04 Layer_Physical_Order=3*
G04 Layer_Color=16440176*
%FSLAX44Y44*%
%MOMM*%
%TF.SameCoordinates,602AE14E-E67F-4A72-A58A-C630FF545DDC*%
%TF.FilePolarity,Positive*%
%TF.FileFunction,Copper,L3,Inr,Signal*%
%TF.Part,Single*%
G01*
G75*
%TA.AperFunction,Conductor*%
%ADD10C,0.1270*%
%ADD11C,0.2540*%
%ADD12C,0.1524*%
%ADD46C,0.3048*%
%ADD47C,0.2032*%
%ADD48C,0.1778*%
%TA.AperFunction,NonConductor*%
%ADD49C,0.2540*%
%TA.AperFunction,ComponentPad*%
G04:AMPARAMS|DCode=50|XSize=1.5mm|YSize=1.5mm|CornerRadius=0.1875mm|HoleSize=0mm|Usage=FLASHONLY|Rotation=270.000|XOffset=0mm|YOffset=0mm|HoleType=Round|Shape=RoundedRectangle|*
%AMROUNDEDRECTD50*
21,1,1.5000,1.1250,0,0,270.0*
21,1,1.1250,1.5000,0,0,270.0*
1,1,0.3750,-0.5625,-0.5625*
1,1,0.3750,-0.5625,0.5625*
1,1,0.3750,0.5625,0.5625*
1,1,0.3750,0.5625,-0.5625*
%
%ADD50ROUNDEDRECTD50*%
%ADD51C,1.5000*%
G04:AMPARAMS|DCode=52|XSize=1.5mm|YSize=1.5mm|CornerRadius=0.15mm|HoleSize=0mm|Usage=FLASHONLY|Rotation=180.000|XOffset=0mm|YOffset=0mm|HoleType=Round|Shape=RoundedRectangle|*
%AMROUNDEDRECTD52*
21,1,1.5000,1.2000,0,0,180.0*
21,1,1.2000,1.5000,0,0,180.0*
1,1,0.3000,-0.6000,0.6000*
1,1,0.3000,0.6000,0.6000*
1,1,0.3000,0.6000,-0.6000*
1,1,0.3000,-0.6000,-0.6000*
%
%ADD52ROUNDEDRECTD52*%
%TA.AperFunction,ViaPad*%
%ADD53C,5.5000*%
%TA.AperFunction,ComponentPad*%
%ADD54C,0.5600*%
%ADD55O,2.2000X1.1000*%
%ADD56O,1.9000X1.1000*%
%TA.AperFunction,ViaPad*%
%ADD57C,0.7600*%
%ADD58C,0.4600*%
%ADD59C,0.9000*%
%ADD60C,1.5000*%
%TA.AperFunction,Conductor*%
%ADD61C,0.2286*%
D10*
X185577Y-14721D02*
X203890Y3592D01*
Y12987D02*
X210783Y19880D01*
X203890Y3592D02*
Y12987D01*
X210783Y19880D02*
X214438D01*
X121087Y-14721D02*
X185577D01*
X56860Y-373630D02*
X65834D01*
X54910Y-371680D02*
X56860Y-373630D01*
X54008Y-371680D02*
X54910D01*
X70366Y-366309D02*
X70406Y-366350D01*
X56335Y-366309D02*
X70366D01*
X56294Y-366268D02*
X56335Y-366309D01*
X275843Y110141D02*
X284545D01*
X287318Y112915D01*
X287718D01*
X230632Y-286004D02*
X234442D01*
X241735Y-293297D01*
X52903Y-155578D02*
X90904D01*
X96413Y-150070D01*
X-295079Y-162397D02*
Y94763D01*
Y-162397D02*
X-282953Y-174524D01*
X-274548D01*
X-295079Y94763D02*
X-289333Y100509D01*
X57343Y-142842D02*
X78504D01*
X50115Y-150070D02*
X57343Y-142842D01*
X-42651Y139762D02*
X-37719Y144695D01*
X-97000Y133522D02*
X-90759Y139762D01*
X-42651D01*
X-18500Y131064D02*
Y139777D01*
X-33203Y144695D02*
X-28300Y139792D01*
X-37719Y144695D02*
X-33203D01*
X-28300Y139792D02*
X-18500D01*
X-18500Y139792D01*
X-201855Y-4435D02*
X-146912D01*
X-144432Y-1955D01*
X-116135D01*
X-215174Y8883D02*
X-201855Y-4435D01*
X-116135Y-1955D02*
X-112000Y2180D01*
X-284858Y80054D02*
Y90491D01*
X-280166Y95182D01*
X-290944Y79028D02*
X-286372Y74456D01*
X-290944Y79028D02*
Y88976D01*
X173736Y111039D02*
Y113555D01*
Y111039D02*
X196380Y88395D01*
X-172092Y-127844D02*
Y-122073D01*
X-172318Y-128071D02*
X-172092Y-127844D01*
X-174514Y-119650D02*
X-172092Y-122073D01*
X-6604Y125389D02*
X-5447Y126546D01*
X-6604Y121048D02*
Y125389D01*
X-5447Y126546D02*
Y131604D01*
X-106131Y129387D02*
X-74266D01*
X-112000Y131572D02*
X-108316D01*
X-106131Y129387D01*
X-72335Y131318D02*
X-68834D01*
X-74266Y129387D02*
X-72335Y131318D01*
X97000Y117820D02*
X101135Y121955D01*
X165336D01*
X173736Y113555D01*
X-18500Y139777D02*
X147848D01*
X157000Y130625D01*
X118075Y124995D02*
X175260D01*
X112000Y131070D02*
X118075Y124995D01*
X88900Y-421400D02*
Y-369959D01*
Y-421400D02*
X102900Y-435400D01*
X-228088Y-271708D02*
Y-220984D01*
X-274548Y-174524D02*
X-228088Y-220984D01*
X32225Y195862D02*
X36312Y191775D01*
X39738D01*
X32225Y195862D02*
Y195910D01*
X-143485Y-4241D02*
X-103421D01*
X-134049Y-6527D02*
X-98350D01*
X-138190Y-10668D02*
X-134049Y-6527D01*
X-152600Y-13356D02*
X-143485Y-4241D01*
X69921D02*
X121108D01*
X63500Y2180D02*
X69921Y-4241D01*
X101569Y-1955D02*
X122054D01*
X97434Y2180D02*
X101569Y-1955D01*
X101135Y-17045D02*
X113713D01*
X97000Y-21180D02*
X101135Y-17045D01*
X-68041Y2180D02*
X-63500D01*
X-70726Y4865D02*
X-68041Y2180D01*
X-86958Y4865D02*
X-70726D01*
X-78064Y-21180D02*
X-69250D01*
X-81306Y-17938D02*
X-78064Y-21180D01*
X-86011Y2579D02*
X-71673D01*
X-67139Y-1955D02*
X-37635D01*
X-71673Y2579D02*
X-67139Y-1955D01*
X-68086Y-4241D02*
X-28258D01*
X-72620Y293D02*
X-68086Y-4241D01*
X-85064Y293D02*
X-72620D01*
X-69033Y-6527D02*
X-29204D01*
X-73566Y-1993D02*
X-69033Y-6527D01*
X-84117Y-1993D02*
X-73566D01*
X-69979Y-8813D02*
X-30151D01*
X-74513Y-4279D02*
X-69979Y-8813D01*
X-83170Y-4279D02*
X-74513D01*
X-70926Y-11099D02*
X-31098D01*
X-82224Y-6565D02*
X-75460D01*
X-70926Y-11099D01*
X-81277Y-8851D02*
X-76407D01*
X-71873Y-13385D01*
X-32045D01*
X-180371Y-101479D02*
X-83170Y-4279D01*
X-180371Y-116409D02*
Y-101479D01*
X-87066Y-17255D02*
X-86670Y-16859D01*
Y-14244D01*
X-81277Y-8851D01*
X-98350Y-6527D02*
X-86958Y4865D01*
X-109220Y-10662D02*
X-99252D01*
X-86011Y2579D01*
X-207676Y-57004D02*
X-142361D01*
X-85064Y293D01*
X-182656Y-100532D02*
X-84117Y-1993D01*
X-182656Y-117355D02*
Y-100532D01*
X-176236Y-114696D02*
Y-100577D01*
X-82224Y-6565D01*
X-266975Y-249837D02*
X-258184Y-241046D01*
X-251777D01*
X33945Y202646D02*
X37629Y198962D01*
Y196305D02*
Y198962D01*
X33945Y202646D02*
Y209991D01*
X37629Y196305D02*
X38025Y195910D01*
X39745Y200038D02*
X42160Y197622D01*
X39745Y200038D02*
Y210039D01*
X42160Y194197D02*
Y197622D01*
X39738Y191775D02*
X42160Y194197D01*
X33500Y143927D02*
X45545Y155972D01*
Y209991D01*
X-41973Y201633D02*
Y209991D01*
X-49983Y193624D02*
X-41973Y201633D01*
X-55783Y201982D02*
X-47773Y209991D01*
X-55783Y193624D02*
Y201982D01*
X-280549Y-215630D02*
Y-212054D01*
X-268175Y-199681D02*
X-263135D01*
X-280549Y-212054D02*
X-268175Y-199681D01*
X-203877Y-374731D02*
Y-370755D01*
X-201472Y-368350D01*
Y-296164D01*
X-265421Y-211337D02*
X-241591Y-235167D01*
X-287534Y-143336D02*
X-272152D01*
X-285121Y-149136D02*
X-272152D01*
X-265421Y-211337D02*
Y-206350D01*
X-289820Y-137536D02*
X-272076D01*
X-104171Y-439674D02*
X-98915D01*
X-113027Y-435653D02*
X-108192D01*
X-104171Y-439674D01*
X121108Y-4241D02*
X126950Y-10083D01*
X167728D01*
X122054Y-1955D02*
X127896Y-7797D01*
X164166D01*
X128843Y-5511D02*
X163219D01*
X121152Y2180D02*
X128843Y-5511D01*
X112000Y2180D02*
X121152D01*
X206756Y36859D02*
Y47649D01*
X179449Y9552D02*
X206756Y36859D01*
X179449Y-4453D02*
Y9552D01*
X181735Y-5400D02*
Y8605D01*
X210891Y37761D02*
Y49362D01*
X181735Y8605D02*
X210891Y37761D01*
X177973Y-9161D02*
X181735Y-5400D01*
X164166Y-7797D02*
X166015Y-5948D01*
X169440D01*
X172654Y-9161D01*
X177973D01*
X199209Y61044D02*
X210891Y49362D01*
X177026Y-6876D02*
X179449Y-4453D01*
X163219Y-5511D02*
X165068Y-3662D01*
X170387D01*
X173601Y-6876D01*
X177026D01*
X-144279Y-39413D02*
X-118222Y-13356D01*
X-211720Y-39413D02*
X-144279D01*
X184247Y-81392D02*
Y-31286D01*
X175633Y-90006D02*
X184247Y-81392D01*
X-146467Y-13356D02*
X-140878D01*
X-138190Y-10668D01*
X-37635Y-1955D02*
X-33500Y2180D01*
X-32045Y-13385D02*
X-24250Y-21180D01*
X-31098Y-11099D02*
X-25533Y-16664D01*
X-30151Y-8813D02*
X-24586Y-14378D01*
X-29204Y-6527D02*
X-23639Y-12092D01*
X-28258Y-4241D02*
X-22692Y-9806D01*
X9682D01*
X18500Y-988D01*
X-4500Y32224D02*
Y95765D01*
X-1243Y99022D01*
X-177129Y-119650D02*
X-174514D01*
X-180371Y-116409D02*
X-177129Y-119650D01*
X-182656Y-117355D02*
X-176227Y-123785D01*
X171196Y-81557D02*
X175540Y-77212D01*
X171196Y-99060D02*
Y-81557D01*
X-17298Y-154230D02*
X-9028D01*
X-113741Y-441452D02*
X-110741D01*
X-117162Y-438031D02*
Y-433940D01*
Y-438031D02*
X-113741Y-441452D01*
X-117162Y-433940D02*
X-114740Y-431518D01*
X-104027D01*
X-101201Y-434344D01*
X82929Y-141533D02*
X84234Y-142838D01*
X54675Y-138707D02*
X80217D01*
X82929Y-141419D01*
Y-141533D02*
Y-141419D01*
X84234Y-143739D02*
Y-142838D01*
X170135Y-47474D02*
X174863Y-52202D01*
X170135Y-47474D02*
Y-26873D01*
X174863Y-52202D02*
X177826D01*
X171000Y50748D02*
Y53968D01*
X170135Y49883D02*
X171000Y50748D01*
X170135Y7873D02*
Y49883D01*
X44570Y-148812D02*
X54675Y-138707D01*
X-21565Y-134135D02*
X110158D01*
X127456Y-151432D01*
X142000Y-136888D01*
X127456Y-173591D02*
Y-151432D01*
X168074Y-21579D02*
X175540Y-29045D01*
Y-46871D02*
Y-29045D01*
X181961Y-60354D02*
Y-32233D01*
X169021Y-19293D02*
X181961Y-32233D01*
X169968Y-17007D02*
X184247Y-31286D01*
X177826Y-64489D02*
X181961Y-60354D01*
X116449Y-10083D02*
X121087Y-14721D01*
X33500Y2180D02*
X45763Y-10083D01*
X116449D01*
X75671Y-14759D02*
X114660D01*
X69250Y-21180D02*
X75671Y-14759D01*
X54250Y-21180D02*
X62957Y-12473D01*
X115607D01*
X-103421Y-4241D02*
X-97000Y2180D01*
X-286243Y-381231D02*
X-259694Y-407780D01*
X-175424D01*
X44570Y-151770D02*
Y-148812D01*
X144685Y4865D02*
X167127D01*
X170135Y7873D01*
X199209Y61044D02*
Y70366D01*
X18500Y-988D02*
Y2180D01*
X-69250Y-154230D02*
Y-136820D01*
X-18003Y-136421D02*
X81163D01*
X83012Y-138270D02*
X86166D01*
X81163Y-136421D02*
X83012Y-138270D01*
X-22537Y-140955D02*
X-18003Y-136421D01*
X-69250Y-136820D02*
X-30098D01*
X-25963Y-140955D01*
X-22537D01*
X-24250Y-136820D02*
X-21565Y-134135D01*
X120141Y-17007D02*
X169968D01*
X119194Y-19293D02*
X169021D01*
X118247Y-21579D02*
X168074D01*
X114685Y-23865D02*
X167127D01*
X170135Y-26873D01*
X142000Y2180D02*
X144685Y4865D01*
X114660Y-14759D02*
X119194Y-19293D01*
X115607Y-12473D02*
X120141Y-17007D01*
X113713Y-17045D02*
X118247Y-21579D01*
X112000Y-21180D02*
X114685Y-23865D01*
X15162Y-12092D02*
X24250Y-21180D01*
X-23639Y-12092D02*
X15162D01*
X2448Y-14378D02*
X9250Y-21180D01*
X-24586Y-14378D02*
X2448D01*
X-25533Y-16664D02*
X-13766D01*
X-9250Y-21180D01*
X-157000Y117820D02*
X-78500D01*
X-163612Y-328568D02*
Y-318012D01*
D11*
X175770Y43527D02*
Y55944D01*
Y43527D02*
X181258Y38038D01*
X172796Y-741D02*
X174795Y-2740D01*
X175313D01*
X163858Y-741D02*
X172796D01*
X-124206Y132479D02*
X-119968Y136717D01*
Y148312D01*
X127000Y117820D02*
X130638D01*
X132688Y115770D02*
X167390D01*
X130638Y117820D02*
X132688Y115770D01*
X-150681Y132479D02*
X-124206D01*
X162009Y-2590D02*
X163858Y-741D01*
X131770Y-2590D02*
X162009D01*
X-170770Y7610D02*
X-165340Y2180D01*
X-127000D01*
X-170770Y7610D02*
Y112390D01*
X170770Y60944D02*
X175770Y55944D01*
X170770Y60944D02*
Y112390D01*
X127000Y2180D02*
X127000D01*
X131770Y-2590D01*
X-170770Y112390D02*
X-150681Y132479D01*
X-61750Y-149460D02*
X39250D01*
X167390Y115770D02*
X170770Y112390D01*
D12*
X-112000Y131572D02*
Y142128D01*
D46*
X-296476Y-430510D02*
X-280510Y-446476D01*
X-175424D01*
X-296476Y-430510D02*
Y-258298D01*
X5303Y116024D02*
X43025D01*
X44821Y117820D01*
X48500D01*
X-48500D02*
X-44846D01*
X-43050Y116024D02*
X-35461D01*
X-44846Y117820D02*
X-43050Y116024D01*
X1778Y112919D02*
X2198D01*
X5303Y116024D01*
X-1327D02*
X1778Y112919D01*
X-35461Y116024D02*
X-1327D01*
X-35461D02*
Y139244D01*
X-175424Y-446476D02*
X-73068D01*
X-59971Y-433380D02*
Y-433380D01*
X-73068Y-446476D02*
X-59971Y-433380D01*
X-296476Y-258298D02*
Y-196961D01*
X-289324Y-189808D01*
X-296476Y-258298D02*
X-288562D01*
X-175424Y-446476D02*
Y-433180D01*
D47*
X1778Y112919D02*
X1785D01*
X4984Y91609D02*
Y109720D01*
X1785Y112919D02*
X4984Y109720D01*
X359Y86985D02*
X4984Y91609D01*
X359Y16385D02*
Y58872D01*
D48*
X-77750Y-13356D02*
X-77750D01*
X-75054Y-16052D02*
X-44378D01*
X-77750Y-13356D02*
X-75054Y-16052D01*
X-44378D02*
X-39250Y-21180D01*
Y-21180D02*
Y-21180D01*
D49*
X-182537Y290511D02*
X-180844Y292204D01*
X-177458D01*
X-175765Y290511D01*
Y288819D01*
X-177458Y287126D01*
X-179151D01*
X-177458D01*
X-175765Y285433D01*
Y283740D01*
X-177458Y282048D01*
X-180844D01*
X-182537Y283740D01*
D50*
X-150023Y-356980D02*
D03*
D51*
Y-382380D02*
D03*
Y-407780D02*
D03*
Y-433180D02*
D03*
X-175424Y-356980D02*
D03*
Y-382380D02*
D03*
Y-407780D02*
D03*
Y-433180D02*
D03*
X102900Y-435400D02*
D03*
Y-384600D02*
D03*
X77500D02*
D03*
Y-410000D02*
D03*
Y-435400D02*
D03*
D52*
X102900Y-410000D02*
D03*
D53*
X0Y-405000D02*
D03*
X255000Y255000D02*
D03*
X-255000D02*
D03*
D54*
X-168351Y-297339D02*
D03*
X-140411D02*
D03*
X-159461D02*
D03*
X-168351Y-261779D02*
D03*
X-140411D02*
D03*
X-159461D02*
D03*
X-168351Y-279559D02*
D03*
Y-288449D02*
D03*
Y-270669D02*
D03*
X-140411Y-279559D02*
D03*
Y-288449D02*
D03*
Y-270669D02*
D03*
X-149301Y-261779D02*
D03*
Y-297339D02*
D03*
D55*
X0Y-350750D02*
D03*
D56*
X28000Y-329250D02*
D03*
X-28000D02*
D03*
D57*
X213393Y12192D02*
D03*
X53340Y-319690D02*
D03*
Y-309372D02*
D03*
X68326Y-317754D02*
D03*
Y-309118D02*
D03*
X62716Y186436D02*
D03*
X-77216Y145214D02*
D03*
X-193137Y1016D02*
D03*
X-102108Y-35030D02*
D03*
X126645Y151612D02*
D03*
X-14224Y172841D02*
D03*
X201168Y-72849D02*
D03*
X86972Y195326D02*
D03*
X-98925Y-146494D02*
D03*
X-119968Y148312D02*
D03*
X-123474Y169277D02*
D03*
X117287Y177201D02*
D03*
X-206931Y52554D02*
D03*
X195021Y14182D02*
D03*
X-95359Y191261D02*
D03*
X-242825Y-432562D02*
D03*
X-265684D02*
D03*
X-219456D02*
D03*
Y-423418D02*
D03*
X-242825Y-422148D02*
D03*
X-265684Y-422656D02*
D03*
X-84074Y-178218D02*
D03*
X183641Y-20336D02*
D03*
X-105380Y-101346D02*
D03*
X-184137Y71882D02*
D03*
X-251154Y-264303D02*
D03*
X-252153Y-251752D02*
D03*
X-120790Y-60130D02*
D03*
X-207637Y23104D02*
D03*
X-25961Y180927D02*
D03*
X212631Y-19464D02*
D03*
X-78760Y159713D02*
D03*
X-35461Y139244D02*
D03*
X-115736Y-178218D02*
D03*
X204592Y-58849D02*
D03*
X-91471Y-429514D02*
D03*
X-82971D02*
D03*
X-74471D02*
D03*
X-83058Y-419914D02*
D03*
X-288562Y-258298D02*
D03*
X-289324Y-189808D02*
D03*
Y-160444D02*
D03*
X-171704Y-315309D02*
D03*
X-252730Y-387858D02*
D03*
X-260604Y-387731D02*
D03*
X-124206Y132479D02*
D03*
X-193802Y-315309D02*
D03*
X-243840Y-222892D02*
D03*
X-59971Y-433380D02*
D03*
X274457Y-210047D02*
D03*
X293319D02*
D03*
X-92964Y-308809D02*
D03*
X-286243Y-350012D02*
D03*
X-243586Y-214614D02*
D03*
X-32721Y-352980D02*
D03*
X-22911D02*
D03*
X-32721Y-343020D02*
D03*
X-22911D02*
D03*
X284004Y-210047D02*
D03*
X287274Y-194000D02*
D03*
X-103378Y-325492D02*
D03*
X-49832Y-313395D02*
D03*
Y-303077D02*
D03*
X-59792Y-313395D02*
D03*
Y-303077D02*
D03*
X-39872D02*
D03*
Y-313395D02*
D03*
X-29912Y-303077D02*
D03*
Y-313395D02*
D03*
X-285750Y-416560D02*
D03*
X-274570Y-341884D02*
D03*
X-231562Y-325882D02*
D03*
X-274062Y-258572D02*
D03*
X-243078Y-242392D02*
D03*
D58*
X214438Y19880D02*
D03*
X54008Y-371680D02*
D03*
X56294Y-366350D02*
D03*
X277096Y103782D02*
D03*
X109142Y275028D02*
D03*
X237922Y-175914D02*
D03*
X287718Y112915D02*
D03*
X230632Y-286004D02*
D03*
X181262Y38298D02*
D03*
X241735Y-293297D02*
D03*
X52903Y-155578D02*
D03*
X-283687Y107623D02*
D03*
X-289333Y100509D02*
D03*
X-280166Y95182D02*
D03*
X-290944Y88976D02*
D03*
X-284858Y80054D02*
D03*
X-286372Y74456D02*
D03*
X230122Y80362D02*
D03*
X-6604Y121048D02*
D03*
X-5447Y131604D02*
D03*
X-48500Y117820D02*
D03*
X1778Y112919D02*
D03*
X175260Y124995D02*
D03*
X157000Y130625D02*
D03*
X275843Y110141D02*
D03*
X70406Y-366350D02*
D03*
X88900Y-369959D02*
D03*
X-112000Y2180D02*
D03*
X-207676Y-57004D02*
D03*
X45545Y209991D02*
D03*
X39745Y210039D02*
D03*
X33945Y209991D02*
D03*
X-41973D02*
D03*
X-47773D02*
D03*
X-228088Y-271708D02*
D03*
X-201472Y-296164D02*
D03*
X-112000Y142128D02*
D03*
X-55783Y193624D02*
D03*
X-49983D02*
D03*
X263436Y-46451D02*
D03*
X-243070Y51666D02*
D03*
X-202319Y209508D02*
D03*
X-272152Y-143336D02*
D03*
X-285121Y-149136D02*
D03*
X-263135Y-199681D02*
D03*
X-265421Y-206350D02*
D03*
X-289820Y-137536D02*
D03*
X-272076D02*
D03*
X-267094Y-116136D02*
D03*
X-211720Y-39413D02*
D03*
X38025Y195910D02*
D03*
X32225D02*
D03*
X-53223Y-213465D02*
D03*
X99878Y-196021D02*
D03*
X-163492Y147209D02*
D03*
X-205042Y79736D02*
D03*
X-177984Y-129313D02*
D03*
X209232Y67984D02*
D03*
X192475Y124995D02*
D03*
X134897Y-185669D02*
D03*
X-153566Y-170552D02*
D03*
X-179609Y-142867D02*
D03*
X-190822Y127503D02*
D03*
X220986Y40957D02*
D03*
X-152600Y-13356D02*
D03*
X-146467D02*
D03*
X-118222D02*
D03*
X-87066Y-17255D02*
D03*
X-109220Y-10662D02*
D03*
X-81306Y-17938D02*
D03*
X-77750Y-13356D02*
D03*
X-1243Y99022D02*
D03*
X468Y93480D02*
D03*
X-176236Y-114696D02*
D03*
X175633Y-90006D02*
D03*
X175540Y-77212D02*
D03*
X236999Y-74725D02*
D03*
X-251777Y-241046D02*
D03*
X175313Y-2740D02*
D03*
X167728Y-10083D02*
D03*
X112000Y131070D02*
D03*
X-9028Y-154230D02*
D03*
X-17298D02*
D03*
X96413Y-150070D02*
D03*
X33500Y143927D02*
D03*
X48500Y117820D02*
D03*
X-18500Y131064D02*
D03*
X-241554Y-235130D02*
D03*
X-188208Y-183344D02*
D03*
X-180030Y-184806D02*
D03*
X-238872Y-120401D02*
D03*
X-253772Y-122405D02*
D03*
X-228328Y-148278D02*
D03*
X-216782Y-172437D02*
D03*
X-215833Y-181105D02*
D03*
X-214576Y-189841D02*
D03*
X-213007Y-198632D02*
D03*
X-110741Y-441452D02*
D03*
X-113027Y-435653D02*
D03*
X-61006Y-216312D02*
D03*
X-69012Y-218878D02*
D03*
X-77230Y-221153D02*
D03*
X171000Y53968D02*
D03*
X-61750Y-149460D02*
D03*
X-39250D02*
D03*
X-229946Y44697D02*
D03*
X181141Y163101D02*
D03*
X-105896Y-219545D02*
D03*
X-236429Y90757D02*
D03*
X-63565Y254945D02*
D03*
X221415Y-112817D02*
D03*
X-101074Y-227016D02*
D03*
X-286243Y-381231D02*
D03*
X44570Y-151770D02*
D03*
X-203877Y-374731D02*
D03*
X-215174Y8883D02*
D03*
X262548Y168070D02*
D03*
X97989Y-269222D02*
D03*
X283712Y39873D02*
D03*
X270835Y77661D02*
D03*
X276786Y10875D02*
D03*
X127456Y-173591D02*
D03*
X84234Y-143739D02*
D03*
X78504Y-142842D02*
D03*
X50115Y-150070D02*
D03*
X86166Y-138270D02*
D03*
X-24250Y-136820D02*
D03*
X-69250Y-154230D02*
D03*
X168496Y262458D02*
D03*
X-112000Y131572D02*
D03*
X-97000Y133522D02*
D03*
X-68834Y131318D02*
D03*
X196380Y88395D02*
D03*
X97000Y117820D02*
D03*
X206756Y47649D02*
D03*
X-167022Y-150387D02*
D03*
X-137689Y-189512D02*
D03*
X-172318Y-128071D02*
D03*
X-176227Y-123785D02*
D03*
X-97000Y2180D02*
D03*
X-138190Y-10668D02*
D03*
X177826Y-64489D02*
D03*
Y-52202D02*
D03*
X175540Y-46871D02*
D03*
X199209Y70366D02*
D03*
X234202Y47649D02*
D03*
X214244Y-182982D02*
D03*
X171196Y-99060D02*
D03*
X127000Y2180D02*
D03*
X142000D02*
D03*
X112000D02*
D03*
X112000Y-21180D02*
D03*
X97000D02*
D03*
X97434Y2180D02*
D03*
X63500D02*
D03*
X69250Y-21180D02*
D03*
X18500Y2180D02*
D03*
X33500D02*
D03*
X-5339Y-4845D02*
D03*
X6786D02*
D03*
X-157000Y117820D02*
D03*
X-63500Y2180D02*
D03*
X-48500D02*
D03*
X-11875Y-271991D02*
D03*
X52749Y-237974D02*
D03*
X100207Y248022D02*
D03*
X-35907Y255489D02*
D03*
X239213Y-96649D02*
D03*
X-44801Y-254080D02*
D03*
X-257843Y-9004D02*
D03*
X-241457Y-162865D02*
D03*
X19654Y281064D02*
D03*
X282599Y70460D02*
D03*
X113800Y-268097D02*
D03*
X-149305Y238938D02*
D03*
X68162Y-273381D02*
D03*
X-10165Y291073D02*
D03*
X-287534Y-143336D02*
D03*
X-90757Y-236429D02*
D03*
X157652Y198195D02*
D03*
X166279Y184671D02*
D03*
X-231820Y75323D02*
D03*
X205319Y91414D02*
D03*
X211182Y-139778D02*
D03*
X197198Y-143273D02*
D03*
X112375Y-194639D02*
D03*
X40943Y-273957D02*
D03*
X11668Y-267245D02*
D03*
X-18328Y-262110D02*
D03*
X-110358Y-211996D02*
D03*
X-242966Y-151822D02*
D03*
X-259458Y-97008D02*
D03*
X-263578Y-68166D02*
D03*
X-264562Y-39539D02*
D03*
X-262260Y-16041D02*
D03*
X-250132Y39617D02*
D03*
X-218337Y97210D02*
D03*
X-198655Y124134D02*
D03*
X-174045Y142200D02*
D03*
X-197570Y194152D02*
D03*
X-176387Y225765D02*
D03*
X-100884Y252868D02*
D03*
X-92586Y250966D02*
D03*
X-19985Y285802D02*
D03*
X46910Y272999D02*
D03*
X73900Y262029D02*
D03*
X122340Y232530D02*
D03*
X114110Y231393D02*
D03*
X193355Y140481D02*
D03*
X208252Y107257D02*
D03*
X156744Y-174082D02*
D03*
X177612Y-159922D02*
D03*
X246111Y-92017D02*
D03*
X271742Y-16621D02*
D03*
X-272152Y-149136D02*
D03*
X359Y16385D02*
D03*
X39250Y-21180D02*
D03*
X359Y58872D02*
D03*
X-39250Y-21180D02*
D03*
X-163612Y-318012D02*
D03*
Y-328568D02*
D03*
X-101201Y-434344D02*
D03*
X-69250Y-21180D02*
D03*
X65834Y-373630D02*
D03*
X-266975Y-249837D02*
D03*
X-98915Y-439674D02*
D03*
X-4500Y32224D02*
D03*
X-127000Y2180D02*
D03*
X-280549Y-215630D02*
D03*
X359Y86985D02*
D03*
X39250Y-149460D02*
D03*
X24250Y-21180D02*
D03*
X157000Y-136888D02*
D03*
X-69250Y-136820D02*
D03*
X-24250Y-21180D02*
D03*
X-9250D02*
D03*
X9250D02*
D03*
X54250D02*
D03*
X142000Y-136888D02*
D03*
X127000Y117820D02*
D03*
X-33500Y2180D02*
D03*
X-78500Y117820D02*
D03*
D59*
X74348Y-199967D02*
D03*
D60*
X0Y-164793D02*
D03*
D61*
X291250Y0D02*
G03*
X291250Y0I-291250J0D01*
G01*
X281750D02*
G03*
X281750Y0I-281750J0D01*
G01*
X220000D02*
G03*
X220000Y0I-220000J0D01*
G01*
X286500D02*
G03*
X286500Y0I-286500J0D01*
G01*
X224750D02*
G03*
X224750Y0I-224750J0D01*
G01*
X248500D02*
G03*
X248500Y0I-248500J0D01*
G01*
X253250D02*
G03*
X253250Y0I-253250J0D01*
G01*
X277000D02*
G03*
X277000Y0I-277000J0D01*
G01*
X272250D02*
G03*
X272250Y0I-272250J0D01*
G01*
X262750D02*
G03*
X262750Y0I-262750J0D01*
G01*
X229500D02*
G03*
X229500Y0I-229500J0D01*
G01*
X234250D02*
G03*
X234250Y0I-234250J0D01*
G01*
X239000D02*
G03*
X239000Y0I-239000J0D01*
G01*
X243750D02*
G03*
X243750Y0I-243750J0D01*
G01*
X267500D02*
G03*
X267500Y0I-267500J0D01*
G01*
X258000D02*
G03*
X258000Y0I-258000J0D01*
G01*
%TF.MD5,223642cde97b39b0fd0b4ee139518247*%
M02*
