%TF.GenerationSoftware,Altium Limited,Altium Designer,20.1.8 (145)*%
G04 Layer_Color=32896*
%FSLAX44Y44*%
%MOMM*%
%TF.SameCoordinates,602AE14E-E67F-4A72-A58A-C630FF545DDC*%
%TF.FilePolarity,Positive*%
%TF.FileFunction,Other,Mechanical_4*%
%TF.Part,Single*%
G01*
G75*
%TA.AperFunction,NonConductor*%
%ADD157C,0.0254*%
D157*
X280000Y-450000D02*
G03*
X300000Y-430000I0J20000D01*
G01*
X-300000D02*
G03*
X-280000Y-450000I20000J0D01*
G01*
X86500Y-129000D02*
G03*
X89000Y-131500I2500J0D01*
G01*
Y-26500D02*
G03*
X86500Y-29000I0J-2500D01*
G01*
X167500D02*
G03*
X165000Y-26500I-2500J0D01*
G01*
Y-131500D02*
G03*
X167500Y-129000I0J2500D01*
G01*
X-77250Y-26500D02*
G03*
X-79750Y-29000I0J-2500D01*
G01*
X79750D02*
G03*
X77250Y-26500I-2500J0D01*
G01*
X-79750Y-129000D02*
G03*
X-77250Y-131500I2500J0D01*
G01*
X77250D02*
G03*
X79750Y-129000I0J2500D01*
G01*
X300000Y255000D02*
G03*
X255000Y300000I-45000J0D01*
G01*
X-255000D02*
G03*
X-300000Y255000I0J-45000D01*
G01*
X165000Y7500D02*
G03*
X167500Y10000I0J2500D01*
G01*
X8000D02*
G03*
X10500Y7500I2500J0D01*
G01*
Y112500D02*
G03*
X8000Y110000I0J-2500D01*
G01*
X167500D02*
G03*
X165000Y112500I-2500J0D01*
G01*
X-8000Y110000D02*
G03*
X-10500Y112500I-2500J0D01*
G01*
X-165000D02*
G03*
X-167500Y110000I0J-2500D01*
G01*
Y10000D02*
G03*
X-165000Y7500I2500J0D01*
G01*
X-10500D02*
G03*
X-8000Y10000I0J2500D01*
G01*
X-300000Y-430000D02*
Y255000D01*
X-280000Y-450000D02*
X280000D01*
X300000Y-430000D02*
Y255000D01*
X167500Y-129000D02*
Y-29000D01*
X86500Y-129000D02*
Y-29000D01*
X89000Y-131500D02*
X165000D01*
X89000Y-26500D02*
X165000D01*
X79750Y-129000D02*
Y-29000D01*
X-79750Y-129000D02*
Y-29000D01*
X-77250Y-26500D02*
X77250D01*
X-77250Y-131500D02*
X77250D01*
X-255000Y300000D02*
X255000D01*
X10500Y112500D02*
X165000D01*
X8000Y10000D02*
Y110000D01*
X167500Y10000D02*
Y110000D01*
X10500Y7500D02*
X165000D01*
X-165000D02*
X-10500D01*
X-8000Y10000D02*
Y110000D01*
X-167500Y10000D02*
Y110000D01*
X-165000Y112500D02*
X-10500D01*
%TF.MD5,62bb01a25d699f136b0d54d4b06c4472*%
M02*
