M48
;Layer_Color=9474304
;FILE_FORMAT=2:4
INCH,LZ
;TYPE=PLATED
T1F00S00C0.0079
T2F00S00C0.0118
T3F00S00C0.0157
T5F00S00C0.0236
T6F00S00C0.0315
T7F00S00C0.0394
T8F00S00C0.1969
%
T01
X002126Y-014633
X002216Y-014423
X002772
X002592Y-01471
X0035Y-014565
X003858Y-010599
X00448Y-010555
X002684Y-010763
X001612Y-010786
X000459Y-010521
X002077Y-009369
X002083Y-006125
X001973Y-005908
X001755Y-005975
X001545Y-005884
X003091Y-005624
X003316Y-005659
X003392Y-005444
X003796Y-005908
X003932Y-007717
X004424Y-007663
X005311Y-00731
X005018Y-006834
X006171Y-006854
X006993Y-006296
X007764Y-005641
X008314Y-005503
X008435Y-007204
X009367Y-006926
X00908Y-01126
X009517Y-011547
X006181Y-005389
X005591
X-000955Y-005387
X-000681Y-006072
X-000355
X-001545Y-005884
X-002431
X-002726Y-006072
Y-005387
X-002717Y-008617
X-003041Y-008707
X-002402Y-008516
X-002095Y-008404
X-001764Y-010003
X-000722Y-010319
X-000468Y-010708
X-003573Y-009308
X-003979Y-008938
X-004169Y-008644
X-004345Y-008346
X-005421Y-007461
X-006046Y-006715
X-006576Y-005921
X-007071Y-005625
X-007088Y-007276
X-00741Y-007218
X-008497Y-00713
X-008535Y-006789
X-008448Y-007474
X-008386Y-00782
X-01036Y-007861
X-01045Y-008124
X-011045Y-008489
X-010511Y-009836
X-009912Y-00949
X-00951Y-009257
X-00898Y-010697
X-007932Y-01166
X-006441Y-01252
Y-012936
X-008027Y-014753
X-011269Y-015009
X-00445Y-017152
X-00436Y-01738
X-003894Y-01731
X-003984Y-0171
X-009506Y-006412
X-009566Y-005977
X-008989Y-005838
X-010715Y-005871
Y-005643
X-010712Y-005415
X-01141
X-01132Y-005643
X-011225Y-005871
X-010516Y-004572
X-009991Y-004819
X-009404Y-00474
X-010215Y-003819
X-010377Y-002684
X-010416Y-001557
X-010325Y-000632
X-010151Y-000354
X-009848Y00156
X-00957Y002034
X-009053Y00176
X-009127Y002965
X-009308Y003573
X-008596Y003827
X-008073Y003139
X-007821Y004887
X-007513Y00502
X-006852Y005598
X-006437Y005796
X-006181Y004639
X-004409Y00518
Y005596
X-003819Y005257
X-00271Y00517
X-003091Y004639
X-001909
X-000728Y00516
X-00026Y004766
X-001968Y007623
X-002196
X-001881Y008267
X-001652
X-001414Y010059
X-002503Y010037
X-003645Y009881
X-003972Y009955
X-005878Y009407
X-006944Y008888
X-007965Y008248
X-007778Y007644
X-011169Y004237
X-011391Y003957
X-011454Y003503
X-011215Y003152
X-011274Y002931
X-01103Y003747
X-008471Y00035
X-008335Y-001552
X-008176Y-002244
X-006938Y-004516
X-006938Y-004873
X-007007Y-005091
X-006784Y-005042
X-006008Y-000526
X-005766
X-005441Y-00042
X-004654Y-000526
X-0043Y-00042
X-004409Y000086
X-003819
X-003428Y-000679
X-003201Y-000706
X-003061Y-000526
X-002726Y-000834
X-0025Y000086
X-001909
X-001319
X-001545Y-000834
X-000955
X-000364
X-005Y000086
X-00021Y-000191
X000267
X000728Y000086
X001319
X001545Y-000834
X000955
X000364
X002136
X002726
X003819
X004409
X004409Y000086
X003836
X005
X005591
X006603Y-000397
X006902Y-000108
X006911Y-001845
X007001Y-002055
Y-002539
X006911Y-00304
X006915Y-003544
X00674Y-0039
X008717Y-004442
X009418Y-003805
X009689Y-003623
X009331Y-002942
X010372Y-001829
X010699Y-000654
X010897Y000428
X01117Y00157
X011126Y002774
X010663Y003058
X010909Y004086
X01086Y004336
X011327Y004445
X010337Y006617
X007132Y006421
X007612Y005531
X007578Y004921
X0069
X006181Y005143
X005Y004639
X004409Y00516
X003819Y004639
X001909
X001319Y005666
X-000214Y005181
X00007Y004446
X-000049Y003898
X000018Y00368
X000014Y003425
Y002318
X-000177Y001269
X000014Y000645
X0025Y000086
X007136Y001508
X006732Y002125
X00814Y001876
X0087Y001612
X009221Y001876
X00906Y003164
X008238Y002677
X007843Y00277
X007731Y00348
X008083Y003599
X008199Y004223
X008442Y000783
X006546Y007271
X006207Y007803
X004817Y009155
X004493Y00911
X003945Y009765
X002909Y010316
X001793Y008267
X001565Y008269
X001336Y008267
X001269Y007713
X001497
X006634Y010333
X004297Y010828
X001847Y010748
X000774Y011065
X-0004Y01146
X-000787Y011252
T02
X-006628Y-011706
X-006278
X-005878
X-005528
Y-011356
Y-011006
Y-010656
Y-010306
X-005878
X-006278
X-006628
Y-010656
Y-011006
Y-011356
T03
X0021Y-012586
Y-01218
X00269Y-01217
Y-01251
X010805Y-00827
X011181
X011548
X01131Y-007638
X-00331Y-007016
X-004557
X-003895Y-005767
X-00366Y-012158
X-00407Y-012815
X-002354Y-012338
X-001962
X-00157
X-001178
Y-011932
X-00157
X-001962
X-002354
X-001288Y-013505
X-000902
Y-013897
X-001288
X-002361Y-017062
X-002932Y-01691
X-003267
X-003601
X-00327Y-016532
X-00864Y-01667
Y-01703
X-00956
Y-01662
X-01046Y-01664
Y-01703
X-01125Y-0164
X-01026Y-015265
X-00995Y-01527
X-01081Y-01346
X-011269Y-01378
X-009117Y-01283
X-00763Y-012414
X-00676
X-009888Y-010406
X-009927Y-009912
X-00957Y-009543
X-0096Y-008775
X-00959Y-008449
X-011391Y-007473
Y-006317
X-011361Y-010169
X-01079Y-01018
X-004149Y-00399
X-004756Y-002367
X-00402Y-001379
X-007604Y00004
X-008175Y00091
X-008147Y002069
X-007249Y00283
X-00489Y005216
X-004723Y005839
X-004861Y006664
X-003754Y00753
X-003101Y006288
X-00304Y005717
X-001396Y005482
X-001022Y007123
X-00056Y006805
X002469Y00734
X003424Y00769
X004618Y006976
X004986Y005969
X007678Y000558
X008401Y00048
X008371Y-000766
X00723Y-000801
X008055Y-002317
X00792Y-002868
T05
X002927Y-007873
T06
X-006906Y-017054
X-005906
Y-016054
Y-015054
Y-014054
X-006906
Y-015054
Y-016054
T07
X003051Y-017142
X004051
Y-016142
Y-015142
X003051
Y-016142
X0Y-006488
T08
X0Y-015945
X-010039Y010039
X010039
M30
